<?xml version="1.0" encoding="utf-8"?>
<!-- Generator: Adobe Illustrator 16.0.0, SVG Export Plug-In . SVG Version: 6.00 Build 0)  -->
<!DOCTYPE svg PUBLIC "-//W3C//DTD SVG 1.1//EN" "http://www.w3.org/Graphics/SVG/1.1/DTD/svg11.dtd">
<svg version="1.1" id="Layer_1" xmlns="http://www.w3.org/2000/svg" xmlns:xlink="http://www.w3.org/1999/xlink" x="0px" y="0px"
	 width="300px" height="200px" viewBox="0 0 300 200" enable-background="new 0 0 300 200" xml:space="preserve">
<g>
	<defs>
		<rect id="SVGID_1_" x="23.345" y="-0.081" width="252.887" height="200"/>
	</defs>
	<clipPath id="SVGID_2_">
		<use xlink:href="#SVGID_1_"  overflow="visible"/>
	</clipPath>
	<path clip-path="url(#SVGID_2_)" fill="#39B54A" d="M149.789-0.083c-7.472,0-19.764,0.319-26.893,1.18
		c-9.864,1.188-13.782,6.294-14.854,15.604c-0.821,7.133-1.384,17.425-1.384,27.034c0,9.615,0.189,19.99,1.384,27.065
		c1.561,9.242,5.914,14.137,14.854,15.578c7.085,1.138,20.147,1.181,26.893,1.181s19.806-0.042,26.893-1.181
		c8.944-1.441,13.193-6.283,14.856-15.578c1.263-7.064,1.381-17.885,1.381-27.065c0-9.174-0.812-21.355-1.381-27.034
		c-0.97-9.618-5.119-14.309-14.856-15.604C169.559,0.154,157.258-0.083,149.789-0.083"/>
	<path clip-path="url(#SVGID_2_)" fill="#FFFFFF" d="M120.433,12.586c17.16,1.195,30.769,2.974,47.077,7.652l-0.026,57.806
		c-12.003-5.961-23.788-9.69-38.967-11.942l0.263-45.078c10.088,0.815,18.649,1.966,30.109,5.383l0.177,39.171
		c-7.946-2.71-13.188-4.052-21.438-5.177l-0.771-28.574l-3.198,0.015l-0.527,30.805l1.403,0.173
		c10.494,1.287,15.479,2.598,25.544,6.099l2.207,0.774l-0.209-45.259l-1.058-0.323c-12.923-3.964-22.431-5.131-33.686-5.993
		l-1.737-0.136l-0.301,50.473l1.354,0.193c16.547,2.341,28.679,6.301,41.614,13.009l2.428,1.259l0.025-64.68l-1.087-0.319
		c-17.642-5.166-32.208-6.993-50.673-8.216l-1.733-0.115l0.104,66.141l1.452,0.125c19.891,1.594,39.769,9.396,51.5,16.246
		l0.036-0.042v0.072h0.492v-3.037c-11.974-6.738-30.834-14.021-50.28-15.882L120.433,12.586z M182.307,11.237
		c-11.529-2.396-41.071-4.821-60.747-2.87c20.643,0.527,38.283,2.941,54.277,6.52l0.037,62.379c1.623-2.058,4.465-6.848,6.48-9.349
		L182.307,11.237z"/>
	<path clip-path="url(#SVGID_2_)" fill="#414042" d="M262.566,118.724c0.889-1.26,2.145-1.888,3.767-1.888
		c0.934,0,1.719,0.198,2.365,0.595c0.646,0.4,1.168,0.955,1.571,1.663c0.396,0.713,0.69,1.542,0.878,2.49
		c0.194,0.947,0.286,1.972,0.286,3.069c0,2.754-0.448,4.744-1.333,5.974c-0.889,1.227-2.145,1.836-3.768,1.836
		c-0.888,0-1.655-0.19-2.298-0.576c-0.646-0.39-1.175-0.926-1.587-1.619c-0.407-0.687-0.716-1.509-0.914-2.468
		c-0.202-0.958-0.301-2.009-0.301-3.146C261.233,121.958,261.682,119.982,262.566,118.724 M257.036,129.46
		c0.396,1.442,1.006,2.68,1.817,3.716c0.809,1.035,1.84,1.832,3.081,2.391c1.241,0.562,2.71,0.841,4.398,0.841
		c3.158,0,5.593-1.018,7.314-3.052c1.723-2.038,2.585-4.935,2.585-8.702c0-1.77-0.198-3.375-0.598-4.813
		c-0.4-1.443-1.01-2.681-1.836-3.717c-0.823-1.031-1.854-1.832-3.096-2.39c-1.249-0.563-2.702-0.838-4.37-0.838
		c-3.18,0-5.625,1.014-7.336,3.052c-1.707,2.034-2.563,4.938-2.563,8.706C256.435,126.416,256.633,128.021,257.036,129.46
		 M240.062,122.843v-5.978c0.268-0.04,0.643-0.077,1.131-0.096c0.488-0.021,1.024-0.033,1.601-0.033
		c0.511,0,1.003,0.041,1.466,0.129c0.47,0.084,0.885,0.231,1.248,0.448c0.371,0.213,0.664,0.499,0.885,0.862
		c0.224,0.364,0.334,0.819,0.334,1.373c0,0.83-0.309,1.506-0.918,2.017c-0.609,0.51-1.336,0.896-2.181,1.149
		c-0.269,0.04-0.609,0.073-1.018,0.095c-0.415,0.022-0.774,0.033-1.083,0.033H240.062z M242.202,132.548
		c-0.294-0.011-0.576-0.022-0.852-0.033c-0.272-0.008-0.529-0.025-0.768-0.048c-0.239-0.021-0.415-0.055-0.521-0.096v-6.172h2.387
		c0.569,0,1.135,0.033,1.7,0.096c0.565,0.062,1.083,0.209,1.534,0.433c0.463,0.225,0.834,0.536,1.116,0.944
		c0.287,0.403,0.427,0.958,0.427,1.659c0,0.559-0.118,1.035-0.36,1.443c-0.242,0.403-0.558,0.737-0.951,1.006
		c-0.393,0.268-0.841,0.463-1.354,0.591c-0.515,0.129-1.043,0.191-1.586,0.191C242.753,132.563,242.496,132.559,242.202,132.548
		 M250.56,115.833c-0.492-0.73-1.139-1.303-1.954-1.714c-0.808-0.404-1.732-0.69-2.761-0.853c-1.035-0.161-2.093-0.246-3.188-0.246
		c-0.639,0-1.292,0.012-1.946,0.037c-0.657,0.021-1.3,0.052-1.916,0.096c-0.624,0.04-1.208,0.095-1.748,0.161
		c-0.547,0.066-1.032,0.129-1.454,0.191v22.288c0.58,0.124,1.219,0.224,1.917,0.29c0.701,0.065,1.388,0.109,2.063,0.143
		c0.679,0.037,1.314,0.052,1.901,0.052h1.451c1.156,0,2.28-0.129,3.367-0.39c1.087-0.257,2.056-0.657,2.915-1.193
		c0.852-0.539,1.538-1.233,2.049-2.085c0.514-0.849,0.768-1.854,0.768-3.019c0-0.885-0.129-1.645-0.386-2.295
		c-0.25-0.646-0.599-1.193-1.039-1.645c-0.444-0.452-0.962-0.809-1.561-1.069c-0.595-0.253-1.227-0.44-1.891-0.547v-0.194
		c0.752-0.173,1.395-0.434,1.92-0.793c0.529-0.353,0.962-0.764,1.293-1.223c0.33-0.463,0.568-0.977,0.716-1.535
		c0.143-0.562,0.217-1.12,0.217-1.682C251.294,117.493,251.048,116.564,250.56,115.833 M231.348,113.344H213.15v3.943h6.837v18.668
		h4.564v-18.668h6.796V113.344z M209.339,131.432c-0.507,0.305-1.108,0.547-1.799,0.745c-0.687,0.194-1.527,0.286-2.53,0.286
		c-1.068,0-2.008-0.187-2.816-0.562c-0.812-0.382-1.49-0.907-2.034-1.586c-0.543-0.684-0.951-1.502-1.219-2.46
		c-0.265-0.963-0.396-2.023-0.396-3.188c0-2.677,0.558-4.652,1.682-5.923c1.124-1.274,2.604-1.909,4.45-1.909
		c0.999,0,1.851,0.052,2.548,0.161c0.698,0.106,1.308,0.275,1.818,0.515l0.899-3.745c-0.603-0.235-1.362-0.441-2.284-0.613
		c-0.922-0.173-2.049-0.258-3.378-0.258c-1.248,0-2.489,0.198-3.738,0.596c-1.241,0.399-2.372,1.054-3.382,1.972
		c-1.01,0.914-1.832,2.118-2.467,3.616c-0.632,1.498-0.947,3.353-0.947,5.574c0,2.13,0.282,3.943,0.848,5.438
		c0.565,1.498,1.329,2.718,2.284,3.654c0.954,0.936,2.063,1.611,3.319,2.034c1.256,0.414,2.581,0.628,3.98,0.628
		c1.152,0,2.283-0.107,3.385-0.32c1.095-0.216,2.002-0.565,2.71-1.057L209.339,131.432z M179.45,132.287
		c-0.411-0.033-0.738-0.077-0.984-0.147v-6.748c0.089-0.019,0.228-0.048,0.419-0.077c0.191-0.033,0.396-0.063,0.617-0.085
		c0.22-0.019,0.444-0.04,0.668-0.063c0.221-0.021,0.407-0.033,0.565-0.033c0.599,0,1.175,0.045,1.733,0.129
		c0.551,0.088,1.039,0.257,1.446,0.518c0.411,0.257,0.745,0.621,1.003,1.083c0.253,0.463,0.385,1.058,0.385,1.792
		c0,0.69-0.117,1.271-0.353,1.744c-0.234,0.474-0.558,0.855-0.983,1.146c-0.423,0.29-0.911,0.496-1.469,0.613
		c-0.551,0.118-1.143,0.18-1.763,0.18C180.287,132.338,179.861,132.323,179.45,132.287 M173.905,135.728
		c0.529,0.129,1.109,0.228,1.748,0.29c0.632,0.066,1.256,0.121,1.88,0.161c0.625,0.045,1.197,0.074,1.719,0.085
		c0.521,0.007,0.94,0.015,1.248,0.015c3.092,0,5.464-0.657,7.116-1.972c1.652-1.311,2.482-3.265,2.482-5.846
		c0-1.439-0.235-2.633-0.697-3.569c-0.471-0.937-1.095-1.682-1.888-2.229c-0.786-0.551-1.689-0.929-2.714-1.146
		s-2.078-0.327-3.165-0.327c-0.268,0-0.555,0.015-0.862,0.037c-0.316,0.021-0.617,0.044-0.918,0.063
		c-0.302,0.021-0.58,0.048-0.838,0.084c-0.257,0.029-0.44,0.059-0.551,0.077v-8.107h-4.561V135.728z M163.459,135.955h4.564v-22.611
		h-13.762c-0.044,2.629-0.123,4.928-0.233,6.896c-0.112,1.972-0.263,3.669-0.45,5.09c-0.188,1.421-0.407,2.588-0.651,3.503
		c-0.244,0.914-0.534,1.611-0.865,2.085c-0.244,0.408-0.541,0.698-0.883,0.87c-0.345,0.173-0.696,0.261-1.048,0.261
		c-0.136,0-0.268-0.011-0.404-0.032c-0.13-0.026-0.266-0.056-0.398-0.1l-0.499,3.812c0.33,0.15,0.673,0.265,1.015,0.338
		c0.345,0.077,0.771,0.113,1.281,0.113c0.358,0,0.742-0.036,1.151-0.113c0.413-0.073,0.828-0.209,1.253-0.4
		c0.42-0.194,0.826-0.455,1.213-0.774c0.394-0.323,0.742-0.734,1.051-1.23c0.488-0.753,0.892-1.645,1.2-2.681
		c0.309-1.035,0.562-2.221,0.749-3.568c0.191-1.345,0.338-2.857,0.452-4.539c0.109-1.682,0.209-3.539,0.297-5.585h4.968V135.955z
		 M131.988,135.955h13.996v-3.939h-9.431v-5.526h8.43v-3.94h-8.43v-5.262h9.264v-3.943h-13.828V135.955z M127.743,113.344h-18.199
		v3.943h6.833v18.668h4.568v-18.668h6.798V113.344z M98.934,122.388l0.699-3.584h0.169l0.7,3.555l1.733,5.038h-5.001L98.934,122.388
		z M105.101,135.955h4.797l-8.396-22.772h-3.369l-8.396,22.772h4.564l1.766-5.005h7.167L105.101,135.955z M72.126,132.016
		c0.51-1.099,1.019-2.872,1.518-5.313c0.501-2.445,0.817-5.585,0.947-9.415h5.167v14.729H72.126z M87.292,132.016h-2.967v-18.672
		H70.361c0.019,3.081-0.09,5.746-0.334,7.994c-0.244,2.254-0.545,4.127-0.899,5.621c-0.356,1.498-0.714,2.655-1.067,3.47
		c-0.358,0.823-0.613,1.348-0.768,1.587h-2.465v7.975h3.233l0.5-4.035h15l0.5,4.035h3.233V132.016z M50.324,125.942h0.7
		c0.136,0,0.336,0.011,0.605,0.032c2.009,0.041,3.404,0.323,4.186,0.838c0.777,0.521,1.167,1.285,1.167,2.295
		c0,0.602-0.119,1.119-0.367,1.549c-0.244,0.434-0.569,0.782-0.967,1.051c-0.402,0.268-0.854,0.466-1.357,0.58
		c-0.499,0.121-0.997,0.176-1.485,0.176c-1.316,0-2.451-0.121-3.41-0.367c-0.96-0.246-1.696-0.492-2.208-0.73l-1.169,3.845
		c0.645,0.323,1.568,0.605,2.769,0.841c1.199,0.238,2.53,0.356,3.997,0.356c1.135,0,2.244-0.137,3.334-0.404
		c1.087-0.271,2.051-0.683,2.881-1.245c0.835-0.558,1.507-1.273,2.02-2.147c0.51-0.87,0.768-1.921,0.768-3.15
		c0-1.55-0.406-2.787-1.219-3.709c-0.812-0.929-1.94-1.531-3.384-1.811v-0.161c1.357-0.434,2.339-1.12,2.952-2.067
		c0.608-0.947,0.917-1.982,0.917-3.103c0-1.116-0.226-2.038-0.668-2.762c-0.444-0.72-1.03-1.296-1.764-1.729
		c-0.733-0.427-1.568-0.728-2.501-0.9c-0.933-0.176-1.891-0.261-2.868-0.261c-0.71,0-1.41,0.044-2.098,0.129
		c-0.688,0.084-1.328,0.198-1.917,0.342c-0.587,0.14-1.11,0.286-1.564,0.437c-0.456,0.15-0.81,0.29-1.05,0.415l1.166,3.749
		c0.444-0.235,1.098-0.484,1.966-0.742c0.865-0.261,1.797-0.389,2.798-0.389c1.112,0,2.007,0.188,2.684,0.565
		s1.015,1.083,1.015,2.115c0,0.752-0.277,1.351-0.832,1.795c-0.556,0.438-1.221,0.745-2,0.922c-0.18,0.04-0.413,0.077-0.699,0.11
		c-0.29,0.029-0.586,0.055-0.883,0.065c-0.301,0.012-0.595,0.015-0.885,0.015H50.22h-0.801v3.456H50.324z M36.944,135.955h4.564
		v-22.611h-3.4l-8.697,12.209l-1.634,3.132h-0.2l0.334-3.032v-12.309h-4.568v22.611h3.434l8.7-12.437l1.568-3.036h0.166l-0.267,2.94
		V135.955z"/>
	<path clip-path="url(#SVGID_2_)" fill="#414042" d="M207.599,188.881c0.44,0,0.822,0.085,1.139,0.265
		c0.312,0.18,0.565,0.415,0.756,0.712c0.191,0.302,0.334,0.65,0.426,1.051c0.089,0.4,0.133,0.826,0.133,1.273
		c0,2.211-0.819,3.313-2.453,3.302c-0.444,0-0.822-0.096-1.139-0.275c-0.315-0.184-0.565-0.423-0.756-0.724
		c-0.191-0.298-0.338-0.65-0.426-1.047c-0.089-0.403-0.136-0.818-0.136-1.256C205.143,189.968,205.961,188.87,207.599,188.881
		 M203.879,194.029c0.154,0.555,0.4,1.031,0.724,1.428c0.323,0.394,0.734,0.698,1.233,0.911c0.5,0.213,1.087,0.319,1.763,0.319
		c1.274,0,2.255-0.39,2.93-1.164c0.684-0.774,1.024-1.888,1.024-3.342c0-0.675-0.076-1.292-0.238-1.851
		c-0.154-0.554-0.393-1.027-0.72-1.428c-0.323-0.396-0.738-0.698-1.237-0.911c-0.503-0.209-1.087-0.319-1.759-0.319
		c-1.277,0-2.255,0.39-2.934,1.164c-0.68,0.771-1.024,1.888-1.024,3.345C203.641,192.857,203.721,193.471,203.879,194.029
		 M203.046,187.879h-5.27v8.6h1.443v-7.396h3.826V187.879z M191.545,188.881c0.448,0,0.823,0.085,1.139,0.265
		s0.565,0.415,0.757,0.712c0.198,0.302,0.337,0.65,0.426,1.051c0.088,0.4,0.136,0.826,0.136,1.273c0,2.211-0.819,3.313-2.457,3.302
		c-0.44,0-0.822-0.096-1.134-0.275c-0.316-0.184-0.569-0.423-0.761-0.724c-0.19-0.298-0.334-0.65-0.426-1.047
		c-0.088-0.403-0.132-0.818-0.132-1.256C189.093,189.968,189.911,188.87,191.545,188.881 M187.829,194.029
		c0.154,0.555,0.396,1.031,0.72,1.428c0.323,0.394,0.738,0.698,1.237,0.911c0.5,0.213,1.087,0.319,1.759,0.319
		c1.278,0,2.255-0.39,2.935-1.164c0.679-0.774,1.024-1.888,1.024-3.342c0-0.675-0.081-1.292-0.239-1.851
		c-0.154-0.554-0.393-1.027-0.723-1.428c-0.323-0.396-0.734-0.698-1.234-0.911c-0.499-0.209-1.087-0.319-1.763-0.319
		c-1.273,0-2.25,0.39-2.93,1.164c-0.683,0.771-1.024,1.888-1.024,3.345C187.591,192.857,187.668,193.471,187.829,194.029
		 M184.954,196.479h1.788l-3.011-3.885l-0.939-0.69l0.756-0.563l2.798-3.462h-1.571l-2.886,3.649l-0.778,0.239v-3.889h-1.447v8.6
		h1.447v-3.867h0.829L184.954,196.479z M175.44,196.479h1.447v-8.6h-0.853l-4.061,5.195l-0.705,1.065h-0.073l0.059-1.014v-5.247
		h-1.447v8.6h0.83l4.062-5.057l0.741-1.098h0.056l-0.056,1.064V196.479z M165.585,196.479h1.439v-8.6h-5.375
		c-0.041,1.55-0.104,2.805-0.202,3.771c-0.1,0.962-0.217,1.711-0.36,2.259c-0.143,0.543-0.312,0.914-0.503,1.108
		c-0.198,0.194-0.411,0.294-0.653,0.294c-0.169,0-0.323-0.022-0.47-0.069l-0.217,1.152c0.132,0.056,0.282,0.096,0.451,0.121
		c0.169,0.022,0.367,0.033,0.596,0.033c0.374,0,0.697-0.117,0.969-0.349c0.271-0.238,0.5-0.551,0.684-0.94
		c0.19-0.389,0.345-0.841,0.462-1.351c0.121-0.507,0.213-1.043,0.287-1.598c0.073-0.558,0.128-1.112,0.165-1.671
		c0.033-0.554,0.069-1.075,0.11-1.557h2.617V196.479z M156.916,189.402c0.349,0.349,0.525,0.959,0.525,1.832h-4.479
		c0.082-0.862,0.341-1.465,0.767-1.824c0.428-0.353,0.995-0.529,1.708-0.529C156.075,188.881,156.567,189.054,156.916,189.402
		 M157.999,194.797c-0.205,0.184-0.51,0.341-0.921,0.48c-0.408,0.136-0.819,0.206-1.23,0.206c-0.525,0-0.977-0.07-1.34-0.213
		c-0.369-0.147-0.667-0.353-0.896-0.621c-0.229-0.271-0.398-0.599-0.503-0.991c-0.11-0.39-0.165-0.837-0.165-1.34h5.798
		c0.073-0.459,0.11-0.878,0.11-1.256c0-0.724-0.106-1.304-0.309-1.744c-0.206-0.44-0.471-0.782-0.793-1.024
		c-0.331-0.239-0.694-0.4-1.102-0.488c-0.412-0.089-0.823-0.133-1.234-0.133c-1.272,0-2.254,0.39-2.94,1.157
		c-0.686,0.764-1.026,1.883-1.026,3.352c0,0.688,0.078,1.304,0.232,1.858c0.158,0.547,0.398,1.021,0.722,1.417
		c0.327,0.394,0.74,0.698,1.249,0.911c0.503,0.213,1.102,0.319,1.786,0.319c0.609,0,1.197-0.081,1.74-0.242
		c0.551-0.162,1.006-0.378,1.366-0.653L157.999,194.797z M143.049,189.736v-4.09c0.171-0.033,0.418-0.059,0.749-0.077
		c0.331-0.015,0.696-0.026,1.094-0.026c0.334,0,0.665,0.033,0.993,0.092c0.323,0.066,0.611,0.169,0.865,0.32
		c0.251,0.15,0.454,0.345,0.604,0.595c0.151,0.246,0.226,0.558,0.226,0.936c0,0.275-0.057,0.529-0.169,0.768
		c-0.116,0.231-0.273,0.441-0.47,0.617c-0.2,0.18-0.424,0.334-0.677,0.467c-0.255,0.132-0.525,0.242-0.815,0.334
		c-0.191,0.021-0.433,0.04-0.721,0.051c-0.287,0.012-0.534,0.015-0.738,0.015H143.049z M144.476,195.369
		c-0.193-0.004-0.38-0.015-0.562-0.025c-0.18-0.011-0.349-0.022-0.503-0.033c-0.158-0.011-0.279-0.029-0.362-0.052v-4.317h1.572
		c0.395,0,0.795,0.029,1.193,0.088c0.395,0.059,0.75,0.165,1.07,0.326c0.319,0.162,0.58,0.383,0.778,0.669
		c0.2,0.29,0.297,0.664,0.297,1.135c0,0.382-0.083,0.708-0.244,0.98c-0.162,0.275-0.384,0.51-0.657,0.697
		c-0.279,0.19-0.599,0.327-0.96,0.411c-0.359,0.088-0.732,0.129-1.116,0.129C144.836,195.377,144.667,195.377,144.476,195.369
		 M148.781,185.734c-0.257-0.382-0.587-0.676-0.982-0.889c-0.398-0.209-0.843-0.353-1.327-0.43c-0.488-0.073-0.966-0.11-1.436-0.11
		c-0.699,0-1.342,0.022-1.933,0.066c-0.591,0.048-1.105,0.106-1.553,0.173v11.849c0.229,0.056,0.492,0.1,0.797,0.129
		c0.301,0.029,0.602,0.051,0.903,0.069c0.301,0.015,0.585,0.026,0.865,0.026h0.722c0.591,0,1.169-0.07,1.733-0.206
		c0.569-0.14,1.068-0.349,1.509-0.639c0.438-0.287,0.793-0.654,1.066-1.105c0.272-0.455,0.406-0.991,0.406-1.608
		c0-0.47-0.079-0.878-0.237-1.223c-0.158-0.342-0.36-0.635-0.611-0.878c-0.253-0.238-0.545-0.43-0.877-0.568
		c-0.331-0.136-0.676-0.231-1.038-0.29v-0.07c0.41-0.099,0.764-0.25,1.065-0.448c0.299-0.194,0.549-0.418,0.74-0.679
		c0.193-0.257,0.338-0.532,0.434-0.83c0.097-0.301,0.147-0.591,0.147-0.881C149.172,186.598,149.04,186.109,148.781,185.734
		 M128.895,195.027c-0.301-0.26-0.452-0.591-0.452-0.987c0-0.29,0.083-0.528,0.244-0.716c0.162-0.191,0.38-0.338,0.65-0.448
		c0.271-0.106,0.584-0.184,0.937-0.224c0.358-0.037,0.721-0.059,1.094-0.059c0.169,0,0.34,0.003,0.516,0.011
		c0.172,0.004,0.345,0.015,0.514,0.025v1.425c-0.059,0.15-0.154,0.305-0.281,0.467c-0.125,0.157-0.287,0.305-0.478,0.437
		c-0.193,0.129-0.422,0.238-0.685,0.327c-0.266,0.084-0.567,0.128-0.907,0.128C129.581,195.413,129.194,195.285,128.895,195.027
		 M127.938,189.564c0.167-0.092,0.362-0.177,0.587-0.254c0.222-0.077,0.455-0.14,0.703-0.194c0.244-0.055,0.488-0.096,0.722-0.121
		c0.233-0.033,0.455-0.048,0.659-0.048c0.697,0,1.18,0.125,1.443,0.378c0.266,0.254,0.398,0.694,0.398,1.326
		c0,0.275-0.019,0.583-0.053,0.929c-0.169-0.022-0.334-0.037-0.496-0.037h-0.496c-0.666,0-1.267,0.044-1.815,0.133
		c-0.549,0.084-1.019,0.228-1.41,0.426c-0.391,0.202-0.692,0.47-0.911,0.812c-0.218,0.338-0.327,0.756-0.327,1.263
		c0,0.378,0.072,0.716,0.209,1.014c0.136,0.297,0.329,0.555,0.569,0.768c0.241,0.209,0.525,0.371,0.857,0.488
		c0.331,0.113,0.687,0.173,1.074,0.173c0.383,0,0.727-0.041,1.026-0.122c0.301-0.08,0.569-0.18,0.799-0.297
		c0.229-0.121,0.424-0.261,0.585-0.415c0.162-0.154,0.298-0.313,0.406-0.474h0.09l0.38,1.204h1.065
		c-0.098-0.319-0.162-0.672-0.2-1.05c-0.033-0.378-0.051-0.778-0.051-1.204c0-0.584,0.018-1.201,0.051-1.858
		c0.039-0.653,0.057-1.322,0.057-2.012c0-0.305-0.033-0.617-0.101-0.926c-0.064-0.309-0.2-0.595-0.395-0.852
		c-0.2-0.261-0.49-0.47-0.868-0.628c-0.38-0.162-0.881-0.239-1.509-0.239c-0.661,0-1.296,0.06-1.906,0.188
		c-0.606,0.129-1.14,0.319-1.593,0.588L127.938,189.564z M122.603,189.102c0.294,0.15,0.534,0.359,0.724,0.628
		c0.184,0.271,0.319,0.599,0.406,0.983c0.083,0.383,0.123,0.809,0.123,1.278c0,1.146-0.241,2.016-0.729,2.604
		c-0.488,0.591-1.147,0.889-1.978,0.889c-0.459,0-0.824-0.044-1.102-0.133c-0.279-0.08-0.523-0.205-0.742-0.367v-4.263
		c0.147-0.62,0.395-1.079,0.753-1.384c0.353-0.306,0.839-0.456,1.45-0.456C121.942,188.881,122.307,188.951,122.603,189.102
		 M117.862,199.919h1.443v-3.58c0.301,0.128,0.584,0.22,0.843,0.268c0.255,0.052,0.61,0.081,1.052,0.081
		c0.628,0,1.197-0.11,1.707-0.327c0.513-0.22,0.948-0.528,1.309-0.929c0.362-0.404,0.643-0.893,0.843-1.473
		c0.198-0.576,0.296-1.229,0.296-1.949c0-1.539-0.296-2.644-0.883-3.319c-0.589-0.68-1.489-1.018-2.691-1.018
		c-0.563,0-1.068,0.11-1.507,0.319c-0.44,0.213-0.799,0.519-1.076,0.922h-0.072l-0.272-1.035h-0.991V199.919z M116.438,187.879
		h-7.114v1.204h2.835v7.396h1.443v-7.396h2.836V187.879z M106.469,189.402c0.351,0.349,0.523,0.959,0.523,1.832h-4.478
		c0.086-0.862,0.341-1.465,0.767-1.824c0.428-0.353,0.995-0.529,1.706-0.529C105.628,188.881,106.12,189.054,106.469,189.402
		 M107.552,194.797c-0.202,0.184-0.51,0.341-0.921,0.48c-0.41,0.136-0.815,0.206-1.225,0.206c-0.531,0-0.979-0.07-1.346-0.213
		c-0.369-0.147-0.667-0.353-0.896-0.621c-0.229-0.271-0.395-0.599-0.503-0.991c-0.11-0.39-0.162-0.837-0.162-1.34h5.794
		c0.072-0.459,0.108-0.878,0.108-1.256c0-0.724-0.101-1.304-0.309-1.744c-0.202-0.44-0.47-0.782-0.793-1.024
		c-0.323-0.239-0.692-0.4-1.102-0.488c-0.409-0.089-0.821-0.133-1.23-0.133c-1.274,0-2.256,0.39-2.939,1.157
		c-0.688,0.764-1.03,1.883-1.03,3.352c0,0.688,0.079,1.304,0.231,1.858c0.16,0.547,0.4,1.021,0.727,1.417
		c0.323,0.394,0.736,0.698,1.245,0.911c0.503,0.213,1.102,0.319,1.784,0.319c0.617,0,1.197-0.081,1.746-0.242
		c0.545-0.162,0.999-0.378,1.36-0.653L107.552,194.797z M97.082,196.479h1.5v-12.033h-8.833v12.033h1.5v-10.763h5.833V196.479z"/>
	<path clip-path="url(#SVGID_2_)" fill="#414042" d="M270.964,176.269c-0.302-0.257-0.452-0.592-0.452-0.988
		c0-0.29,0.081-0.524,0.242-0.716c0.162-0.19,0.379-0.338,0.654-0.444c0.271-0.11,0.58-0.188,0.937-0.228
		c0.355-0.037,0.716-0.059,1.09-0.059c0.173,0,0.342,0.004,0.518,0.011c0.173,0.004,0.346,0.015,0.511,0.026v1.424
		c-0.059,0.151-0.146,0.305-0.279,0.467c-0.125,0.158-0.286,0.305-0.477,0.437c-0.191,0.133-0.419,0.239-0.688,0.327
		c-0.261,0.084-0.562,0.129-0.899,0.129C271.65,176.654,271.265,176.525,270.964,176.269 M270.005,170.805
		c0.169-0.092,0.364-0.177,0.588-0.254c0.224-0.076,0.455-0.139,0.705-0.19c0.242-0.059,0.484-0.096,0.72-0.125
		s0.455-0.048,0.661-0.048c0.697,0,1.182,0.125,1.442,0.379c0.269,0.253,0.4,0.693,0.4,1.325c0,0.275-0.021,0.584-0.059,0.929
		c-0.165-0.021-0.33-0.036-0.496-0.036h-0.495c-0.661,0-1.267,0.044-1.814,0.132c-0.547,0.084-1.017,0.228-1.409,0.43
		c-0.39,0.198-0.694,0.47-0.911,0.808s-0.323,0.76-0.323,1.263c0,0.379,0.07,0.717,0.206,1.014c0.14,0.298,0.33,0.555,0.572,0.768
		c0.239,0.213,0.525,0.375,0.855,0.488c0.331,0.114,0.688,0.173,1.076,0.173c0.382,0,0.728-0.041,1.028-0.117
		c0.301-0.085,0.565-0.184,0.793-0.302c0.228-0.121,0.422-0.261,0.588-0.415c0.161-0.154,0.297-0.312,0.407-0.474h0.092l0.378,1.205
		h1.062c-0.096-0.32-0.161-0.673-0.198-1.051c-0.037-0.374-0.052-0.778-0.052-1.204c0-0.58,0.015-1.201,0.052-1.858
		c0.037-0.653,0.052-1.321,0.052-2.008c0-0.309-0.03-0.621-0.096-0.93c-0.066-0.308-0.198-0.595-0.396-0.852
		s-0.485-0.47-0.867-0.628c-0.382-0.161-0.881-0.238-1.505-0.238c-0.665,0-1.3,0.063-1.909,0.188
		c-0.603,0.128-1.139,0.319-1.598,0.587L270.005,170.805z M268.272,169.123h-7.116v1.2h2.835v7.399h1.446v-7.399h2.835V169.123z
		 M258.307,170.643c0.346,0.353,0.521,0.959,0.521,1.833h-4.476c0.084-0.859,0.338-1.466,0.768-1.825
		c0.426-0.353,0.994-0.528,1.703-0.528C257.466,170.122,257.958,170.294,258.307,170.643 M259.39,176.037
		c-0.205,0.184-0.51,0.342-0.921,0.48c-0.411,0.137-0.819,0.206-1.227,0.206c-0.532,0-0.98-0.069-1.344-0.213
		c-0.367-0.146-0.669-0.349-0.896-0.62c-0.228-0.272-0.396-0.599-0.507-0.988c-0.106-0.393-0.161-0.841-0.161-1.344h5.798
		c0.069-0.459,0.106-0.878,0.106-1.256c0-0.724-0.103-1.3-0.309-1.744c-0.205-0.44-0.47-0.782-0.793-1.024
		c-0.323-0.238-0.694-0.4-1.102-0.488c-0.407-0.085-0.819-0.132-1.227-0.132c-1.277,0-2.258,0.389-2.944,1.156
		c-0.684,0.768-1.028,1.884-1.028,3.353c0,0.687,0.073,1.304,0.234,1.857c0.154,0.548,0.397,1.021,0.72,1.418
		c0.331,0.396,0.742,0.697,1.249,0.91s1.102,0.319,1.784,0.319c0.617,0,1.197-0.08,1.744-0.242c0.547-0.161,1.003-0.378,1.362-0.653
		L259.39,176.037z M252.204,169.123h-7.112v1.2h2.831v7.399h1.446v-7.399h2.835V169.123z M242.217,177.723h1.446v-8.6h-0.844
		l-4.068,5.191l-0.702,1.069h-0.069l0.052-1.018v-5.243h-1.447v8.6h0.834l4.057-5.061l0.742-1.098h0.055l-0.055,1.065V177.723z
		 M234.132,176.104c-0.221,0.161-0.5,0.305-0.838,0.43c-0.345,0.128-0.734,0.19-1.167,0.19c-0.507,0-0.933-0.092-1.274-0.275
		s-0.621-0.426-0.834-0.73c-0.205-0.305-0.359-0.653-0.447-1.051c-0.092-0.393-0.136-0.808-0.136-1.244
		c0-2.203,0.855-3.301,2.563-3.301c0.386,0,0.749,0.04,1.083,0.128c0.338,0.085,0.646,0.202,0.922,0.353l0.415-1.189
		c-0.323-0.162-0.69-0.279-1.095-0.367c-0.399-0.085-0.892-0.132-1.469-0.132c-1.263,0-2.232,0.389-2.904,1.163
		c-0.679,0.775-1.01,1.888-1.01,3.346c0,0.676,0.066,1.289,0.206,1.847c0.14,0.555,0.359,1.032,0.668,1.429
		c0.305,0.396,0.697,0.697,1.183,0.91c0.478,0.213,1.072,0.319,1.77,0.319c0.54,0,1.058-0.069,1.55-0.198
		c0.495-0.132,0.925-0.326,1.285-0.576L234.132,176.104z M223.417,170.342c0.294,0.15,0.532,0.36,0.72,0.628
		c0.19,0.271,0.323,0.599,0.404,0.984c0.084,0.382,0.132,0.808,0.132,1.277c0,1.146-0.246,2.017-0.734,2.604
		c-0.492,0.591-1.146,0.889-1.979,0.889c-0.451,0-0.822-0.044-1.102-0.132c-0.275-0.081-0.521-0.206-0.738-0.367v-4.264
		c0.147-0.62,0.394-1.079,0.75-1.384c0.352-0.305,0.837-0.455,1.453-0.455C222.756,170.122,223.116,170.191,223.417,170.342
		 M218.673,181.159h1.446v-3.576c0.302,0.125,0.581,0.217,0.842,0.265c0.26,0.055,0.605,0.08,1.054,0.08
		c0.624,0,1.193-0.11,1.703-0.326c0.515-0.221,0.955-0.529,1.314-0.93c0.36-0.403,0.64-0.892,0.838-1.472
		c0.198-0.577,0.297-1.227,0.297-1.95c0-1.538-0.294-2.644-0.885-3.319c-0.588-0.68-1.487-1.017-2.691-1.017
		c-0.562,0-1.068,0.109-1.509,0.319c-0.434,0.213-0.794,0.521-1.072,0.921h-0.074l-0.271-1.031h-0.991V181.159z M214.465,170.643
		c0.353,0.353,0.529,0.959,0.529,1.833h-4.48c0.081-0.859,0.338-1.466,0.768-1.825c0.43-0.353,0.995-0.528,1.708-0.528
		C213.624,170.122,214.12,170.294,214.465,170.643 M215.552,176.037c-0.205,0.184-0.514,0.342-0.918,0.48
		c-0.411,0.137-0.822,0.206-1.233,0.206c-0.529,0-0.977-0.069-1.344-0.213c-0.367-0.146-0.669-0.349-0.889-0.62
		c-0.231-0.272-0.404-0.599-0.511-0.988c-0.106-0.393-0.161-0.841-0.161-1.344h5.794c0.077-0.459,0.106-0.878,0.106-1.256
		c0-0.724-0.1-1.3-0.301-1.744c-0.206-0.44-0.471-0.782-0.801-1.024c-0.323-0.238-0.69-0.4-1.102-0.488
		c-0.404-0.085-0.815-0.132-1.223-0.132c-1.274,0-2.259,0.389-2.945,1.156s-1.031,1.884-1.031,3.353c0,0.687,0.08,1.304,0.238,1.857
		c0.154,0.548,0.4,1.021,0.724,1.418s0.741,0.697,1.241,0.91c0.507,0.213,1.102,0.319,1.792,0.319c0.613,0,1.189-0.08,1.74-0.242
		c0.551-0.161,1.006-0.378,1.366-0.653L215.552,176.037z M201.937,172.751v-2.493c0.206-0.012,0.419-0.022,0.639-0.033
		c0.228-0.011,0.529-0.019,0.918-0.019c0.72,0,1.223,0.088,1.513,0.265c0.29,0.18,0.434,0.495,0.434,0.954
		c0,0.188-0.052,0.36-0.154,0.519c-0.103,0.161-0.234,0.301-0.396,0.418c-0.161,0.121-0.345,0.221-0.551,0.286
		c-0.205,0.07-0.415,0.104-0.632,0.104H201.937z M201.937,173.797h1.586c0.845,0,1.433,0.133,1.763,0.39
		c0.334,0.261,0.5,0.595,0.5,1.006c0,0.529-0.198,0.899-0.588,1.12c-0.39,0.217-0.991,0.327-1.799,0.327
		c-0.298,0-0.563-0.008-0.786-0.022c-0.221-0.011-0.444-0.025-0.676-0.048V173.797z M200.493,177.7
		c0.423,0.041,0.849,0.07,1.282,0.1c0.433,0.025,0.903,0.04,1.41,0.04c1.347,0,2.356-0.198,3.032-0.603
		c0.672-0.399,1.01-1.046,1.01-1.942c0-0.572-0.146-1.031-0.43-1.377c-0.293-0.341-0.793-0.576-1.502-0.701v-0.073
		c0.563-0.18,0.974-0.466,1.216-0.849c0.25-0.385,0.375-0.774,0.375-1.178c0-0.709-0.258-1.241-0.779-1.591
		c-0.521-0.349-1.373-0.524-2.563-0.524c-0.687,0-1.263,0.019-1.726,0.051c-0.463,0.033-0.903,0.066-1.326,0.089V177.7z
		 M196.268,177.723h1.446v-8.6h-0.848l-4.065,5.191l-0.705,1.069h-0.069l0.055-1.018v-5.243h-1.446v8.6h0.83l4.061-5.061
		l0.742-1.098h0.051l-0.051,1.065V177.723z M186.408,177.723h1.443v-8.6h-1.443v3.595h-4.079v-3.595h-1.443v8.6h1.443v-3.805h4.079
		V177.723z M172.958,169.123h-1.659l3.628,8.6c-0.206,0.826-0.463,1.402-0.775,1.744c-0.315,0.338-0.639,0.507-0.977,0.507
		c-0.143,0-0.294-0.029-0.451-0.089l-0.25,1.19c0.275,0.113,0.632,0.172,1.062,0.172c0.4,0,0.749-0.125,1.05-0.37
		c0.298-0.246,0.569-0.577,0.812-0.992c0.242-0.411,0.459-0.881,0.657-1.409c0.202-0.525,0.4-1.072,0.605-1.631l2.674-7.722h-1.443
		l-1.759,5.556l-0.4,1.667h-0.092l-0.507-1.652L172.958,169.123z M161.422,170.122c0.447,0,0.822,0.088,1.138,0.264
		c0.313,0.181,0.565,0.415,0.757,0.713c0.194,0.301,0.334,0.649,0.426,1.05c0.088,0.404,0.132,0.826,0.132,1.274
		c0,2.21-0.814,3.312-2.452,3.301c-0.444,0-0.823-0.092-1.139-0.275s-0.565-0.422-0.757-0.724c-0.19-0.297-0.337-0.646-0.426-1.046
		c-0.088-0.4-0.136-0.819-0.136-1.256C158.965,171.209,159.784,170.11,161.422,170.122 M157.702,175.27
		c0.157,0.555,0.4,1.032,0.723,1.429c0.323,0.396,0.734,0.697,1.234,0.91c0.499,0.213,1.087,0.319,1.763,0.319
		c1.277,0,2.254-0.389,2.938-1.164c0.675-0.774,1.017-1.887,1.017-3.341c0-0.676-0.077-1.293-0.238-1.851
		c-0.154-0.555-0.394-1.028-0.72-1.429c-0.323-0.393-0.738-0.697-1.237-0.91c-0.496-0.21-1.087-0.319-1.759-0.319
		c-1.278,0-2.255,0.389-2.935,1.163c-0.679,0.775-1.017,1.888-1.017,3.346C157.471,174.099,157.544,174.712,157.702,175.27
		 M156.868,169.123H151.6v8.6h1.444v-7.399h3.824V169.123z M145.37,170.122c0.446,0,0.822,0.088,1.138,0.264
		c0.312,0.181,0.563,0.415,0.756,0.713c0.195,0.301,0.334,0.649,0.424,1.05c0.09,0.404,0.136,0.826,0.136,1.274
		c0,2.21-0.817,3.312-2.455,3.301c-0.444,0-0.824-0.092-1.137-0.275c-0.315-0.184-0.567-0.422-0.76-0.724
		c-0.191-0.297-0.334-0.646-0.424-1.046s-0.136-0.819-0.136-1.256C142.914,171.209,143.734,170.11,145.37,170.122 M141.65,175.27
		c0.158,0.555,0.398,1.032,0.722,1.429c0.327,0.396,0.738,0.697,1.237,0.91s1.087,0.319,1.761,0.319
		c1.278,0,2.254-0.389,2.936-1.164c0.677-0.774,1.019-1.887,1.019-3.341c0-0.676-0.079-1.293-0.237-1.851
		c-0.154-0.555-0.395-1.028-0.722-1.429c-0.323-0.393-0.738-0.697-1.237-0.91c-0.496-0.21-1.083-0.319-1.759-0.319
		c-1.276,0-2.253,0.389-2.934,1.163c-0.681,0.775-1.019,1.888-1.019,3.346C141.417,174.099,141.493,174.712,141.65,175.27
		 M138.777,177.723h1.79l-3.015-3.889l-0.94-0.69l0.758-0.562l2.798-3.459h-1.572l-2.888,3.646l-0.775,0.238v-3.885h-1.447v8.6
		h1.447v-3.87h0.832L138.777,177.723z M131.033,176.104c-0.215,0.161-0.498,0.305-0.839,0.43c-0.343,0.128-0.729,0.19-1.166,0.19
		c-0.503,0-0.929-0.092-1.271-0.275c-0.343-0.184-0.621-0.426-0.832-0.73s-0.36-0.653-0.452-1.051
		c-0.09-0.393-0.134-0.808-0.134-1.244c0-2.203,0.854-3.301,2.563-3.301c0.383,0,0.745,0.04,1.083,0.128
		c0.34,0.085,0.643,0.202,0.921,0.353l0.413-1.189c-0.323-0.162-0.688-0.279-1.09-0.367c-0.406-0.085-0.894-0.132-1.474-0.132
		c-1.263,0-2.229,0.389-2.906,1.163c-0.672,0.775-1.012,1.888-1.012,3.346c0,0.676,0.072,1.289,0.211,1.847
		c0.136,0.555,0.362,1.032,0.667,1.429c0.309,0.396,0.703,0.697,1.184,0.91c0.481,0.213,1.07,0.319,1.767,0.319
		c0.542,0,1.061-0.069,1.553-0.198c0.498-0.132,0.922-0.326,1.284-0.576L131.033,176.104z M121.339,170.643
		c0.349,0.353,0.521,0.959,0.521,1.833h-4.478c0.083-0.859,0.339-1.466,0.767-1.825c0.43-0.353,0.997-0.528,1.708-0.528
		C120.497,170.122,120.989,170.294,121.339,170.643 M122.423,176.037c-0.208,0.184-0.512,0.342-0.922,0.48
		c-0.409,0.137-0.82,0.206-1.23,0.206c-0.53,0-0.977-0.069-1.342-0.213c-0.369-0.146-0.665-0.349-0.894-0.62
		c-0.229-0.272-0.398-0.599-0.509-0.988c-0.104-0.393-0.162-0.841-0.162-1.344h5.798c0.072-0.459,0.108-0.878,0.108-1.256
		c0-0.724-0.104-1.3-0.307-1.744c-0.208-0.44-0.47-0.782-0.795-1.024c-0.327-0.238-0.694-0.4-1.102-0.488
		c-0.409-0.085-0.819-0.132-1.228-0.132c-1.276,0-2.256,0.389-2.945,1.156c-0.685,0.768-1.026,1.884-1.026,3.353
		c0,0.687,0.075,1.304,0.233,1.857c0.158,0.548,0.398,1.021,0.722,1.418c0.327,0.396,0.742,0.697,1.249,0.91
		c0.505,0.213,1.098,0.319,1.786,0.319c0.613,0,1.195-0.08,1.741-0.242c0.549-0.161,1.004-0.378,1.366-0.653L122.423,176.037z
		 M107.021,169.123v2.61c0,0.577,0.057,1.051,0.169,1.429c0.118,0.382,0.287,0.683,0.516,0.91c0.229,0.231,0.51,0.394,0.85,0.481
		c0.334,0.096,0.729,0.14,1.173,0.14c0.661,0,1.185-0.066,1.559-0.206c0.38-0.136,0.666-0.265,0.861-0.378v3.613h1.445v-8.6h-1.445
		v3.818c-0.184,0.136-0.446,0.265-0.797,0.375c-0.349,0.117-0.793,0.176-1.334,0.176c-0.338,0-0.61-0.051-0.812-0.146
		c-0.208-0.1-0.362-0.235-0.47-0.415c-0.108-0.177-0.18-0.39-0.218-0.636c-0.033-0.245-0.053-0.521-0.053-0.833v-2.339H107.021z
		 M103.304,177.723h1.443v-8.6h-0.85l-4.061,5.191l-0.707,1.069h-0.071l0.053-1.018v-5.243h-1.443v8.6h0.83l4.064-5.061l0.742-1.098
		h0.051l-0.051,1.065V177.723z M93.444,177.723h1.443v-8.6h-1.443v3.595h-4.083v-3.595h-1.445v8.6h1.445v-3.805h4.083V177.723z
		 M77.734,177.723h1.606l1.952-2.614l0.56-1.036l0.542,1.036l1.913,2.614h1.715l-3.233-4.473l3.053-4.127h-1.625l-1.751,2.372
		l-0.523,0.98l-0.508-0.98l-1.715-2.372h-1.766l3.031,4.193L77.734,177.723z M74.81,170.643c0.349,0.353,0.521,0.959,0.521,1.833
		h-4.478c0.086-0.859,0.343-1.466,0.768-1.825c0.43-0.353,0.997-0.528,1.707-0.528C73.967,170.122,74.459,170.294,74.81,170.643
		 M75.893,176.037c-0.204,0.184-0.512,0.342-0.921,0.48c-0.41,0.137-0.821,0.206-1.227,0.206c-0.531,0-0.98-0.069-1.346-0.213
		c-0.369-0.146-0.665-0.349-0.894-0.62c-0.229-0.272-0.398-0.599-0.505-0.988c-0.108-0.393-0.166-0.841-0.166-1.344h5.798
		c0.072-0.459,0.108-0.878,0.108-1.256c0-0.724-0.101-1.3-0.307-1.744c-0.204-0.44-0.47-0.782-0.795-1.024
		c-0.327-0.238-0.69-0.4-1.102-0.488c-0.409-0.085-0.819-0.132-1.228-0.132c-1.276,0-2.256,0.389-2.941,1.156
		c-0.688,0.768-1.03,1.884-1.03,3.353c0,0.687,0.079,1.304,0.233,1.857c0.158,0.548,0.398,1.021,0.721,1.418
		c0.327,0.396,0.742,0.697,1.249,0.91c0.505,0.213,1.102,0.319,1.786,0.319c0.613,0,1.195-0.08,1.744-0.242
		c0.545-0.161,1.001-0.378,1.362-0.653L75.893,176.037z M68.708,169.123h-7.114v1.2h2.834v7.399h1.445v-7.399h2.835V169.123z
		 M58.72,177.723h1.445v-8.6h-0.846l-4.064,5.191l-0.704,1.069h-0.071l0.053-1.018v-5.243h-1.445v8.6h0.832l4.061-5.061l0.74-1.098
		h0.057l-0.057,1.065V177.723z M48.863,177.723h1.447v-8.6h-5.381c-0.037,1.55-0.104,2.805-0.198,3.768
		c-0.097,0.962-0.218,1.718-0.361,2.258c-0.147,0.547-0.316,0.914-0.507,1.109c-0.193,0.194-0.411,0.293-0.652,0.293
		c-0.165,0-0.323-0.021-0.466-0.065l-0.217,1.148c0.13,0.056,0.281,0.1,0.45,0.122c0.17,0.021,0.369,0.032,0.595,0.032
		c0.376,0,0.696-0.117,0.966-0.349c0.271-0.238,0.501-0.551,0.688-0.939c0.184-0.39,0.337-0.841,0.459-1.352
		c0.121-0.507,0.218-1.043,0.29-1.598c0.071-0.558,0.126-1.112,0.162-1.67c0.037-0.555,0.075-1.076,0.108-1.558h2.618V177.723z
		 M37.886,170.122c0.444,0,0.824,0.088,1.137,0.264c0.315,0.181,0.567,0.415,0.76,0.713c0.191,0.301,0.334,0.649,0.424,1.05
		c0.09,0.404,0.136,0.826,0.136,1.274c0,2.21-0.821,3.312-2.457,3.301c-0.446,0-0.826-0.092-1.138-0.275s-0.563-0.422-0.756-0.724
		c-0.195-0.297-0.334-0.646-0.424-1.046c-0.09-0.4-0.136-0.819-0.136-1.256C35.431,171.209,36.248,170.11,37.886,170.122
		 M34.168,175.27c0.154,0.555,0.395,1.032,0.722,1.429c0.323,0.396,0.738,0.697,1.237,0.91c0.496,0.213,1.083,0.319,1.759,0.319
		c1.276,0,2.253-0.389,2.934-1.164c0.681-0.774,1.019-1.887,1.019-3.341c0-0.676-0.075-1.293-0.233-1.851
		c-0.158-0.555-0.398-1.028-0.722-1.429c-0.323-0.393-0.738-0.697-1.237-0.91c-0.5-0.21-1.087-0.319-1.761-0.319
		c-1.278,0-2.254,0.389-2.936,1.163c-0.677,0.775-1.019,1.888-1.019,3.346C33.931,174.099,34.01,174.712,34.168,175.27
		 M30.212,177.723h1.445v-8.6h-6.877v8.6h1.445v-7.399h3.988V177.723z"/>
	<path clip-path="url(#SVGID_2_)" fill="#414042" d="M232.281,151.358c0.44,0,0.822,0.092,1.138,0.269
		c0.313,0.18,0.565,0.418,0.757,0.712c0.19,0.298,0.334,0.65,0.426,1.05c0.088,0.404,0.132,0.826,0.132,1.274
		c0,2.211-0.818,3.313-2.452,3.301c-0.448,0-0.823-0.092-1.139-0.275s-0.565-0.422-0.757-0.723
		c-0.194-0.298-0.338-0.646-0.426-1.051c-0.092-0.396-0.136-0.818-0.136-1.252C229.824,152.449,230.644,151.348,232.281,151.358
		 M228.562,156.51c0.154,0.559,0.393,1.036,0.723,1.429c0.323,0.396,0.734,0.701,1.234,0.91c0.499,0.214,1.087,0.32,1.763,0.32
		c1.27,0,2.25-0.386,2.93-1.161c0.683-0.774,1.024-1.887,1.024-3.345c0-0.676-0.077-1.292-0.238-1.851
		c-0.154-0.555-0.396-1.031-0.72-1.429c-0.323-0.393-0.738-0.697-1.237-0.906c-0.504-0.213-1.087-0.323-1.759-0.323
		c-1.278,0-2.255,0.389-2.935,1.164c-0.679,0.774-1.024,1.887-1.024,3.345C228.322,155.339,228.403,155.952,228.562,156.51
		 M227.728,150.363h-5.269v8.6h1.442v-7.398h3.826V150.363z M216.228,151.358c0.444,0,0.822,0.092,1.139,0.269
		c0.315,0.18,0.565,0.418,0.756,0.712c0.191,0.298,0.338,0.65,0.426,1.05c0.088,0.404,0.133,0.826,0.133,1.274
		c0,2.211-0.815,3.313-2.453,3.301c-0.444,0-0.822-0.092-1.135-0.275c-0.315-0.184-0.569-0.422-0.76-0.723
		c-0.191-0.298-0.334-0.646-0.426-1.051c-0.089-0.396-0.133-0.818-0.133-1.252C213.774,152.449,214.59,151.348,216.228,151.358
		 M212.512,156.51c0.154,0.559,0.393,1.036,0.72,1.429c0.323,0.396,0.734,0.701,1.237,0.91c0.499,0.214,1.087,0.32,1.759,0.32
		c1.274,0,2.255-0.386,2.934-1.161c0.68-0.774,1.024-1.887,1.024-3.345c0-0.676-0.081-1.292-0.238-1.851
		c-0.154-0.555-0.394-1.031-0.724-1.429c-0.323-0.393-0.734-0.697-1.233-0.906c-0.503-0.213-1.087-0.323-1.763-0.323
		c-1.274,0-2.255,0.389-2.931,1.164c-0.683,0.774-1.024,1.887-1.024,3.345C212.272,155.339,212.35,155.952,212.512,156.51
		 M209.637,158.963h1.788l-3.015-3.889l-0.94-0.69l0.761-0.565l2.798-3.455h-1.571l-2.887,3.646l-0.778,0.242v-3.889h-1.446v8.6
		h1.446v-3.87h0.83L209.637,158.963z M201.893,157.344c-0.217,0.161-0.499,0.305-0.841,0.43c-0.342,0.128-0.73,0.19-1.164,0.19
		c-0.507,0-0.929-0.092-1.271-0.275c-0.345-0.184-0.624-0.426-0.83-0.73c-0.213-0.305-0.363-0.653-0.455-1.05
		c-0.088-0.394-0.132-0.812-0.132-1.245c0-2.203,0.852-3.305,2.563-3.305c0.382,0,0.742,0.044,1.083,0.132
		c0.335,0.089,0.643,0.202,0.922,0.35l0.411-1.183c-0.323-0.161-0.687-0.286-1.087-0.371c-0.407-0.084-0.896-0.132-1.476-0.132
		c-1.264,0-2.232,0.389-2.908,1.164c-0.672,0.774-1.01,1.887-1.01,3.345c0,0.676,0.069,1.289,0.209,1.847
		c0.136,0.559,0.36,1.036,0.669,1.429c0.308,0.396,0.701,0.701,1.182,0.91c0.485,0.214,1.068,0.32,1.771,0.32
		c0.539,0,1.057-0.066,1.549-0.198c0.492-0.133,0.926-0.323,1.285-0.577L201.893,157.344z M195.104,150.363h-5.27v8.6h1.443v-7.398
		h3.826V150.363z M184.804,151.586c0.294,0.15,0.536,0.356,0.72,0.628c0.191,0.269,0.323,0.592,0.404,0.98
		c0.088,0.382,0.132,0.808,0.132,1.278c0,1.146-0.246,2.016-0.734,2.606c-0.484,0.588-1.146,0.885-1.976,0.885
		c-0.455,0-0.826-0.044-1.102-0.132c-0.279-0.085-0.525-0.206-0.741-0.367v-4.263c0.146-0.621,0.396-1.084,0.749-1.385
		c0.359-0.305,0.837-0.459,1.454-0.459C184.143,151.358,184.51,151.436,184.804,151.586 M180.063,162.403h1.443v-3.58
		c0.301,0.129,0.58,0.213,0.841,0.265c0.261,0.055,0.613,0.081,1.054,0.081c0.624,0,1.197-0.11,1.711-0.327
		c0.507-0.217,0.947-0.525,1.307-0.929c0.36-0.404,0.64-0.893,0.838-1.469c0.198-0.58,0.301-1.23,0.301-1.954
		c0-1.538-0.298-2.644-0.889-3.319c-0.587-0.675-1.483-1.017-2.688-1.017c-0.565,0-1.065,0.11-1.506,0.323
		c-0.44,0.209-0.8,0.518-1.075,0.918h-0.07l-0.271-1.032h-0.995V162.403z M172.136,150.363h-1.659l3.628,8.6
		c-0.202,0.822-0.463,1.406-0.771,1.744c-0.319,0.338-0.643,0.507-0.98,0.507c-0.144,0-0.294-0.029-0.451-0.088l-0.25,1.189
		c0.279,0.113,0.632,0.169,1.064,0.169c0.396,0,0.746-0.121,1.047-0.367s0.569-0.576,0.812-0.991
		c0.242-0.411,0.459-0.882,0.661-1.41c0.198-0.525,0.399-1.068,0.602-1.631l2.673-7.722h-1.442l-1.759,5.552l-0.396,1.671h-0.092
		l-0.511-1.652L172.136,150.363z M163.83,152.387c0.434-0.536,1.12-0.797,2.06-0.786c0.386,0,0.717,0.073,0.992,0.217
		c0.278,0.144,0.51,0.349,0.687,0.617c0.184,0.271,0.315,0.591,0.396,0.954c0.088,0.367,0.128,0.768,0.128,1.205
		c0,1.112-0.201,1.949-0.605,2.519c-0.404,0.565-1.021,0.852-1.851,0.852c-0.419,0-0.789-0.084-1.102-0.257
		s-0.565-0.411-0.768-0.716c-0.198-0.305-0.345-0.653-0.444-1.058c-0.092-0.4-0.14-0.818-0.14-1.256
		C163.184,153.683,163.396,152.915,163.83,152.387 M162.964,151.895c0.059-0.745,0.173-1.344,0.334-1.799
		c0.165-0.452,0.386-0.801,0.672-1.051c0.279-0.242,0.617-0.407,1.01-0.495c0.393-0.085,0.841-0.147,1.362-0.18
		c0.371-0.022,0.701-0.052,0.984-0.085c0.278-0.037,0.528-0.077,0.727-0.121c0.209-0.048,0.382-0.106,0.529-0.173
		c0.143-0.069,0.271-0.154,0.396-0.261l-0.162-1.237c-0.22,0.194-0.507,0.331-0.859,0.408c-0.359,0.073-0.844,0.139-1.469,0.194
		c-0.484,0.044-0.939,0.106-1.358,0.173c-0.422,0.065-0.808,0.187-1.16,0.352c-0.359,0.166-0.68,0.394-0.962,0.68
		c-0.279,0.286-0.521,0.672-0.72,1.153c-0.198,0.48-0.353,1.072-0.452,1.77c-0.103,0.701-0.153,1.542-0.153,2.526
		c0,1.869,0.33,3.242,0.991,4.112c0.664,0.87,1.655,1.308,2.985,1.308c1.233,0,2.203-0.396,2.893-1.19
		c0.69-0.789,1.043-1.957,1.043-3.506c0-1.341-0.301-2.354-0.896-3.041c-0.599-0.69-1.447-1.035-2.556-1.035
		c-0.724,0-1.325,0.114-1.807,0.338s-0.922,0.609-1.314,1.16H162.964z M157.158,151.586c0.298,0.15,0.54,0.356,0.724,0.628
		c0.188,0.269,0.323,0.592,0.411,0.98c0.081,0.382,0.121,0.808,0.121,1.278c0,1.146-0.246,2.016-0.73,2.606
		c-0.484,0.588-1.146,0.885-1.976,0.885c-0.459,0-0.824-0.044-1.104-0.132c-0.277-0.085-0.521-0.206-0.739-0.367v-4.263
		c0.143-0.621,0.395-1.084,0.749-1.385c0.355-0.305,0.841-0.459,1.454-0.459C156.501,151.358,156.864,151.436,157.158,151.586
		 M152.422,162.403h1.443v-3.58c0.301,0.129,0.578,0.213,0.839,0.265c0.259,0.055,0.615,0.081,1.056,0.081
		c0.628,0,1.196-0.11,1.707-0.327s0.947-0.525,1.311-0.929c0.36-0.404,0.64-0.893,0.838-1.469c0.198-0.58,0.301-1.23,0.301-1.954
		c0-1.538-0.301-2.644-0.889-3.319c-0.588-0.675-1.483-1.017-2.688-1.017c-0.569,0-1.068,0.11-1.51,0.323
		c-0.438,0.209-0.796,0.518-1.073,0.918h-0.072l-0.271-1.032h-0.991V162.403z M148.214,151.888c0.349,0.349,0.523,0.958,0.523,1.828
		h-4.48c0.086-0.859,0.343-1.465,0.768-1.821c0.43-0.356,0.997-0.536,1.708-0.536C147.371,151.358,147.863,151.535,148.214,151.888
		 M149.297,157.277c-0.204,0.184-0.512,0.342-0.921,0.481c-0.41,0.136-0.821,0.205-1.227,0.205c-0.529,0-0.977-0.069-1.346-0.217
		c-0.369-0.143-0.665-0.349-0.894-0.616c-0.229-0.271-0.395-0.599-0.505-0.988c-0.108-0.393-0.162-0.841-0.162-1.344h5.794
		c0.071-0.459,0.11-0.874,0.11-1.256c0-0.723-0.103-1.303-0.308-1.744c-0.204-0.44-0.47-0.782-0.795-1.024
		c-0.327-0.238-0.69-0.403-1.102-0.488c-0.409-0.084-0.819-0.132-1.228-0.132c-1.276,0-2.256,0.389-2.941,1.156
		c-0.688,0.768-1.03,1.884-1.03,3.353c0,0.687,0.079,1.308,0.233,1.854c0.158,0.555,0.398,1.028,0.721,1.421
		c0.327,0.396,0.742,0.701,1.249,0.91c0.505,0.214,1.102,0.32,1.787,0.32c0.613,0,1.195-0.085,1.744-0.243
		c0.545-0.161,1-0.378,1.362-0.653L149.297,157.277z M142.111,150.363h-7.114v1.201h2.834v7.398h1.445v-7.398h2.835V150.363z
		 M132.144,151.888c0.349,0.349,0.521,0.958,0.521,1.828h-4.474c0.083-0.859,0.339-1.465,0.767-1.821
		c0.424-0.356,0.994-0.536,1.704-0.536C131.301,151.358,131.793,151.535,132.144,151.888 M133.227,157.277
		c-0.204,0.184-0.512,0.342-0.921,0.481c-0.406,0.136-0.817,0.205-1.227,0.205c-0.53,0-0.977-0.069-1.346-0.217
		c-0.369-0.143-0.667-0.349-0.894-0.616c-0.226-0.271-0.396-0.599-0.505-0.988c-0.108-0.393-0.162-0.841-0.162-1.344h5.794
		c0.071-0.459,0.108-0.874,0.108-1.256c0-0.723-0.101-1.303-0.308-1.744c-0.202-0.44-0.465-0.782-0.793-1.024
		c-0.323-0.238-0.692-0.403-1.102-0.488c-0.409-0.084-0.819-0.132-1.224-0.132c-1.28,0-2.26,0.389-2.945,1.156
		c-0.688,0.768-1.03,1.884-1.03,3.353c0,0.687,0.079,1.308,0.237,1.854c0.154,0.555,0.395,1.028,0.722,1.421
		c0.323,0.396,0.742,0.701,1.245,0.91c0.503,0.214,1.102,0.32,1.787,0.32c0.617,0,1.195-0.085,1.744-0.243
		c0.545-0.161,1-0.378,1.36-0.653L133.227,157.277z M122.755,158.963h1.5v-12.036h-8.833v12.036h1.5v-10.766h5.833V158.963z
		 M108.455,154.645h4.37v-1.271h-4.37V154.645z M108.329,150.363h-7.114v1.201h2.834v7.398h1.443v-7.398h2.837V150.363z
		 M99.229,158.963h1.788l-3.015-3.889l-0.94-0.69l0.76-0.565l2.796-3.455h-1.571l-2.888,3.646l-0.778,0.242v-3.889h-1.443v8.6h1.443
		v-3.87h0.832L99.229,158.963z M89.712,158.963h1.449v-8.6h-1.449v3.595h-4.079v-3.595h-1.443v8.6h1.443v-3.804h4.079V158.963z
		 M76.495,157.505c-0.301-0.253-0.45-0.584-0.45-0.987c0-0.286,0.083-0.521,0.244-0.709c0.162-0.194,0.38-0.341,0.65-0.447
		c0.27-0.11,0.582-0.184,0.94-0.229c0.353-0.036,0.718-0.059,1.091-0.059c0.169,0,0.341,0.004,0.514,0.012
		c0.178,0.003,0.347,0.011,0.516,0.021v1.429c-0.061,0.15-0.154,0.305-0.277,0.466c-0.128,0.158-0.29,0.305-0.482,0.438
		c-0.191,0.132-0.42,0.238-0.683,0.326c-0.268,0.089-0.569,0.129-0.903,0.129C77.184,157.895,76.796,157.766,76.495,157.505
		 M75.541,152.049c0.169-0.096,0.365-0.18,0.587-0.257c0.221-0.077,0.458-0.14,0.703-0.194c0.248-0.056,0.489-0.096,0.722-0.122
		c0.237-0.029,0.456-0.044,0.661-0.044c0.696,0,1.177,0.121,1.445,0.375c0.263,0.253,0.395,0.693,0.395,1.325
		c0,0.275-0.015,0.584-0.053,0.926c-0.169-0.022-0.334-0.033-0.496-0.033h-0.498c-0.661,0-1.267,0.044-1.816,0.132
		c-0.545,0.085-1.015,0.228-1.406,0.43c-0.391,0.198-0.696,0.47-0.912,0.808c-0.215,0.338-0.325,0.761-0.325,1.264
		c0,0.378,0.068,0.72,0.208,1.014c0.14,0.297,0.327,0.554,0.567,0.764c0.24,0.216,0.527,0.378,0.857,0.491
		c0.332,0.114,0.692,0.173,1.076,0.173c0.387,0,0.729-0.04,1.03-0.121c0.301-0.081,0.564-0.18,0.793-0.301s0.426-0.257,0.587-0.411
		s0.297-0.313,0.406-0.474h0.09l0.38,1.204h1.065c-0.095-0.319-0.163-0.668-0.196-1.05c-0.037-0.379-0.057-0.779-0.057-1.201
		c0-0.588,0.021-1.204,0.057-1.858c0.033-0.657,0.053-1.325,0.053-2.012c0-0.309-0.035-0.62-0.099-0.929
		c-0.066-0.309-0.198-0.595-0.398-0.853c-0.198-0.257-0.488-0.47-0.869-0.628c-0.375-0.161-0.879-0.238-1.507-0.238
		c-0.661,0-1.298,0.059-1.902,0.188c-0.609,0.128-1.144,0.319-1.599,0.584L75.541,152.049z M72.796,157.344
		c-0.277,0.161-0.617,0.294-1.019,0.396c-0.406,0.106-0.875,0.154-1.417,0.154c-0.603,0-1.159-0.103-1.669-0.309
		c-0.516-0.206-0.96-0.514-1.338-0.929c-0.38-0.415-0.678-0.929-0.896-1.55c-0.215-0.617-0.323-1.337-0.323-2.166
		c0-0.918,0.112-1.689,0.341-2.321c0.229-0.631,0.535-1.142,0.915-1.527c0.38-0.393,0.808-0.676,1.291-0.845
		c0.481-0.172,0.969-0.257,1.461-0.257c1.072,0,1.895,0.14,2.475,0.411l0.36-1.273c-0.323-0.125-0.714-0.225-1.173-0.302
		c-0.457-0.069-1.048-0.106-1.77-0.106c-0.674,0-1.334,0.11-1.986,0.342c-0.65,0.228-1.235,0.595-1.759,1.094
		c-0.523,0.496-0.944,1.139-1.263,1.925c-0.319,0.785-0.481,1.736-0.481,2.86c0,1.079,0.147,2.012,0.435,2.794
		c0.29,0.786,0.681,1.432,1.173,1.936c0.494,0.506,1.072,0.881,1.733,1.127c0.663,0.246,1.374,0.371,2.13,0.371
		c0.628,0,1.217-0.052,1.77-0.154c0.553-0.106,1.012-0.29,1.374-0.555L72.796,157.344z"/>
</g>
</svg>
