<?xml version="1.0" encoding="utf-8"?>
<!-- Generator: Adobe Illustrator 16.0.0, SVG Export Plug-In . SVG Version: 6.00 Build 0)  -->
<!DOCTYPE svg PUBLIC "-//W3C//DTD SVG 1.1//EN" "http://www.w3.org/Graphics/SVG/1.1/DTD/svg11.dtd">
<svg version="1.1" id="Layer_1" xmlns="http://www.w3.org/2000/svg" xmlns:xlink="http://www.w3.org/1999/xlink" x="0px" y="0px"
	 width="195px" height="50px" viewBox="0 0 195 50" enable-background="new 0 0 195 50" xml:space="preserve">
<g>
	<g>
		<g>
			<path fill="#D1D2D4" d="M119.9,22.525h-4.5c-0.375,0-0.7,0.3-0.7,0.7s0.3,0.7,0.7,0.7h4.5c0.375,0,0.699-0.3,0.699-0.7
				S120.275,22.525,119.9,22.525z"/>
		</g>
		<g>
			<path fill="#D1D2D4" d="M117.425,15.2l-3.899,2.25c-0.325,0.2-0.45,0.6-0.25,0.95c0.125,0.225,0.35,0.35,0.6,0.35
				c0.125,0,0.225-0.025,0.35-0.1l3.9-2.25c0.325-0.2,0.45-0.6,0.25-0.95C118.175,15.125,117.75,15.025,117.425,15.2z"/>
		</g>
		<g>
			<path fill="#D1D2D4" d="M112.575,9.85c-0.325-0.2-0.75-0.075-0.95,0.25l-2.25,3.9c-0.2,0.325-0.075,0.75,0.25,0.95
				c0.1,0.075,0.225,0.1,0.35,0.1c0.25,0,0.476-0.125,0.601-0.35l2.25-3.9C113.025,10.475,112.9,10.05,112.575,9.85z"/>
		</g>
	</g>
	<g>
		<g>
			<path fill="#D1D2D4" d="M118.475,30.175l-3.899-2.25c-0.325-0.2-0.75-0.075-0.95,0.25s-0.075,0.75,0.25,0.95l3.9,2.25
				c0.1,0.075,0.225,0.1,0.35,0.1c0.25,0,0.475-0.125,0.6-0.35C118.925,30.775,118.825,30.375,118.475,30.175z"/>
		</g>
		<g>
			<path fill="#D1D2D4" d="M111.225,32.15c-0.199-0.325-0.6-0.45-0.949-0.25c-0.325,0.199-0.45,0.6-0.25,0.949l2.25,3.9
				c0.125,0.225,0.35,0.35,0.6,0.35c0.125,0,0.225-0.024,0.35-0.1c0.325-0.2,0.45-0.6,0.25-0.95L111.225,32.15z"/>
		</g>
	</g>
</g>
<g>
	<g>
		<g>
			<g>
				<polygon fill="#38B449" points="78.725,43 82.375,43 86.85,31.6 83.2,31.6 				"/>
				<path fill="#404041" d="M86.85,31.125H83.2c-0.2,0-0.375,0.125-0.425,0.3l-4.45,11.4c-0.05,0.149-0.025,0.3,0.05,0.425
					s0.225,0.2,0.375,0.2h3.65c0.2,0,0.375-0.125,0.425-0.3l4.45-11.4c0.05-0.15,0.025-0.3-0.05-0.425
					C87.125,31.2,87,31.125,86.85,31.125z M82.075,42.525h-2.65L83.5,32.05h2.65L82.075,42.525z"/>
			</g>
		</g>
	</g>
	<g>
		<g>
			<g>
				<polygon fill="#38B449" points="95.375,31.6 99.825,43 103.475,43 99.025,31.6 				"/>
				<path fill="#404041" d="M99.45,31.425c-0.075-0.175-0.25-0.3-0.425-0.3h-3.65c-0.15,0-0.3,0.075-0.375,0.2s-0.1,0.3-0.05,0.425
					l4.45,11.4c0.074,0.175,0.25,0.3,0.425,0.3h3.649c0.15,0,0.301-0.075,0.375-0.2c0.075-0.125,0.101-0.3,0.051-0.425L99.45,31.425
					z M100.15,42.525L96.05,32.05h2.65l4.1,10.476H100.15z"/>
			</g>
		</g>
	</g>
</g>
<g>
	<circle fill="#FFFFFF" cx="91.1" cy="23.225" r="16.225"/>
	<path fill="#404041" d="M91.1,6.525C81.9,6.525,74.425,14,74.425,23.2S81.9,39.875,91.1,39.875c9.2,0,16.675-7.475,16.675-16.675
		S100.3,6.525,91.1,6.525z M91.1,38.975c-8.675,0-15.75-7.074-15.75-15.75s7.075-15.75,15.75-15.75s15.75,7.075,15.75,15.75
		S99.8,38.975,91.1,38.975z"/>
</g>
<g>
	<circle fill="#D1D2D4" cx="91.1" cy="23.225" r="13.025"/>
	<path fill="#404041" d="M91.1,9.725c-7.425,0-13.475,6.05-13.475,13.475c0,7.425,6.05,13.475,13.475,13.475
		s13.475-6.05,13.475-13.475C104.575,15.775,98.55,9.725,91.1,9.725z M91.1,35.775c-6.925,0-12.55-5.625-12.55-12.55
		s5.625-12.55,12.55-12.55s12.55,5.625,12.55,12.55S98.025,35.775,91.1,35.775z"/>
</g>
<g>
	<circle fill="#FFFFFF" cx="91.1" cy="23.225" r="9.625"/>
	<path fill="#404041" d="M91.1,13.125c-5.55,0-10.1,4.525-10.1,10.1c0,5.575,4.525,10.1,10.1,10.1c5.575,0,10.1-4.525,10.1-10.1
		C101.2,17.65,96.675,13.125,91.1,13.125z M91.1,32.375c-5.05,0-9.175-4.1-9.175-9.175s4.1-9.175,9.175-9.175
		c5.05,0,9.175,4.1,9.175,9.175S96.15,32.375,91.1,32.375z"/>
</g>
<g>
	<circle fill="#D1D2D4" cx="91.1" cy="23.225" r="6.225"/>
	<path fill="#404041" d="M91.1,16.525c-3.675,0-6.675,3-6.675,6.675c0,3.675,3,6.675,6.675,6.675c3.675,0,6.675-3,6.675-6.675
		C97.775,19.525,94.8,16.525,91.1,16.525z M91.1,28.975c-3.175,0-5.75-2.574-5.75-5.75s2.575-5.75,5.75-5.75
		c3.175,0,5.75,2.575,5.75,5.75S94.275,28.975,91.1,28.975z"/>
</g>
<g>
	<circle fill="#FFFFFF" cx="91.1" cy="23.225" r="2.425"/>
	<path fill="#404041" d="M91.1,20.325c-1.6,0-2.875,1.3-2.875,2.875c0,1.6,1.3,2.875,2.875,2.875c1.6,0,2.875-1.3,2.875-2.875
		C94,21.625,92.7,20.325,91.1,20.325z M91.1,25.175c-1.075,0-1.95-0.875-1.95-1.95c0-1.075,0.875-1.95,1.95-1.95
		c1.075,0,1.95,0.875,1.95,1.95C93.05,24.3,92.175,25.175,91.1,25.175z"/>
</g>
<path fill="#404041" d="M111.85,22.75H91.1c-0.25,0-0.475,0.2-0.475,0.475s0.2,0.475,0.475,0.475h20.75
	c0.25,0,0.476-0.2,0.476-0.475S112.1,22.75,111.85,22.75z"/>
<g>
	<g>
		<g>
			<polygon fill="#38B449" points="98.15,23.225 108.675,23.225 112.125,19 101.625,19 			"/>
			<path fill="#404041" d="M112.125,18.55H101.6c-0.149,0-0.274,0.05-0.35,0.175l-3.45,4.2c-0.125,0.15-0.15,0.325-0.05,0.5
				c0.075,0.15,0.25,0.275,0.425,0.275H108.7c0.149,0,0.274-0.05,0.35-0.175l3.45-4.225c0.125-0.15,0.15-0.325,0.05-0.5
				C112.475,18.65,112.325,18.55,112.125,18.55z M108.45,22.75h-9.325l2.7-3.275h9.325L108.45,22.75z"/>
		</g>
		<path fill="#404041" d="M103.7,20.275l-2.175,2.65c-0.176,0.2-0.125,0.5,0.074,0.65c0.075,0.075,0.2,0.1,0.301,0.1
			c0.125,0,0.274-0.05,0.35-0.175l2.175-2.65c0.175-0.2,0.125-0.5-0.075-0.65C104.175,20.05,103.875,20.075,103.7,20.275z"/>
		<path fill="#404041" d="M106.95,20.275l-2.175,2.65c-0.176,0.2-0.125,0.5,0.074,0.65c0.075,0.075,0.2,0.1,0.301,0.1
			c0.125,0,0.274-0.05,0.35-0.175l2.175-2.65c0.175-0.2,0.125-0.5-0.075-0.65C107.4,20.05,107.1,20.075,106.95,20.275z"/>
	</g>
	<g>
		<g>
			<polygon fill="#38B449" points="98.15,23.225 101.625,27.425 112.125,27.425 108.675,23.225 			"/>
			<path fill="#404041" d="M109.025,22.925c-0.101-0.1-0.226-0.175-0.351-0.175H98.15c-0.175,0-0.351,0.1-0.425,0.275
				c-0.075,0.15-0.05,0.35,0.05,0.5l3.45,4.2c0.101,0.101,0.226,0.176,0.351,0.176H112.1c0.176,0,0.351-0.101,0.426-0.275
				c0.074-0.15,0.05-0.35-0.051-0.5L109.025,22.925z M101.825,26.95l-2.7-3.275h9.325l2.7,3.275H101.825z"/>
		</g>
		<path fill="#404041" d="M102.25,22.925c-0.175-0.2-0.45-0.225-0.65-0.075c-0.199,0.175-0.225,0.45-0.074,0.65l2.175,2.65
			c0.1,0.1,0.225,0.175,0.35,0.175c0.101,0,0.2-0.025,0.3-0.101c0.2-0.175,0.226-0.449,0.075-0.649L102.25,22.925z"/>
		<path fill="#404041" d="M105.5,22.925c-0.175-0.2-0.45-0.225-0.65-0.075c-0.199,0.175-0.225,0.45-0.074,0.65l2.175,2.65
			c0.1,0.1,0.225,0.175,0.35,0.175c0.101,0,0.2-0.025,0.3-0.101c0.2-0.175,0.226-0.449,0.075-0.649L105.5,22.925z"/>
	</g>
</g>
</svg>
