<?xml version="1.0" encoding="utf-8"?>
<!-- Generator: Adobe Illustrator 19.2.1, SVG Export Plug-In . SVG Version: 6.00 Build 0)  -->
<svg version="1.1" id="Layer_1" xmlns="http://www.w3.org/2000/svg" xmlns:xlink="http://www.w3.org/1999/xlink" x="0px" y="0px"
	 viewBox="0 0 70.9 85" style="enable-background:new 0 0 70.9 85;" xml:space="preserve">
<style type="text/css">
	.st0{fill:#3CB44A;}
	.st1{fill:#414042;}
	.st2{fill:#FFFFFF;}
	.st3{fill:#D2D3D4;}
</style>
<g>
	<rect x="18.1" y="10.5" class="st0" width="41.2" height="47"/>
	<g>
		<path class="st1" d="M8.6,72L5.2,70l0.2-58.7l0-0.3c0.9-4.1,4.5-7.2,8.9-7.2H66v60.4H14.2c-3.1,0-5.7,2.6-5.7,5.7
			c0,0.1,0,0.1,0,0.2L8.6,72z M8.5,13.1v49.8c1.6-1.3,3.5-2,5.7-2h48.5V7.2H14.2c-3.1,0-5.6,2.5-5.7,5.6L8.5,13.1z"/>
	</g>
	<g>
		<g>
			<path class="st2" d="M64.3,62.5H50.1H14.2c-4.1,0-7.4,3.3-7.4,7.4c0,4.1,3.3,7.4,7.4,7.4h35.9h14.2V62.5z"/>
			<path class="st1" d="M66,78.9H14.2c-5,0-9.1-4.1-9.1-9c0-5,4.1-9,9.1-9H66L66,78.9L66,78.9z M14.2,64.2c-3.1,0-5.7,2.6-5.7,5.7
				c0,3.1,2.6,5.7,5.7,5.7h48.5V64.2H14.2z"/>
		</g>
	</g>
	<polygon class="st3" points="28.6,83.2 23.2,79.8 17.9,83.2 17.9,70.5 23.2,70.5 28.6,70.5 	"/>
	<g>
		<path class="st2" d="M13.7,70.3h50.7H13.7z"/>
		<rect x="13.7" y="68.6" class="st1" width="50.7" height="3.4"/>
	</g>
	<g>
		<path class="st2" d="M13.7,62.1V6.2V62.1z"/>
		<rect x="12" y="6.2" class="st1" width="3.4" height="55.9"/>
	</g>
	<g>
		<rect x="27.7" y="30.5" class="st2" width="22.7" height="3.4"/>
	</g>
	<g>
		<rect x="30.3" y="23.4" class="st2" width="17.3" height="3.4"/>
	</g>
</g>
</svg>
