<?xml version="1.0" encoding="utf-8"?>
<!-- Generator: Adobe Illustrator 19.2.1, SVG Export Plug-In . SVG Version: 6.00 Build 0)  -->
<svg version="1.1" id="Layer_1" xmlns="http://www.w3.org/2000/svg" xmlns:xlink="http://www.w3.org/1999/xlink" x="0px" y="0px"
	 viewBox="0 0 70.9 85" style="enable-background:new 0 0 70.9 85;" xml:space="preserve">
<style type="text/css">
	.st0{fill:#414042;}
	.st1{fill:#3CB44A;}
</style>
<g>
	<g>
		<path class="st0" d="M61.2,10.2H27.1l27.3-4.5v1.5c0,0.8,0.6,1.4,1.4,1.4c0.8,0,1.4-0.6,1.4-1.4V4c0-0.4-0.2-0.8-0.5-1.1
			S56,2.5,55.6,2.6L9.4,10.3c0,0,0,0,0,0c-0.7,0.1-1.2,0.7-1.2,1.4V60c0,0.8,0.6,1.4,1.4,1.4s1.4-0.6,1.4-1.4V22.1
			c4.6-0.6,8.3-4.3,8.9-8.9h30.8c0.6,4.6,4.3,8.3,8.9,8.9v57h-6c0.4-2,1.5-3.7,3.2-4.9c0.7-0.4,0.8-1.3,0.4-2
			c-0.4-0.7-1.3-0.8-2-0.4c-2.5,1.7-4.1,4.3-4.5,7.2H20.1c-0.6-4.6-4.3-8.3-8.9-8.9v-5.5c0-0.8-0.6-1.4-1.4-1.4s-1.4,0.6-1.4,1.4
			v15.9c0,0.8,0.6,1.4,1.4,1.4h51.5c0.8,0,1.4-0.6,1.4-1.4V11.7C62.6,10.9,62,10.2,61.2,10.2z M11.1,19.1v-6h6
			C16.5,16.2,14.2,18.6,11.1,19.1z M11.1,79v-6c3,0.6,5.4,3,6,6L11.1,79L11.1,79z M59.7,19.1c-3-0.6-5.4-3-6-6h6V19.1z"/>
	</g>
</g>
<g>
	<g>
		<g>
			<path class="st0" d="M49.9,61.4H21c-0.8,0-1.4,0.6-1.4,1.4c0,0.8,0.6,1.4,1.4,1.4h28.8c0.8,0,1.4-0.6,1.4-1.4
				C51.3,62,50.7,61.4,49.9,61.4z"/>
		</g>
	</g>
	<g>
		<g>
			<path class="st0" d="M42.7,67H28.1c-0.8,0-1.4,0.6-1.4,1.4s0.6,1.4,1.4,1.4h14.6c0.8,0,1.4-0.6,1.4-1.4S43.5,67,42.7,67z"/>
		</g>
	</g>
	<path class="st0" d="M45.7,38.3c0.3-0.4,0.3-0.8,0-1.2l-9-15.4c-0.5-0.7-1.9-0.7-2.3,0l-9,15.4c-0.3,0.4-0.3,0.8,0,1.2
		s0.6,0.6,1.2,0.6h2.9l-6.7,11.2c-0.3,0.4-0.3,0.8,0,1.2c0.3,0.4,0.6,0.6,1.2,0.6h7.8v5.9c0,0.7,0.5,1.2,1.3,1.2H38
		c0.8,0,1.3-0.5,1.3-1.2v-5.9h7.8c0.5,0,0.9-0.2,1.2-0.6s0.3-0.8,0-1.2l-6.7-11.2h2.9C45,38.8,45.4,38.6,45.7,38.3z M36.7,56.6h-2.6
		v-4.7h2.6V56.6z"/>
	<g id="XMLID_2_">
		<g>
			<polygon class="st1" points="38.5,38.9 44.9,49.5 38,49.5 32.9,49.5 26,49.5 32.3,38.9 			"/>
		</g>
		<g>
		</g>
	</g>
	<g id="XMLID_1_">
		<g>
			<polygon class="st1" points="35.4,24.8 42.4,36.5 39.3,36.5 31.5,36.5 28.5,36.5 			"/>
		</g>
		<g>
		</g>
	</g>
</g>
</svg>
