<?xml version="1.0" encoding="utf-8"?>
<!-- Generator: Adobe Illustrator 16.0.0, SVG Export Plug-In . SVG Version: 6.00 Build 0)  -->
<!DOCTYPE svg PUBLIC "-//W3C//DTD SVG 1.1//EN" "http://www.w3.org/Graphics/SVG/1.1/DTD/svg11.dtd">
<svg version="1.1" id="Layer_1" xmlns="http://www.w3.org/2000/svg" xmlns:xlink="http://www.w3.org/1999/xlink" x="0px" y="0px"
	 width="76.222px" height="96.698px" viewBox="0 0 76.222 96.698" enable-background="new 0 0 76.222 96.698" xml:space="preserve">
<g>
	<path fill="#FFFFFF" d="M53.375,24.854c-11.412-11.41-29.939-11.41-41.368,0C0.586,36.275,0.605,54.798,12,66.208
		c11.436,11.419,29.958,11.432,41.375,0.004C64.803,54.798,64.795,36.275,53.375,24.854z"/>
	<path fill="#FFFFFF" d="M54,24.232c-11.758-11.752-30.841-11.752-42.614,0C-0.38,35.997-0.361,55.077,11.377,66.83
		C23.158,78.593,42.238,78.604,54,66.835C65.77,55.077,65.76,35.997,54,24.232z"/>
	<path fill="#3CB44A" d="M48.841,29.388c-8.91-8.909-23.375-8.909-32.298,0c-8.918,8.917-8.903,23.38-0.005,32.289
		c8.929,8.916,23.39,8.924,32.304,0.003C57.766,52.768,57.758,38.306,48.841,29.388z"/>
	<path fill="#FFFFFF" d="M43.777,34.456c-6.116-6.113-16.042-6.113-22.166,0c-6.119,6.12-6.108,16.042-0.002,22.157
		c6.127,6.118,16.05,6.123,22.168,0.001C49.899,50.498,49.893,40.575,43.777,34.456z"/>
	<path fill="#3CB44A" d="M37.731,40.501c-2.781-2.778-7.289-2.778-10.073,0c-2.78,2.78-2.777,7.291-0.002,10.069
		c2.786,2.78,7.294,2.784,10.075,0.001C40.514,47.792,40.511,43.281,37.731,40.501z"/>
	<g>
		<g>
			<path fill="#414042" d="M32.704,77.426L32.704,77.426c-8.523,0-16.542-3.318-22.579-9.345
				C-2.302,55.639-2.297,35.408,10.133,22.979c6.03-6.019,14.044-9.333,22.565-9.333c8.521,0,16.53,3.314,22.552,9.333
				c6.024,6.025,9.344,14.035,9.345,22.557c0.002,8.523-3.317,16.531-9.346,22.551C49.23,74.109,41.223,77.426,32.704,77.426z
				 M32.698,16.663c-7.716,0-14.973,3.001-20.432,8.451C1.012,36.366,1.008,54.684,12.258,65.946
				c5.465,5.458,12.727,8.463,20.446,8.463c7.712,0.002,14.962-3.003,20.412-8.456c5.459-5.45,8.465-12.701,8.463-20.417
				c-0.001-7.714-3.006-14.968-8.462-20.423C47.667,19.664,40.414,16.663,32.698,16.663z"/>
		</g>
	</g>
	<g>
		<g>
			<polygon fill="#D2D3D4" points="56.388,21.104 54.487,15.404 65.253,4.637 67.154,10.339 			"/>
			<polygon fill="#D2D3D4" points="56.388,21.104 62.088,23.003 72.854,12.238 67.154,10.339 			"/>
		</g>
		<g>
			<g>
				<path fill="#414042" d="M55.73,23.896l-2.968-8.9L65.914,1.843l2.966,8.903L55.73,23.896z M56.214,15.811l0.834,2.5l8.38-8.379
					L64.594,7.43L56.214,15.811z"/>
			</g>
			<g>
				<path fill="#414042" d="M62.496,24.73l-8.899-2.967L66.746,8.613l8.9,2.965L62.496,24.73z M59.182,20.444l2.499,0.833
					l8.379-8.379l-2.499-0.833L59.182,20.444z"/>
			</g>
		</g>
		<g>
			<path fill="#414042" d="M32.326,46.734c-0.386,0-0.772-0.146-1.067-0.441c-0.589-0.589-0.589-1.544,0-2.135L67.717,7.701
				c0.589-0.589,1.545-0.589,2.134,0c0.589,0.589,0.589,1.545,0,2.134L33.393,46.292C33.099,46.588,32.712,46.734,32.326,46.734z"/>
		</g>
	</g>
</g>
</svg>
