<?xml version="1.0" encoding="utf-8"?>
<!-- Generator: Adobe Illustrator 16.0.0, SVG Export Plug-In . SVG Version: 6.00 Build 0)  -->
<!DOCTYPE svg PUBLIC "-//W3C//DTD SVG 1.1//EN" "http://www.w3.org/Graphics/SVG/1.1/DTD/svg11.dtd">
<svg version="1.1" id="Layer_1" xmlns="http://www.w3.org/2000/svg" xmlns:xlink="http://www.w3.org/1999/xlink" x="0px" y="0px"
	 width="92.111px" height="96.697px" viewBox="0 0 92.111 96.697" enable-background="new 0 0 92.111 96.697" xml:space="preserve">
<rect x="37.854" y="65.649" fill="#38B449" width="18.556" height="17.015"/>
<polygon fill="#38B449" points="9.856,42.595 25.319,49.954 25.319,28.394 9.856,21.035 "/>
<polygon fill="#38B449" points="84.521,21.195 69.065,28.555 69.065,49.957 84.521,42.598 "/>
<path fill="#414042" d="M56.409,30.086H37.854c-0.851,0-1.547,0.692-1.547,1.546c0,0.855,0.694,1.547,1.547,1.547h18.556
	c0.854,0,1.551-0.691,1.551-1.547C57.958,30.779,57.262,30.086,56.409,30.086z"/>
<path fill="#414042" d="M56.409,36.271H37.854c-0.851,0-1.547,0.696-1.547,1.549c0,0.853,0.694,1.547,1.547,1.547h18.556
	c0.854,0,1.551-0.693,1.551-1.547C57.958,36.965,57.262,36.271,56.409,36.271z"/>
<path fill="#414042" d="M56.409,42.457H37.854c-0.851,0-1.547,0.692-1.547,1.546c0,0.853,0.694,1.545,1.547,1.545h18.556
	c0.854,0,1.551-0.691,1.551-1.545C57.958,43.15,57.262,42.457,56.409,42.457z"/>
<path fill="#414042" d="M70.14,59.325c0.212,0,0.432-0.053,0.653-0.158l12.882-6.103c0.75-0.354,1.341-1.231,1.341-1.999
	c0-0.67-0.442-1.141-1.08-1.141c-0.211,0-0.435,0.056-0.656,0.161l-12.884,6.1c-0.75,0.355-1.334,1.233-1.334,2
	C69.065,58.854,69.506,59.325,70.14,59.325z"/>
<path fill="#414042" d="M23.984,56.182l-12.885-6.1c-0.222-0.105-0.442-0.159-0.656-0.159c-0.634,0-1.076,0.469-1.076,1.14
	c0,0.768,0.59,1.645,1.339,1.999l12.883,6.104c0.222,0.104,0.44,0.156,0.653,0.156c0.635,0,1.075-0.47,1.075-1.139
	C25.319,57.415,24.731,56.537,23.984,56.182z"/>
<path fill="#414042" d="M23.984,62.848l-12.885-6.1c-0.222-0.105-0.442-0.16-0.656-0.16c-0.634,0-1.076,0.47-1.076,1.14
	c0,0.767,0.59,1.645,1.339,2l12.883,6.103c0.222,0.104,0.44,0.157,0.653,0.157c0.635,0,1.075-0.472,1.075-1.139
	C25.319,64.082,24.731,63.204,23.984,62.848z"/>
<path fill="#414042" d="M23.984,69.516l-12.885-6.101c-0.222-0.105-0.442-0.157-0.656-0.157c-0.634,0-1.076,0.469-1.076,1.139
	c0,0.767,0.59,1.644,1.339,1.998l12.883,6.103c0.222,0.104,0.44,0.156,0.653,0.156c0.635,0,1.075-0.471,1.075-1.139
	C25.319,70.749,24.731,69.871,23.984,69.516z"/>
<path fill="#414042" d="M23.984,76.182l-12.885-6.101c-0.222-0.104-0.442-0.156-0.656-0.156c-0.634,0-1.076,0.469-1.076,1.139
	c0,0.767,0.59,1.644,1.339,1.998l12.883,6.102c0.222,0.105,0.44,0.158,0.653,0.158c0.635,0,1.075-0.472,1.075-1.14
	C25.319,77.416,24.731,76.538,23.984,76.182z"/>
<path fill="#414042" d="M70.14,66.495c0.212,0,0.432-0.056,0.653-0.159l12.882-6.102c0.75-0.354,1.341-1.229,1.341-1.996
	c0-0.673-0.442-1.143-1.08-1.143c-0.211,0-0.435,0.053-0.656,0.16l-12.884,6.1c-0.75,0.357-1.334,1.234-1.334,1.997
	C69.065,66.028,69.506,66.495,70.14,66.495z"/>
<path fill="#414042" d="M70.14,73.162c0.212,0,0.432-0.056,0.653-0.159l12.882-6.102c0.75-0.354,1.341-1.23,1.341-1.996
	c0-0.673-0.442-1.141-1.08-1.141c-0.211,0-0.435,0.051-0.656,0.158l-12.884,6.1c-0.75,0.357-1.334,1.233-1.334,1.997
	C69.065,72.694,69.506,73.162,70.14,73.162z"/>
<path fill="#414042" d="M70.14,79.828c0.212,0,0.432-0.054,0.653-0.158l12.882-6.102c0.75-0.354,1.341-1.23,1.341-1.995
	c0-0.674-0.442-1.142-1.08-1.142c-0.211,0-0.435,0.051-0.656,0.158L70.396,76.69c-0.75,0.356-1.334,1.233-1.334,1.995
	C69.065,79.361,69.506,79.828,70.14,79.828z"/>
<polygon fill="none" stroke="#414042" stroke-width="3" stroke-linecap="round" stroke-linejoin="round" stroke-miterlimit="10" points="
	30.768,94.439 4.26,82.439 4.26,3.413 30.768,15.413 "/>
<polygon fill="none" stroke="#414042" stroke-width="3" stroke-linecap="round" stroke-linejoin="round" stroke-miterlimit="10" points="
	89.383,3.416 62.875,15.416 62.875,94.439 89.383,82.439 "/>
<rect x="30.697" y="15.859" fill="none" stroke="#414042" stroke-width="3" stroke-linecap="round" stroke-linejoin="round" stroke-miterlimit="10" width="32.002" height="78.58"/>
</svg>
