<?xml version="1.0" encoding="utf-8"?>
<!-- Generator: Adobe Illustrator 19.2.1, SVG Export Plug-In . SVG Version: 6.00 Build 0)  -->
<svg version="1.1" id="Layer_1" xmlns="http://www.w3.org/2000/svg" xmlns:xlink="http://www.w3.org/1999/xlink" x="0px" y="0px"
	 viewBox="0 0 79.4 85" style="enable-background:new 0 0 79.4 85;" xml:space="preserve">
<style type="text/css">
	.st0{fill:#38B449;}
	.st1{fill:#414042;}
	.st2{fill:none;stroke:#414042;stroke-width:3;stroke-linecap:round;stroke-linejoin:round;stroke-miterlimit:10;}
</style>
<g>
	<rect x="32" y="57" class="st0" width="16.2" height="14.8"/>
	<polygon class="st0" points="7.6,36.9 21.1,43.3 21.1,24.5 7.6,18.1 	"/>
	<polygon class="st0" points="72.7,18.2 59.2,24.6 59.2,43.3 72.7,36.9 	"/>
	<path class="st1" d="M48.2,26H32c-0.7,0-1.3,0.6-1.3,1.3c0,0.7,0.6,1.3,1.3,1.3h16.2c0.7,0,1.4-0.6,1.4-1.3
		C49.6,26.6,48.9,26,48.2,26z"/>
	<path class="st1" d="M48.2,31.4H32c-0.7,0-1.3,0.6-1.3,1.4c0,0.7,0.6,1.3,1.3,1.3h16.2c0.7,0,1.4-0.6,1.4-1.3
		C49.6,32,48.9,31.4,48.2,31.4z"/>
	<path class="st1" d="M48.2,36.7H32c-0.7,0-1.3,0.6-1.3,1.3c0,0.7,0.6,1.3,1.3,1.3h16.2c0.7,0,1.4-0.6,1.4-1.3
		C49.6,37.4,48.9,36.7,48.2,36.7z"/>
	<path class="st1" d="M60.2,51.5c0.2,0,0.4,0,0.6-0.1L72,46c0.7-0.3,1.2-1.1,1.2-1.7c0-0.6-0.4-1-0.9-1c-0.2,0-0.4,0-0.6,0.1
		l-11.2,5.3c-0.7,0.3-1.2,1.1-1.2,1.7C59.2,51,59.6,51.5,60.2,51.5z"/>
	<path class="st1" d="M19.9,48.7L8.7,43.4c-0.2-0.1-0.4-0.1-0.6-0.1c-0.6,0-0.9,0.4-0.9,1c0,0.7,0.5,1.4,1.2,1.7l11.2,5.3
		c0.2,0.1,0.4,0.1,0.6,0.1c0.6,0,0.9-0.4,0.9-1C21.1,49.8,20.6,49,19.9,48.7z"/>
	<path class="st1" d="M19.9,54.5L8.7,49.2c-0.2-0.1-0.4-0.1-0.6-0.1c-0.6,0-0.9,0.4-0.9,1c0,0.7,0.5,1.4,1.2,1.7l11.2,5.3
		c0.2,0.1,0.4,0.1,0.6,0.1c0.6,0,0.9-0.4,0.9-1C21.1,55.6,20.6,54.8,19.9,54.5z"/>
	<path class="st1" d="M19.9,60.3L8.7,55c-0.2-0.1-0.4-0.1-0.6-0.1c-0.6,0-0.9,0.4-0.9,1c0,0.7,0.5,1.4,1.2,1.7l11.2,5.3
		c0.2,0.1,0.4,0.1,0.6,0.1c0.6,0,0.9-0.4,0.9-1C21.1,61.4,20.6,60.7,19.9,60.3z"/>
	<path class="st1" d="M19.9,66.2L8.7,60.8c-0.2-0.1-0.4-0.1-0.6-0.1c-0.6,0-0.9,0.4-0.9,1c0,0.7,0.5,1.4,1.2,1.7l11.2,5.3
		c0.2,0.1,0.4,0.1,0.6,0.1c0.6,0,0.9-0.4,0.9-1C21.1,67.2,20.6,66.5,19.9,66.2z"/>
	<path class="st1" d="M60.2,57.7c0.2,0,0.4,0,0.6-0.1L72,52.2c0.7-0.3,1.2-1.1,1.2-1.7c0-0.6-0.4-1-0.9-1c-0.2,0-0.4,0-0.6,0.1
		L60.4,55c-0.7,0.3-1.2,1.1-1.2,1.7C59.2,57.3,59.6,57.7,60.2,57.7z"/>
	<path class="st1" d="M60.2,63.5c0.2,0,0.4,0,0.6-0.1L72,58.1c0.7-0.3,1.2-1.1,1.2-1.7c0-0.6-0.4-1-0.9-1c-0.2,0-0.4,0-0.6,0.1
		l-11.2,5.3c-0.7,0.3-1.2,1.1-1.2,1.7C59.2,63.1,59.6,63.5,60.2,63.5z"/>
	<path class="st1" d="M60.2,69.3c0.2,0,0.4,0,0.6-0.1L72,63.9c0.7-0.3,1.2-1.1,1.2-1.7c0-0.6-0.4-1-0.9-1c-0.2,0-0.4,0-0.6,0.1
		l-11.2,5.3c-0.7,0.3-1.2,1.1-1.2,1.7C59.2,68.9,59.6,69.3,60.2,69.3z"/>
	<polygon class="st2" points="25.8,82.1 2.7,71.6 2.7,2.7 25.8,13.2 	"/>
	<polygon class="st2" points="77,2.7 53.8,13.2 53.8,82.1 77,71.6 	"/>
	<rect x="25.8" y="13.6" class="st2" width="27.9" height="68.5"/>
</g>
</svg>
