<?xml version="1.0" encoding="utf-8"?>
<!-- Generator: Adobe Illustrator 19.2.1, SVG Export Plug-In . SVG Version: 6.00 Build 0)  -->
<svg version="1.1" id="Layer_1" xmlns="http://www.w3.org/2000/svg" xmlns:xlink="http://www.w3.org/1999/xlink" x="0px" y="0px"
	 viewBox="0 0 79.4 85" style="enable-background:new 0 0 79.4 85;" xml:space="preserve">
<style type="text/css">
	.st0{fill:#414042;}
	.st1{fill:#3CB44A;}
</style>
<path class="st0" d="M34,56.1l-19.2-7.8c-0.6-0.3-1.4,0.1-1.7,0.9s0.1,1.6,0.8,1.8l19.2,7.8c0.1,0.1,0.3,0.1,0.4,0.1
	c0.5,0,1-0.3,1.3-1C35,57.2,34.7,56.4,34,56.1z"/>
<path class="st0" d="M34,44.3l-19.2-7.8c-0.6-0.3-1.4,0.1-1.7,0.9s0.1,1.6,0.8,1.8L33.1,47c0.1,0.1,0.3,0.1,0.4,0.1
	c0.5,0,1-0.3,1.3-1C35,45.5,34.7,44.6,34,44.3z"/>
<path class="st0" d="M34,50.2l-19.2-7.8c-0.6-0.3-1.4,0.1-1.7,0.9s0.1,1.6,0.8,1.8l19.2,7.8c0.1,0.1,0.3,0.1,0.4,0.1
	c0.5,0,1-0.3,1.3-1C35,51.3,34.7,50.5,34,50.2z"/>
<path class="st0" d="M34,62l-19.2-7.8c-0.6-0.3-1.4,0.1-1.7,0.9c-0.3,0.7,0.1,1.6,0.8,1.8l19.2,7.8c0.1,0.1,0.3,0.1,0.4,0.1
	c0.5,0,1-0.3,1.3-1C35,63.1,34.7,62.2,34,62z"/>
<path class="st0" d="M34,67.8L14.8,60c-0.6-0.3-1.4,0.1-1.7,0.9c-0.3,0.7,0.1,1.6,0.8,1.8l19.2,7.8c0.1,0.1,0.3,0.1,0.4,0.1
	c0.5,0,1-0.3,1.3-1C35,69,34.7,68.1,34,67.8z"/>
<path class="st0" d="M76.4,13.4h-3.2V3.4c0-0.4-0.3-0.9-0.5-1.1C72.3,2,72,2,71.4,2L39.8,13.2L8.2,2C7.9,2,7.5,2,7.1,2.3
	C6.8,2.6,6.6,3,6.6,3.4v9.9H3.4c-1,0-1.9,1-1.9,2.1v63.8c0,1.1,0.9,2.1,1.9,2.1h73.1c1,0,1.9-1,1.9-2V15.5
	C78.4,14.3,77.5,13.4,76.4,13.4z M70.7,14.8v52.7L41.2,78V15.8L70.7,5.4V14.8z M9.1,5.4l29.4,10.3V78L9.1,67.6V14.8V5.4z M4,78.6
	V16.2h2.6v52.4c0,0.6,0.4,1.1,0.9,1.4l24.2,8.5L4,78.6L4,78.6z M75.8,78.6H48.2L72.3,70c0.5-0.3,0.9-0.9,0.9-1.4V16.2h2.6L75.8,78.6
	L75.8,78.6z"/>
<path class="st0" d="M46.3,23.7c0.3,0,0.4,0,0.5-0.1l19.2-7.8c0.6-0.3,1-1.1,0.8-1.8c-0.3-0.7-1-1.1-1.7-0.9l-19.2,7.8
	c-0.6,0.3-1,1.1-0.8,1.8C45.3,23.2,45.8,23.7,46.3,23.7z"/>
<path class="st0" d="M46.3,29.5c0.3,0,0.4,0,0.5-0.1l19.2-7.8c0.6-0.3,1-1.1,0.8-1.8c-0.3-0.7-1-1.1-1.7-0.9l-19.2,7.8
	c-0.6,0.3-1,1.1-0.8,1.8C45.3,29.1,45.8,29.5,46.3,29.5z"/>
<path class="st0" d="M46.3,35.4c0.3,0,0.4,0,0.5-0.1l19.2-7.8c0.6-0.3,1-1.1,0.8-1.8c-0.3-0.7-1-1.1-1.7-0.9l-19.2,7.8
	c-0.6,0.3-1,1.1-0.8,1.8C45.3,35.1,45.8,35.4,46.3,35.4z"/>
<path class="st0" d="M46.3,58.9c0.3,0,0.4,0,0.5-0.1L66,51c0.6-0.3,1-1.1,0.8-1.8s-1-1.1-1.7-0.9l-19.2,7.8c-0.6,0.3-1,1.1-0.8,1.8
	C45.2,58.5,45.7,58.9,46.3,58.9z"/>
<path class="st0" d="M46.3,64.8c0.3,0,0.4,0,0.5-0.1L66,56.9c0.6-0.3,1-1.1,0.8-1.8s-1-1.1-1.7-0.9L45.9,62c-0.6,0.3-1,1.1-0.8,1.8
	C45.2,64.4,45.7,64.8,46.3,64.8z"/>
<path class="st0" d="M46.3,70.7c0.3,0,0.4,0,0.5-0.1L66,62.7c0.6-0.3,1-1.1,0.8-1.8c-0.3-0.7-1-1.1-1.7-0.9l-19.2,7.8
	c-0.6,0.3-1,1.1-0.8,1.8C45.2,70.4,45.7,70.7,46.3,70.7z"/>
<g>
	<path class="st0" d="M46.3,41.3c0.3,0,0.4,0,0.5-0.1l7.2-3c0.6-0.3,1-1.1,0.8-1.8c-0.3-0.7-1-1.1-1.7-0.9l-7.2,3
		c-0.6,0.3-1,1.1-0.8,1.8C45.3,41,45.8,41.3,46.3,41.3z"/>
	<path class="st0" d="M58.3,36.5c0.3,0,0.4,0,0.5-0.1l7.2-3c0.6-0.3,1-1.1,0.8-1.8c-0.3-0.7-1-1.1-1.7-0.9l-7.2,3
		c-0.6,0.3-1,1.1-0.8,1.8C57.2,36.2,57.7,36.5,58.3,36.5z"/>
</g>
<g>
	<path class="st0" d="M46.3,47.2c0.3,0,0.4,0,0.5-0.1l7.2-3c0.6-0.3,1-1.1,0.8-1.8c-0.3-0.7-1-1.1-1.7-0.9l-7.2,3
		c-0.6,0.3-1,1.1-0.8,1.8C45.3,46.9,45.8,47.2,46.3,47.2z"/>
	<path class="st0" d="M58.3,42.3c0.3,0,0.4,0,0.5-0.1l7.2-3c0.6-0.3,1-1.1,0.8-1.8c-0.3-0.7-1-1.1-1.7-0.9l-7.2,3
		c-0.6,0.3-1,1.1-0.8,1.8C57.2,42,57.7,42.3,58.3,42.3z"/>
</g>
<g>
	<path class="st0" d="M46.4,53c0.3,0,0.4,0,0.5-0.1l7.2-3c0.6-0.3,1-1.1,0.8-1.8c-0.3-0.7-1-1.1-1.7-0.9l-7.2,3
		c-0.6,0.3-1,1.1-0.8,1.8C45.3,52.8,45.8,53,46.4,53z"/>
	<path class="st0" d="M58.3,48.2c0.3,0,0.4,0,0.5-0.1l7.2-3c0.6-0.3,1-1.1,0.8-1.8c-0.3-0.7-1-1.1-1.7-0.9l-7.2,3
		c-0.6,0.3-1,1.1-0.8,1.8C57.3,47.9,57.8,48.2,58.3,48.2z"/>
</g>
<path class="st1" d="M14.2,30c-0.7-0.3-1.2,0.2-1.2,0.9c0,0.8,0.6,1.6,1.2,1.9c1.8,0.7,3.3,0.7,4.6,0.4c0.1,0,0.1,0,0.2-0.1
	c2.1-0.6,3.6-2.3,5-4c1.3,2.8,2.9,5.6,4.9,7.8c0.1,0.1,0.1,0.1,0.2,0.2c1.3,1.3,2.8,2.4,4.5,3.1c0.7,0.3,1.2-0.2,1.2-0.9
	c0-0.8-0.6-1.6-1.2-1.9c-1-0.4-2-1-2.8-1.7l0-13c0.8-0.1,1.7,0,2.8,0.4c0.7,0.3,1.2-0.2,1.2-0.9c0-0.8-0.6-1.6-1.2-1.9
	c-1.8-0.7-3.3-0.7-4.6-0.4c-0.1,0-0.1,0-0.2,0.1c-2.1,0.6-3.6,2.3-5,4c-1.3-2.8-2.9-5.6-4.9-7.8c-0.1-0.1-0.1-0.1-0.2-0.2
	c-1.3-1.3-2.8-2.4-4.5-3.1C13.6,12.6,13,13,13,13.8c0,0.8,0.6,1.6,1.2,1.9c1,0.4,2,1,2.8,1.7l0,13C16.2,30.5,15.3,30.4,14.2,30
	L14.2,30z M28.4,23.7l0,9c-1.1-1.6-2-3.6-3-5.6C26.4,25.8,27.3,24.5,28.4,23.7L28.4,23.7z M19.5,20.4c1.1,1.6,2,3.6,3,5.6
	c-1,1.3-1.9,2.5-3,3.4L19.5,20.4z"/>
</svg>
