<?xml version="1.0" encoding="utf-8"?>
<!-- Generator: Adobe Illustrator 16.0.0, SVG Export Plug-In . SVG Version: 6.00 Build 0)  -->
<!DOCTYPE svg PUBLIC "-//W3C//DTD SVG 1.1//EN" "http://www.w3.org/Graphics/SVG/1.1/DTD/svg11.dtd">
<svg version="1.1" id="Layer_1" xmlns="http://www.w3.org/2000/svg" xmlns:xlink="http://www.w3.org/1999/xlink" x="0px" y="0px"
	 width="76.223px" height="96.697px" viewBox="0 0 76.223 96.697" enable-background="new 0 0 76.223 96.697" xml:space="preserve">
<g>
	<g>
		<path fill="#FFFFFF" d="M64.683,82.949c0,0.461-0.369,0.832-0.829,0.832H13.437c-0.457,0-0.828-0.371-0.828-0.832V13.073
			c0-0.459,0.371-0.831,0.828-0.831h50.418c0.46,0,0.828,0.372,0.828,0.831V82.949L64.683,82.949z"/>
		<path fill="#414042" d="M63.854,85.243H13.437c-1.262,0-2.29-1.029-2.29-2.295V13.073c0-1.264,1.028-2.292,2.29-2.292h50.418
			c1.264,0,2.292,1.028,2.292,2.292v69.875C66.146,84.214,65.118,85.243,63.854,85.243z M14.071,82.32h49.151V13.706H14.071V82.32z"
			/>
	</g>
	<g>
		<rect x="19.785" y="38.459" fill="#FFFFFF" width="37.708" height="37.709"/>
		<path fill="#414042" d="M58.955,77.629H18.323V36.997h40.632L58.955,77.629L58.955,77.629z M21.247,74.705h34.784V39.922H21.247
			V74.705z"/>
	</g>
	<rect x="18.279" y="21.394" fill="#3CB44A" width="40.737" height="11.99"/>
	<g>
		<rect x="19.785" y="38.459" fill="#FFFFFF" width="37.708" height="37.709"/>
		<path fill="#414042" d="M58.955,77.629H18.323V36.997h40.632L58.955,77.629L58.955,77.629z M21.247,74.705h34.784V39.922H21.247
			V74.705z"/>
	</g>
	<g>
		<rect x="38.304" y="56.978" fill="#D2D3D4" width="19.189" height="19.189"/>
		<path fill="#414042" d="M58.955,77.629H36.842V55.517h22.113V77.629z M39.766,74.705h16.265V58.441H39.766V74.705z"/>
	</g>
	<g>
		<path fill="#FFFFFF" d="M38.731,38.459v37.526V38.459z"/>
		<rect x="37.27" y="38.459" fill="#414042" width="2.923" height="37.526"/>
	</g>
	<g>
		<path fill="#FFFFFF" d="M57.494,57.221H19.968H57.494z"/>
		<rect x="19.968" y="55.759" fill="#414042" width="37.526" height="2.924"/>
	</g>
	<g>
		<path fill="#FFFFFF" d="M33.859,47.965h-9.747H33.859z"/>
		<rect x="24.112" y="46.502" fill="#414042" width="9.747" height="2.924"/>
	</g>
	<g>
		<path fill="#FFFFFF" d="M28.984,52.835v-9.746V52.835z"/>
		<rect x="27.522" y="43.089" fill="#414042" width="2.924" height="9.747"/>
	</g>
	<g>
		<path fill="#FFFFFF" d="M53.108,47.965H43.36H53.108z"/>
		<rect x="43.361" y="46.502" fill="#414042" width="9.747" height="2.924"/>
	</g>
	<g>
		<path fill="#FFFFFF" d="M32.43,70.414l-6.893-6.893L32.43,70.414z"/>
		
			<rect x="24.112" y="65.507" transform="matrix(-0.7072 -0.707 0.707 -0.7072 2.1349 134.8222)" fill="#414042" width="9.747" height="2.924"/>
	</g>
	<g>
		<path fill="#FFFFFF" d="M25.539,70.413l6.892-6.893L25.539,70.413z"/>
		
			<rect x="27.524" y="62.095" transform="matrix(-0.7071 -0.7071 0.7071 -0.7071 2.128 134.8175)" fill="#414042" width="2.924" height="9.746"/>
	</g>
	<g>
		<path fill="#FFFFFF" d="M53.108,69.162H43.36H53.108z"/>
		<rect x="43.361" y="67.701" fill="#414042" width="9.747" height="2.924"/>
	</g>
	<g>
		<path fill="#FFFFFF" d="M53.108,64.778H43.36H53.108z"/>
		<rect x="43.361" y="63.315" fill="#414042" width="9.747" height="2.926"/>
	</g>
</g>
</svg>
