<?xml version="1.0" encoding="utf-8"?>
<!-- Generator: Adobe Illustrator 19.2.1, SVG Export Plug-In . SVG Version: 6.00 Build 0)  -->
<svg version="1.1" id="Layer_1" xmlns="http://www.w3.org/2000/svg" xmlns:xlink="http://www.w3.org/1999/xlink" x="0px" y="0px"
	 viewBox="0 0 70.9 85" style="enable-background:new 0 0 70.9 85;" xml:space="preserve">
<style type="text/css">
	.st0{fill:#414042;}
	.st1{fill:#3CB44A;stroke:#414042;stroke-width:2.126;stroke-linejoin:round;stroke-miterlimit:10;}
	.st2{fill:none;stroke:#414042;stroke-width:3;stroke-linecap:round;stroke-linejoin:round;stroke-miterlimit:10;}
	.st3{fill:#D1D3D4;}
</style>
<g>
	<path class="st0" d="M33.2,3.1c-0.4,0.5-0.6,1.1-0.6,1.8c0,0.2,0,0.4,0.1,0.6c0.3,1.3,1.5,2.4,2.9,2.4c1.5,0,2.7-1.1,2.9-2.5
		c0-0.1,0-0.3,0-0.4c0-0.8-0.3-1.5-0.8-2.1C37.1,2.3,36.4,2,35.5,2C34.6,2,33.8,2.4,33.2,3.1z"/>
	<rect x="11" y="21.4" class="st1" width="49.1" height="25.5"/>
	<rect x="5.6" y="16.1" class="st2" width="59.8" height="65.3"/>
	<line class="st2" x1="13.3" y1="16.1" x2="31" y2="6"/>
	<line class="st2" x1="40.1" y1="6" x2="57.8" y2="16.1"/>
	<g>
		<rect x="9.7" y="53.6" class="st3" width="10.6" height="5"/>
		<rect x="23.4" y="53.6" class="st3" width="10.6" height="5"/>
		<rect x="37.1" y="53.6" class="st3" width="10.6" height="5"/>
		<rect x="50.8" y="53.6" class="st3" width="10.6" height="5"/>
		<rect x="9.7" y="63.1" class="st3" width="10.6" height="5"/>
		<rect x="23.4" y="63.1" class="st3" width="10.6" height="5"/>
		<rect x="37.1" y="63.1" class="st3" width="10.6" height="5"/>
		<rect x="50.8" y="63.1" class="st3" width="10.6" height="5"/>
		<rect x="9.7" y="72.6" class="st3" width="10.6" height="5"/>
		<rect x="23.4" y="72.6" class="st3" width="10.6" height="5"/>
		<rect x="37.1" y="72.6" class="st3" width="10.6" height="5"/>
		<rect x="50.8" y="72.6" class="st3" width="10.6" height="5"/>
		<path class="st0" d="M11.3,52.6c0.1,0,0.2,0.1,0.3,0.1h6.8c0.1,0,0.2,0,0.3-0.1c0.2-0.1,0.3-0.2,0.3-0.4c0-0.3-0.2-0.5-0.5-0.5
			h-6.8c-0.3,0-0.5,0.2-0.5,0.5C11.1,52.4,11.2,52.6,11.3,52.6z"/>
		<path class="st0" d="M11.6,61.1c-0.3,0-0.5,0.2-0.5,0.5c0,0.3,0.2,0.5,0.5,0.5h6.8c0.3,0,0.5-0.2,0.5-0.5c0-0.3-0.2-0.5-0.5-0.5
			H11.6z"/>
		<path class="st0" d="M11.6,70.4c-0.3,0-0.5,0.2-0.5,0.5c0,0.3,0.2,0.5,0.5,0.5h6.8c0.3,0,0.5-0.2,0.5-0.5c0-0.3-0.2-0.5-0.5-0.5
			H11.6z"/>
		<path class="st0" d="M25,52.6c0.1,0,0.2,0.1,0.3,0.1h6.8c0.1,0,0.2,0,0.3-0.1c0.2-0.1,0.3-0.2,0.3-0.4c0-0.3-0.2-0.5-0.5-0.5h-6.8
			c-0.3,0-0.5,0.2-0.5,0.5C24.8,52.4,24.9,52.6,25,52.6z"/>
		<path class="st0" d="M25.3,61.1c-0.3,0-0.5,0.2-0.5,0.5c0,0.3,0.2,0.5,0.5,0.5h6.8c0.3,0,0.5-0.2,0.5-0.5c0-0.3-0.2-0.5-0.5-0.5
			H25.3z"/>
		<path class="st0" d="M25.3,70.4c-0.3,0-0.5,0.2-0.5,0.5c0,0.3,0.2,0.5,0.5,0.5h6.8c0.3,0,0.5-0.2,0.5-0.5c0-0.3-0.2-0.5-0.5-0.5
			H25.3z"/>
		<path class="st0" d="M38.7,52.6c0.1,0,0.2,0.1,0.3,0.1h6.8c0.1,0,0.2,0,0.3-0.1c0.2-0.1,0.3-0.2,0.3-0.4c0-0.3-0.2-0.5-0.5-0.5H39
			c-0.3,0-0.5,0.2-0.5,0.5C38.4,52.4,38.5,52.6,38.7,52.6z"/>
		<path class="st0" d="M39,61.1c-0.3,0-0.5,0.2-0.5,0.5c0,0.3,0.2,0.5,0.5,0.5h6.8c0.3,0,0.5-0.2,0.5-0.5c0-0.3-0.2-0.5-0.5-0.5H39z
			"/>
		<path class="st0" d="M39,70.4c-0.3,0-0.5,0.2-0.5,0.5c0,0.3,0.2,0.5,0.5,0.5h6.8c0.3,0,0.5-0.2,0.5-0.5c0-0.3-0.2-0.5-0.5-0.5H39z
			"/>
		<path class="st0" d="M52.6,52.7h6.8c0.1,0,0.2,0,0.3-0.1c0.2-0.1,0.3-0.2,0.3-0.4c0-0.3-0.2-0.5-0.5-0.5h-6.8
			c-0.3,0-0.5,0.2-0.5,0.5c0,0.2,0.1,0.3,0.3,0.4C52.5,52.7,52.5,52.7,52.6,52.7z"/>
		<path class="st0" d="M59.5,62.1c0.3,0,0.5-0.2,0.5-0.5c0-0.3-0.2-0.5-0.5-0.5h-6.8c-0.3,0-0.5,0.2-0.5,0.5c0,0.3,0.2,0.5,0.5,0.5
			H59.5z"/>
		<path class="st0" d="M59.5,71.3c0.3,0,0.5-0.2,0.5-0.5c0-0.3-0.2-0.5-0.5-0.5h-6.8c-0.3,0-0.5,0.2-0.5,0.5c0,0.3,0.2,0.5,0.5,0.5
			H59.5z"/>
	</g>
</g>
</svg>
