<?xml version="1.0" encoding="utf-8"?>
<!-- Generator: Adobe Illustrator 16.0.0, SVG Export Plug-In . SVG Version: 6.00 Build 0)  -->
<!DOCTYPE svg PUBLIC "-//W3C//DTD SVG 1.1//EN" "http://www.w3.org/Graphics/SVG/1.1/DTD/svg11.dtd">
<svg version="1.1" id="Layer_1" xmlns="http://www.w3.org/2000/svg" xmlns:xlink="http://www.w3.org/1999/xlink" x="0px" y="0px"
	 width="76.222px" height="96.698px" viewBox="0 0 76.222 96.698" enable-background="new 0 0 76.222 96.698" xml:space="preserve">
<path fill="#414042" d="M35.368,1.345C34.901,1.942,34.61,2.682,34.61,3.5c0,0.233,0.024,0.466,0.071,0.691
	C35.003,5.794,36.416,7,38.111,7c1.754,0,3.193-1.293,3.447-2.978c0.024-0.17,0.052-0.345,0.052-0.522
	c0-0.954-0.383-1.816-1.001-2.444C39.973,0.403,39.09,0,38.111,0C36.994-0.004,36.01,0.53,35.368,1.345z"/>
<rect x="7.391" y="22.797" fill="#3CB44A" width="61.441" height="31.004"/>
<rect x="2.527" y="16.758" fill="none" stroke="#414042" stroke-width="3" stroke-linecap="round" stroke-linejoin="round" stroke-miterlimit="10" width="71.167" height="77.661"/>
<line fill="none" stroke="#414042" stroke-width="3" stroke-linecap="round" stroke-linejoin="round" stroke-miterlimit="10" x1="11.662" y1="16.758" x2="32.694" y2="4.744"/>
<line fill="none" stroke="#414042" stroke-width="3" stroke-linecap="round" stroke-linejoin="round" stroke-miterlimit="10" x1="43.527" y1="4.744" x2="64.559" y2="16.758"/>
<g>
	<rect x="7.388" y="61.412" fill="#D1D3D4" width="12.624" height="5.997"/>
	<rect x="23.661" y="61.412" fill="#D1D3D4" width="12.624" height="5.997"/>
	<rect x="39.935" y="61.412" fill="#D1D3D4" width="12.623" height="5.997"/>
	<rect x="56.208" y="61.412" fill="#D1D3D4" width="12.623" height="5.997"/>
	<rect x="7.388" y="72.71" fill="#D1D3D4" width="12.624" height="5.992"/>
	<rect x="23.661" y="72.71" fill="#D1D3D4" width="12.624" height="5.992"/>
	<rect x="39.935" y="72.71" fill="#D1D3D4" width="12.623" height="5.992"/>
	<rect x="56.208" y="72.71" fill="#D1D3D4" width="12.623" height="5.992"/>
	<rect x="7.388" y="84.005" fill="#D1D3D4" width="12.624" height="5.998"/>
	<rect x="23.661" y="84.005" fill="#D1D3D4" width="12.624" height="5.998"/>
	<rect x="39.935" y="84.005" fill="#D1D3D4" width="12.623" height="5.998"/>
	<rect x="56.208" y="84.005" fill="#D1D3D4" width="12.623" height="5.998"/>
	<path fill="#414042" d="M9.329,60.256c0.091,0.046,0.19,0.084,0.302,0.084h8.136c0.114,0,0.212-0.038,0.303-0.084
		c0.189-0.101,0.324-0.279,0.324-0.496c0-0.32-0.28-0.58-0.627-0.58H9.631c-0.345,0-0.625,0.26-0.625,0.58
		C9.006,59.977,9.137,60.156,9.329,60.256z"/>
	<path fill="#414042" d="M9.631,70.361c-0.345,0-0.625,0.257-0.625,0.578c0,0.318,0.28,0.576,0.625,0.576h8.136
		c0.347,0,0.627-0.258,0.627-0.576c0-0.321-0.28-0.578-0.627-0.578H9.631z"/>
	<path fill="#414042" d="M9.631,81.345c-0.345,0-0.625,0.258-0.625,0.578c0,0.319,0.28,0.576,0.625,0.576h8.136
		c0.347,0,0.627-0.257,0.627-0.576c0-0.32-0.28-0.578-0.627-0.578H9.631z"/>
	<path fill="#414042" d="M25.603,60.256c0.091,0.046,0.19,0.084,0.303,0.084h8.136c0.112,0,0.212-0.038,0.303-0.084
		c0.19-0.101,0.324-0.279,0.324-0.496c0-0.32-0.281-0.58-0.626-0.58h-8.136c-0.347,0-0.627,0.26-0.627,0.58
		C25.278,59.977,25.412,60.156,25.603,60.256z"/>
	<path fill="#414042" d="M25.906,70.361c-0.347,0-0.627,0.257-0.627,0.578c0,0.318,0.281,0.576,0.627,0.576h8.136
		c0.346,0,0.626-0.258,0.626-0.576c0-0.321-0.281-0.578-0.626-0.578H25.906z"/>
	<path fill="#414042" d="M25.906,81.345c-0.347,0-0.627,0.258-0.627,0.578c0,0.319,0.281,0.576,0.627,0.576h8.136
		c0.346,0,0.626-0.257,0.626-0.576c0-0.32-0.281-0.578-0.626-0.578H25.906z"/>
	<path fill="#414042" d="M41.875,60.256c0.093,0.046,0.191,0.084,0.303,0.084h8.137c0.112,0,0.212-0.038,0.303-0.084
		c0.188-0.101,0.323-0.279,0.323-0.496c0-0.32-0.28-0.58-0.626-0.58h-8.137c-0.345,0-0.625,0.26-0.625,0.58
		C41.553,59.977,41.685,60.156,41.875,60.256z"/>
	<path fill="#414042" d="M42.178,70.361c-0.345,0-0.625,0.257-0.625,0.578c0,0.318,0.28,0.576,0.625,0.576h8.137
		c0.346,0,0.626-0.258,0.626-0.576c0-0.321-0.28-0.578-0.626-0.578H42.178z"/>
	<path fill="#414042" d="M42.178,81.345c-0.345,0-0.625,0.258-0.625,0.578c0,0.319,0.28,0.576,0.625,0.576h8.137
		c0.346,0,0.626-0.257,0.626-0.576c0-0.32-0.28-0.578-0.626-0.578H42.178z"/>
	<path fill="#414042" d="M58.452,60.34h8.136c0.114,0,0.211-0.038,0.304-0.084c0.189-0.101,0.324-0.279,0.324-0.496
		c0-0.32-0.282-0.58-0.628-0.58h-8.136c-0.346,0-0.626,0.26-0.626,0.58c0,0.217,0.133,0.396,0.323,0.496
		C58.241,60.302,58.339,60.34,58.452,60.34z"/>
	<path fill="#414042" d="M66.587,71.515c0.346,0,0.628-0.258,0.628-0.576c0-0.321-0.282-0.578-0.628-0.578h-8.136
		c-0.346,0-0.626,0.257-0.626,0.578c0,0.318,0.28,0.576,0.626,0.576H66.587z"/>
	<path fill="#414042" d="M66.587,82.5c0.346,0,0.628-0.257,0.628-0.576c0-0.32-0.282-0.578-0.628-0.578h-8.136
		c-0.346,0-0.626,0.258-0.626,0.578c0,0.319,0.28,0.576,0.626,0.576H66.587z"/>
</g>
</svg>
