<?xml version="1.0" encoding="utf-8"?>
<!-- Generator: Adobe Illustrator 16.0.0, SVG Export Plug-In . SVG Version: 6.00 Build 0)  -->
<!DOCTYPE svg PUBLIC "-//W3C//DTD SVG 1.1//EN" "http://www.w3.org/Graphics/SVG/1.1/DTD/svg11.dtd">
<svg version="1.1" id="Layer_1" xmlns="http://www.w3.org/2000/svg" xmlns:xlink="http://www.w3.org/1999/xlink" x="0px" y="0px"
	 width="35px" height="35px" viewBox="79.756 7.5 35 35" enable-background="new 79.756 7.5 35 35" xml:space="preserve">
<path fill="#E2E2E2" d="M97.75,32.74c-0.246,0.243-0.58,0.341-0.9,0.304c-0.321,0.037-0.654-0.061-0.9-0.304l-9.232-9.121
	c-0.426-0.421-0.426-1.104,0-1.524l2.766-2.733c0.426-0.421,1.116-0.421,1.543,0l5.752,5.684l12.439-12.813
	C106.089,9.299,101.883,7.5,97.255,7.5c-9.665,0-17.5,7.835-17.5,17.5s7.835,17.5,17.5,17.5c9.666,0,17.5-7.835,17.5-17.5
	c0-2.656-0.595-5.172-1.654-7.427L97.75,32.74z"/>
</svg>
