<?xml version="1.0" encoding="utf-8"?>
<!-- Generator: Adobe Illustrator 16.0.0, SVG Export Plug-In . SVG Version: 6.00 Build 0)  -->
<!DOCTYPE svg PUBLIC "-//W3C//DTD SVG 1.1//EN" "http://www.w3.org/Graphics/SVG/1.1/DTD/svg11.dtd">
<svg version="1.1" id="Layer_1" xmlns="http://www.w3.org/2000/svg" xmlns:xlink="http://www.w3.org/1999/xlink" x="0px" y="0px"
	 width="76.222px" height="96.698px" viewBox="0 0 76.222 96.698" enable-background="new 0 0 76.222 96.698" xml:space="preserve">
<g>
	<g>
		<g>
			<path fill="#414042" d="M38.021,74.417c-1.13,0-2.268-0.065-3.383-0.194l0.365-3.157c0.995,0.114,2.009,0.174,3.018,0.174h0.103
				l0.017,3.178H38.021z M41.519,74.208l-0.377-3.156c0.998-0.118,1.998-0.298,2.973-0.532l0.742,3.091
				C43.763,73.874,42.638,74.075,41.519,74.208z M31.298,73.639c-1.098-0.26-2.192-0.585-3.252-0.972l1.085-2.987
				c0.944,0.345,1.918,0.635,2.896,0.864L31.298,73.639z M48.103,72.625l-1.1-2.98c0.943-0.348,1.873-0.754,2.77-1.209l1.439,2.833
				C50.207,71.78,49.162,72.236,48.103,72.625z M24.93,71.326c-1.006-0.506-1.994-1.077-2.937-1.696l1.747-2.655
				c0.84,0.553,1.72,1.06,2.617,1.51L24.93,71.326z M54.14,69.561l-1.76-2.647c0.836-0.557,1.648-1.167,2.414-1.815l2.055,2.424
				C55.988,68.251,55.078,68.937,54.14,69.561z M19.274,67.604c-0.864-0.725-1.694-1.507-2.468-2.324l2.31-2.184
				c0.689,0.729,1.429,1.427,2.2,2.072L19.274,67.604z M59.304,65.187l-2.32-2.173c0.688-0.733,1.338-1.515,1.936-2.323l2.555,1.891
				C60.804,63.488,60.074,64.363,59.304,65.187z M14.624,62.687c-0.674-0.903-1.303-1.854-1.868-2.827l2.749-1.596
				c0.504,0.868,1.064,1.717,1.665,2.521L14.624,62.687z M63.328,59.742l-2.756-1.58c0.498-0.872,0.951-1.781,1.346-2.704
				l2.922,1.247C64.398,57.742,63.888,58.764,63.328,59.742z M11.229,56.833c-0.449-1.035-0.84-2.107-1.165-3.186l3.044-0.915
				c0.289,0.962,0.638,1.916,1.037,2.836L11.229,56.833z M65.988,53.513l-3.047-0.9c0.283-0.96,0.514-1.948,0.682-2.94l3.133,0.537
				C66.566,51.322,66.308,52.433,65.988,53.513z M9.279,50.347c-0.195-1.107-0.328-2.239-0.395-3.367l3.173-0.187
				c0.059,1.004,0.177,2.014,0.352,3.001L9.279,50.347z M67.132,46.841l-3.172-0.172C63.986,46.195,64,45.719,64,45.239
				c0-0.535-0.016-1.067-0.049-1.594l3.174-0.192c0.035,0.59,0.053,1.192,0.053,1.786C67.177,45.778,67.162,46.31,67.132,46.841z
				 M12.052,43.77l-3.173-0.177c0.063-1.128,0.192-2.261,0.384-3.367l3.131,0.543C12.223,41.754,12.108,42.764,12.052,43.77z
				 M63.595,40.645c-0.178-0.988-0.412-1.977-0.703-2.938l3.043-0.918c0.326,1.079,0.592,2.188,0.789,3.299L63.595,40.645z
				 M13.083,37.828l-3.046-0.905c0.321-1.082,0.71-2.155,1.156-3.192l2.919,1.257C13.716,35.91,13.37,36.866,13.083,37.828z
				 M61.851,34.874c-0.4-0.92-0.859-1.826-1.363-2.693l2.746-1.6c0.566,0.974,1.082,1.99,1.531,3.024L61.851,34.874z M15.467,32.287
				l-2.753-1.588c0.563-0.976,1.189-1.93,1.862-2.833l2.55,1.896C16.527,30.567,15.969,31.417,15.467,32.287z M58.82,29.663
				c-0.604-0.804-1.26-1.581-1.951-2.309l2.305-2.188c0.775,0.818,1.512,1.688,2.188,2.59L58.82,29.663z M19.067,27.444
				l-2.313-2.178c0.772-0.821,1.6-1.603,2.461-2.33l2.048,2.431C20.494,26.015,19.755,26.713,19.067,27.444z M54.666,25.285
				c-0.771-0.644-1.588-1.249-2.428-1.8l1.74-2.658c0.941,0.617,1.859,1.296,2.725,2.019L54.666,25.285z M23.682,23.558
				l-1.752-2.652c0.94-0.621,1.925-1.193,2.931-1.701l1.433,2.836C25.398,22.494,24.52,23.004,23.682,23.558z M49.617,21.98
				c-0.896-0.448-1.832-0.849-2.775-1.188l1.076-2.99c1.063,0.383,2.111,0.833,3.121,1.336L49.617,21.98z M29.064,20.839
				l-1.093-2.984c1.058-0.387,2.15-0.716,3.247-0.979l0.737,3.091C30.979,20.201,30.006,20.494,29.064,20.839z M43.943,19.935
				c-0.977-0.227-1.979-0.399-2.977-0.511l0.355-3.159c1.121,0.126,2.246,0.32,3.342,0.575L43.943,19.935z M34.93,19.44
				l-0.373-3.156c1.115-0.132,2.253-0.2,3.382-0.203l0.008,3.178C36.939,19.261,35.924,19.322,34.93,19.44z"/>
		</g>
	</g>
	<g>
		<g>
			<circle fill="#FFFFFF" cx="19.998" cy="21.245" r="18.409"/>
			<path fill="#414042" d="M19.998,41.242C8.971,41.242,0,32.271,0,21.245C0,10.22,8.971,1.249,19.998,1.249
				c11.026,0,19.998,8.971,19.998,19.996C39.996,32.271,31.024,41.242,19.998,41.242z M19.998,4.427
				c-9.275,0-16.82,7.545-16.82,16.818c0,9.274,7.545,16.819,16.82,16.819c9.274,0,16.819-7.545,16.819-16.819
				C36.817,11.972,29.272,4.427,19.998,4.427z"/>
		</g>
		<circle fill="#D2D3D4" cx="19.998" cy="21.245" r="14.226"/>
		<g>
			<circle fill="#FFFFFF" cx="19.998" cy="19.58" r="4.997"/>
			<path fill="#414042" d="M19.997,26.165c-3.631,0-6.585-2.954-6.585-6.585c0-3.631,2.955-6.586,6.585-6.586
				c3.632,0,6.586,2.956,6.586,6.586C26.583,23.211,23.629,26.165,19.997,26.165z M19.997,16.171c-1.879,0-3.408,1.529-3.408,3.408
				c0,1.879,1.529,3.408,3.408,3.408c1.879,0,3.408-1.529,3.408-3.408C23.405,17.7,21.876,16.171,19.997,16.171z"/>
		</g>
		<g>
			<path fill="#FFFFFF" d="M23.745,25.132H16.25c-2.761,0-4.999,2.237-4.999,4.997v0.407c2.286,2.153,5.359,3.479,8.746,3.479
				c3.389,0,6.46-1.327,8.746-3.479v-0.407C28.743,27.369,26.506,25.132,23.745,25.132z"/>
			<path fill="#414042" d="M19.997,35.604c-3.664,0-7.157-1.389-9.835-3.912l-0.5-0.47v-1.093c0-3.632,2.955-6.586,6.588-6.586
				h7.495c3.632,0,6.586,2.955,6.586,6.586v1.093l-0.5,0.47C27.154,34.216,23.661,35.604,19.997,35.604z M12.853,29.833
				c2.01,1.677,4.521,2.593,7.144,2.593s5.134-0.916,7.144-2.593c-0.15-1.741-1.616-3.113-3.396-3.113H16.25
				C14.47,26.721,13.003,28.092,12.853,29.833z"/>
		</g>
	</g>
	<g>
		<g>
			<path fill="#FFFFFF" d="M56.015,83.346c-9.449,0-17.136-7.686-17.136-17.134s7.687-17.136,17.136-17.136
				c9.447,0,17.133,7.688,17.133,17.136S65.462,83.346,56.015,83.346z"/>
			<path fill="#414042" d="M56.015,84.935c-10.326,0-18.725-8.397-18.725-18.723s8.398-18.725,18.725-18.725
				c10.322,0,18.721,8.399,18.721,18.725S66.337,84.935,56.015,84.935z M56.015,50.666c-8.572,0-15.547,6.974-15.547,15.547
				c0,8.571,6.975,15.545,15.547,15.545c8.57,0,15.543-6.974,15.543-15.545C71.558,57.639,64.585,50.666,56.015,50.666z"/>
		</g>
		<path fill="#3CB44A" d="M46.511,72.82c-1.352-1.925-2.076-4.204-2.076-6.607c0-6.384,5.195-11.58,11.58-11.58
			c6.383,0,11.578,5.196,11.578,11.58c0,2.403-0.725,4.682-2.076,6.607c-0.91-2.29-3.146-3.914-5.754-3.914h-7.496
			C49.658,68.906,47.419,70.53,46.511,72.82z"/>
		<g>
			<circle fill="#FFFFFF" cx="56.014" cy="64.547" r="4.997"/>
			<path fill="#414042" d="M56.015,71.133c-3.633,0-6.586-2.955-6.586-6.586s2.953-6.586,6.586-6.586
				c3.631,0,6.586,2.955,6.586,6.586S59.646,71.133,56.015,71.133z M56.015,61.14c-1.881,0-3.408,1.528-3.408,3.407
				s1.527,3.407,3.408,3.407c1.879,0,3.408-1.528,3.408-3.407S57.894,61.14,56.015,61.14z"/>
		</g>
		<g>
			<path fill="#414042" d="M66.347,80.862h-3.178v-5.766c0-1.879-1.527-3.409-3.406-3.409h-7.496c-1.879,0-3.408,1.53-3.408,3.409
				v5.766h-3.178v-5.766c0-3.633,2.953-6.587,6.586-6.587h7.496c3.631,0,6.584,2.954,6.584,6.587V80.862z"/>
		</g>
	</g>
	<g>
		<g>
			<rect x="26.278" y="45.202" fill="#414042" width="3.178" height="10.063"/>
		</g>
		<g>
			<rect x="22.834" y="48.646" fill="#414042" width="10.063" height="3.178"/>
		</g>
	</g>
	<g>
		<g>
			<rect x="66.265" y="6.007" fill="#414042" width="3.178" height="11.652"/>
		</g>
		<g>
			<rect x="62.029" y="10.244" fill="#414042" width="11.652" height="3.178"/>
		</g>
	</g>
	<g>
		<circle fill="#FFFFFF" cx="17.538" cy="63.209" r="7.415"/>
		<path fill="#414042" d="M17.539,72.214c-4.965,0-9.005-4.039-9.005-9.005c0-4.964,4.04-9.003,9.005-9.003
			c4.964,0,9.003,4.039,9.003,9.003C26.542,68.175,22.503,72.214,17.539,72.214z M17.539,57.384c-3.213,0-5.827,2.615-5.827,5.825
			c0,3.214,2.614,5.827,5.827,5.827c3.212,0,5.825-2.613,5.825-5.827C23.364,60,20.75,57.384,17.539,57.384z"/>
	</g>
</g>
</svg>
