<?xml version="1.0" encoding="utf-8"?>
<!-- Generator: Adobe Illustrator 16.0.0, SVG Export Plug-In . SVG Version: 6.00 Build 0)  -->
<!DOCTYPE svg PUBLIC "-//W3C//DTD SVG 1.1//EN" "http://www.w3.org/Graphics/SVG/1.1/DTD/svg11.dtd">
<svg version="1.1" id="Layer_1" xmlns="http://www.w3.org/2000/svg" xmlns:xlink="http://www.w3.org/1999/xlink" x="0px" y="0px"
	 width="76.222px" height="96.698px" viewBox="0 0 76.222 96.698" enable-background="new 0 0 76.222 96.698" xml:space="preserve">
<g>
	<g>
		<path fill="#414042" d="M17.767,77.582c-9.715,0-17.619-7.904-17.619-17.618c0-9.716,7.903-17.618,17.619-17.618
			c9.715,0,17.619,7.902,17.619,17.618C35.386,69.677,27.482,77.582,17.767,77.582z M17.767,45.335
			c-8.066,0-14.628,6.563-14.628,14.628s6.563,14.628,14.628,14.628s14.628-6.563,14.628-14.628S25.833,45.335,17.767,45.335z"/>
	</g>
	<path fill="#3CB44A" d="M8.825,66.18c-1.271-1.811-1.954-3.955-1.954-6.217c0-6.008,4.888-10.895,10.896-10.895
		c6.008,0,10.895,4.887,10.895,10.895c0,2.262-0.682,4.406-1.953,6.216c-0.855-2.153-2.961-3.68-5.416-3.68h-7.053
		C11.785,62.5,9.681,64.026,8.825,66.18z"/>
	<circle fill="#D2D3D4" cx="38.143" cy="19.895" r="13.386"/>
	<g>
		<path fill="#414042" d="M38.143,38.71c-10.375,0-18.815-8.441-18.815-18.815c0-10.375,8.44-18.816,18.815-18.816
			c10.375,0,18.816,8.441,18.816,18.816C56.958,30.27,48.518,38.71,38.143,38.71z M38.143,4.069c-8.726,0-15.825,7.1-15.825,15.826
			S29.417,35.72,38.143,35.72c8.727,0,15.826-7.099,15.826-15.825S46.87,4.069,38.143,4.069z"/>
	</g>
	<g>
		<circle fill="#FFFFFF" cx="38.143" cy="18.328" r="4.702"/>
		<path fill="#414042" d="M38.143,24.524c-3.417,0-6.197-2.779-6.197-6.196c0-3.417,2.78-6.198,6.197-6.198
			c3.418,0,6.198,2.78,6.198,6.198C44.34,21.745,41.561,24.524,38.143,24.524z M38.143,15.12c-1.768,0-3.207,1.438-3.207,3.208
			c0,1.768,1.438,3.206,3.207,3.206s3.208-1.438,3.208-3.206C41.35,16.559,39.911,15.12,38.143,15.12z"/>
	</g>
	<g>
		<path fill="#FFFFFF" d="M41.67,23.551h-7.054c-2.596,0-4.703,2.106-4.703,4.702v0.382c2.15,2.026,5.042,3.276,8.229,3.276
			c3.189,0,6.079-1.25,8.229-3.276v-0.382C46.372,25.657,44.266,23.551,41.67,23.551z"/>
		<path fill="#414042" d="M38.143,33.407c-3.446,0-6.732-1.308-9.254-3.682l-0.47-0.444v-1.028c0-3.417,2.78-6.197,6.198-6.197
			h7.054c3.416,0,6.196,2.781,6.196,6.197v1.028l-0.47,0.444C44.876,32.099,41.589,33.407,38.143,33.407z M31.42,27.976
			c1.892,1.579,4.254,2.441,6.722,2.441c2.467,0,4.83-0.863,6.722-2.441c-0.142-1.639-1.52-2.929-3.194-2.929h-7.054
			C32.942,25.046,31.562,26.337,31.42,27.976z"/>
	</g>
	<g>
		<circle fill="#FFFFFF" cx="17.767" cy="58.397" r="4.702"/>
		<path fill="#414042" d="M17.767,64.593c-3.417,0-6.197-2.78-6.197-6.196c0-3.418,2.78-6.198,6.197-6.198
			c3.417,0,6.198,2.78,6.198,6.198C23.965,61.813,21.185,64.593,17.767,64.593z M17.767,55.189c-1.768,0-3.207,1.439-3.207,3.208
			c0,1.768,1.439,3.206,3.207,3.206c1.769,0,3.208-1.438,3.208-3.206C20.975,56.628,19.536,55.189,17.767,55.189z"/>
	</g>
	<g>
		<path fill="#414042" d="M27.492,73.748h-2.99v-5.425c0-1.769-1.439-3.207-3.208-3.207h-7.053c-1.769,0-3.208,1.438-3.208,3.207
			v5.425h-2.99v-5.425c0-3.417,2.78-6.197,6.198-6.197h7.053c3.417,0,6.198,2.78,6.198,6.197V73.748z"/>
	</g>
	<g>
		<path fill="#414042" d="M58.374,77.582c-9.716,0-17.619-7.904-17.619-17.618c0-9.716,7.903-17.618,17.619-17.618
			c9.714,0,17.617,7.902,17.617,17.618C75.991,69.677,68.087,77.582,58.374,77.582z M58.374,45.335
			c-8.067,0-14.629,6.563-14.629,14.628s6.562,14.628,14.629,14.628C66.439,74.591,73,68.029,73,59.963S66.439,45.335,58.374,45.335
			z"/>
	</g>
	<path fill="#3CB44A" d="M49.43,66.18c-1.271-1.811-1.953-3.955-1.953-6.217c0-6.008,4.888-10.895,10.896-10.895
		c6.008,0,10.896,4.887,10.896,10.895c0,2.262-0.684,4.406-1.954,6.216c-0.855-2.153-2.96-3.68-5.415-3.68h-7.054
		C52.391,62.5,50.286,64.026,49.43,66.18z"/>
	<g>
		<circle fill="#FFFFFF" cx="58.374" cy="58.397" r="4.701"/>
		<path fill="#414042" d="M58.374,64.593c-3.417,0-6.196-2.78-6.196-6.196c0-3.418,2.779-6.198,6.196-6.198s6.196,2.78,6.196,6.198
			C64.57,61.813,61.791,64.593,58.374,64.593z M58.374,55.189c-1.769,0-3.206,1.439-3.206,3.208c0,1.768,1.438,3.206,3.206,3.206
			s3.206-1.438,3.206-3.206C61.58,56.628,60.142,55.189,58.374,55.189z"/>
	</g>
	<g>
		<path fill="#414042" d="M68.096,73.748h-2.99v-5.425c0-1.769-1.438-3.207-3.206-3.207h-7.054c-1.769,0-3.207,1.438-3.207,3.207
			v5.425h-2.99v-5.425c0-3.417,2.78-6.197,6.197-6.197H61.9c3.416,0,6.196,2.78,6.196,6.197V73.748z"/>
	</g>
	<g>
		<path fill="#FFFFFF" d="M38.143,31.725v14.477V31.725z"/>
		<rect x="36.647" y="31.725" fill="#414042" width="2.99" height="14.477"/>
	</g>
	<g>
		<g>
			<path fill="#FFFFFF" d="M29.564,49.604l8.302-4.793L29.564,49.604z"/>
			
				<rect x="32.221" y="42.414" transform="matrix(0.5 0.866 -0.866 0.5 57.7382 -5.596)" fill="#414042" width="2.99" height="9.587"/>
		</g>
		<g>
			<path fill="#FFFFFF" d="M46.722,49.604l-8.304-4.793L46.722,49.604z"/>
			
				<rect x="37.776" y="45.712" transform="matrix(0.866 0.5 -0.5 0.866 29.3046 -14.96)" fill="#414042" width="9.588" height="2.99"/>
		</g>
	</g>
</g>
</svg>
