<?xml version="1.0" encoding="utf-8"?>
<!-- Generator: Adobe Illustrator 16.0.0, SVG Export Plug-In . SVG Version: 6.00 Build 0)  -->
<!DOCTYPE svg PUBLIC "-//W3C//DTD SVG 1.1//EN" "http://www.w3.org/Graphics/SVG/1.1/DTD/svg11.dtd">
<svg version="1.1" id="Layer_1" xmlns="http://www.w3.org/2000/svg" xmlns:xlink="http://www.w3.org/1999/xlink" x="0px" y="0px"
	 width="8.322px" height="8.322px" viewBox="0 0 8.322 8.322" enable-background="new 0 0 8.322 8.322" xml:space="preserve">
<g>
	<defs>
		<rect id="SVGID_1_" x="0.979" y="1.361" width="6.363" height="6.364"/>
	</defs>
	<clipPath id="SVGID_2_">
		<use xlink:href="#SVGID_1_"  overflow="visible"/>
	</clipPath>
	<path clip-path="url(#SVGID_2_)" fill="#39B54A" d="M1.616,1.361h5.092c0.35,0,0.635,0.286,0.635,0.637v5.091
		c0,0.35-0.285,0.637-0.635,0.637H1.616c-0.35,0-0.637-0.287-0.637-0.637V1.998C0.979,1.647,1.267,1.361,1.616,1.361"/>
	<path clip-path="url(#SVGID_2_)" fill="#FFFFFF" d="M1.983,4.743l0.527-0.527c0.072-0.073,0.191-0.073,0.264,0l0.66,0.659
		L5.55,2.76c0.072-0.073,0.189-0.073,0.264,0l0.527,0.527c0.074,0.072,0.074,0.191,0,0.265L4.099,5.795L4.095,5.798L3.565,6.328
		c-0.01,0.01-0.02,0.018-0.033,0.024L3.526,6.357L3.522,6.359L3.509,6.366L3.501,6.369L3.497,6.371L3.491,6.372L3.487,6.374
		L3.483,6.375l-0.01,0.001L3.47,6.377C3.466,6.378,3.458,6.379,3.452,6.38H3.446H3.442H3.438L3.435,6.381L3.431,6.38H3.425H3.421
		H3.417H3.413L3.407,6.379L3.403,6.378L3.399,6.377L3.394,6.376L3.39,6.375H3.386L3.382,6.374L3.378,6.372L3.374,6.371L3.368,6.369
		L3.364,6.368L3.36,6.366L3.356,6.364L3.351,6.361L3.347,6.359L3.343,6.357L3.339,6.355L3.337,6.352L3.333,6.35L3.327,6.348
		L3.323,6.345L3.319,6.342L3.315,6.339L3.313,6.336L3.31,6.333L3.306,6.33L3.302,6.328L2.774,5.798L2.771,5.795L1.983,5.007
		C1.909,4.933,1.909,4.815,1.983,4.743"/>
</g>
</svg>
