<?xml version="1.0" encoding="utf-8"?>
<!-- Generator: Adobe Illustrator 19.2.1, SVG Export Plug-In . SVG Version: 6.00 Build 0)  -->
<svg version="1.1" id="Layer_1" xmlns="http://www.w3.org/2000/svg" xmlns:xlink="http://www.w3.org/1999/xlink" x="0px" y="0px"
	 viewBox="0 0 70.9 85" style="enable-background:new 0 0 70.9 85;" xml:space="preserve">
<style type="text/css">
	.st0{fill:#3CB44A;stroke:#414042;stroke-width:2.126;stroke-linejoin:round;stroke-miterlimit:10;}
	.st1{fill:#414042;}
	.st2{fill:none;}
</style>
<rect x="14.3" y="13.3" class="st0" width="32.9" height="23.3"/>
<path class="st1" d="M62.9,12.5l-3.7,0h0c0,0,0,0,0,0V10c0-0.7-0.6-1.2-1.2-1.2h-3.7V6.3c0-0.7-0.6-1.2-1.2-1.2l-44.5,0
	c-0.7,0-1.2,0.6-1.2,1.2v63.1c0,0.7,0.6,1.2,1.2,1.2h2.5v3.7c0,0.7,0.6,1.2,1.2,1.2h2.5v3.7c0,0.7,0.6,1.2,1.2,1.2h47
	c0.7,0,1.2-0.6,1.2-1.2V13.7C64.1,13.1,63.5,12.5,62.9,12.5L62.9,12.5z M9.6,68.2V7.5h4.5h2.5h35.1v60.6
	C51.7,68.2,9.6,68.2,9.6,68.2z M13.4,73.1v-2.5H53c0.7,0,1.2-0.6,1.2-1.2V11.3h2.5v61.9H13.4z M17.1,78.1v-2.5h40.8
	c0.7,0,1.2-0.6,1.2-1.2V15c0,0,0,0,0,0l2.5,0v63.1H17.1z"/>
<rect x="7.2" y="1.4" class="st2" width="57" height="79.4"/>
<path class="st1" d="M46.9,41.5H14.6c-0.7,0-1.2,0.6-1.2,1.2c0,0.7,0.6,1.2,1.2,1.2h32.3c0.7,0,1.2-0.6,1.2-1.2
	C48.1,42,47.6,41.5,46.9,41.5L46.9,41.5z"/>
<path class="st1" d="M46.9,46.4H14.6c-0.7,0-1.2,0.6-1.2,1.2c0,0.7,0.6,1.2,1.2,1.2h32.3c0.7,0,1.2-0.6,1.2-1.2
	C48.1,47,47.6,46.4,46.9,46.4L46.9,46.4z"/>
<path class="st1" d="M46.9,51.7H14.6c-0.7,0-1.2,0.6-1.2,1.2c0,0.7,0.6,1.2,1.2,1.2h32.3c0.7,0,1.2-0.6,1.2-1.2
	C48.1,52.2,47.6,51.7,46.9,51.7L46.9,51.7z"/>
<path class="st1" d="M41.9,56.6H19.5c-0.7,0-1.2,0.6-1.2,1.2c0,0.7,0.6,1.2,1.2,1.2h22.4c0.7,0,1.2-0.6,1.2-1.2
	C43.2,57.2,42.6,56.6,41.9,56.6L41.9,56.6z"/>
</svg>
