<?xml version="1.0" encoding="utf-8"?>
<!-- Generator: Adobe Illustrator 16.0.0, SVG Export Plug-In . SVG Version: 6.00 Build 0)  -->
<!DOCTYPE svg PUBLIC "-//W3C//DTD SVG 1.1//EN" "http://www.w3.org/Graphics/SVG/1.1/DTD/svg11.dtd">
<svg version="1.1" id="Layer_1" xmlns="http://www.w3.org/2000/svg" xmlns:xlink="http://www.w3.org/1999/xlink" x="0px" y="0px"
	 width="76.223px" height="96.697px" viewBox="0 0 76.223 96.697" enable-background="new 0 0 76.223 96.697" xml:space="preserve">
<rect x="11.499" y="16.059" fill="#3CB44A" width="39.602" height="26.39"/>
<path fill="#414042" d="M67.758,15.185l-4.188-0.024h-0.008c-0.008,0-0.017,0.002-0.023,0.002v-2.786
	c0-0.776-0.629-1.404-1.404-1.404h-4.211V8.164c0-0.775-0.629-1.403-1.404-1.403L5.971,6.76c-0.775,0-1.404,0.629-1.404,1.404
	v71.607c0,0.775,0.629,1.404,1.404,1.404h2.807v4.213c0,0.775,0.629,1.403,1.404,1.403h2.809v4.213c0,0.775,0.628,1.404,1.403,1.404
	H67.75c0.775,0,1.404-0.629,1.404-1.404V16.588C69.154,15.816,68.531,15.189,67.758,15.185L67.758,15.185z M7.376,78.367V9.568
	h5.082h2.808h39.848v68.799H7.376z M11.588,83.984v-2.809h44.93c0.775,0,1.404-0.628,1.404-1.403V13.781h2.808v70.203H11.588z
	 M15.8,89.599v-2.807h46.333c0.775,0,1.404-0.629,1.404-1.404v-67.42c0.005,0,0.01,0.001,0.016,0.001l2.792,0.016v71.614H15.8z
	 M15.8,89.599"/>
<rect x="4.567" y="2.556" fill="none" width="64.651" height="90.071"/>
<path fill="#414042" d="M49.629,48.044H12.97c-0.775,0-1.404,0.629-1.404,1.404s0.629,1.404,1.404,1.404h36.658
	c0.775,0,1.404-0.629,1.404-1.404S50.404,48.044,49.629,48.044L49.629,48.044z M49.629,48.044"/>
<path fill="#414042" d="M49.629,53.661H12.97c-0.775,0-1.404,0.628-1.404,1.404c0,0.774,0.629,1.402,1.404,1.402h36.658
	c0.775,0,1.404-0.628,1.404-1.402C51.033,54.29,50.404,53.661,49.629,53.661L49.629,53.661z M49.629,53.661"/>
<path fill="#414042" d="M49.629,59.661H12.97c-0.775,0-1.404,0.628-1.404,1.404c0,0.774,0.629,1.402,1.404,1.402h36.658
	c0.775,0,1.404-0.628,1.404-1.402C51.033,60.29,50.404,59.661,49.629,59.661L49.629,59.661z M49.629,59.661"/>
<path fill="#414042" d="M44.012,65.277H18.587c-0.775,0-1.404,0.629-1.404,1.404c0,0.776,0.629,1.404,1.404,1.404h25.426
	c0.775,0,1.404-0.628,1.404-1.404C45.417,65.906,44.788,65.277,44.012,65.277L44.012,65.277z M44.012,65.277"/>
</svg>
