<?xml version="1.0" encoding="utf-8"?>
<!-- Generator: Adobe Illustrator 16.0.0, SVG Export Plug-In . SVG Version: 6.00 Build 0)  -->
<!DOCTYPE svg PUBLIC "-//W3C//DTD SVG 1.1//EN" "http://www.w3.org/Graphics/SVG/1.1/DTD/svg11.dtd">
<svg version="1.1" id="Layer_1" xmlns="http://www.w3.org/2000/svg" xmlns:xlink="http://www.w3.org/1999/xlink" x="0px" y="0px"
	 width="76.222px" height="96.698px" viewBox="0 0 76.222 96.698" enable-background="new 0 0 76.222 96.698" xml:space="preserve">
<g>
	<g>
		<path fill="#414042" d="M33.119,72.247h-9.967l-0.581-6.977c-1.75-0.514-3.417-1.249-4.974-2.191l-5.15,4.357l-7.047-7.047
			l4.521-5.343c-0.872-1.599-1.529-3.296-1.964-5.068l-6.726-0.56l0.002-9.967l6.975-0.582c0.514-1.749,1.249-3.415,2.192-4.974
			l-4.358-5.151l7.049-7.046l5.341,4.521c1.598-0.871,3.296-1.529,5.068-1.963l0.561-6.725h9.966l0.582,6.977
			c1.75,0.515,3.417,1.249,4.974,2.192l5.15-4.358l7.048,7.048l-4.521,5.342c0.872,1.6,1.529,3.297,1.965,5.069l6.725,0.56
			l-0.001,9.967l-6.976,0.582c-0.515,1.749-1.249,3.415-2.192,4.974l4.357,5.149l-7.048,7.048l-5.342-4.52
			c-1.599,0.87-3.296,1.527-5.068,1.963L33.119,72.247z M25.851,69.314h4.569l0.519-6.226l1.095-0.209
			c2.172-0.413,4.228-1.207,6.108-2.357l0.904-0.554l4.879,4.128l3.23-3.23l-4.033-4.768l0.626-0.922
			c1.24-1.824,2.131-3.839,2.647-5.988l0.248-1.031l6.371-0.53l0.001-4.568l-6.227-0.52l-0.208-1.094
			c-0.413-2.171-1.207-4.227-2.358-6.109l-0.553-0.904l4.128-4.877l-3.23-3.23l-4.768,4.034l-0.921-0.626
			c-1.824-1.24-3.838-2.131-5.989-2.648l-1.03-0.249l-0.532-6.371H26.76l-0.519,6.227l-1.095,0.208
			c-2.174,0.414-4.229,1.207-6.108,2.358l-0.904,0.553l-4.878-4.128l-3.231,3.23l4.034,4.768L13.432,34.6
			c-1.241,1.826-2.132,3.839-2.648,5.988l-0.248,1.031l-6.37,0.531l-0.001,4.568l6.227,0.52l0.208,1.094
			c0.414,2.175,1.207,4.23,2.357,6.107l0.554,0.904l-4.128,4.88l3.23,3.23l4.768-4.034l0.922,0.627
			c1.823,1.24,3.838,2.132,5.987,2.648l1.031,0.248L25.851,69.314z"/>
	</g>
	<circle fill="#D2D3D4" cx="28.59" cy="44.888" r="12.947"/>
	<g>
		<circle fill="#FFFFFF" cx="28.59" cy="44.888" r="8.061"/>
		<path fill="#414042" d="M28.59,54.415c-5.253,0-9.527-4.273-9.527-9.526s4.274-9.528,9.527-9.528s9.527,4.275,9.527,9.528
			S33.843,54.415,28.59,54.415z M28.59,38.293c-3.636,0-6.594,2.959-6.594,6.595s2.958,6.594,6.594,6.594
			c3.636,0,6.594-2.958,6.594-6.594S32.226,38.293,28.59,38.293z"/>
	</g>
	<path fill="#3CB44A" d="M74.792,18.059l0.002-4.658l-3.869-0.323c-0.166-0.609-0.392-1.192-0.673-1.744l2.593-3.063L69.55,4.976
		l-2.963,2.508c-0.539-0.308-1.11-0.563-1.709-0.758l-0.333-3.999h-4.658l-0.322,3.868c-0.61,0.166-1.193,0.393-1.744,0.673
		l-3.064-2.592L51.462,7.97l2.508,2.964c-0.308,0.537-0.563,1.109-0.759,1.708l-3.997,0.333v4.658l3.866,0.323
		c0.167,0.61,0.393,1.192,0.674,1.744l-2.591,3.063l3.292,3.295l2.964-2.508c0.538,0.308,1.11,0.563,1.709,0.759l0.333,3.998h4.659
		l0.322-3.868c0.609-0.166,1.192-0.393,1.743-0.673l3.063,2.592l3.295-3.294l-2.507-2.963c0.307-0.539,0.563-1.11,0.758-1.709
		L74.792,18.059z M62.004,19.971c-2.461,0-4.455-1.995-4.455-4.454c0-2.46,1.994-4.454,4.455-4.454c2.459,0,4.452,1.994,4.452,4.454
		C66.457,17.977,64.463,19.971,62.004,19.971z"/>
</g>
</svg>
