<?xml version="1.0" encoding="utf-8"?>
<!-- Generator: Adobe Illustrator 16.0.0, SVG Export Plug-In . SVG Version: 6.00 Build 0)  -->
<!DOCTYPE svg PUBLIC "-//W3C//DTD SVG 1.1//EN" "http://www.w3.org/Graphics/SVG/1.1/DTD/svg11.dtd">
<svg version="1.1" id="Layer_1" xmlns="http://www.w3.org/2000/svg" xmlns:xlink="http://www.w3.org/1999/xlink" x="0px" y="0px"
	 width="76.222px" height="96.698px" viewBox="0 0 76.222 96.698" enable-background="new 0 0 76.222 96.698" xml:space="preserve">
<g>
	<g>
		<g>
			<path fill="#FFFFFF" d="M54.294,43.614l0.002-4.813l-4.275-0.354c-0.3-1.574-0.879-3.048-1.686-4.368l2.854-3.375l-3.399-3.401
				l-3.274,2.771c-1.283-0.872-2.729-1.521-4.282-1.894l-0.366-4.407h-4.813l-0.354,4.275c-1.573,0.3-3.048,0.878-4.369,1.686
				l-3.373-2.855l-3.401,3.4l2.77,3.274c-0.872,1.283-1.521,2.728-1.894,4.282l-4.405,0.367l-0.001,4.81l4.275,0.356
				c0.3,1.573,0.879,3.048,1.688,4.367l-2.855,3.375l3.399,3.4l3.274-2.769c1.284,0.871,2.729,1.519,4.284,1.893l0.365,4.408h4.813
				l0.354-4.275c1.575-0.299,3.049-0.879,4.368-1.688l3.376,2.856l3.399-3.399l-2.77-3.276c0.871-1.282,1.521-2.728,1.894-4.281
				L54.294,43.614z"/>
			<path fill="#414042" d="M40.648,59.542l-7.574-0.002l-0.393-4.745c-0.954-0.306-1.869-0.709-2.739-1.204l-3.494,2.956
				l-5.35-5.354l3.074-3.633c-0.457-0.889-0.819-1.821-1.084-2.789l-4.562-0.379l0.003-7.571l4.743-0.394
				c0.307-0.954,0.709-1.869,1.205-2.738l-2.956-3.496l5.354-5.353l3.633,3.076c0.889-0.456,1.822-0.818,2.789-1.083l0.379-4.562
				h7.574l0.394,4.746c0.953,0.307,1.869,0.709,2.738,1.205l3.495-2.958l5.352,5.355l-3.074,3.633
				c0.456,0.891,0.817,1.824,1.081,2.79l4.563,0.378l-0.002,7.573l-4.743,0.396c-0.307,0.952-0.709,1.868-1.205,2.736l2.956,3.496
				l-5.352,5.351l-3.636-3.074c-0.891,0.457-1.823,0.82-2.789,1.082L40.648,59.542z M35.835,56.542h2.051l0.335-4.035l1.12-0.213
				c1.373-0.261,2.673-0.763,3.866-1.493l0.924-0.565l3.149,2.665l1.448-1.448l-2.614-3.091l0.64-0.944
				c0.786-1.156,1.35-2.43,1.677-3.788l0.253-1.053l4.111-0.343v-2.05l-4.035-0.334l-0.213-1.121
				c-0.262-1.375-0.764-2.676-1.492-3.867l-0.565-0.924l2.663-3.146l-1.447-1.451l-3.091,2.615l-0.941-0.64
				c-1.156-0.785-2.432-1.35-3.79-1.676l-1.054-0.253l-0.342-4.112h-2.051l-0.334,4.035l-1.121,0.214
				c-1.376,0.262-2.677,0.765-3.866,1.493L30.19,31.58l-3.147-2.665l-1.449,1.449l2.614,3.091l-0.64,0.942
				c-0.786,1.156-1.35,2.43-1.677,3.788l-0.253,1.055l-4.11,0.343v2.049l4.034,0.336l0.214,1.119
				c0.263,1.377,0.765,2.678,1.493,3.866l0.567,0.924l-2.665,3.148l1.447,1.449l3.09-2.614l0.942,0.641
				c1.156,0.785,2.431,1.35,3.792,1.676l1.055,0.254L35.835,56.542z"/>
		</g>
		<circle fill="#3CB44A" cx="37.16" cy="40.906" r="6.334"/>
	</g>
	<g>
		<path fill="#3CB44A" d="M11.357,66.687C4.463,59.792,0.666,50.625,0.666,40.874c0-8.896,3.174-17.328,8.986-23.978l7.451,7.451
			c-8.4,10.195-7.822,25.414,1.68,34.916c9.501,9.503,24.721,10.08,34.917,1.681l7.448,7.45c-6.649,5.812-15.08,8.986-23.98,8.986
			C27.418,77.379,18.251,73.583,11.357,66.687z"/>
		<path fill="#D2D3D4" d="M12.813,13.692c6.063-5.446,13.665-8.663,21.794-9.223v10.536c-5.319,0.518-10.301,2.642-14.356,6.125
			L12.813,13.692z"/>
		<g>
			<path fill="#FFFFFF" d="M56.916,57.794c8.755-10.205,8.301-25.641-1.361-35.304c-4.458-4.458-10.229-7.089-16.447-7.541V4.435
				c9.023,0.467,17.442,4.2,23.874,10.631c13.758,13.758,14.216,35.854,1.376,50.169L56.916,57.794z"/>
			<path fill="#414042" d="M64.416,67.417l-9.544-9.545l0.905-1.055c8.281-9.652,7.717-24.265-1.283-33.266
				c-4.219-4.218-9.577-6.676-15.495-7.105l-1.392-0.101V2.855l1.578,0.082c9.376,0.486,18.204,4.417,24.856,11.068
				c14.273,14.273,14.901,37.216,1.432,52.232L64.416,67.417z M58.933,57.69l5.339,5.34c11.33-13.827,10.417-34.133-2.353-46.903
				c-5.752-5.751-13.269-9.294-21.312-10.076v7.54c6.031,0.751,11.671,3.503,16.007,7.838C66.388,31.205,67.299,46.87,58.933,57.69z
				"/>
		</g>
	</g>
</g>
</svg>
