<?xml version="1.0" encoding="utf-8"?>
<!-- Generator: Adobe Illustrator 16.0.0, SVG Export Plug-In . SVG Version: 6.00 Build 0)  -->
<!DOCTYPE svg PUBLIC "-//W3C//DTD SVG 1.1//EN" "http://www.w3.org/Graphics/SVG/1.1/DTD/svg11.dtd">
<svg version="1.1" id="Layer_1" xmlns="http://www.w3.org/2000/svg" xmlns:xlink="http://www.w3.org/1999/xlink" x="0px" y="0px"
	 width="76.222px" height="96.698px" viewBox="0 0 76.222 96.698" enable-background="new 0 0 76.222 96.698" xml:space="preserve">
<g>
	<g>
		<path fill="#FFFFFF" d="M9.675,79.656c-3.51,0-6.354,3.782-6.354,7.294c0,3.509,2.844,6.353,6.354,6.353
			c0.025,0,0.048-0.004,0.072-0.004v0.004h56.632L9.675,79.656z"/>
		<path fill="#414042" d="M9.717,95.126H7.923v-0.188c-3.67-0.804-6.427-4.081-6.427-7.988c0-4.305,3.498-9.119,8.179-9.119v3.649
			c-2.51,0-4.53,2.991-4.53,5.47c0,2.482,2.007,4.503,4.484,4.527h56.75v3.649H9.717z"/>
	</g>
	<g>
		<polygon fill="#FFFFFF" points="56.589,9.13 15.813,9.13 15.813,24.571 15.813,44.931 15.813,86.533 72.447,86.533 72.447,44.931 
			72.447,24.99 		"/>
		<polygon fill="#414042" points="74.271,88.358 13.989,88.358 13.989,7.306 56.589,7.306 56.589,10.955 17.638,10.955 
			17.638,84.708 70.622,84.708 70.622,24.99 74.271,24.99 		"/>
	</g>
	<g>
		<polygon fill="#D2D3D4" points="59.326,22.253 74.271,22.253 59.326,7.306 		"/>
	</g>
	<g>
		<path fill="#FFFFFF" d="M22.286,20.447H48.78H22.286z"/>
		<rect x="22.286" y="18.623" fill="#414042" width="26.494" height="3.649"/>
	</g>
	<g>
		<path fill="#FFFFFF" d="M36.883,70.023h27.281H36.883z"/>
		<rect x="36.883" y="68.199" fill="#414042" width="27.281" height="3.649"/>
	</g>
	<g>
		<path fill="#FFFFFF" d="M36.883,76.775h27.281H36.883z"/>
		<rect x="36.883" y="74.95" fill="#414042" width="27.281" height="3.649"/>
	</g>
	<g>
		<path fill="#FFFFFF" d="M22.224,55.732h42.7H22.224z"/>
		<rect x="22.224" y="53.908" fill="#414042" width="42.7" height="3.648"/>
	</g>
	<g>
		<path fill="#FFFFFF" d="M22.224,62.485h42.7H22.224z"/>
		<rect x="22.224" y="60.661" fill="#414042" width="42.7" height="3.648"/>
	</g>
	<rect x="22.168" y="27.608" fill="#3CB44A" width="42.793" height="23.473"/>
	<rect x="22.168" y="67.901" fill="#D2D3D4" width="10.834" height="10.835"/>
	<g>
		<path fill="#FFFFFF" d="M15.899,8.674c-0.224-3.266-2.937-5.85-6.259-5.85c-3.323,0-6.038,2.583-6.261,5.85H3.357v77.553h0.021
			c0.224-3.267,2.938-5.852,6.261-5.852c3.323,0,6.036,2.585,6.259,5.852h0.022V8.674H15.899z"/>
		<path fill="#414042" d="M17.746,88.051h-3.551l-0.116-1.7C13.919,84.024,11.969,82.2,9.64,82.2c-2.331,0-4.282,1.824-4.441,4.151
			l-0.116,1.7H1.554l-0.021-1.824V6.85h0.327C2.845,3.46,5.985,1,9.64,1c3.653,0,6.793,2.46,7.778,5.85h0.305l0.022,1.824V88.051z
			 M9.64,78.551c1.638,0,3.173,0.495,4.457,1.347V9.019l-0.018-0.221c-0.159-2.327-2.109-4.15-4.439-4.15
			c-2.332,0-4.282,1.823-4.441,4.15l-0.017,0.25v70.85C6.465,79.046,8.001,78.551,9.64,78.551z"/>
	</g>
</g>
</svg>
