<?xml version="1.0" encoding="utf-8"?>
<!-- Generator: Adobe Illustrator 19.2.1, SVG Export Plug-In . SVG Version: 6.00 Build 0)  -->
<svg version="1.1" id="Layer_1" xmlns="http://www.w3.org/2000/svg" xmlns:xlink="http://www.w3.org/1999/xlink" x="0px" y="0px"
	 viewBox="0 0 70.9 85" style="enable-background:new 0 0 70.9 85;" xml:space="preserve">
<style type="text/css">
	.st0{fill:#FFFFFF;}
	.st1{fill:#414042;}
	.st2{fill:#D2D3D4;}
	.st3{fill:#3CB44A;stroke:#414042;stroke-width:2.126;stroke-linejoin:round;stroke-miterlimit:10;}
</style>
<g>
	<path class="st0" d="M11.5,69c-3,0-5.4,3.2-5.4,6.2c0,3,2.4,5.4,5.4,5.4c0,0,0,0,0.1,0v0h47.8L11.5,69z"/>
	<path class="st1" d="M11.6,82h-1.5v-0.2c-3.1-0.7-5.4-3.4-5.4-6.7c0-3,2-6.2,4.8-7.3c1-0.4,2.1,0.4,2.1,1.4v0c0,0.6-0.4,1.2-1,1.4
		c-1.6,0.6-2.8,2.7-2.8,4.4c0,2.1,1.7,3.8,3.8,3.8h46.3c0.8,0,1.5,0.7,1.5,1.5v0c0,0.8-0.7,1.5-1.5,1.5H11.6z"/>
</g>
<g>
	<path class="st1" d="M64.5,76.3H16.7c-0.8,0-1.5-0.7-1.5-1.5V9.5c0-0.8,0.7-1.5,1.5-1.5h32.8c0.8,0,1.5,0.7,1.5,1.5v0
		c0,0.8-0.7,1.5-1.5,1.5H19.8c-0.8,0-1.5,0.7-1.5,1.5v59.1c0,0.8,0.7,1.5,1.5,1.5h41.6c0.8,0,1.5-0.7,1.5-1.5V24.4
		c0-0.8,0.7-1.5,1.5-1.5h0c0.8,0,1.5,0.7,1.5,1.5v50.4C66,75.6,65.3,76.3,64.5,76.3z"/>
</g>
<g>
	<polygon class="st2" points="53.4,20.6 66,20.6 53.4,8 	"/>
</g>
<rect x="23.2" y="24" class="st3" width="34.1" height="18.1"/>
<rect x="22.1" y="60.7" class="st2" width="11.3" height="7.5"/>
<g>
	<path class="st0" d="M16.8,9.1c-0.2-2.8-2.5-4.9-5.3-4.9c-2.8,0-5.1,2.2-5.3,4.9h0v65.4h0c0.2-2.8,2.5-4.9,5.3-4.9s5.1,2.2,5.3,4.9
		h0L16.8,9.1L16.8,9.1z"/>
	<path class="st1" d="M18.3,76.1h-3l-0.1-1.4c-0.1-2-1.8-3.5-3.7-3.5c-2,0-3.6,1.5-3.7,3.5l-0.1,1.4h-3l0-1.5V7.6h0.3
		c0.8-2.9,3.5-4.9,6.6-4.9c3.1,0,5.7,2.1,6.6,4.9h0.3l0,1.5L18.3,76.1L18.3,76.1z M11.5,68.1c1.4,0,2.7,0.4,3.8,1.1V9.4l0-0.2
		c-0.1-2-1.8-3.5-3.7-3.5c-2,0-3.6,1.5-3.7,3.5l0,0.2v59.7C8.8,68.5,10.1,68.1,11.5,68.1z"/>
</g>
<path class="st1" d="M56.7,45.6H23.4c-0.7,0-1.2,0.6-1.2,1.2s0.6,1.2,1.2,1.2h33.3c0.7,0,1.2-0.6,1.2-1.2S57.4,45.6,56.7,45.6
	L56.7,45.6z"/>
<path class="st1" d="M56.7,50.7H23.4c-0.7,0-1.2,0.6-1.2,1.2c0,0.7,0.6,1.2,1.2,1.2h33.3c0.7,0,1.2-0.6,1.2-1.2
	C58,51.2,57.4,50.7,56.7,50.7L56.7,50.7z"/>
<path class="st1" d="M56.7,55.7H23.4c-0.7,0-1.2,0.6-1.2,1.2c0,0.7,0.6,1.2,1.2,1.2h33.3c0.7,0,1.2-0.6,1.2-1.2
	C58,56.3,57.4,55.7,56.7,55.7L56.7,55.7z"/>
<path class="st1" d="M57.2,65.7H36.8c-0.7,0-1.2,0.6-1.2,1.2c0,0.7,0.6,1.2,1.2,1.2h20.4c0.7,0,1.2-0.6,1.2-1.2
	C58.4,66.3,57.9,65.7,57.2,65.7L57.2,65.7z"/>
<path class="st1" d="M57.2,60.7H36.8c-0.7,0-1.2,0.6-1.2,1.2c0,0.7,0.6,1.2,1.2,1.2h20.4c0.7,0,1.2-0.6,1.2-1.2
	C58.4,61.3,57.9,60.7,57.2,60.7L57.2,60.7z"/>
<path class="st1" d="M43.7,18.1H23.3c-0.7,0-1.2,0.6-1.2,1.2c0,0.7,0.6,1.2,1.2,1.2h20.4c0.7,0,1.2-0.6,1.2-1.2
	C44.9,18.7,44.4,18.1,43.7,18.1L43.7,18.1z"/>
</svg>
