<?xml version="1.0" encoding="utf-8"?>
<!-- Generator: Adobe Illustrator 19.2.1, SVG Export Plug-In . SVG Version: 6.00 Build 0)  -->
<svg version="1.1" id="Layer_1" xmlns="http://www.w3.org/2000/svg" xmlns:xlink="http://www.w3.org/1999/xlink" x="0px" y="0px"
	 viewBox="0 0 79.4 85" style="enable-background:new 0 0 79.4 85;" xml:space="preserve">
<style type="text/css">
	.st0{fill:#FFFFFF;}
	.st1{fill:#3CB44A;}
	.st2{fill:#D1D3D4;}
	.st3{fill:#414042;}
</style>
<g>
	<path class="st0" d="M73.2,76.3c0,2.7-2.2,4.8-4.8,4.8c-2.7,0-4.8-2.2-4.8-4.8c0-2.7,2.2-4.8,4.8-4.8C71,71.5,73.2,73.7,73.2,76.3
		L73.2,76.3z"/>
</g>
<g>
	<path class="st0" d="M15.4,76.3c0,2.7-2.2,4.8-4.8,4.8S5.8,79,5.8,76.3c0-2.7,2.2-4.8,4.8-4.8S15.4,73.7,15.4,76.3L15.4,76.3z"/>
</g>
<g>
	<rect x="10.6" y="9" class="st0" width="4.8" height="67.3"/>
</g>
<g>
	<rect x="5.8" y="13.8" class="st0" width="4.8" height="62.5"/>
</g>
<g>
	<rect x="10.6" y="76.3" class="st0" width="57.7" height="4.8"/>
</g>
<g>
	<rect x="15.4" y="4.2" class="st0" width="57.7" height="72.2"/>
</g>
<g>
	<rect x="20.2" y="23.4" class="st1" width="48.1" height="19.2"/>
</g>
<g>
	<rect x="20.2" y="9" class="st2" width="48.1" height="4.8"/>
</g>
<g>
	<path class="st3" d="M5.8,77.5c-0.7,0-1.2-0.5-1.2-1.2V13.8c0-0.7,0.5-1.2,1.2-1.2S7,13.1,7,13.8v62.5C7,77,6.5,77.5,5.8,77.5z"/>
</g>
<g>
	<path class="st3" d="M10.6,82.3c-3.3,0-6-2.7-6-6c0-0.7,0.5-1.2,1.2-1.2S7,75.7,7,76.3c0,2,1.6,3.6,3.6,3.6c2,0,3.6-1.6,3.6-3.6
		c0-0.7,0.5-1.2,1.2-1.2s1.2,0.5,1.2,1.2C16.6,79.6,13.9,82.3,10.6,82.3z"/>
</g>
<g>
	<path class="st3" d="M15.4,77.5c-0.7,0-1.2-0.5-1.2-1.2V4.2c0-0.7,0.5-1.2,1.2-1.2s1.2,0.5,1.2,1.2v72.2
		C16.6,77,16.1,77.5,15.4,77.5z"/>
</g>
<g>
	<path class="st3" d="M73.2,5.4H15.4c-0.7,0-1.2-0.5-1.2-1.2c0-0.7,0.5-1.2,1.2-1.2h57.7c0.7,0,1.2,0.5,1.2,1.2
		C74.4,4.8,73.8,5.4,73.2,5.4z"/>
</g>
<g>
	<path class="st3" d="M10.6,77.5c-0.7,0-1.2-0.5-1.2-1.2V9c0-0.7,0.5-1.2,1.2-1.2c0.7,0,1.2,0.5,1.2,1.2v67.3
		C11.8,77,11.3,77.5,10.6,77.5z"/>
</g>
<g>
	<path class="st3" d="M68.4,82.3H10.6c-0.7,0-1.2-0.5-1.2-1.2c0-0.7,0.5-1.2,1.2-1.2h57.7c0.7,0,1.2,0.5,1.2,1.2
		C69.6,81.8,69,82.3,68.4,82.3z"/>
</g>
<g>
	<path class="st3" d="M68.4,82.3c-0.7,0-1.2-0.5-1.2-1.2c0-0.7,0.5-1.2,1.2-1.2c2,0,3.6-1.6,3.6-3.6c0-0.7,0.5-1.2,1.2-1.2
		c0.7,0,1.2,0.5,1.2,1.2C74.4,79.6,71.7,82.3,68.4,82.3z"/>
</g>
<g>
	<path class="st3" d="M73.2,77.5c-0.7,0-1.2-0.5-1.2-1.2V4.2C72,3.5,72.5,3,73.2,3c0.7,0,1.2,0.5,1.2,1.2v72.2
		C74.4,77,73.8,77.5,73.2,77.5z"/>
</g>
<g>
	<path class="st3" d="M68.4,15H20.2c-0.7,0-1.2-0.5-1.2-1.2V9c0-0.7,0.5-1.2,1.2-1.2h48.1c0.7,0,1.2,0.5,1.2,1.2v4.8
		C69.6,14.5,69,15,68.4,15z M21.5,12.6h45.7v-2.4H21.5V12.6z"/>
</g>
<g>
	<path class="st3" d="M68.4,19.8H20.2c-0.7,0-1.2-0.5-1.2-1.2c0-0.7,0.5-1.2,1.2-1.2h48.1c0.7,0,1.2,0.5,1.2,1.2
		C69.6,19.3,69,19.8,68.4,19.8z"/>
</g>
<g>
	<path class="st3" d="M68.4,43.9H20.2c-0.7,0-1.2-0.5-1.2-1.2V23.4c0-0.7,0.5-1.2,1.2-1.2h48.1c0.7,0,1.2,0.5,1.2,1.2v19.2
		C69.6,43.3,69,43.9,68.4,43.9z M21.5,41.5h45.7V24.6H21.5V41.5z"/>
</g>
<g>
	<path class="st3" d="M39.5,77.5H20.2c-0.7,0-1.2-0.5-1.2-1.2c0-0.7,0.5-1.2,1.2-1.2h19.2c0.7,0,1.2,0.5,1.2,1.2
		S40.2,77.5,39.5,77.5z"/>
</g>
<g>
	<path class="st3" d="M39.5,72.7H20.2c-0.7,0-1.2-0.5-1.2-1.2c0-0.7,0.5-1.2,1.2-1.2h19.2c0.7,0,1.2,0.5,1.2,1.2
		C40.7,72.2,40.2,72.7,39.5,72.7z"/>
</g>
<g>
	<path class="st3" d="M39.5,67.9H20.2c-0.7,0-1.2-0.5-1.2-1.2s0.5-1.2,1.2-1.2h19.2c0.7,0,1.2,0.5,1.2,1.2S40.2,67.9,39.5,67.9z"/>
</g>
<g>
	<path class="st3" d="M39.5,63.1H20.2c-0.7,0-1.2-0.5-1.2-1.2c0-0.7,0.5-1.2,1.2-1.2h19.2c0.7,0,1.2,0.5,1.2,1.2
		C40.7,62.6,40.2,63.1,39.5,63.1z"/>
</g>
<g>
	<path class="st3" d="M39.5,58.3H20.2c-0.7,0-1.2-0.5-1.2-1.2c0-0.7,0.5-1.2,1.2-1.2h19.2c0.7,0,1.2,0.5,1.2,1.2
		C40.7,57.8,40.2,58.3,39.5,58.3z"/>
</g>
<g>
	<path class="st3" d="M39.5,53.5H20.2c-0.7,0-1.2-0.5-1.2-1.2c0-0.7,0.5-1.2,1.2-1.2h19.2c0.7,0,1.2,0.5,1.2,1.2
		C40.7,52.9,40.2,53.5,39.5,53.5z"/>
</g>
<g>
	<path class="st3" d="M39.5,48.7H20.2c-0.7,0-1.2-0.5-1.2-1.2s0.5-1.2,1.2-1.2h19.2c0.7,0,1.2,0.5,1.2,1.2S40.2,48.7,39.5,48.7z"/>
</g>
<g>
	<path class="st3" d="M53.9,77.5h-9.6c-0.7,0-1.2-0.5-1.2-1.2c0-0.7,0.5-1.2,1.2-1.2h9.6c0.7,0,1.2,0.5,1.2,1.2
		C55.1,77,54.6,77.5,53.9,77.5z"/>
</g>
<g>
	<path class="st3" d="M53.9,72.7h-9.6c-0.7,0-1.2-0.5-1.2-1.2c0-0.7,0.5-1.2,1.2-1.2h9.6c0.7,0,1.2,0.5,1.2,1.2
		C55.1,72.2,54.6,72.7,53.9,72.7z"/>
</g>
<g>
	<path class="st3" d="M53.9,67.9h-9.6c-0.7,0-1.2-0.5-1.2-1.2s0.5-1.2,1.2-1.2h9.6c0.7,0,1.2,0.5,1.2,1.2S54.6,67.9,53.9,67.9z"/>
</g>
<g>
	<path class="st3" d="M53.9,63.1h-9.6c-0.7,0-1.2-0.5-1.2-1.2c0-0.7,0.5-1.2,1.2-1.2h9.6c0.7,0,1.2,0.5,1.2,1.2
		C55.1,62.6,54.6,63.1,53.9,63.1z"/>
</g>
<g>
	<path class="st3" d="M53.9,58.3h-9.6c-0.7,0-1.2-0.5-1.2-1.2c0-0.7,0.5-1.2,1.2-1.2h9.6c0.7,0,1.2,0.5,1.2,1.2
		C55.1,57.8,54.6,58.3,53.9,58.3z"/>
</g>
<g>
	<path class="st3" d="M53.9,53.5h-9.6c-0.7,0-1.2-0.5-1.2-1.2c0-0.7,0.5-1.2,1.2-1.2h9.6c0.7,0,1.2,0.5,1.2,1.2
		C55.1,52.9,54.6,53.5,53.9,53.5z"/>
</g>
<g>
	<path class="st3" d="M53.9,48.7h-9.6c-0.7,0-1.2-0.5-1.2-1.2s0.5-1.2,1.2-1.2h9.6c0.7,0,1.2,0.5,1.2,1.2S54.6,48.7,53.9,48.7z"/>
</g>
<g>
	<path class="st3" d="M68.4,77.5h-9.6c-0.7,0-1.2-0.5-1.2-1.2c0-0.7,0.5-1.2,1.2-1.2h9.6c0.7,0,1.2,0.5,1.2,1.2S69,77.5,68.4,77.5z"
		/>
</g>
<g>
	<path class="st3" d="M68.4,72.7h-9.6c-0.7,0-1.2-0.5-1.2-1.2c0-0.7,0.5-1.2,1.2-1.2h9.6c0.7,0,1.2,0.5,1.2,1.2
		C69.6,72.2,69,72.7,68.4,72.7z"/>
</g>
<g>
	<path class="st3" d="M68.4,67.9h-9.6c-0.7,0-1.2-0.5-1.2-1.2s0.5-1.2,1.2-1.2h9.6c0.7,0,1.2,0.5,1.2,1.2S69,67.9,68.4,67.9z"/>
</g>
<g>
	<path class="st3" d="M68.4,63.1h-9.6c-0.7,0-1.2-0.5-1.2-1.2c0-0.7,0.5-1.2,1.2-1.2h9.6c0.7,0,1.2,0.5,1.2,1.2
		C69.6,62.6,69,63.1,68.4,63.1z"/>
</g>
<g>
	<path class="st3" d="M68.4,58.3h-9.6c-0.7,0-1.2-0.5-1.2-1.2c0-0.7,0.5-1.2,1.2-1.2h9.6c0.7,0,1.2,0.5,1.2,1.2
		C69.6,57.8,69,58.3,68.4,58.3z"/>
</g>
<g>
	<path class="st3" d="M68.4,53.5h-9.6c-0.7,0-1.2-0.5-1.2-1.2c0-0.7,0.5-1.2,1.2-1.2h9.6c0.7,0,1.2,0.5,1.2,1.2
		C69.6,52.9,69,53.5,68.4,53.5z"/>
</g>
<g>
	<path class="st3" d="M68.4,48.7h-9.6c-0.7,0-1.2-0.5-1.2-1.2s0.5-1.2,1.2-1.2h9.6c0.7,0,1.2,0.5,1.2,1.2S69,48.7,68.4,48.7z"/>
</g>
</svg>
