<?xml version="1.0" encoding="utf-8"?>
<!-- Generator: Adobe Illustrator 16.0.0, SVG Export Plug-In . SVG Version: 6.00 Build 0)  -->
<!DOCTYPE svg PUBLIC "-//W3C//DTD SVG 1.1//EN" "http://www.w3.org/Graphics/SVG/1.1/DTD/svg11.dtd">
<svg version="1.1" id="Layer_1" xmlns="http://www.w3.org/2000/svg" xmlns:xlink="http://www.w3.org/1999/xlink" x="0px" y="0px"
	 width="76.222px" height="96.698px" viewBox="0 0 76.222 96.698" enable-background="new 0 0 76.222 96.698" xml:space="preserve">
<g>
	<path fill="#FFFFFF" d="M73.722,81.003c0,2.825-2.291,5.115-5.115,5.115c-2.825,0-5.115-2.29-5.115-5.115
		c0-2.824,2.29-5.114,5.115-5.114C71.431,75.889,73.722,78.179,73.722,81.003L73.722,81.003z"/>
</g>
<g>
	<path fill="#FFFFFF" d="M12.342,81.003c0,2.825-2.291,5.115-5.115,5.115s-5.115-2.29-5.115-5.115c0-2.824,2.29-5.114,5.115-5.114
		S12.342,78.179,12.342,81.003L12.342,81.003z"/>
</g>
<g>
	<rect x="7.227" y="9.394" fill="#FFFFFF" width="5.115" height="71.61"/>
</g>
<g>
	<rect x="2.112" y="14.509" fill="#FFFFFF" width="5.115" height="66.495"/>
</g>
<g>
	<rect x="7.227" y="81.003" fill="#FFFFFF" width="61.38" height="5.115"/>
</g>
<g>
	<rect x="12.342" y="4.279" fill="#FFFFFF" width="61.38" height="76.725"/>
</g>
<g>
	<rect x="17.457" y="24.739" fill="#3CB44A" width="51.15" height="20.46"/>
</g>
<g>
	<rect x="17.457" y="9.394" fill="#D1D3D4" width="51.15" height="5.115"/>
</g>
<g>
	<path fill="#414042" d="M2.112,82.283c-0.707,0-1.279-0.572-1.279-1.279V14.509c0-0.707,0.572-1.279,1.279-1.279
		c0.707,0,1.279,0.572,1.279,1.279v66.495C3.391,81.71,2.819,82.283,2.112,82.283z"/>
</g>
<g>
	<path fill="#414042" d="M7.227,87.398c-3.525,0-6.394-2.87-6.394-6.395c0-0.706,0.572-1.278,1.279-1.278
		c0.707,0,1.279,0.572,1.279,1.278c0,2.116,1.721,3.837,3.836,3.837c2.116,0,3.836-1.721,3.836-3.837
		c0-0.706,0.572-1.278,1.279-1.278c0.707,0,1.279,0.572,1.279,1.278C13.621,84.528,10.752,87.398,7.227,87.398z"/>
</g>
<g>
	<path fill="#414042" d="M12.342,82.283c-0.707,0-1.279-0.572-1.279-1.279V4.279C11.063,3.572,11.635,3,12.342,3
		c0.707,0,1.279,0.572,1.279,1.279v76.725C13.621,81.71,13.049,82.283,12.342,82.283z"/>
</g>
<g>
	<path fill="#414042" d="M73.722,5.558h-61.38c-0.707,0-1.279-0.572-1.279-1.279C11.063,3.572,11.635,3,12.342,3h61.38
		C74.428,3,75,3.572,75,4.279C75,4.985,74.428,5.558,73.722,5.558z"/>
</g>
<g>
	<path fill="#414042" d="M7.227,82.283c-0.707,0-1.279-0.572-1.279-1.279V9.394c0-0.707,0.572-1.279,1.279-1.279
		c0.707,0,1.279,0.572,1.279,1.279v71.61C8.506,81.71,7.934,82.283,7.227,82.283z"/>
</g>
<g>
	<path fill="#414042" d="M68.607,87.398H7.227c-0.707,0-1.279-0.572-1.279-1.279s0.572-1.278,1.279-1.278h61.38
		c0.707,0,1.278,0.571,1.278,1.278S69.314,87.398,68.607,87.398z"/>
</g>
<g>
	<path fill="#414042" d="M68.607,87.398c-0.707,0-1.279-0.572-1.279-1.279s0.572-1.278,1.279-1.278c2.115,0,3.836-1.721,3.836-3.837
		c0-0.706,0.572-1.278,1.279-1.278c0.706,0,1.278,0.572,1.278,1.278C75,84.528,72.132,87.398,68.607,87.398z"/>
</g>
<g>
	<path fill="#414042" d="M73.722,82.283c-0.707,0-1.279-0.572-1.279-1.279V4.279C72.443,3.572,73.015,3,73.722,3
		C74.428,3,75,3.572,75,4.279v76.725C75,81.71,74.428,82.283,73.722,82.283z"/>
</g>
<g>
	<path fill="#414042" d="M68.607,15.788h-51.15c-0.707,0-1.279-0.572-1.279-1.279V9.394c0-0.707,0.572-1.279,1.279-1.279h51.15
		c0.707,0,1.278,0.572,1.278,1.279v5.115C69.885,15.215,69.314,15.788,68.607,15.788z M18.736,13.23h48.592v-2.558H18.736V13.23z"/>
</g>
<g>
	<path fill="#414042" d="M68.607,20.902h-51.15c-0.707,0-1.279-0.572-1.279-1.279c0-0.707,0.572-1.279,1.279-1.279h51.15
		c0.707,0,1.278,0.572,1.278,1.279C69.885,20.331,69.314,20.902,68.607,20.902z"/>
</g>
<g>
	<path fill="#414042" d="M68.607,46.478h-51.15c-0.707,0-1.279-0.572-1.279-1.279v-20.46c0-0.707,0.572-1.279,1.279-1.279h51.15
		c0.707,0,1.278,0.572,1.278,1.279v20.46C69.885,45.906,69.314,46.478,68.607,46.478z M18.736,43.92h48.592V26.018H18.736V43.92z"/>
</g>
<g>
	<path fill="#414042" d="M37.917,82.283h-20.46c-0.707,0-1.279-0.572-1.279-1.279c0-0.706,0.572-1.278,1.279-1.278h20.46
		c0.707,0,1.279,0.572,1.279,1.278C39.196,81.71,38.624,82.283,37.917,82.283z"/>
</g>
<g>
	<path fill="#414042" d="M37.917,77.167h-20.46c-0.707,0-1.279-0.572-1.279-1.278c0-0.707,0.572-1.279,1.279-1.279h20.46
		c0.707,0,1.279,0.572,1.279,1.279C39.196,76.595,38.624,77.167,37.917,77.167z"/>
</g>
<g>
	<path fill="#414042" d="M37.917,72.052h-20.46c-0.707,0-1.279-0.571-1.279-1.278s0.572-1.278,1.279-1.278h20.46
		c0.707,0,1.279,0.571,1.279,1.278S38.624,72.052,37.917,72.052z"/>
</g>
<g>
	<path fill="#414042" d="M37.917,66.938h-20.46c-0.707,0-1.279-0.572-1.279-1.279s0.572-1.278,1.279-1.278h20.46
		c0.707,0,1.279,0.571,1.279,1.278S38.624,66.938,37.917,66.938z"/>
</g>
<g>
	<path fill="#414042" d="M37.917,61.823h-20.46c-0.707,0-1.279-0.572-1.279-1.278c0-0.707,0.572-1.279,1.279-1.279h20.46
		c0.707,0,1.279,0.572,1.279,1.279C39.196,61.25,38.624,61.823,37.917,61.823z"/>
</g>
<g>
	<path fill="#414042" d="M37.917,56.708h-20.46c-0.707,0-1.279-0.571-1.279-1.278s0.572-1.279,1.279-1.279h20.46
		c0.707,0,1.279,0.572,1.279,1.279S38.624,56.708,37.917,56.708z"/>
</g>
<g>
	<path fill="#414042" d="M37.917,51.593h-20.46c-0.707,0-1.279-0.572-1.279-1.279s0.572-1.279,1.279-1.279h20.46
		c0.707,0,1.279,0.572,1.279,1.279S38.624,51.593,37.917,51.593z"/>
</g>
<g>
	<path fill="#414042" d="M53.262,82.283h-10.23c-0.707,0-1.278-0.572-1.278-1.279c0-0.706,0.571-1.278,1.278-1.278h10.23
		c0.706,0,1.278,0.572,1.278,1.278C54.541,81.71,53.968,82.283,53.262,82.283z"/>
</g>
<g>
	<path fill="#414042" d="M53.262,77.167h-10.23c-0.707,0-1.278-0.572-1.278-1.278c0-0.707,0.571-1.279,1.278-1.279h10.23
		c0.706,0,1.278,0.572,1.278,1.279C54.541,76.595,53.968,77.167,53.262,77.167z"/>
</g>
<g>
	<path fill="#414042" d="M53.262,72.052h-10.23c-0.707,0-1.278-0.571-1.278-1.278s0.571-1.278,1.278-1.278h10.23
		c0.706,0,1.278,0.571,1.278,1.278S53.968,72.052,53.262,72.052z"/>
</g>
<g>
	<path fill="#414042" d="M53.262,66.938h-10.23c-0.707,0-1.278-0.572-1.278-1.279s0.571-1.278,1.278-1.278h10.23
		c0.706,0,1.278,0.571,1.278,1.278S53.968,66.938,53.262,66.938z"/>
</g>
<g>
	<path fill="#414042" d="M53.262,61.823h-10.23c-0.707,0-1.278-0.572-1.278-1.278c0-0.707,0.571-1.279,1.278-1.279h10.23
		c0.706,0,1.278,0.572,1.278,1.279C54.541,61.25,53.968,61.823,53.262,61.823z"/>
</g>
<g>
	<path fill="#414042" d="M53.262,56.708h-10.23c-0.707,0-1.278-0.571-1.278-1.278s0.571-1.279,1.278-1.279h10.23
		c0.706,0,1.278,0.572,1.278,1.279S53.968,56.708,53.262,56.708z"/>
</g>
<g>
	<path fill="#414042" d="M53.262,51.593h-10.23c-0.707,0-1.278-0.572-1.278-1.279s0.571-1.279,1.278-1.279h10.23
		c0.706,0,1.278,0.572,1.278,1.279S53.968,51.593,53.262,51.593z"/>
</g>
<g>
	<path fill="#414042" d="M68.607,82.283h-10.23c-0.706,0-1.278-0.572-1.278-1.279c0-0.706,0.572-1.278,1.278-1.278h10.23
		c0.707,0,1.278,0.572,1.278,1.278C69.885,81.71,69.314,82.283,68.607,82.283z"/>
</g>
<g>
	<path fill="#414042" d="M68.607,77.167h-10.23c-0.706,0-1.278-0.572-1.278-1.278c0-0.707,0.572-1.279,1.278-1.279h10.23
		c0.707,0,1.278,0.572,1.278,1.279C69.885,76.595,69.314,77.167,68.607,77.167z"/>
</g>
<g>
	<path fill="#414042" d="M68.607,72.052h-10.23c-0.706,0-1.278-0.571-1.278-1.278s0.572-1.278,1.278-1.278h10.23
		c0.707,0,1.278,0.571,1.278,1.278S69.314,72.052,68.607,72.052z"/>
</g>
<g>
	<path fill="#414042" d="M68.607,66.938h-10.23c-0.706,0-1.278-0.572-1.278-1.279s0.572-1.278,1.278-1.278h10.23
		c0.707,0,1.278,0.571,1.278,1.278S69.314,66.938,68.607,66.938z"/>
</g>
<g>
	<path fill="#414042" d="M68.607,61.823h-10.23c-0.706,0-1.278-0.572-1.278-1.278c0-0.707,0.572-1.279,1.278-1.279h10.23
		c0.707,0,1.278,0.572,1.278,1.279C69.885,61.25,69.314,61.823,68.607,61.823z"/>
</g>
<g>
	<path fill="#414042" d="M68.607,56.708h-10.23c-0.706,0-1.278-0.571-1.278-1.278s0.572-1.279,1.278-1.279h10.23
		c0.707,0,1.278,0.572,1.278,1.279S69.314,56.708,68.607,56.708z"/>
</g>
<g>
	<path fill="#414042" d="M68.607,51.593h-10.23c-0.706,0-1.278-0.572-1.278-1.279s0.572-1.279,1.278-1.279h10.23
		c0.707,0,1.278,0.572,1.278,1.279S69.314,51.593,68.607,51.593z"/>
</g>
</svg>
