<?xml version="1.0" encoding="utf-8"?>
<!-- Generator: Adobe Illustrator 16.0.0, SVG Export Plug-In . SVG Version: 6.00 Build 0)  -->
<!DOCTYPE svg PUBLIC "-//W3C//DTD SVG 1.1//EN" "http://www.w3.org/Graphics/SVG/1.1/DTD/svg11.dtd">
<svg version="1.1" id="Layer_1" xmlns="http://www.w3.org/2000/svg" xmlns:xlink="http://www.w3.org/1999/xlink" x="0px" y="0px"
	 width="76.222px" height="96.698px" viewBox="0 0 76.222 96.698" enable-background="new 0 0 76.222 96.698" xml:space="preserve">
<g>
	<g>
		<path fill="#414042" d="M65.585,48.295H61.8V30.848c0-14.185-11.54-25.725-25.724-25.725c-14.185,0-25.726,11.54-25.726,25.725
			v17.448H6.565V30.848c0-16.271,13.239-29.51,29.511-29.51c16.272,0,29.509,13.238,29.509,29.51V48.295z"/>
	</g>
	<path fill="#3CB44A" d="M67.414,49.639c0,3.309-2.682,5.99-5.989,5.99h-0.499c-3.31,0-5.99-2.682-5.99-5.99V38.658
		c0-3.309,2.681-5.99,5.99-5.99h0.499c3.308,0,5.989,2.682,5.989,5.99V49.639z"/>
	<g>
		<path fill="#FFFFFF" d="M4.893,95.456v-10.8c0-4.772,4.372-8.64,9.762-8.64h42.841c5.392,0,9.762,3.867,9.762,8.64v10.8H4.893z"/>
		<path fill="#414042" d="M69.151,95.456h-3.785v-10.8c0-3.721-3.53-6.747-7.869-6.747H14.655c-4.339,0-7.87,3.026-7.87,6.747v10.8
			H3v-10.8c0-5.808,5.228-10.532,11.655-10.532h42.841c6.427,0,11.654,4.725,11.654,10.532V95.456z"/>
	</g>
	<g>
		<path fill="#FFFFFF" d="M57.885,30.848v17.448c0,12.045-9.765,21.81-21.809,21.81l0,0c-12.046,0-21.81-9.765-21.81-21.81V30.848
			H57.885z"/>
		<path fill="#414042" d="M36.076,71.999c-13.069,0-23.703-10.634-23.703-23.703V30.848h3.785v17.448
			c0,10.982,8.935,19.917,19.917,19.917c10.982,0,19.917-8.935,19.917-19.917V30.848h3.786v17.448
			C59.779,61.365,49.146,71.999,36.076,71.999z"/>
	</g>
	<path fill="#D2D3D4" d="M51.352,7.855h-11.35H28.289c-3.53,0-6.632,1.815-8.435,4.563h-3.466c-0.307,0-0.608,0.023-0.908,0.056
		c-3.858,4.322-6.377,9.858-6.909,15.958v20.235h5.502V31.7c0-3.04,2.464-5.503,5.502-5.503h3.21h17.217h9.839h2.901h2.142h2.902
		c5.573,0,10.089-4.517,10.089-10.088V7.855H51.352z"/>
	<g>
		<path fill="#414042" d="M15.966,48.667H12.18V31.7c0-4.079,3.318-7.396,7.395-7.396h38.211c4.521,0,8.196-3.676,8.196-8.195V7.855
			h3.786v8.253c0,6.606-5.375,11.981-11.982,11.981H19.575c-1.99,0-3.609,1.62-3.609,3.611V48.667z"/>
	</g>
	<path fill="#3CB44A" d="M16.758,49.639c0,3.309-2.683,5.99-5.99,5.99h-0.499c-3.31,0-5.99-2.682-5.99-5.99V38.658
		c0-3.309,2.681-5.99,5.99-5.99h0.499c3.308,0,5.99,2.682,5.99,5.99V49.639z"/>
	<g>
		<path fill="#414042" d="M10.351,48.295H6.565V30.848c0-16.271,13.239-29.51,29.511-29.51v3.785
			c-14.185,0-25.726,11.54-25.726,25.725V48.295z"/>
	</g>
	<g>
		<polygon fill="#414042" points="40.114,84.613 31.181,84.613 27.26,77.822 30.539,75.929 33.366,80.828 37.928,80.828 
			40.755,75.929 44.035,77.822 		"/>
	</g>
	<g>
		
			<rect x="33.192" y="87.418" transform="matrix(0.2129 0.9771 -0.9771 0.2129 118.7329 31.2351)" fill="#414042" width="13.577" height="3.785"/>
	</g>
	<g>
		
			<rect x="29.417" y="82.522" transform="matrix(0.9771 0.2129 -0.2129 0.9771 19.728 -4.6178)" fill="#414042" width="3.785" height="13.577"/>
	</g>
	<g>
		<path fill="#414042" d="M57.885,64.572h-17.1v-3.785h17.1c2.159,0,3.915-1.757,3.915-3.915h3.785
			C65.585,61.117,62.131,64.572,57.885,64.572z"/>
	</g>
	<g>
		<rect x="35.528" y="39.771" fill="#414042" width="3.786" height="11.938"/>
	</g>
</g>
</svg>
