<?xml version="1.0" encoding="utf-8"?>
<!-- Generator: Adobe Illustrator 16.0.0, SVG Export Plug-In . SVG Version: 6.00 Build 0)  -->
<!DOCTYPE svg PUBLIC "-//W3C//DTD SVG 1.1//EN" "http://www.w3.org/Graphics/SVG/1.1/DTD/svg11.dtd">
<svg version="1.1" id="Layer_1" xmlns="http://www.w3.org/2000/svg" xmlns:xlink="http://www.w3.org/1999/xlink" x="0px" y="0px"
	 width="76.222px" height="96.698px" viewBox="0 0 76.222 96.698" enable-background="new 0 0 76.222 96.698" xml:space="preserve">
<g>
	<g>
		<g>
			<path fill="#FFFFFF" d="M12.527,54.459h3.456c1.547,2.069,4.004,3.41,6.78,3.41h14.708l3.25-0.158c1.74,0,3.15-1.412,3.15-3.15
				c0-1.741-0.623-3.153-2.363-3.153h0.787c1.74,0,3.152-1.411,3.152-3.151s-1.412-3.151-3.152-3.151h1.576
				c1.742,0,3.152-1.41,3.152-3.151c0-1.74-1.41-3.151-3.152-3.151h-1.773c1.488,0-0.227-0.028-0.227-0.028
				c1.797,0,3.262-1.463,3.262-3.262c0-1.803-1.465-3.26-3.262-3.26l-13.471-0.019l1.553-0.064h6.513
				c2.66,0,4.813-2.152,4.813-4.815v-1.604c0-0.068-0.006,0.067-0.012,0h-6.024c0,0.01-0.003-0.011-0.006,0h-7.996l-10.618,9.126
				c-1,1.057-1.727,2.365-2.083,3.822h-2.015V54.459z"/>
			<path fill="#414042" d="M22.764,59.358c-2.906,0-5.596-1.234-7.49-3.41h-2.746v-2.976h4.201l0.446,0.598
				c1.337,1.786,3.374,2.813,5.589,2.813h14.708l3.178-0.157c0.99-0.001,1.734-0.748,1.734-1.664c0-1.666-0.59-1.666-0.875-1.666
				V49.92h0.787c0.918,0,1.666-0.747,1.666-1.664c0-0.917-0.748-1.663-1.666-1.663v-2.976h1.576c0.92,0,1.666-0.745,1.666-1.664
				c0-0.917-0.746-1.664-1.666-1.664l-1.773-0.024c-0.139-0.001-0.25-0.003-0.25-0.003l0.012-1.474l-0.643-0.007l0.643,0.005
				l0.012-1.5c0.979,0,1.773-0.796,1.773-1.774c0-0.978-0.795-1.772-1.773-1.772L28.4,33.723l-0.06-2.975l1.554-0.064l6.574-0.001
				c1.833,0,3.325-1.492,3.325-3.327v-0.116h-4.394l-1.084,0.208l-0.083-0.208h-6.438l-10.138,8.714
				c-0.811,0.875-1.387,1.944-1.669,3.099l-0.277,1.135h-3.182v-2.975h0.92c0.467-1.244,1.18-2.388,2.098-3.357l0.111-0.105
				l11.036-9.486h8.457l1.078-0.066l0.028,0.066h3.726l0.014-0.094l1.633,0.094h1.037l0.004,0.071l0.102,0.008v3.013
				c0,1.254-0.369,2.426-1.004,3.41h0.109c2.617,0,4.748,2.13,4.748,4.748c0,0.844-0.221,1.637-0.609,2.324
				c1.484,0.776,2.5,2.33,2.5,4.116c0,1.671-0.887,3.138-2.215,3.955c0.406,0.69,0.639,1.492,0.639,2.348
				c0,1.594-0.809,3.003-2.035,3.837c0.289,0.649,0.459,1.463,0.459,2.468c0,2.557-2.08,4.638-4.639,4.638l-3.178,0.155
				L22.764,59.358z"/>
		</g>
		<g>
			<g>
				<path fill="#D2D3D4" d="M47.457,60.842c-0.814,0.173-1.631,0.343-2.449,0.517c-1.348,0.296-2.822-0.974-3.135-2.859
					c-0.346-2.077-0.697-10.93-0.82-15.418c0.123-4.478,0.473-13.388,0.822-15.47c0.313-1.888,1.789-3.158,3.137-2.858
					c0.727,0.153,1.453,0.306,2.18,0.459c1.535-5.236,3.645-10.009,6.211-14.16c-2.391-0.744-4.928-1.144-7.561-1.15
					c-0.967,0.001-1.93,0.073-2.877,0.173c-5.978,5.36-10.773,17.571-10.724,32.358c-0.334,15.352,4.577,28.09,10.722,33.602
					c0.947,0.098,1.91,0.165,2.879,0.165c2.729-0.004,5.355-0.436,7.82-1.234C51.052,70.893,48.939,66.114,47.457,60.842z"/>
				<path fill="#414042" d="M45.845,77.688h-0.004c-0.916,0-1.908-0.057-3.031-0.171l-0.482-0.052l-0.357-0.322
					c-7.134-6.397-11.538-20.036-11.216-34.742C30.706,28.259,35.11,15.121,41.972,8.968l0.357-0.321l0.479-0.05
					c1.154-0.122,2.117-0.18,3.031-0.181c2.738,0.006,5.428,0.416,8.006,1.218l1.832,0.57l-1.01,1.633
					c-2.527,4.087-4.564,8.728-6.049,13.794l-0.389,1.321l-3.523-0.743c-0.043-0.009-0.068-0.011-0.096-0.011
					c-0.416,0-1.096,0.63-1.268,1.656c-0.311,1.856-0.664,10.166-0.803,15.227c0.139,5.031,0.488,13.301,0.799,15.172
					c0.191,1.141,0.943,1.739,1.35,1.652l3.824-0.809l0.377,1.342c1.436,5.107,3.463,9.725,6.025,13.725l1.039,1.623l-1.834,0.594
					C51.457,77.245,48.671,77.685,45.845,77.688z M43.605,74.604c0.82,0.073,1.553,0.108,2.234,0.108
					c1.875-0.001,3.727-0.219,5.529-0.647c-2.018-3.465-3.678-7.315-4.951-11.483l-1.102,0.233
					c-0.223,0.048-0.463,0.075-0.705,0.075c-2.004,0-3.813-1.783-4.205-4.146c-0.4-2.411-0.75-12.335-0.84-15.622l-0.002-0.041
					l0.002-0.041c0.09-3.308,0.441-13.287,0.842-15.676c0.391-2.359,2.199-4.142,4.203-4.142c0.242,0,0.486,0.027,0.725,0.08
					l0.828,0.174c1.307-4.131,2.967-7.985,4.959-11.495c-1.723-0.389-3.492-0.587-5.283-0.591c-0.676,0-1.395,0.038-2.23,0.116
					c-6.873,6.518-9.916,20.149-9.881,30.923C33.392,57.899,38.391,69.617,43.605,74.604z"/>
			</g>
			<g>
				<path fill="#69CBDF" d="M54.605,74.645c-0.271,0.099-0.545,0.19-0.82,0.281C54.06,74.835,54.333,74.744,54.605,74.645z"/>
				<path fill="#414042" d="M54.251,76.338l-0.934-2.824c0.26-0.087,0.521-0.174,0.779-0.269l1.023,2.793
					C54.833,76.145,54.542,76.243,54.251,76.338z"/>
			</g>
		</g>
		<g>
			<path fill="#FFFFFF" d="M12.527,54.459h3.456c1.547,2.069,4.004,3.41,6.78,3.41h14.708l3.25-0.158c1.74,0,3.15-1.412,3.15-3.15
				c0-1.741-0.623-3.153-2.363-3.153h0.787c1.74,0,3.152-1.411,3.152-3.151s-1.412-3.151-3.152-3.151h1.576
				c1.742,0,3.152-1.41,3.152-3.151c0-1.74-1.41-3.151-3.152-3.151h-1.773c1.488,0,3.035-1.491,3.035-3.29
				c0-1.803-1.465-3.26-3.262-3.26H28.402L12.527,54.459z"/>
			<path fill="#414042" d="M22.764,59.358c-2.906,0-5.596-1.234-7.49-3.41h-2.746v-2.976h4.201l0.446,0.598
				c1.337,1.786,3.374,2.813,5.589,2.813h14.708l3.178-0.157c0.99-0.001,1.734-0.748,1.734-1.664c0-1.666-0.59-1.666-0.875-1.666
				V49.92h0.787c0.918,0,1.666-0.747,1.666-1.664c0-0.917-0.748-1.663-1.666-1.663v-2.976h1.576c0.92,0,1.666-0.745,1.666-1.664
				c0-0.917-0.746-1.664-1.666-1.664h-1.773v-2.975c0.609,0,1.547-0.775,1.547-1.802c0-0.978-0.795-1.772-1.773-1.772H28.402v-2.976
				h13.471c2.619,0,4.75,2.13,4.75,4.748c0,0.83-0.225,1.626-0.611,2.323c1.484,0.775,2.502,2.33,2.502,4.118
				c0,1.671-0.887,3.138-2.215,3.955c0.406,0.69,0.639,1.492,0.639,2.348c0,1.594-0.809,3.003-2.035,3.837
				c0.289,0.649,0.459,1.463,0.459,2.468c0,2.557-2.08,4.638-4.639,4.638l-3.178,0.155L22.764,59.358z"/>
		</g>
		<g>
			<rect x="1" y="36.726" fill="#3CB44A" width="9.117" height="25.976"/>
		</g>
		<g>
			<path fill="#414042" d="M70.365,83.386c-1.869,0-2.816-1.25-3.445-2.076c-0.574-0.755-0.742-0.899-1.072-0.899
				c-0.328,0-0.498,0.143-1.07,0.899c-0.627,0.826-1.574,2.076-3.441,2.076s-2.813-1.25-3.441-2.078
				c-0.572-0.755-0.742-0.897-1.068-0.897s-0.496,0.143-1.07,0.897c-0.627,0.827-1.572,2.078-3.441,2.078v-2.976
				c0.328,0,0.498-0.144,1.07-0.899c0.629-0.827,1.576-2.076,3.441-2.076s2.814,1.249,3.439,2.077
				c0.574,0.756,0.744,0.898,1.07,0.898s0.498-0.143,1.07-0.899c0.627-0.827,1.576-2.076,3.441-2.076
				c1.867,0,2.816,1.249,3.441,2.076c0.574,0.756,0.746,0.899,1.076,0.899c0.326,0,0.498-0.144,1.07-0.899
				c0.627-0.827,1.576-2.076,3.443-2.076v2.976c-0.328,0-0.5,0.145-1.074,0.899C73.179,82.136,72.23,83.386,70.365,83.386z"/>
		</g>
		<g>
			<path fill="#414042" d="M52.314,83.399h-2.789c-2.051,0-3.721-1.667-3.721-3.719v-3.719h2.977v3.719
				c0,0.411,0.334,0.743,0.744,0.743h2.789V83.399z"/>
		</g>
	</g>
	<g>
		<rect x="4.398" y="56.522" fill="#FFFFFF" width="2.976" height="3.968"/>
	</g>
	<g>
		<g>
			<g>
				<path fill="#414042" d="M66.632,63.643l-2.105-2.104c9.902-9.908,9.902-26.024,0-35.926l2.104-2.105
					C77.693,34.571,77.695,52.576,66.632,63.643z"/>
			</g>
			<g>
				<path fill="#414042" d="M61.046,58.054l-2.104-2.104c3.307-3.304,5.125-7.7,5.125-12.377c0-4.676-1.822-9.072-5.131-12.377
					l2.105-2.104c3.869,3.868,6,9.011,6,14.482C67.042,49.046,64.916,54.188,61.046,58.054z"/>
			</g>
			<g>
				<path fill="#414042" d="M55.162,52.173l-2.104-2.104c3.58-3.581,3.58-9.409-0.004-12.99l2.104-2.104
					C59.9,39.718,59.902,47.433,55.162,52.173z"/>
			</g>
		</g>
	</g>
</g>
</svg>
