<?xml version="1.0" encoding="utf-8"?>
<!-- Generator: Adobe Illustrator 19.2.1, SVG Export Plug-In . SVG Version: 6.00 Build 0)  -->
<svg version="1.1" id="Layer_1" xmlns="http://www.w3.org/2000/svg" xmlns:xlink="http://www.w3.org/1999/xlink" x="0px" y="0px"
	 viewBox="0 0 70.9 85" style="enable-background:new 0 0 70.9 85;" xml:space="preserve">
<style type="text/css">
	.st0{fill:#FFFFFF;}
	.st1{fill:#3CB44A;}
	.st2{fill:#414042;}
</style>
<g>
	<polygon class="st0" points="63.5,80.8 53.9,80.8 58.7,3.9 	"/>
</g>
<g>
	<polygon class="st1" points="58.7,3.9 10.6,3.9 9.1,27.9 57.2,27.9 	"/>
</g>
<g>
	<polygon class="st0" points="57.2,27.9 9.1,27.9 7.3,56.8 55.4,56.8 	"/>
</g>
<g>
	<polygon class="st1" points="7.3,56.8 5.8,80.8 53.9,80.8 55.4,56.8 	"/>
</g>
<g>
	<path class="st1" d="M39.4,42.4c0,4-3.2,7.2-7.2,7.2c-4,0-7.2-3.2-7.2-7.2s3.2-7.2,7.2-7.2S39.4,38.4,39.4,42.4L39.4,42.4z"/>
</g>
<g>
	<path class="st2" d="M53.9,82H5.8c-0.3,0-0.6-0.1-0.9-0.4c-0.2-0.2-0.3-0.6-0.3-0.9l4.8-77c0-0.6,0.6-1.1,1.2-1.1h48.1
		c0.3,0,0.7,0.1,0.9,0.4c0.2,0.2,0.3,0.6,0.3,0.9l-4.8,77C55,81.5,54.5,82,53.9,82z M7,79.6h45.7l4.7-74.6H11.7L7,79.6z"/>
</g>
<g>
	<path class="st2" d="M63.5,82c-0.6,0-1.2-0.5-1.2-1.1l-4.8-77c0-0.7,0.5-1.2,1.1-1.3c0.6,0,1.2,0.5,1.3,1.1l4.8,77
		C64.7,81.4,64.2,82,63.5,82C63.5,82,63.5,82,63.5,82z"/>
</g>
<g>
	<path class="st0" d="M47.5,67.6H13.9c-0.7,0-1.2-0.5-1.2-1.2c0-0.7,0.5-1.2,1.2-1.2h33.7c0.7,0,1.2,0.5,1.2,1.2
		C48.7,67.1,48.2,67.6,47.5,67.6z"/>
</g>
<g>
	<path class="st0" d="M50.5,19.5H16.9c-0.7,0-1.2-0.5-1.2-1.2c0-0.7,0.5-1.2,1.2-1.2h33.7c0.7,0,1.2,0.5,1.2,1.2
		C51.7,19,51.2,19.5,50.5,19.5z"/>
</g>
<g>
	<path class="st2" d="M32.2,50.8c-4.6,0-8.4-3.8-8.4-8.4c0-4.6,3.8-8.4,8.4-8.4c4.6,0,8.4,3.8,8.4,8.4C40.6,47,36.8,50.8,32.2,50.8z
		 M32.2,36.3c-3.3,0-6,2.7-6,6c0,3.3,2.7,6,6,6s6-2.7,6-6C38.2,39,35.5,36.3,32.2,36.3z"/>
</g>
<g>
	<path class="st2" d="M7,62.8c-0.3,0-0.6-0.1-0.9-0.3c-0.2-0.2-0.3-0.5-0.3-0.9c0-0.3,0.1-0.6,0.3-0.9c0.4-0.4,1.3-0.4,1.7,0
		C8,61,8.2,61.3,8.2,61.6c0,0.3-0.1,0.6-0.3,0.9C7.6,62.7,7.3,62.8,7,62.8z"/>
</g>
<g>
	<path class="st2" d="M49,61.6c0-0.7,0.5-1.2,1.2-1.2l0,0c0.7,0,1.2,0.5,1.2,1.2l0,0c0,0.7-0.5,1.2-1.2,1.2l0,0
		C49.6,62.8,49,62.3,49,61.6z M44.2,61.6c0-0.7,0.5-1.2,1.2-1.2l0,0c0.7,0,1.2,0.5,1.2,1.2l0,0c0,0.7-0.5,1.2-1.2,1.2l0,0
		C44.8,62.8,44.2,62.3,44.2,61.6z M39.4,61.6c0-0.7,0.5-1.2,1.2-1.2l0,0c0.7,0,1.2,0.5,1.2,1.2l0,0c0,0.7-0.5,1.2-1.2,1.2l0,0
		C40,62.8,39.4,62.3,39.4,61.6z M34.6,61.6c0-0.7,0.5-1.2,1.2-1.2l0,0c0.7,0,1.2,0.5,1.2,1.2l0,0c0,0.7-0.5,1.2-1.2,1.2l0,0
		C35.2,62.8,34.6,62.3,34.6,61.6z M29.8,61.6c0-0.7,0.5-1.2,1.2-1.2l0,0c0.7,0,1.2,0.5,1.2,1.2l0,0c0,0.7-0.5,1.2-1.2,1.2l0,0
		C30.3,62.8,29.8,62.3,29.8,61.6z M25,61.6c0-0.7,0.5-1.2,1.2-1.2l0,0c0.7,0,1.2,0.5,1.2,1.2l0,0c0,0.7-0.5,1.2-1.2,1.2l0,0
		C25.5,62.8,25,62.3,25,61.6z M20.2,61.6c0-0.7,0.5-1.2,1.2-1.2l0,0c0.7,0,1.2,0.5,1.2,1.2l0,0c0,0.7-0.5,1.2-1.2,1.2l0,0
		C20.7,62.8,20.2,62.3,20.2,61.6z M15.4,61.6c0-0.7,0.5-1.2,1.2-1.2l0,0c0.7,0,1.2,0.5,1.2,1.2l0,0c0,0.7-0.5,1.2-1.2,1.2l0,0
		C15.9,62.8,15.4,62.3,15.4,61.6z M10.6,61.6c0-0.7,0.5-1.2,1.2-1.2l0,0c0.7,0,1.2,0.5,1.2,1.2l0,0c0,0.7-0.5,1.2-1.2,1.2l0,0
		C11.1,62.8,10.6,62.3,10.6,61.6z"/>
</g>
<g>
	<path class="st2" d="M55.1,62.8c-0.3,0-0.6-0.1-0.9-0.3c-0.2-0.2-0.4-0.5-0.4-0.9c0-0.3,0.1-0.6,0.4-0.9c0.4-0.4,1.3-0.4,1.7,0
		c0.2,0.2,0.3,0.5,0.3,0.9c0,0.3-0.1,0.6-0.3,0.9C55.7,62.7,55.4,62.8,55.1,62.8z"/>
</g>
<g>
	<path class="st2" d="M9.4,24.3c-0.3,0-0.6-0.1-0.9-0.3c-0.2-0.2-0.3-0.5-0.3-0.9c0-0.3,0.1-0.6,0.3-0.9c0.5-0.4,1.3-0.4,1.7,0
		c0.2,0.2,0.3,0.5,0.3,0.9c0,0.3-0.1,0.6-0.3,0.9C10,24.2,9.7,24.3,9.4,24.3z"/>
</g>
<g>
	<path class="st2" d="M51.4,23.1c0-0.7,0.5-1.2,1.2-1.2l0,0c0.7,0,1.2,0.5,1.2,1.2l0,0c0,0.7-0.5,1.2-1.2,1.2l0,0
		C52,24.3,51.4,23.8,51.4,23.1z M46.6,23.1c0-0.7,0.5-1.2,1.2-1.2l0,0c0.7,0,1.2,0.5,1.2,1.2l0,0c0,0.7-0.5,1.2-1.2,1.2l0,0
		C47.2,24.3,46.6,23.8,46.6,23.1z M41.8,23.1c0-0.7,0.5-1.2,1.2-1.2l0,0c0.7,0,1.2,0.5,1.2,1.2l0,0c0,0.7-0.5,1.2-1.2,1.2l0,0
		C42.4,24.3,41.8,23.8,41.8,23.1z M37,23.1c0-0.7,0.5-1.2,1.2-1.2l0,0c0.7,0,1.2,0.5,1.2,1.2l0,0c0,0.7-0.5,1.2-1.2,1.2l0,0
		C37.6,24.3,37,23.8,37,23.1z M32.2,23.1c0-0.7,0.5-1.2,1.2-1.2l0,0c0.7,0,1.2,0.5,1.2,1.2l0,0c0,0.7-0.5,1.2-1.2,1.2l0,0
		C32.7,24.3,32.2,23.8,32.2,23.1z M27.4,23.1c0-0.7,0.5-1.2,1.2-1.2l0,0c0.7,0,1.2,0.5,1.2,1.2l0,0c0,0.7-0.5,1.2-1.2,1.2l0,0
		C27.9,24.3,27.4,23.8,27.4,23.1z M22.6,23.1c0-0.7,0.5-1.2,1.2-1.2l0,0c0.7,0,1.2,0.5,1.2,1.2l0,0c0,0.7-0.5,1.2-1.2,1.2l0,0
		C23.1,24.3,22.6,23.8,22.6,23.1z M17.8,23.1c0-0.7,0.5-1.2,1.2-1.2l0,0c0.7,0,1.2,0.5,1.2,1.2l0,0c0,0.7-0.5,1.2-1.2,1.2l0,0
		C18.3,24.3,17.8,23.8,17.8,23.1z M13,23.1c0-0.7,0.5-1.2,1.2-1.2l0,0c0.7,0,1.2,0.5,1.2,1.2l0,0c0,0.7-0.5,1.2-1.2,1.2l0,0
		C13.5,24.3,13,23.8,13,23.1z"/>
</g>
<g>
	<path class="st2" d="M57.5,24.3c-0.3,0-0.6-0.1-0.9-0.3c-0.2-0.2-0.3-0.5-0.3-0.9c0-0.3,0.1-0.6,0.3-0.9c0.5-0.4,1.3-0.4,1.7,0
		c0.2,0.2,0.3,0.5,0.3,0.9c0,0.3-0.1,0.6-0.3,0.9C58.1,24.2,57.8,24.3,57.5,24.3z"/>
</g>
<g>
	<path class="st2" d="M55.4,58H7.3c-0.7,0-1.2-0.5-1.2-1.2s0.5-1.2,1.2-1.2h48.1c0.7,0,1.2,0.5,1.2,1.2S56,58,55.4,58z"/>
</g>
<g>
	<path class="st2" d="M57.2,29.1H9.4c-0.7,0-1.2-0.5-1.2-1.2c0-0.7,0.5-1.2,1.2-1.2h47.8c0.7,0,1.2,0.5,1.2,1.2
		C58.4,28.6,57.8,29.1,57.2,29.1z"/>
</g>
</svg>
