<?xml version="1.0" encoding="utf-8"?>
<!-- Generator: Adobe Illustrator 19.2.1, SVG Export Plug-In . SVG Version: 6.00 Build 0)  -->
<svg version="1.1" id="Layer_1" xmlns="http://www.w3.org/2000/svg" xmlns:xlink="http://www.w3.org/1999/xlink" x="0px" y="0px"
	 viewBox="0 0 79.4 85" style="enable-background:new 0 0 79.4 85;" xml:space="preserve">
<style type="text/css">
	.st0{fill:#D1D3D4;}
	.st1{fill:#414042;}
	.st2{fill:#3CB44A;}
</style>
<g>
	<g>
		<rect x="16.6" y="4.2" class="st0" width="46.4" height="4.8"/>
	</g>
	<g>
		<rect x="35.2" y="57.1" class="st0" width="9.3" height="24.1"/>
	</g>
	<g>
		<path class="st1" d="M63,10.2c-0.6,0-1.2-0.5-1.2-1.2V5.4H17.8V9c0,0.7-0.5,1.2-1.2,1.2c-0.6,0-1.2-0.5-1.2-1.2V4.2
			C15.5,3.5,16,3,16.6,3H63c0.6,0,1.2,0.5,1.2,1.2V9C64.2,9.7,63.7,10.2,63,10.2z"/>
	</g>
	<g>
		<path class="st1" d="M76.9,10.2H2.7c-0.6,0-1.2-0.5-1.2-1.2c0-0.7,0.5-1.2,1.2-1.2h74.2c0.6,0,1.2,0.5,1.2,1.2
			C78.1,9.7,77.6,10.2,76.9,10.2z"/>
	</g>
	<g>
		<path class="st1" d="M76.9,58.3c-0.6,0-1.2-0.5-1.2-1.2V9c0-0.7,0.5-1.2,1.2-1.2c0.6,0,1.2,0.5,1.2,1.2v48.1
			C78.1,57.8,77.6,58.3,76.9,58.3z"/>
	</g>
	<g>
		<path class="st1" d="M76.9,58.3H2.7c-0.6,0-1.2-0.5-1.2-1.2c0-0.7,0.5-1.2,1.2-1.2h74.2c0.6,0,1.2,0.5,1.2,1.2
			C78.1,57.8,77.6,58.3,76.9,58.3z"/>
	</g>
	<g>
		<path class="st1" d="M2.7,58.3c-0.6,0-1.2-0.5-1.2-1.2V9c0-0.7,0.5-1.2,1.2-1.2c0.6,0,1.2,0.5,1.2,1.2v48.1
			C3.9,57.8,3.4,58.3,2.7,58.3z"/>
	</g>
	<g>
		<path class="st1" d="M58.4,63.1H20.9c-0.6,0-1.2-0.5-1.2-1.2c0-0.7,0.5-1.2,1.2-1.2h37.5c0.6,0,1.2,0.5,1.2,1.2
			C59.5,62.6,59,63.1,58.4,63.1z"/>
	</g>
	<g>
		<path class="st1" d="M35.2,82.4c-0.6,0-1.2-0.5-1.2-1.2V57.1c0-0.7,0.5-1.2,1.2-1.2s1.2,0.5,1.2,1.2v24.1
			C36.3,81.8,35.8,82.4,35.2,82.4z"/>
	</g>
	<g>
		<path class="st1" d="M44.5,82.4c-0.6,0-1.2-0.5-1.2-1.2V57.1c0-0.7,0.5-1.2,1.2-1.2s1.2,0.5,1.2,1.2v24.1
			C45.6,81.8,45.1,82.4,44.5,82.4z"/>
	</g>
	<g>
		<rect x="12" y="39.9" class="st2" width="55.1" height="10.1"/>
	</g>
	<g>
		<path class="st1" d="M67.1,51.3H12c-0.6,0-1.2-0.5-1.2-1.2V39.9c0-0.7,0.5-1.2,1.2-1.2h55.1c0.6,0,1.2,0.5,1.2,1.2v10.1
			C68.2,50.7,67.7,51.3,67.1,51.3z M13.2,48.9h52.8v-7.7H13.2V48.9z"/>
	</g>
	<g>
		<path class="st1" d="M67.1,30H12c-0.6,0-1.2-0.5-1.2-1.2c0-0.7,0.5-1.2,1.2-1.2h55.1c0.6,0,1.2,0.5,1.2,1.2
			C68.2,29.5,67.7,30,67.1,30z"/>
	</g>
	<g>
		<path class="st1" d="M67.5,34.8H12c-0.6,0-1.2-0.5-1.2-1.2c0-0.7,0.5-1.2,1.2-1.2h55.5c0.6,0,1.2,0.5,1.2,1.2
			C68.6,34.3,68.1,34.8,67.5,34.8z"/>
	</g>
	<g>
		<g>
			<rect x="34.9" y="17.1" class="st2" width="9.3" height="4.8"/>
		</g>
		<g>
			<path class="st1" d="M44.2,23.1h-9.3c-0.6,0-1.2-0.5-1.2-1.2v-4.8c0-0.7,0.5-1.2,1.2-1.2h9.3c0.6,0,1.2,0.5,1.2,1.2v4.8
				C45.3,22.6,44.8,23.1,44.2,23.1z M36,20.7h7v-2.4h-7V20.7z"/>
		</g>
	</g>
</g>
</svg>
