<?xml version="1.0" encoding="utf-8"?>
<!-- Generator: Adobe Illustrator 16.0.0, SVG Export Plug-In . SVG Version: 6.00 Build 0)  -->
<!DOCTYPE svg PUBLIC "-//W3C//DTD SVG 1.1//EN" "http://www.w3.org/Graphics/SVG/1.1/DTD/svg11.dtd">
<svg version="1.1" id="Layer_1" xmlns="http://www.w3.org/2000/svg" xmlns:xlink="http://www.w3.org/1999/xlink" x="0px" y="0px"
	 width="76.222px" height="96.698px" viewBox="0 0 76.222 96.698" enable-background="new 0 0 76.222 96.698" xml:space="preserve">
<g>
	<rect x="15.674" y="3.128" fill="#D1D3D4" width="45.151" height="4.515"/>
</g>
<g>
	<rect x="33.735" y="52.795" fill="#D1D3D4" width="9.03" height="22.576"/>
</g>
<g>
	<path fill="#414042" d="M60.826,8.772c-0.623,0-1.129-0.506-1.129-1.129V4.257H16.803v3.386c0,0.623-0.506,1.129-1.129,1.129
		c-0.624,0-1.129-0.506-1.129-1.129V3.128C14.545,2.505,15.051,2,15.674,2h45.151c0.623,0,1.128,0.505,1.128,1.129v4.515
		C61.954,8.267,61.449,8.772,60.826,8.772z"/>
</g>
<g>
	<path fill="#414042" d="M74.371,8.772H2.129C1.505,8.772,1,8.267,1,7.644C1,7.02,1.505,6.515,2.129,6.515h72.242
		c0.624,0,1.129,0.505,1.129,1.129C75.5,8.267,74.995,8.772,74.371,8.772z"/>
</g>
<g>
	<path fill="#414042" d="M74.371,53.924c-0.623,0-1.129-0.506-1.129-1.129V7.644c0-0.624,0.506-1.129,1.129-1.129
		c0.624,0,1.129,0.505,1.129,1.129v45.152C75.5,53.418,74.995,53.924,74.371,53.924z"/>
</g>
<g>
	<path fill="#414042" d="M74.371,53.924H2.129C1.505,53.924,1,53.418,1,52.795c0-0.624,0.505-1.129,1.129-1.129h72.242
		c0.624,0,1.129,0.505,1.129,1.129C75.5,53.418,74.995,53.924,74.371,53.924z"/>
</g>
<g>
	<path fill="#414042" d="M2.129,53.924C1.505,53.924,1,53.418,1,52.795V7.644C1,7.02,1.505,6.515,2.129,6.515
		c0.623,0,1.128,0.505,1.128,1.129v45.152C3.257,53.418,2.752,53.924,2.129,53.924z"/>
</g>
<g>
	<path fill="#414042" d="M56.31,58.44H19.813c-0.624,0-1.129-0.507-1.129-1.129c0-0.624,0.505-1.129,1.129-1.129H56.31
		c0.624,0,1.129,0.505,1.129,1.129C57.439,57.933,56.934,58.44,56.31,58.44z"/>
</g>
<g>
	<path fill="#414042" d="M33.735,76.5c-0.624,0-1.129-0.507-1.129-1.129V52.795c0-0.624,0.505-1.129,1.129-1.129
		s1.129,0.505,1.129,1.129v22.576C34.864,75.994,34.358,76.5,33.735,76.5z"/>
</g>
<g>
	<path fill="#414042" d="M42.765,76.5c-0.623,0-1.129-0.507-1.129-1.129V52.795c0-0.624,0.506-1.129,1.129-1.129
		s1.129,0.505,1.129,1.129v22.576C43.894,75.994,43.388,76.5,42.765,76.5z"/>
</g>
<g>
	<rect x="11.159" y="36.674" fill="#3CB44A" width="53.606" height="9.515"/>
</g>
<g>
	<path fill="#414042" d="M64.765,47.318H11.159c-0.624,0-1.129-0.505-1.129-1.129v-9.515c0-0.624,0.505-1.129,1.129-1.129h53.606
		c0.623,0,1.129,0.505,1.129,1.129v9.515C65.894,46.813,65.388,47.318,64.765,47.318z M12.288,45.06h51.348v-7.257H12.288V45.06z"/>
</g>
<g>
	<path fill="#414042" d="M64.766,27.349H11.16c-0.624,0-1.129-0.506-1.129-1.129c0-0.624,0.505-1.129,1.129-1.129h53.606
		c0.623,0,1.128,0.505,1.128,1.129C65.894,26.843,65.389,27.349,64.766,27.349z"/>
</g>
<g>
	<path fill="#414042" d="M65.142,31.864H11.159c-0.624,0-1.129-0.506-1.129-1.129c0-0.624,0.505-1.129,1.129-1.129h53.983
		c0.623,0,1.128,0.505,1.128,1.129C66.27,31.358,65.765,31.864,65.142,31.864z"/>
</g>
<g>
	<g>
		<rect x="33.447" y="15.259" fill="#3CB44A" width="9.03" height="4.515"/>
	</g>
	<g>
		<path fill="#414042" d="M42.477,20.902h-9.03c-0.624,0-1.129-0.506-1.129-1.129v-4.515c0-0.624,0.505-1.129,1.129-1.129h9.03
			c0.623,0,1.129,0.505,1.129,1.129v4.515C43.606,20.396,43.1,20.902,42.477,20.902z M34.576,18.645h6.772v-2.257h-6.772V18.645z"/>
	</g>
</g>
</svg>
