<?xml version="1.0" encoding="utf-8"?>
<!-- Generator: Adobe Illustrator 16.0.0, SVG Export Plug-In . SVG Version: 6.00 Build 0)  -->
<!DOCTYPE svg PUBLIC "-//W3C//DTD SVG 1.1//EN" "http://www.w3.org/Graphics/SVG/1.1/DTD/svg11.dtd">
<svg version="1.1" id="Layer_1" xmlns="http://www.w3.org/2000/svg" xmlns:xlink="http://www.w3.org/1999/xlink" x="0px" y="0px"
	 width="76.222px" height="96.698px" viewBox="0 0 76.222 96.698" enable-background="new 0 0 76.222 96.698" xml:space="preserve">
<g>
	<polygon fill="#FFFFFF" points="71.889,94.312 60.356,94.312 66.123,2.047 	"/>
</g>
<g>
	<polygon fill="#3CB44A" points="66.123,2.047 8.458,2.047 6.656,30.881 64.321,30.881 	"/>
</g>
<g>
	<polygon fill="#FFFFFF" points="64.321,30.881 6.656,30.881 4.494,65.48 62.158,65.48 	"/>
</g>
<g>
	<polygon fill="#3CB44A" points="4.494,65.48 2.692,94.312 60.356,94.312 62.158,65.48 	"/>
</g>
<g>
	<path fill="#3CB44A" d="M43.057,48.18c0,4.778-3.872,8.65-8.649,8.65c-4.778,0-8.65-3.872-8.65-8.65
		c0-4.778,3.872-8.649,8.65-8.649C39.186,39.531,43.057,43.402,43.057,48.18L43.057,48.18z"/>
</g>
<g>
	<path fill="#414042" d="M60.356,95.753H2.692c-0.398,0-0.779-0.166-1.05-0.456c-0.273-0.29-0.414-0.679-0.389-1.075L7.02,1.958
		c0.048-0.76,0.677-1.352,1.438-1.352h57.665c0.399,0,0.78,0.165,1.051,0.455c0.272,0.29,0.413,0.68,0.388,1.077l-5.767,92.264
		C61.747,95.163,61.119,95.753,60.356,95.753z M4.226,92.871h54.775l5.587-89.381H9.813L4.226,92.871z"/>
</g>
<g>
	<path fill="#414042" d="M71.889,95.753c-0.755,0-1.391-0.589-1.438-1.352L64.684,2.138c-0.048-0.795,0.555-1.479,1.349-1.529
		c0.777-0.038,1.478,0.552,1.528,1.349l5.767,92.265c0.051,0.794-0.555,1.478-1.349,1.528C71.949,95.75,71.92,95.753,71.889,95.753z
		"/>
</g>
<g>
	<path fill="#FFFFFF" d="M52.789,78.454H12.423c-0.797,0-1.442-0.645-1.442-1.441s0.645-1.441,1.442-1.441h40.366
		c0.797,0,1.441,0.645,1.441,1.441S53.585,78.454,52.789,78.454z"/>
</g>
<g>
	<path fill="#FFFFFF" d="M56.392,20.789H16.027c-0.797,0-1.442-0.645-1.442-1.441s0.645-1.442,1.442-1.442h40.365
		c0.796,0,1.441,0.645,1.441,1.442S57.188,20.789,56.392,20.789z"/>
</g>
<g>
	<path fill="#414042" d="M34.408,58.272c-5.564,0-10.092-4.527-10.092-10.092c0-5.563,4.528-10.091,10.092-10.091
		c5.563,0,10.091,4.528,10.091,10.091C44.499,53.745,39.971,58.272,34.408,58.272z M34.408,40.972c-3.975,0-7.208,3.232-7.208,7.208
		c0,3.973,3.234,7.208,7.208,7.208c3.974,0,7.208-3.235,7.208-7.208C41.616,44.205,38.382,40.972,34.408,40.972z"/>
</g>
<g>
	<path fill="#414042" d="M4.133,72.687c-0.375,0-0.75-0.16-1.023-0.419c-0.261-0.273-0.418-0.634-0.418-1.022
		c0-0.391,0.157-0.751,0.418-1.024c0.534-0.532,1.513-0.532,2.047,0c0.259,0.273,0.418,0.65,0.418,1.024
		c0,0.375-0.159,0.749-0.418,1.022C4.882,72.527,4.508,72.687,4.133,72.687z"/>
</g>
<g>
	<path fill="#414042" d="M54.59,71.246c0-0.793,0.649-1.44,1.441-1.44l0,0c0.794,0,1.441,0.647,1.441,1.44l0,0
		c0,0.791-0.647,1.441-1.441,1.441l0,0C55.24,72.687,54.59,72.037,54.59,71.246z M48.824,71.246c0-0.793,0.649-1.44,1.441-1.44l0,0
		c0.793,0,1.441,0.647,1.441,1.44l0,0c0,0.791-0.648,1.441-1.441,1.441l0,0C49.473,72.687,48.824,72.037,48.824,71.246z
		 M43.057,71.246c0-0.793,0.649-1.44,1.441-1.44l0,0c0.793,0,1.442,0.647,1.442,1.44l0,0c0,0.791-0.649,1.441-1.442,1.441l0,0
		C43.707,72.687,43.057,72.037,43.057,71.246z M37.291,71.246c0-0.793,0.649-1.44,1.442-1.44l0,0c0.792,0,1.442,0.647,1.442,1.44
		l0,0c0,0.791-0.649,1.441-1.442,1.441l0,0C37.94,72.687,37.291,72.037,37.291,71.246z M31.524,71.246
		c0-0.793,0.649-1.44,1.441-1.44l0,0c0.792,0,1.442,0.647,1.442,1.44l0,0c0,0.791-0.649,1.441-1.442,1.441l0,0
		C32.173,72.687,31.524,72.037,31.524,71.246z M25.758,71.246c0-0.793,0.649-1.44,1.441-1.44l0,0c0.793,0,1.442,0.647,1.442,1.44
		l0,0c0,0.791-0.649,1.441-1.442,1.441l0,0C26.407,72.687,25.758,72.037,25.758,71.246z M19.991,71.246
		c0-0.793,0.649-1.44,1.441-1.44l0,0c0.793,0,1.442,0.647,1.442,1.44l0,0c0,0.791-0.649,1.441-1.442,1.441l0,0
		C20.64,72.687,19.991,72.037,19.991,71.246z M14.225,71.246c0-0.793,0.649-1.44,1.442-1.44l0,0c0.792,0,1.441,0.647,1.441,1.44l0,0
		c0,0.791-0.649,1.441-1.441,1.441l0,0C14.874,72.687,14.225,72.037,14.225,71.246z M8.458,71.246c0-0.793,0.649-1.44,1.442-1.44
		l0,0c0.792,0,1.441,0.647,1.441,1.44l0,0c0,0.791-0.649,1.441-1.441,1.441l0,0C9.107,72.687,8.458,72.037,8.458,71.246z"/>
</g>
<g>
	<path fill="#414042" d="M61.797,72.687c-0.374,0-0.749-0.16-1.021-0.419c-0.262-0.273-0.42-0.634-0.42-1.022
		c0-0.391,0.158-0.751,0.42-1.024c0.532-0.532,1.512-0.532,2.047,0c0.259,0.273,0.417,0.65,0.417,1.024
		c0,0.375-0.158,0.749-0.417,1.022C62.546,72.527,62.172,72.687,61.797,72.687z"/>
</g>
<g>
	<path fill="#414042" d="M7.017,26.555c-0.375,0-0.75-0.159-1.023-0.418c-0.261-0.274-0.418-0.649-0.418-1.023
		c0-0.39,0.158-0.75,0.418-1.023c0.547-0.534,1.513-0.534,2.047,0c0.259,0.273,0.418,0.633,0.418,1.023
		c0,0.375-0.159,0.749-0.418,1.023C7.766,26.396,7.391,26.555,7.017,26.555z"/>
</g>
<g>
	<path fill="#414042" d="M57.473,25.114c0-0.793,0.65-1.442,1.441-1.442l0,0c0.794,0,1.441,0.649,1.441,1.442l0,0
		c0,0.792-0.647,1.441-1.441,1.441l0,0C58.124,26.555,57.473,25.906,57.473,25.114z M51.707,25.114c0-0.793,0.649-1.442,1.442-1.442
		l0,0c0.792,0,1.441,0.649,1.441,1.442l0,0c0,0.792-0.649,1.441-1.441,1.441l0,0C52.356,26.555,51.707,25.906,51.707,25.114z
		 M45.941,25.114c0-0.793,0.648-1.442,1.441-1.442l0,0c0.792,0,1.441,0.649,1.441,1.442l0,0c0,0.792-0.649,1.441-1.441,1.441l0,0
		C46.589,26.555,45.941,25.906,45.941,25.114z M40.174,25.114c0-0.793,0.648-1.442,1.441-1.442l0,0c0.793,0,1.441,0.649,1.441,1.442
		l0,0c0,0.792-0.648,1.441-1.441,1.441l0,0C40.823,26.555,40.174,25.906,40.174,25.114z M34.408,25.114
		c0-0.793,0.649-1.442,1.441-1.442l0,0c0.792,0,1.441,0.649,1.441,1.442l0,0c0,0.792-0.649,1.441-1.441,1.441l0,0
		C35.057,26.555,34.408,25.906,34.408,25.114z M28.641,25.114c0-0.793,0.649-1.442,1.441-1.442l0,0c0.792,0,1.442,0.649,1.442,1.442
		l0,0c0,0.792-0.649,1.441-1.442,1.441l0,0C29.29,26.555,28.641,25.906,28.641,25.114z M22.875,25.114
		c0-0.793,0.649-1.442,1.441-1.442l0,0c0.793,0,1.442,0.649,1.442,1.442l0,0c0,0.792-0.649,1.441-1.442,1.441l0,0
		C23.523,26.555,22.875,25.906,22.875,25.114z M17.108,25.114c0-0.793,0.649-1.442,1.442-1.442l0,0c0.792,0,1.441,0.649,1.441,1.442
		l0,0c0,0.792-0.649,1.441-1.441,1.441l0,0C17.757,26.555,17.108,25.906,17.108,25.114z M11.341,25.114
		c0-0.793,0.649-1.442,1.442-1.442l0,0c0.792,0,1.441,0.649,1.441,1.442l0,0c0,0.792-0.649,1.441-1.441,1.441l0,0
		C11.99,26.555,11.341,25.906,11.341,25.114z"/>
</g>
<g>
	<path fill="#414042" d="M64.681,26.555c-0.375,0-0.749-0.159-1.022-0.418c-0.262-0.274-0.419-0.649-0.419-1.023
		c0-0.39,0.157-0.75,0.419-1.023c0.547-0.534,1.513-0.534,2.047,0c0.26,0.273,0.417,0.633,0.417,1.023
		c0,0.375-0.157,0.749-0.417,1.023C65.43,26.396,65.055,26.555,64.681,26.555z"/>
</g>
<g>
	<path fill="#414042" d="M62.158,66.921H4.494c-0.797,0-1.441-0.645-1.441-1.441s0.645-1.441,1.441-1.441h57.664
		c0.797,0,1.442,0.645,1.442,1.441S62.955,66.921,62.158,66.921z"/>
</g>
<g>
	<path fill="#414042" d="M64.321,32.322H7.017c-0.797,0-1.442-0.645-1.442-1.441s0.645-1.441,1.442-1.441h57.304
		c0.797,0,1.441,0.645,1.441,1.441S65.118,32.322,64.321,32.322z"/>
</g>
</svg>
