<?xml version="1.0" encoding="utf-8"?>
<!-- Generator: Adobe Illustrator 19.2.1, SVG Export Plug-In . SVG Version: 6.00 Build 0)  -->
<svg version="1.1" id="Layer_1" xmlns="http://www.w3.org/2000/svg" xmlns:xlink="http://www.w3.org/1999/xlink" x="0px" y="0px"
	 viewBox="0 0 70.9 85" style="enable-background:new 0 0 70.9 85;" xml:space="preserve">
<style type="text/css">
	.st0{fill:#3CB44A;}
	.st1{fill:#414042;}
</style>
<g>
	<circle class="st0" cx="29.4" cy="62.9" r="7.2"/>
	<g>
		<g>
			<g>
				<g>
					<path class="st1" d="M60.1,22h-1.2v-2.5h1.2c3.4,0,6.2-2.8,6.2-6.2c0-3.4-2.8-6.2-6.2-6.2V4.7c4.8,0,8.7,3.9,8.7,8.7
						S64.9,22,60.1,22z"/>
				</g>
			</g>
			<g>
				<g>
					<rect x="27.8" y="19.6" class="st1" width="2.5" height="2.5"/>
				</g>
				<g>
					<rect x="32.8" y="19.6" class="st1" width="2.5" height="2.5"/>
				</g>
				<g>
					<rect x="22.9" y="19.6" class="st1" width="2.5" height="2.5"/>
				</g>
			</g>
			<g>
				<g>
					<rect x="14.2" y="27" class="st1" width="28.5" height="2.5"/>
				</g>
				<g>
					<rect x="14.2" y="32" class="st1" width="28.5" height="2.5"/>
				</g>
				<g>
					<rect x="14.2" y="36.9" class="st1" width="28.5" height="2.5"/>
				</g>
				<g>
					<rect x="14.2" y="41.9" class="st1" width="28.5" height="2.5"/>
				</g>
				<g>
					<rect x="14.2" y="46.8" class="st1" width="28.5" height="2.5"/>
				</g>
			</g>
			<g>
				<path class="st1" d="M52.6,76.6H37.7v-2.5h13.6V13.4c0-2.4,1-4.6,2.6-6.2H12.9c-3.4,0-6.2,2.8-6.2,6.2v60.8h13.6v2.5H5.5
					c-0.7,0-1.2-0.6-1.2-1.2v-62c0-4.8,3.9-8.7,8.7-8.7h47.1c0.7,0,1.2,0.6,1.2,1.2c0,0.7-0.6,1.2-1.2,1.2c-3.4,0-6.2,2.8-6.2,6.2
					v62C53.9,76,53.3,76.6,52.6,76.6z"/>
			</g>
			<g>
				<path class="st1" d="M34,84c-0.3,0-0.6-0.1-0.9-0.4l-4.1-4.1L25,83.7c-0.4,0.4-0.9,0.5-1.4,0.3c-0.5-0.2-0.8-0.6-0.8-1.1V69.2
					h2.5v10.6l2.8-2.8c0.5-0.5,1.3-0.5,1.8,0l2.8,2.8V69.2h2.5v13.6c0,0.5-0.3,1-0.8,1.1C34.4,84,34.2,84,34,84z"/>
			</g>
			<g>
				<path class="st1" d="M29.1,71.6c-4.8,0-8.7-3.9-8.7-8.7c0-4.8,3.9-8.7,8.7-8.7c4.8,0,8.7,3.9,8.7,8.7
					C37.7,67.7,33.9,71.6,29.1,71.6z M29.1,56.8c-3.4,0-6.2,2.8-6.2,6.2c0,3.4,2.8,6.2,6.2,6.2c3.4,0,6.2-2.8,6.2-6.2
					C35.3,59.5,32.5,56.8,29.1,56.8z"/>
			</g>
			<g>
				<rect x="14.2" y="61.7" class="st1" width="2.5" height="2.5"/>
			</g>
			<g>
				<rect x="40.2" y="61.7" class="st1" width="2.5" height="2.5"/>
			</g>
			<g>
				<rect x="56.4" y="19.6" class="st1" width="2.5" height="43.4"/>
			</g>
		</g>
	</g>
</g>
</svg>
