<?xml version="1.0" encoding="utf-8"?>
<!-- Generator: Adobe Illustrator 16.0.0, SVG Export Plug-In . SVG Version: 6.00 Build 0)  -->
<!DOCTYPE svg PUBLIC "-//W3C//DTD SVG 1.1//EN" "http://www.w3.org/Graphics/SVG/1.1/DTD/svg11.dtd">
<svg version="1.1" id="Layer_1" xmlns="http://www.w3.org/2000/svg" xmlns:xlink="http://www.w3.org/1999/xlink" x="0px" y="0px"
	 width="76.222px" height="96.698px" viewBox="0 0 76.222 96.698" enable-background="new 0 0 76.222 96.698" xml:space="preserve">
<g>
	<circle fill="#3CB44A" cx="29.88" cy="69.849" r="8.381"/>
	<g>
		<g>
			<g>
				<g>
					<path fill="#414042" d="M65.599,22.355h-1.442V19.47h1.442c3.978,0,7.214-3.236,7.214-7.214c0-3.977-3.236-7.213-7.214-7.213
						V2.157c5.568,0,10.1,4.531,10.1,10.099C75.699,17.824,71.167,22.355,65.599,22.355z"/>
				</g>
			</g>
			<g>
				<g>
					<rect x="28.089" y="19.47" fill="#414042" width="2.885" height="2.886"/>
				</g>
				<g>
					<rect x="33.86" y="19.47" fill="#414042" width="2.885" height="2.886"/>
				</g>
				<g>
					<rect x="22.318" y="19.47" fill="#414042" width="2.886" height="2.886"/>
				</g>
			</g>
			<g>
				<g>
					<rect x="12.219" y="28.126" fill="#414042" width="33.183" height="2.886"/>
				</g>
				<g>
					<rect x="12.219" y="33.898" fill="#414042" width="33.183" height="2.885"/>
				</g>
				<g>
					<rect x="12.219" y="39.668" fill="#414042" width="33.183" height="2.886"/>
				</g>
				<g>
					<rect x="12.219" y="45.439" fill="#414042" width="33.183" height="2.886"/>
				</g>
				<g>
					<rect x="12.219" y="51.21" fill="#414042" width="33.183" height="2.885"/>
				</g>
			</g>
			<g>
				<path fill="#414042" d="M56.943,85.835H39.63v-2.885H55.5V12.256c0-2.823,1.164-5.379,3.038-7.213H10.776
					c-3.978,0-7.213,3.236-7.213,7.213v70.695h15.87v2.885H2.12c-0.796,0-1.442-0.646-1.442-1.443V12.256
					c0-5.567,4.53-10.099,10.099-10.099h54.823c0.797,0,1.443,0.646,1.443,1.442c0,0.798-0.646,1.443-1.443,1.443
					c-3.977,0-7.213,3.236-7.213,7.213v72.136C58.386,85.19,57.74,85.835,56.943,85.835z"/>
			</g>
			<g>
				<path fill="#414042" d="M35.302,94.492c-0.375,0-0.744-0.147-1.02-0.423l-4.75-4.75l-4.751,4.75
					c-0.413,0.412-1.033,0.538-1.572,0.313c-0.539-0.223-0.891-0.75-0.891-1.333V77.179h2.886v12.387l3.308-3.308
					c0.563-0.563,1.477-0.563,2.04,0l3.308,3.308V77.179h2.885v15.869c0,0.583-0.351,1.11-0.89,1.333
					C35.676,94.455,35.488,94.492,35.302,94.492z"/>
			</g>
			<g>
				<path fill="#414042" d="M29.532,80.064c-5.569,0-10.099-4.531-10.099-10.098c0-5.568,4.53-10.1,10.099-10.1
					c5.568,0,10.099,4.531,10.099,10.1C39.63,75.533,35.1,80.064,29.532,80.064z M29.532,62.751c-3.978,0-7.214,3.235-7.214,7.215
					c0,3.975,3.236,7.213,7.214,7.213c3.977,0,7.213-3.238,7.213-7.213C36.745,65.987,33.509,62.751,29.532,62.751z"/>
			</g>
			<g>
				<rect x="12.219" y="68.523" fill="#414042" width="2.885" height="2.885"/>
			</g>
			<g>
				<rect x="42.516" y="68.523" fill="#414042" width="2.886" height="2.885"/>
			</g>
			<g>
				<rect x="61.271" y="19.47" fill="#414042" width="2.886" height="50.497"/>
			</g>
		</g>
	</g>
</g>
</svg>
