<?xml version="1.0" encoding="utf-8"?>
<!-- Generator: Adobe Illustrator 16.0.0, SVG Export Plug-In . SVG Version: 6.00 Build 0)  -->
<!DOCTYPE svg PUBLIC "-//W3C//DTD SVG 1.1//EN" "http://www.w3.org/Graphics/SVG/1.1/DTD/svg11.dtd">
<svg version="1.1" id="Layer_1" xmlns="http://www.w3.org/2000/svg" xmlns:xlink="http://www.w3.org/1999/xlink" x="0px" y="0px"
	 width="434px" height="171.333px" viewBox="0 0 434 171.333" enable-background="new 0 0 434 171.333" xml:space="preserve">
<g>
	<path fill="#FFFFFF" d="M200.167,13.488c0,5.925-1.449,12.32-4.344,19.186c-2.897,6.867-6.967,13.703-12.218,20.5
		c-5.251,6.801-11.446,13.33-18.581,19.591c-7.138,6.261-14.915,11.815-23.328,16.664c-8.416,4.846-17.338,8.718-26.761,11.613
		c-9.426,2.897-18.985,4.342-28.68,4.342c-1.348,0-2.625-0.068-3.838-0.203c-1.211-0.133-2.357-0.334-3.434-0.605
		c0.269,2.291,0.638,5.185,1.111,8.685c0.471,3.502,1.111,7.205,1.919,11.109c0.808,3.904,1.783,7.775,2.928,11.613
		c1.143,3.836,2.526,7.27,4.141,10.299c1.616,3.031,3.433,5.523,5.454,7.475c2.018,1.951,4.374,2.926,7.068,2.926
		c4.98,0,8.852-1.074,11.613-3.23c2.757-2.152,4.813-4.105,6.16-5.855c1.48-0.674,2.556-0.203,3.231,1.412
		c-0.675,1.08-1.649,2.424-2.928,4.039c-1.281,1.617-2.828,3.201-4.646,4.747c-1.818,1.551-3.907,2.898-6.261,4.041
		c-2.357,1.143-4.816,1.717-7.373,1.717c-5.251,0-9.966-1.652-14.138-4.949c-4.175-3.297-7.811-7.504-10.907-12.624
		c-3.099-5.115-5.689-10.734-7.775-16.865c-2.089-6.123-3.806-12.016-5.152-17.672c-2.423,3.1-4.714,6.094-6.866,8.988
		c-2.155,2.896-4.109,5.453-5.856,7.674c-1.752,2.223-3.131,4.074-4.142,5.555c-1.01,1.484-1.514,2.357-1.514,2.625
		c0,0.676,0.203,1.551,0.605,2.627c0.405,1.078,0.607,2.221,0.607,3.432c0,0.406-0.607,1.281-1.818,2.627
		c-1.212,1.348-2.727,2.963-4.544,4.848c-1.817,1.887-3.873,3.805-6.16,5.756c-2.292,1.954-4.479,3.807-6.564,5.553
		c-2.089,1.75-3.939,3.164-5.555,4.244c-1.615,1.074-2.76,1.615-3.433,1.615c-1.887,0-3.57-0.811-5.049-2.425
		c-1.484-1.615-2.222-3.092-2.222-4.441c0-1.48,0.605-2.592,1.817-3.334c1.212-0.738,2.423-1.848,3.636-3.332
		c0.268-0.268,1.818-2.188,4.646-5.756c2.828-3.566,6.393-8.211,10.705-13.936c4.307-5.723,9.19-12.219,14.643-19.49
		C51.818,107,57.373,99.46,63.028,91.649c5.656-7.807,11.175-15.618,16.561-23.429c5.384-7.807,10.165-15.046,14.34-21.71
		c4.172-6.666,7.54-12.522,10.099-17.572c2.557-5.049,3.838-8.716,3.838-11.006c0-3.5-1.01-5.789-3.03-6.868
		c-2.02-1.076-4.646-1.615-7.876-1.615c-3.635,0-7.644,0.575-12.018,1.716c-4.376,1.145-8.855,2.56-13.431,4.241
		c-4.578,1.686-8.988,3.534-13.229,5.554c-4.241,2.02-8.047,3.907-11.411,5.656c-3.368,1.75-6.059,3.266-8.079,4.544
		c-2.021,1.282-3.03,1.988-3.03,2.12c0,0.676,0.032,1.617,0.101,2.828c0.067,1.212-0.236,2.155-0.909,2.828
		c-0.271,0.405-1.515,1.413-3.737,3.03c-2.221,1.615-4.644,3.332-7.27,5.15c-2.625,1.817-5.151,3.468-7.575,4.947
		c-2.423,1.484-3.907,2.223-4.443,2.223c-0.674,0-1.413-0.304-2.221-0.909c-0.81-0.605-1.617-1.344-2.425-2.222
		c-0.808-0.874-1.482-1.747-2.02-2.625c-0.54-0.874-0.808-1.647-0.808-2.322c0-0.808,1.447-2.423,4.344-4.848
		c2.894-2.423,6.765-5.216,11.613-8.381c4.847-3.164,10.366-6.529,16.561-10.099c6.192-3.566,12.588-6.797,19.188-9.694
		c6.595-2.894,13.159-5.318,19.692-7.271c6.529-1.951,12.487-2.929,17.874-2.929c7.27,0,12.487,2.02,15.652,6.059
		c3.162,4.04,4.747,9.291,4.747,15.754c0,3.636-0.742,7.608-2.223,11.917c-1.482,4.31-3.401,8.753-5.755,13.33
		c-2.357,4.578-5.051,9.188-8.079,13.834c-3.03,4.646-6.094,9.158-9.19,13.532c-3.1,4.377-6.128,8.484-9.089,12.32
		c-2.963,3.838-5.522,7.17-7.674,9.998c1.749,0.405,3.969,0.605,6.664,0.605c10.232,0,20.163-1.445,29.791-4.342
		c9.625-2.894,18.613-6.831,26.963-11.815c8.347-4.979,15.987-10.705,22.923-17.167c6.934-6.463,12.858-13.26,17.773-20.4
		c4.914-7.135,8.752-14.371,11.512-21.71c2.759-7.337,4.142-14.372,4.142-21.107c0.671,0,1.48,0.271,2.423,0.808
		c0.941,0.54,1.85,1.282,2.727,2.223c0.873,0.944,1.615,1.988,2.222,3.129C199.863,11.099,200.167,12.276,200.167,13.488z"/>
	<path fill="#FFFFFF" d="M221.573,142.343c-1.078,1.08-2.322,2.223-3.736,3.436c-1.414,1.211-2.863,2.424-4.342,3.635
		c-1.484,1.211-2.762,2.156-3.838,2.826c-2.156,1.35-4.747,2.863-7.775,4.545c-3.03,1.688-6.094,2.526-9.19,2.526
		c-2.02,0-3.838-0.537-5.453-1.617c-1.615-1.075-2.625-3.096-3.03-6.059c-0.403-2.555,0-5.686,1.212-9.391
		c1.212-3.703,2.625-7.236,4.241-10.604l0.404-0.809c-0.808-0.131-1.686-0.268-2.625-0.402c-2.696-0.268-5.522-0.404-8.483-0.404
		c-2.963,0-5.856,0.068-8.684,0.201c-1.212,0.135-2.357,0.203-3.433,0.203c-2.292,3.77-4.443,7.34-6.463,10.703
		c-2.963,4.848-5.555,9.158-7.775,12.926c-2.223,3.772-3.737,6.399-4.544,7.879c-0.271,0-0.808-0.203-1.616-0.607
		c-0.809-0.402-1.683-0.908-2.627-1.514c-0.939-0.605-1.816-1.244-2.625-1.92c-0.808-0.672-1.211-1.278-1.211-1.819
		c0-0.402,0.943-2.287,2.828-5.654c1.887-3.365,4.307-7.402,7.269-12.117c1.346-2.021,2.627-4.041,3.838-6.059l-1.01,0.201
		c-2.963,0.539-5.118,0.473-6.462-0.201c-2.693-0.809-3.903-2.289-3.635-4.443c0-2.154,0.74-2.963,2.221-2.426
		c0.676,0.271,1.212,0.641,1.615,1.111c0.405,0.475,0.941,0.777,1.617,0.908c0.536,0.271,2.423,0.137,5.654-0.402
		c1.213-0.268,2.491-0.471,3.838-0.607c0.808-1.211,1.546-2.354,2.221-3.434c3.635-5.383,7.07-10.4,10.301-15.045
		c3.231-4.646,6.025-8.484,8.382-11.512c2.354-3.03,3.868-4.544,4.542-4.544c1.078,0,2.086,0.504,3.03,1.514
		c0.941,1.01,1.48,1.919,1.616,2.727c0,0.137-0.877,1.651-2.625,4.544c-1.75,2.897-3.973,6.564-6.664,11.008l-8.484,13.531h2.223
		c2.423,0,4.914,0.07,7.472,0.201c2.557,0.137,4.979,0.34,7.271,0.607c2.02,0.271,3.701,0.605,5.05,1.01
		c0.808-1.48,1.615-2.895,2.423-4.242c1.48-2.557,2.354-4.039,2.625-4.443c1.212-1.479,1.681-2.959,1.413-4.443
		c0-0.672,0.203-1.547,0.607-2.625c0.403-1.076,1.009-2.12,1.818-3.13c0.808-1.01,1.747-1.85,2.826-2.524
		c1.077-0.673,2.222-1.01,3.435-1.01c1.615,0,3.029,0.438,4.242,1.312c1.211,0.877,1.883,1.786,2.02,2.727
		c0.131,1.079,0.166,2.694,0.1,4.849c-0.068,2.154-0.439,3.703-1.109,4.645c-0.404,0.402-1.146,1.348-2.223,2.826
		c-1.08,1.484-2.291,3.131-3.637,4.949c-1.347,1.818-2.693,3.67-4.038,5.555c-1.348,1.887-2.425,3.434-3.233,4.645
		c-1.75,2.559-3.401,5.252-4.947,8.078c-1.55,2.828-2.19,5.051-1.919,6.666c0,0.539,0.234,1.111,0.707,1.717
		c0.471,0.605,1.111,0.908,1.919,0.908c1.749,0,3.939-0.637,6.564-1.918c2.625-1.279,5.283-2.793,7.978-4.545
		c2.557-1.748,4.947-3.465,7.17-5.15c2.221-1.682,3.867-3.061,4.947-4.139c1.078,0,1.748,0.807,2.02,2.422L221.573,142.343z"/>
	<path fill="#FFFFFF" d="M293.879,149.614c0,0.137-0.539,0.742-1.619,1.818c-0.27,0.271-0.74,0.908-1.416,1.918
		c-0.674,1.01-1.477,2.021-2.422,3.031c-0.943,1.01-1.889,1.918-2.826,2.727c-0.943,0.807-1.82,1.213-2.623,1.213
		c-2.293,0-4.311-1.381-6.064-4.143c-1.746-2.758-2.623-5.957-2.623-9.592c0-3.904,0.438-7.07,1.314-9.494
		c0.871-2.424,1.578-4.105,2.119-5.049l-0.404-0.404c-0.271,0.271-1.248,1.248-2.928,2.928c-1.688,1.688-3.771,3.705-6.26,6.059
		c-2.496,2.357-5.254,4.918-8.283,7.676c-3.027,2.762-5.99,5.287-8.883,7.574c-2.9,2.292-5.625,4.174-8.182,5.657
		c-2.563,1.48-4.58,2.221-6.057,2.221c-1.08,0-2.26-0.271-3.535-0.809c-1.281-0.539-2.461-1.211-3.533-2.018
		c-1.084-0.809-1.957-1.717-2.631-2.727c-0.676-1.012-1.01-2.053-1.01-3.133c0-3.096,0.84-7.234,2.527-12.42
		c1.68-5.182,3.668-10.332,5.955-15.451c1.35-2.826,2.76-5.52,4.242-8.08c1.479-2.555,2.928-4.777,4.344-6.664
		c1.41-1.883,2.793-3.399,4.143-4.543c1.342-1.144,2.557-1.717,3.635-1.717c0.938,0,2.018,0.843,3.23,2.524
		c1.209,1.685,1.814,3.064,1.814,4.14c0,0.539-0.066,0.879-0.201,1.01c-1.08,1.484-2.523,3.838-4.344,7.068
		c-1.814,3.232-3.637,6.666-5.451,10.301c-1.814,3.637-3.398,7.17-4.748,10.604c-1.342,3.434-2.016,6.094-2.016,7.979
		c0,0.943,0.168,1.918,0.506,2.928c0.33,1.012,1.037,1.516,2.117,1.516c0.809,0,1.982-0.404,3.535-1.213
		c1.543-0.809,3.297-1.883,5.254-3.23c1.949-1.344,4.039-2.93,6.26-4.748c2.219-1.816,4.471-3.803,6.764-5.957
		c3.502-3.363,6.699-6.766,9.592-10.199c2.895-3.434,5.289-6.16,7.17-8.18c0.811-0.672,1.484-1.244,2.023-1.717
		c0.533-0.469,1.012-0.707,1.41-0.707c1.754,0,3.238,1.078,4.445,3.232c1.213,2.154,1.82,4.311,1.82,6.461
		c0,3.232-0.607,6.195-1.82,8.889c-1.207,2.695-1.814,5.654-1.814,8.887c0,1.615,0.869,2.594,2.623,2.928
		c1.748,0.338,3.096,0.506,4.041,0.506C293.604,149.212,293.879,149.347,293.879,149.614z"/>
	<path fill="#FFFFFF" d="M304.784,116.089c2.285-2.557,5.078-5.384,8.381-8.484c3.297-3.096,6.693-5.787,10.197-8.079
		c3.502-2.288,6.9-3.969,10.199-5.048c3.299-1.076,6.162-1.01,8.586,0.202c1.883,0.403,3.434,1.312,4.645,2.727
		c1.211,1.413,1.949,3.165,2.223,5.251c0.266,2.089-0.035,4.377-0.912,6.867c-0.875,2.495-2.391,5.149-4.541,7.977
		c-4.176,4.984-8.182,9.563-12.018,13.734c-3.838,4.176-6.971,7.846-9.393,11.008c-2.424,3.166-3.736,5.959-3.938,8.381
		c-0.203,2.424,1.244,4.443,4.344,6.059c1.615,0.678,3.801,0.34,6.563-1.008c2.758-1.346,5.617-3.164,8.582-5.453
		c2.961-2.289,5.787-4.678,8.482-7.17c2.695-2.49,4.711-4.611,6.061-6.363c0.27,0.271,0.84,0.605,1.717,1.012
		c0.873,0.402,1.244,0.807,1.109,1.211c-0.941,1.615-2.928,3.805-5.955,6.564c-3.033,2.76-6.332,5.42-9.898,7.977
		c-3.568,2.561-7.104,4.68-10.604,6.364c-3.502,1.686-6.195,2.252-8.078,1.717c-2.154-0.268-4.174-1.549-6.061-3.84
		c-1.885-2.288-2.559-5.788-2.02-10.502c0.135-1.883,1.043-4.24,2.729-7.068c1.68-2.828,3.666-5.857,5.955-9.088
		c2.291-3.23,4.611-6.465,6.969-9.695s4.311-6.26,5.857-9.088c1.549-2.829,2.426-5.284,2.627-7.373
		c0.203-2.086-0.775-3.535-2.93-4.342c-1.752-0.536-3.67-0.369-5.754,0.506c-2.092,0.877-4.344,2.29-6.77,4.241
		c-2.42,1.953-4.98,4.176-7.672,6.664c-2.695,2.494-5.389,5.02-8.08,7.576L304.784,116.089z"/>
	<path fill="#FFFFFF" d="M431.215,149.614c0,0.137-0.539,0.742-1.615,1.818c-0.273,0.271-0.742,0.908-1.416,1.918
		c-0.676,1.01-1.48,2.021-2.422,3.031c-0.945,1.01-1.889,1.918-2.83,2.727c-0.941,0.807-1.818,1.213-2.623,1.213
		c-2.293,0-4.311-1.381-6.061-4.143c-1.75-2.758-2.625-5.957-2.625-9.592c0-3.904,0.436-7.07,1.313-9.494
		c0.873-2.424,1.582-4.105,2.121-5.049l-0.404-0.404c-0.273,0.271-1.248,1.248-2.928,2.928c-1.686,1.688-3.773,3.705-6.262,6.059
		c-2.492,2.357-5.252,4.918-8.279,7.676c-3.033,2.762-5.994,5.287-8.887,7.574c-2.898,2.292-5.627,4.174-8.182,5.657
		c-2.561,1.48-4.578,2.221-6.059,2.221c-1.078,0-2.256-0.271-3.533-0.809c-1.281-0.539-2.459-1.211-3.535-2.018
		c-1.078-0.809-1.955-1.717-2.627-2.727c-0.674-1.012-1.008-2.053-1.008-3.133c0-3.096,0.84-7.234,2.521-12.42
		c1.684-5.182,3.67-10.332,5.959-15.451c1.346-2.826,2.76-5.52,4.244-8.08c1.477-2.555,2.926-4.777,4.34-6.664
		c1.412-1.883,2.793-3.399,4.141-4.543c1.344-1.144,2.557-1.717,3.637-1.717c0.941,0,2.02,0.843,3.23,2.524
		c1.211,1.685,1.818,3.064,1.818,4.14c0,0.539-0.072,0.879-0.203,1.01c-1.078,1.484-2.525,3.838-4.344,7.068
		c-1.818,3.232-3.635,6.666-5.449,10.301c-1.818,3.637-3.404,7.17-4.75,10.604s-2.02,6.094-2.02,7.979
		c0,0.943,0.168,1.918,0.506,2.928c0.334,1.012,1.043,1.516,2.121,1.516c0.807,0,1.984-0.404,3.535-1.213
		c1.545-0.809,3.299-1.883,5.25-3.23c1.949-1.344,4.041-2.93,6.26-4.748c2.223-1.816,4.477-3.803,6.77-5.957
		c3.496-3.363,6.693-6.766,9.592-10.199c2.893-3.434,5.283-6.16,7.17-8.18c0.809-0.672,1.48-1.244,2.02-1.717
		c0.535-0.469,1.012-0.707,1.412-0.707c1.752,0,3.234,1.078,4.445,3.232s1.818,4.311,1.818,6.461c0,3.232-0.607,6.195-1.818,8.889
		c-1.211,2.695-1.818,5.654-1.818,8.887c0,1.615,0.875,2.594,2.625,2.928c1.75,0.338,3.096,0.506,4.039,0.506
		C430.942,149.212,431.215,149.347,431.215,149.614z"/>
</g>
</svg>
