<?xml version="1.0" encoding="utf-8"?>
<!-- Generator: Adobe Illustrator 16.0.0, SVG Export Plug-In . SVG Version: 6.00 Build 0)  -->
<!DOCTYPE svg PUBLIC "-//W3C//DTD SVG 1.1//EN" "http://www.w3.org/Graphics/SVG/1.1/DTD/svg11.dtd">
<svg version="1.1" id="Capa_1" xmlns="http://www.w3.org/2000/svg" xmlns:xlink="http://www.w3.org/1999/xlink" x="0px" y="0px"
	 width="195px" height="50px" viewBox="0 0 195 50" enable-background="new 0 0 195 50" xml:space="preserve">
<g id="Settings">
	<g>
		<path fill="#38B449" d="M122.343,22.224c-0.079-0.703-0.898-1.231-1.606-1.231c-2.291,0-4.324-1.345-5.178-3.426
			c-0.871-2.131-0.309-4.616,1.398-6.182c0.537-0.491,0.603-1.314,0.152-1.885c-1.173-1.489-2.506-2.834-3.961-4
			c-0.57-0.458-1.406-0.394-1.9,0.153c-1.49,1.65-4.166,2.264-6.234,1.401c-2.152-0.906-3.51-3.087-3.377-5.428
			c0.043-0.735-0.494-1.375-1.227-1.46c-1.868-0.216-3.752-0.223-5.625-0.015c-0.725,0.08-1.262,0.704-1.238,1.43
			c0.082,2.318-1.292,4.461-3.423,5.334c-2.043,0.835-4.701,0.227-6.188-1.409c-0.492-0.539-1.314-0.605-1.887-0.159
			c-1.499,1.176-2.861,2.522-4.044,3.999c-0.461,0.574-0.394,1.406,0.149,1.9c1.74,1.576,2.302,4.083,1.398,6.238
			c-0.863,2.055-2.997,3.379-5.44,3.379c-0.792-0.025-1.357,0.506-1.444,1.227c-0.22,1.878-0.223,3.792-0.011,5.686
			c0.078,0.705,0.923,1.229,1.639,1.229c2.177-0.055,4.267,1.293,5.144,3.426c0.874,2.131,0.312,4.615-1.398,6.182
			c-0.535,0.492-0.603,1.313-0.152,1.885c1.161,1.479,2.494,2.826,3.955,4.001c0.573,0.462,1.406,0.396,1.903-0.15
			c1.496-1.655,4.172-2.267,6.232-1.402c2.158,0.903,3.515,3.083,3.382,5.427c-0.043,0.735,0.497,1.376,1.227,1.46
			C95.545,49.944,96.506,50,97.47,50c0.915,0,1.829-0.051,2.745-0.152c0.725-0.08,1.262-0.704,1.236-1.432
			c-0.083-2.316,1.293-4.459,3.422-5.331c2.057-0.841,4.703-0.226,6.191,1.409c0.494,0.537,1.311,0.602,1.887,0.157
			c1.495-1.173,2.855-2.518,4.044-3.999c0.462-0.572,0.396-1.406-0.149-1.899c-1.74-1.575-2.305-4.083-1.4-6.237
			c0.85-2.027,2.904-3.389,5.113-3.389l0.311,0.008c0.717,0.059,1.375-0.494,1.463-1.225
			C122.552,26.029,122.555,24.118,122.343,22.224z M97.54,33.392c-4.599,0-8.339-3.74-8.339-8.339c0-4.598,3.74-8.339,8.339-8.339
			c4.598,0,8.339,3.741,8.339,8.339C105.879,29.651,102.138,33.392,97.54,33.392z"/>
	</g>
</g>
</svg>
