<?xml version="1.0" encoding="utf-8"?>
<!-- Generator: Adobe Illustrator 16.0.0, SVG Export Plug-In . SVG Version: 6.00 Build 0)  -->
<!DOCTYPE svg PUBLIC "-//W3C//DTD SVG 1.1//EN" "http://www.w3.org/Graphics/SVG/1.1/DTD/svg11.dtd">
<svg version="1.1" id="Layer_1" xmlns="http://www.w3.org/2000/svg" xmlns:xlink="http://www.w3.org/1999/xlink" x="0px" y="0px"
	 width="195px" height="50px" viewBox="0 0 195 50" enable-background="new 0 0 195 50" xml:space="preserve">
<g>
	<defs>
		<rect id="SVGID_1_" width="194.722" height="50"/>
	</defs>
	<clipPath id="SVGID_2_">
		<use xlink:href="#SVGID_1_"  overflow="visible"/>
	</clipPath>
	<path clip-path="url(#SVGID_2_)" fill="#414042" d="M187.313,4.142c0.482-0.683,1.162-1.025,2.042-1.025
		c0.506,0,0.935,0.108,1.283,0.324c0.349,0.217,0.633,0.517,0.85,0.902c0.217,0.386,0.376,0.835,0.479,1.349
		c0.103,0.514,0.154,1.068,0.154,1.663c0,1.495-0.241,2.575-0.724,3.24c-0.481,0.666-1.163,0.999-2.042,0.999
		c-0.481,0-0.897-0.105-1.247-0.316c-0.349-0.21-0.636-0.501-0.857-0.875c-0.224-0.374-0.39-0.82-0.497-1.34
		c-0.109-0.519-0.163-1.089-0.163-1.708C186.59,5.896,186.831,4.825,187.313,4.142 M184.313,9.965
		c0.217,0.782,0.545,1.453,0.985,2.014c0.439,0.56,0.997,0.992,1.672,1.296c0.674,0.303,1.469,0.455,2.385,0.455
		c1.711,0,3.033-0.551,3.967-1.655c0.934-1.103,1.4-2.676,1.4-4.72c0-0.957-0.108-1.827-0.325-2.609
		c-0.217-0.782-0.548-1.453-0.994-2.014c-0.445-0.56-1.006-0.992-1.681-1.296c-0.674-0.303-1.463-0.455-2.367-0.455
		c-1.723,0-3.048,0.551-3.976,1.655c-0.928,1.103-1.392,2.677-1.392,4.719C183.987,8.313,184.096,9.183,184.313,9.965
		 M175.107,6.375V3.134c0.146-0.023,0.351-0.04,0.615-0.052c0.265-0.011,0.554-0.017,0.867-0.017c0.277,0,0.542,0.023,0.795,0.069
		c0.253,0.047,0.479,0.127,0.678,0.243c0.199,0.115,0.358,0.271,0.479,0.468c0.12,0.196,0.181,0.444,0.181,0.745
		c0,0.451-0.166,0.814-0.497,1.092c-0.332,0.277-0.726,0.485-1.184,0.624c-0.146,0.023-0.328,0.04-0.552,0.052
		c-0.223,0.011-0.419,0.017-0.588,0.017H175.107z M176.27,11.638c-0.16-0.006-0.313-0.012-0.461-0.018
		c-0.147-0.006-0.287-0.014-0.417-0.026c-0.13-0.011-0.225-0.029-0.284-0.052V8.196h1.296c0.308,0,0.614,0.018,0.923,0.052
		c0.307,0.035,0.585,0.113,0.834,0.234c0.247,0.122,0.448,0.292,0.603,0.512c0.154,0.219,0.231,0.52,0.231,0.901
		c0,0.301-0.065,0.561-0.195,0.78c-0.131,0.22-0.302,0.402-0.515,0.546c-0.214,0.145-0.458,0.252-0.736,0.321
		c-0.278,0.07-0.565,0.104-0.861,0.104C176.568,11.646,176.43,11.643,176.27,11.638 M180.801,2.574
		c-0.265-0.396-0.618-0.706-1.057-0.928c-0.44-0.221-0.94-0.376-1.5-0.464c-0.561-0.087-1.137-0.131-1.727-0.131
		c-0.35,0-0.702,0.006-1.057,0.017c-0.356,0.012-0.702,0.03-1.039,0.053c-0.338,0.023-0.654,0.052-0.949,0.087
		c-0.296,0.035-0.558,0.071-0.786,0.106v12.083c0.313,0.07,0.659,0.123,1.039,0.158c0.379,0.035,0.753,0.061,1.12,0.079
		c0.368,0.017,0.711,0.026,1.03,0.026h0.787c0.626,0,1.233-0.07,1.824-0.21s1.117-0.356,1.581-0.648s0.834-0.668,1.111-1.13
		c0.277-0.461,0.416-1.007,0.416-1.637c0-0.479-0.069-0.893-0.207-1.243c-0.138-0.351-0.327-0.648-0.566-0.894
		c-0.239-0.245-0.521-0.437-0.845-0.578c-0.324-0.14-0.666-0.239-1.024-0.297V6.917c0.406-0.094,0.754-0.237,1.042-0.429
		c0.286-0.193,0.521-0.415,0.699-0.666c0.181-0.251,0.31-0.528,0.388-0.832c0.078-0.303,0.116-0.607,0.116-0.91
		C181.198,3.474,181.065,2.972,180.801,2.574 M170.385,1.226h-9.867v2.137h3.705v10.122h2.476V3.363h3.687V1.226z M158.452,11.033
		c-0.278,0.164-0.604,0.298-0.977,0.403c-0.374,0.105-0.831,0.158-1.374,0.158c-0.578,0-1.087-0.103-1.527-0.307
		c-0.439-0.205-0.807-0.492-1.102-0.86c-0.295-0.369-0.515-0.813-0.66-1.334c-0.144-0.521-0.217-1.097-0.217-1.729
		c0-1.45,0.305-2.521,0.913-3.211s1.413-1.036,2.413-1.036c0.542,0,1.003,0.03,1.382,0.088c0.38,0.059,0.708,0.152,0.985,0.28
		l0.487-2.031c-0.324-0.129-0.737-0.24-1.237-0.333c-0.5-0.093-1.111-0.14-1.834-0.14c-0.676,0-1.351,0.108-2.024,0.324
		c-0.675,0.216-1.286,0.572-1.835,1.068c-0.548,0.496-0.993,1.15-1.337,1.962c-0.343,0.811-0.515,1.818-0.515,3.02
		c0,1.156,0.153,2.14,0.461,2.951c0.307,0.812,0.72,1.471,1.237,1.979c0.519,0.508,1.117,0.876,1.798,1.104
		c0.682,0.227,1.401,0.341,2.16,0.341c0.626,0,1.238-0.058,1.834-0.174c0.597-0.115,1.087-0.306,1.474-0.573L158.452,11.033z
		 M142.244,11.497c-0.224-0.017-0.4-0.043-0.533-0.079v-3.66c0.048-0.011,0.124-0.026,0.226-0.043
		c0.103-0.018,0.214-0.033,0.334-0.044c0.121-0.012,0.241-0.024,0.362-0.035c0.12-0.012,0.223-0.018,0.307-0.018
		c0.325,0,0.639,0.024,0.94,0.07c0.301,0.047,0.563,0.14,0.786,0.28c0.223,0.141,0.402,0.336,0.542,0.587
		c0.138,0.251,0.208,0.575,0.208,0.972c0,0.374-0.063,0.689-0.19,0.946c-0.126,0.257-0.304,0.464-0.533,0.621
		c-0.229,0.158-0.494,0.269-0.795,0.333c-0.301,0.065-0.621,0.097-0.958,0.097C142.698,11.524,142.467,11.515,142.244,11.497
		 M139.234,13.362c0.289,0.07,0.606,0.123,0.949,0.158c0.343,0.035,0.685,0.064,1.021,0.088c0.337,0.023,0.647,0.037,0.931,0.043
		c0.283,0.006,0.509,0.009,0.677,0.009c1.675,0,2.961-0.356,3.859-1.068c0.896-0.712,1.346-1.769,1.346-3.17
		c0-0.782-0.126-1.427-0.379-1.935c-0.253-0.508-0.594-0.911-1.021-1.209c-0.429-0.297-0.92-0.504-1.474-0.621
		c-0.555-0.117-1.127-0.175-1.717-0.175c-0.146,0-0.301,0.006-0.47,0.017c-0.169,0.012-0.334,0.024-0.497,0.035
		c-0.163,0.012-0.313,0.026-0.452,0.044c-0.138,0.017-0.238,0.032-0.298,0.044V1.226h-2.477V13.362z M133.572,13.485h2.477V1.226
		h-7.464c-0.024,1.425-0.066,2.671-0.127,3.739c-0.061,1.068-0.142,1.988-0.244,2.758c-0.103,0.771-0.22,1.404-0.353,1.9
		c-0.133,0.497-0.289,0.873-0.47,1.13c-0.133,0.222-0.292,0.38-0.479,0.473c-0.188,0.093-0.376,0.14-0.569,0.14
		c-0.072,0-0.146-0.006-0.217-0.018c-0.072-0.011-0.145-0.029-0.217-0.052l-0.271,2.066c0.181,0.082,0.364,0.143,0.551,0.184
		c0.188,0.041,0.419,0.062,0.696,0.062c0.193,0,0.401-0.021,0.624-0.062c0.222-0.041,0.448-0.114,0.677-0.219
		c0.229-0.105,0.449-0.245,0.66-0.42s0.4-0.397,0.569-0.665c0.265-0.409,0.481-0.894,0.65-1.454c0.168-0.56,0.305-1.205,0.406-1.935
		c0.104-0.73,0.184-1.55,0.244-2.461c0.06-0.91,0.115-1.92,0.163-3.029h2.692V13.485z M116.507,13.485h7.59v-2.137h-5.114V8.354
		h4.572V6.217h-4.572V3.363h5.024V1.226h-7.5V13.485z M114.205,1.226h-9.867v2.137h3.705v10.122h2.476V3.363h3.687V1.226z
		 M98.585,6.13l0.379-1.944h0.091l0.379,1.926l0.94,2.732h-2.711L98.585,6.13z M101.928,13.485h2.603L99.976,1.138H98.15
		l-4.554,12.347h2.476l0.958-2.714h3.885L101.928,13.485z M84.049,11.348c0.277-0.595,0.551-1.555,0.822-2.88
		c0.271-1.325,0.443-3.027,0.515-5.105h2.801v7.985H84.049z M92.271,11.348h-1.609V1.226h-7.572c0.012,1.67-0.048,3.115-0.181,4.334
		c-0.132,1.221-0.295,2.236-0.488,3.048c-0.192,0.811-0.385,1.439-0.578,1.882c-0.193,0.444-0.331,0.73-0.416,0.858h-1.337v4.326
		h1.753l0.271-2.189h8.133l0.271,2.189h1.753V11.348z M72.226,8.056h0.381c0.073,0,0.182,0.006,0.327,0.018
		c1.089,0.023,1.845,0.175,2.269,0.455c0.423,0.28,0.635,0.695,0.635,1.243c0,0.327-0.066,0.607-0.199,0.841
		s-0.308,0.423-0.526,0.569c-0.217,0.146-0.462,0.251-0.734,0.315c-0.272,0.065-0.541,0.097-0.807,0.097
		c-0.713,0-1.329-0.067-1.849-0.202c-0.519-0.134-0.918-0.265-1.196-0.394l-0.634,2.084c0.349,0.175,0.849,0.327,1.5,0.456
		c0.65,0.128,1.373,0.192,2.168,0.192c0.615,0,1.217-0.073,1.807-0.219c0.591-0.146,1.112-0.37,1.564-0.674
		c0.451-0.303,0.816-0.692,1.093-1.165c0.277-0.472,0.416-1.042,0.416-1.707c0-0.841-0.22-1.512-0.66-2.014
		s-1.051-0.829-1.834-0.981V6.883c0.734-0.234,1.268-0.607,1.599-1.121c0.331-0.514,0.497-1.074,0.497-1.681
		s-0.121-1.106-0.361-1.498c-0.242-0.391-0.561-0.703-0.958-0.937c-0.398-0.233-0.85-0.396-1.356-0.49
		c-0.506-0.093-1.024-0.14-1.554-0.14c-0.386,0-0.765,0.023-1.138,0.07c-0.374,0.047-0.72,0.108-1.039,0.184
		c-0.32,0.076-0.603,0.155-0.85,0.236c-0.247,0.082-0.437,0.158-0.569,0.228l0.632,2.031c0.241-0.128,0.597-0.262,1.067-0.402
		c0.47-0.141,0.976-0.211,1.518-0.211c0.602,0,1.087,0.103,1.454,0.307c0.368,0.204,0.552,0.587,0.552,1.147
		c0,0.409-0.151,0.733-0.452,0.972c-0.301,0.239-0.663,0.406-1.084,0.499c-0.097,0.024-0.224,0.044-0.38,0.061
		c-0.157,0.018-0.316,0.03-0.479,0.035c-0.163,0.006-0.322,0.009-0.479,0.009H72.17h-0.434v1.874H72.226z M64.971,13.485h2.476
		V1.226h-1.843l-4.717,6.62L60,9.545h-0.108l0.181-1.647V1.226h-2.476v12.259h1.861l4.717-6.742l0.849-1.647h0.091L64.971,6.69
		V13.485z"/>
	<path clip-path="url(#SVGID_2_)" fill="#39B54A" d="M23.386,0C19.335,0,12.671,0.174,8.805,0.64
		C3.455,1.285,1.331,4.052,0.75,9.102C0.304,12.969,0,18.549,0,23.761c0,5.211,0.1,10.836,0.749,14.674
		c0.847,5.011,3.206,7.665,8.056,8.446c3.841,0.618,10.924,0.641,14.581,0.641c3.657,0,10.74-0.022,14.581-0.641
		c4.85-0.781,7.154-3.407,8.056-8.446c0.686-3.832,0.749-9.699,0.749-14.674S46.333,12.18,46.023,9.102
		c-0.525-5.217-2.775-7.761-8.056-8.462C34.107,0.128,27.438,0,23.386,0"/>
	<path clip-path="url(#SVGID_2_)" fill="#FFFFFF" d="M7.468,6.871c9.306,0.648,16.684,1.612,25.529,4.149l-0.014,31.343
		c-6.508-3.232-12.901-5.254-21.132-6.476l0.144-24.444c5.47,0.444,10.113,1.067,16.326,2.921l0.094,21.238
		c-4.309-1.469-7.15-2.196-11.623-2.807l-0.419-15.494l-1.735,0.007l-0.284,16.705l0.761,0.094c5.69,0.697,8.393,1.408,13.851,3.308
		l1.197,0.42l-0.112-24.541l-0.575-0.176c-7.008-2.149-12.164-2.783-18.265-3.251l-0.943-0.072l-0.163,27.368l0.734,0.103
		c8.973,1.272,15.551,3.418,22.566,7.057l1.314,0.683l0.014-35.071l-0.589-0.174C24.578,6.959,16.679,5.968,6.667,5.306l-0.94-0.063
		l0.058,35.865l0.787,0.065c10.784,0.865,21.564,5.096,27.924,8.811l0.018-0.023V50h0.268v-1.647
		c-6.491-3.651-16.717-7.602-27.262-8.611L7.468,6.871z M41.019,6.138C34.768,4.839,18.749,3.525,8.08,4.582
		c11.194,0.285,20.76,1.595,29.43,3.535l0.021,33.824c0.88-1.115,2.421-3.713,3.515-5.068L41.019,6.138z"/>
	<path clip-path="url(#SVGID_2_)" fill="#414042" d="M122.22,42.183c0.241,0,0.447,0.048,0.616,0.145
		c0.17,0.097,0.307,0.226,0.412,0.387c0.104,0.162,0.181,0.351,0.229,0.569c0.049,0.218,0.073,0.447,0.073,0.689
		c0,1.2-0.444,1.796-1.331,1.79c-0.242,0-0.448-0.049-0.617-0.148c-0.17-0.1-0.307-0.23-0.411-0.393
		c-0.104-0.161-0.182-0.351-0.23-0.567c-0.048-0.219-0.073-0.445-0.073-0.682C120.888,42.772,121.332,42.177,122.22,42.183
		 M120.203,44.975c0.084,0.303,0.215,0.561,0.391,0.774c0.177,0.215,0.4,0.379,0.671,0.494c0.271,0.114,0.589,0.173,0.955,0.173
		c0.691,0,1.222-0.21,1.59-0.63c0.369-0.419,0.555-1.024,0.555-1.813c0-0.367-0.044-0.701-0.129-1.002
		c-0.085-0.302-0.215-0.56-0.391-0.773c-0.176-0.216-0.4-0.379-0.671-0.495c-0.271-0.114-0.589-0.172-0.954-0.172
		c-0.692,0-1.223,0.21-1.591,0.629c-0.369,0.42-0.554,1.024-0.554,1.813C120.075,44.34,120.118,44.674,120.203,44.975
		 M119.752,41.642h-2.858v4.662h0.783v-4.009h2.075V41.642z M113.516,42.183c0.241,0,0.447,0.048,0.617,0.145
		c0.169,0.097,0.306,0.226,0.411,0.387c0.104,0.162,0.181,0.351,0.229,0.569c0.05,0.218,0.073,0.447,0.073,0.689
		c0,1.2-0.443,1.796-1.331,1.79c-0.242,0-0.447-0.049-0.617-0.148s-0.307-0.23-0.41-0.393c-0.105-0.161-0.182-0.351-0.23-0.567
		c-0.049-0.219-0.074-0.445-0.074-0.682C112.184,42.772,112.628,42.177,113.516,42.183 M111.499,44.975
		c0.085,0.303,0.216,0.561,0.392,0.774c0.176,0.215,0.399,0.379,0.67,0.494c0.271,0.114,0.589,0.173,0.955,0.173
		c0.692,0,1.223-0.21,1.591-0.63c0.369-0.419,0.554-1.024,0.554-1.813c0-0.367-0.042-0.701-0.127-1.002
		c-0.085-0.302-0.217-0.56-0.393-0.773c-0.176-0.216-0.399-0.379-0.67-0.495c-0.271-0.114-0.59-0.172-0.955-0.172
		c-0.691,0-1.222,0.21-1.591,0.629c-0.369,0.42-0.553,1.024-0.553,1.813C111.372,44.34,111.414,44.674,111.499,44.975
		 M109.941,46.304h0.971l-1.636-2.106l-0.509-0.373l0.411-0.309l1.517-1.874h-0.852l-1.566,1.978l-0.421,0.13v-2.107h-0.782v4.662
		h0.782v-2.098h0.45L109.941,46.304z M104.783,46.304h0.782v-4.662h-0.46l-2.203,2.816l-0.382,0.578h-0.039l0.03-0.55v-2.845h-0.784
		v4.662h0.451l2.203-2.741l0.401-0.597h0.028l-0.028,0.578V46.304z M99.437,46.304h0.784v-4.662h-2.918
		c-0.019,0.839-0.055,1.521-0.108,2.042c-0.052,0.522-0.117,0.932-0.195,1.227c-0.079,0.295-0.17,0.496-0.275,0.601
		c-0.104,0.106-0.221,0.159-0.352,0.159c-0.091,0-0.176-0.012-0.254-0.037l-0.118,0.624c0.072,0.032,0.153,0.053,0.245,0.066
		c0.091,0.012,0.199,0.018,0.323,0.018c0.202,0,0.377-0.063,0.524-0.191c0.147-0.127,0.27-0.297,0.372-0.508
		c0.101-0.211,0.184-0.455,0.249-0.731c0.065-0.277,0.118-0.566,0.157-0.867c0.039-0.302,0.069-0.604,0.088-0.905
		c0.02-0.301,0.039-0.582,0.059-0.843h1.419V46.304z M94.738,42.467c0.189,0.19,0.284,0.521,0.284,0.993h-2.428
		c0.045-0.466,0.184-0.796,0.416-0.988s0.54-0.289,0.925-0.289C94.281,42.183,94.549,42.278,94.738,42.467 M95.325,45.39
		c-0.111,0.101-0.277,0.188-0.499,0.262c-0.222,0.074-0.444,0.111-0.666,0.111c-0.287,0-0.53-0.039-0.729-0.116
		c-0.199-0.077-0.361-0.189-0.485-0.336c-0.124-0.146-0.215-0.324-0.274-0.536c-0.059-0.211-0.088-0.453-0.088-0.727h3.143
		c0.039-0.249,0.059-0.476,0.059-0.681c0-0.393-0.056-0.707-0.167-0.947c-0.111-0.239-0.254-0.424-0.431-0.554
		c-0.176-0.131-0.375-0.22-0.597-0.267s-0.444-0.069-0.666-0.069c-0.692,0-1.223,0.208-1.595,0.625
		c-0.372,0.416-0.559,1.021-0.559,1.817c0,0.373,0.043,0.709,0.128,1.007c0.085,0.299,0.215,0.556,0.391,0.77
		c0.177,0.215,0.402,0.379,0.676,0.494c0.274,0.114,0.597,0.173,0.969,0.173c0.333,0,0.648-0.044,0.945-0.131
		s0.543-0.205,0.739-0.354L95.325,45.39z M87.219,42.648V40.43c0.091-0.019,0.227-0.033,0.406-0.042
		c0.18-0.01,0.377-0.014,0.593-0.014c0.182,0,0.362,0.017,0.538,0.051c0.176,0.034,0.333,0.092,0.47,0.173
		c0.137,0.08,0.246,0.188,0.328,0.321c0.081,0.134,0.122,0.303,0.122,0.508c0,0.15-0.031,0.288-0.093,0.415
		c-0.062,0.128-0.147,0.24-0.254,0.336c-0.108,0.096-0.23,0.18-0.367,0.252c-0.137,0.071-0.284,0.132-0.441,0.183
		c-0.104,0.012-0.235,0.021-0.392,0.027c-0.156,0.006-0.29,0.009-0.401,0.009H87.219z M87.992,45.703
		c-0.104-0.003-0.205-0.008-0.303-0.015c-0.098-0.007-0.189-0.013-0.274-0.019c-0.085-0.006-0.15-0.015-0.196-0.028v-2.34h0.852
		c0.215,0,0.43,0.016,0.646,0.046c0.215,0.031,0.409,0.09,0.582,0.177c0.173,0.089,0.314,0.21,0.421,0.364
		c0.108,0.155,0.162,0.361,0.162,0.615c0,0.206-0.044,0.383-0.132,0.532c-0.088,0.148-0.208,0.274-0.358,0.378
		c-0.15,0.102-0.323,0.177-0.518,0.223c-0.196,0.047-0.399,0.07-0.607,0.07C88.188,45.707,88.097,45.706,87.992,45.703
		 M90.327,40.476c-0.14-0.205-0.318-0.364-0.533-0.479c-0.216-0.115-0.455-0.192-0.72-0.233c-0.264-0.04-0.524-0.061-0.778-0.061
		c-0.379,0-0.728,0.013-1.048,0.038c-0.32,0.024-0.6,0.056-0.842,0.093v6.424c0.124,0.032,0.268,0.055,0.431,0.07
		s0.326,0.027,0.49,0.038c0.163,0.009,0.319,0.014,0.47,0.014h0.391c0.32,0,0.633-0.038,0.94-0.112
		c0.307-0.074,0.579-0.189,0.818-0.345c0.238-0.156,0.43-0.356,0.577-0.602s0.221-0.536,0.221-0.872
		c0-0.254-0.043-0.476-0.128-0.662s-0.196-0.346-0.333-0.476c-0.137-0.131-0.295-0.232-0.474-0.308
		c-0.18-0.074-0.368-0.127-0.563-0.158v-0.038c0.221-0.056,0.414-0.136,0.577-0.242c0.163-0.105,0.297-0.228,0.402-0.367
		c0.104-0.141,0.182-0.291,0.235-0.453c0.052-0.161,0.078-0.32,0.078-0.476C90.538,40.946,90.468,40.681,90.327,40.476
		 M79.543,45.516c-0.163-0.14-0.244-0.317-0.244-0.536c0-0.154,0.044-0.283,0.132-0.387c0.088-0.103,0.205-0.183,0.352-0.242
		c0.147-0.059,0.317-0.1,0.509-0.122c0.193-0.021,0.39-0.031,0.593-0.031c0.091,0,0.184,0.001,0.279,0.004
		c0.094,0.004,0.187,0.008,0.279,0.014v0.774c-0.033,0.081-0.083,0.165-0.152,0.252c-0.069,0.087-0.155,0.166-0.259,0.237
		c-0.105,0.071-0.229,0.131-0.372,0.178c-0.144,0.047-0.307,0.069-0.49,0.069C79.915,45.726,79.706,45.656,79.543,45.516
		 M79.025,42.556c0.091-0.051,0.197-0.098,0.318-0.139c0.12-0.042,0.248-0.077,0.382-0.106c0.133-0.028,0.264-0.051,0.391-0.066
		c0.127-0.017,0.246-0.024,0.358-0.024c0.378,0,0.639,0.068,0.783,0.205c0.143,0.137,0.215,0.376,0.215,0.718
		c0,0.149-0.01,0.317-0.029,0.504c-0.092-0.013-0.181-0.019-0.269-0.019h-0.27c-0.359,0-0.687,0.023-0.984,0.07
		c-0.297,0.046-0.551,0.124-0.763,0.232c-0.212,0.109-0.377,0.255-0.495,0.438c-0.117,0.184-0.176,0.412-0.176,0.686
		c0,0.205,0.038,0.389,0.113,0.55c0.075,0.161,0.177,0.301,0.308,0.415c0.131,0.115,0.285,0.203,0.465,0.266
		c0.18,0.062,0.374,0.094,0.583,0.094c0.208,0,0.394-0.022,0.558-0.066c0.163-0.043,0.306-0.098,0.43-0.163
		c0.124-0.064,0.231-0.14,0.319-0.224s0.161-0.169,0.22-0.256h0.049l0.205,0.653h0.578c-0.052-0.175-0.088-0.364-0.108-0.569
		c-0.019-0.205-0.029-0.423-0.029-0.653c0-0.316,0.01-0.652,0.029-1.007c0.02-0.354,0.03-0.718,0.03-1.091
		c0-0.168-0.018-0.335-0.054-0.503c-0.036-0.168-0.108-0.322-0.215-0.462c-0.108-0.141-0.265-0.253-0.47-0.34
		c-0.206-0.087-0.479-0.131-0.818-0.131c-0.359,0-0.703,0.034-1.033,0.103c-0.329,0.068-0.618,0.174-0.866,0.317L79.025,42.556z
		 M76.132,42.304c0.159,0.081,0.29,0.194,0.391,0.34c0.101,0.146,0.175,0.324,0.221,0.532c0.045,0.208,0.068,0.44,0.068,0.694
		c0,0.622-0.132,1.093-0.396,1.413c-0.265,0.319-0.622,0.479-1.073,0.479c-0.248,0-0.447-0.022-0.597-0.069
		c-0.15-0.047-0.284-0.113-0.401-0.2V43.18c0.078-0.335,0.214-0.585,0.406-0.75c0.193-0.165,0.455-0.247,0.788-0.247
		C75.774,42.183,75.972,42.223,76.132,42.304 M73.562,48.169h0.783v-1.94c0.163,0.069,0.315,0.117,0.455,0.146
		s0.331,0.042,0.573,0.042c0.339,0,0.648-0.06,0.925-0.177c0.277-0.118,0.514-0.286,0.71-0.504s0.347-0.483,0.455-0.798
		c0.108-0.313,0.162-0.667,0.162-1.058c0-0.833-0.16-1.433-0.48-1.8c-0.32-0.367-0.806-0.55-1.459-0.55
		c-0.307,0-0.579,0.058-0.817,0.172c-0.239,0.116-0.433,0.282-0.583,0.499h-0.039l-0.147-0.56h-0.538V48.169z M72.788,41.642h-3.857
		v0.653h1.537v4.009h0.783v-4.009h1.537V41.642z M67.384,42.467c0.189,0.19,0.284,0.521,0.284,0.993H65.24
		c0.045-0.466,0.184-0.796,0.416-0.988s0.54-0.289,0.925-0.289C66.927,42.183,67.195,42.278,67.384,42.467 M67.971,45.39
		c-0.111,0.101-0.277,0.188-0.499,0.262c-0.222,0.074-0.444,0.111-0.666,0.111c-0.287,0-0.53-0.039-0.729-0.116
		c-0.199-0.077-0.361-0.189-0.485-0.336c-0.124-0.146-0.215-0.324-0.274-0.536c-0.059-0.211-0.088-0.453-0.088-0.727h3.143
		c0.039-0.249,0.059-0.476,0.059-0.681c0-0.393-0.056-0.707-0.167-0.947c-0.111-0.239-0.254-0.424-0.431-0.554
		c-0.176-0.131-0.375-0.22-0.597-0.267s-0.444-0.069-0.666-0.069c-0.692,0-1.223,0.208-1.595,0.625
		c-0.373,0.416-0.559,1.021-0.559,1.817c0,0.373,0.043,0.709,0.128,1.007c0.084,0.299,0.215,0.556,0.391,0.77
		c0.177,0.215,0.402,0.379,0.676,0.494c0.274,0.114,0.597,0.173,0.969,0.173c0.333,0,0.648-0.044,0.945-0.131
		s0.543-0.205,0.739-0.354L67.971,45.39z M62.293,46.304h0.813v-6.526h-4.788v6.526h0.813v-5.837h3.162V46.304z"/>
	<path clip-path="url(#SVGID_2_)" fill="#414042" d="M191.73,35.344c-0.163-0.14-0.245-0.317-0.245-0.536
		c0-0.154,0.044-0.283,0.132-0.387c0.088-0.103,0.206-0.183,0.354-0.242c0.146-0.059,0.315-0.1,0.509-0.122
		c0.192-0.021,0.39-0.031,0.592-0.031c0.091,0,0.185,0.001,0.279,0.004c0.095,0.004,0.188,0.008,0.278,0.014v0.774
		c-0.032,0.081-0.082,0.165-0.151,0.252c-0.068,0.087-0.155,0.166-0.259,0.237c-0.104,0.071-0.229,0.13-0.372,0.178
		c-0.145,0.047-0.308,0.069-0.49,0.069C192.103,35.554,191.894,35.484,191.73,35.344 M191.211,32.384
		c0.092-0.051,0.197-0.098,0.318-0.139c0.121-0.042,0.248-0.077,0.382-0.106c0.134-0.028,0.265-0.051,0.393-0.066
		c0.127-0.017,0.246-0.024,0.356-0.024c0.378,0,0.641,0.068,0.783,0.205c0.145,0.137,0.216,0.376,0.216,0.718
		c0,0.149-0.01,0.317-0.03,0.504c-0.091-0.013-0.181-0.019-0.269-0.019h-0.269c-0.359,0-0.688,0.022-0.984,0.07
		c-0.297,0.047-0.552,0.124-0.764,0.232c-0.212,0.109-0.377,0.255-0.494,0.438c-0.118,0.184-0.177,0.412-0.177,0.686
		c0,0.205,0.037,0.389,0.112,0.55s0.179,0.301,0.309,0.415c0.131,0.115,0.285,0.203,0.466,0.266
		c0.179,0.062,0.373,0.094,0.582,0.094s0.395-0.022,0.558-0.066c0.163-0.043,0.308-0.098,0.432-0.163
		c0.123-0.064,0.229-0.14,0.317-0.224s0.162-0.169,0.22-0.256h0.05l0.206,0.653h0.577c-0.053-0.175-0.089-0.364-0.107-0.569
		c-0.021-0.205-0.03-0.423-0.03-0.653c0-0.316,0.01-0.652,0.03-1.007c0.019-0.354,0.029-0.718,0.029-1.091
		c0-0.168-0.019-0.335-0.055-0.503s-0.106-0.322-0.215-0.462c-0.108-0.141-0.264-0.253-0.47-0.34s-0.479-0.132-0.817-0.132
		c-0.358,0-0.704,0.035-1.033,0.104c-0.33,0.068-0.618,0.174-0.866,0.317L191.211,32.384z M190.271,31.47h-3.857v0.653h1.537v4.009
		h0.783v-4.009h1.537V31.47z M184.867,32.295c0.189,0.19,0.284,0.521,0.284,0.993h-2.428c0.045-0.466,0.184-0.795,0.416-0.988
		c0.23-0.192,0.54-0.289,0.925-0.289C184.41,32.011,184.679,32.106,184.867,32.295 M185.454,35.218
		c-0.11,0.101-0.276,0.188-0.499,0.261c-0.222,0.075-0.443,0.112-0.666,0.112c-0.287,0-0.529-0.039-0.729-0.116
		s-0.361-0.189-0.485-0.336c-0.124-0.146-0.215-0.324-0.273-0.536c-0.06-0.211-0.088-0.453-0.088-0.727h3.143
		c0.039-0.249,0.058-0.476,0.058-0.681c0-0.393-0.055-0.707-0.166-0.947c-0.11-0.239-0.255-0.424-0.431-0.554
		c-0.176-0.131-0.375-0.22-0.597-0.267c-0.223-0.047-0.444-0.069-0.666-0.069c-0.692,0-1.225,0.208-1.597,0.625
		c-0.372,0.416-0.558,1.021-0.558,1.817c0,0.373,0.043,0.709,0.128,1.007c0.084,0.299,0.215,0.556,0.391,0.77
		c0.178,0.215,0.402,0.379,0.677,0.494c0.273,0.114,0.597,0.173,0.969,0.173c0.333,0,0.648-0.044,0.945-0.131
		s0.543-0.205,0.738-0.354L185.454,35.218z M181.559,31.47H177.7v0.653h1.537v4.009h0.784v-4.009h1.537V31.47z M176.145,36.132
		h0.783V31.47h-0.46l-2.203,2.816l-0.382,0.578h-0.039l0.028-0.55V31.47h-0.782v4.662h0.449l2.203-2.741l0.402-0.597h0.029
		l-0.029,0.578V36.132z M171.759,35.256c-0.118,0.087-0.271,0.164-0.456,0.233c-0.187,0.067-0.396,0.102-0.631,0.102
		c-0.274,0-0.505-0.049-0.69-0.148c-0.187-0.1-0.336-0.231-0.451-0.396c-0.114-0.165-0.195-0.354-0.244-0.569
		s-0.073-0.439-0.073-0.676c0-1.193,0.464-1.79,1.39-1.79c0.209,0,0.405,0.023,0.588,0.07c0.183,0.046,0.349,0.11,0.499,0.191
		l0.225-0.645c-0.176-0.087-0.373-0.153-0.592-0.2s-0.484-0.069-0.798-0.069c-0.685,0-1.211,0.21-1.576,0.629
		c-0.366,0.42-0.548,1.024-0.548,1.813c0,0.367,0.037,0.701,0.112,1.002c0.075,0.303,0.195,0.561,0.361,0.774
		c0.167,0.215,0.382,0.379,0.643,0.494c0.261,0.114,0.581,0.173,0.959,0.173c0.294,0,0.574-0.036,0.842-0.107
		s0.499-0.176,0.695-0.313L171.759,35.256z M165.947,32.132c0.16,0.081,0.291,0.194,0.393,0.34c0.101,0.146,0.174,0.324,0.22,0.532
		s0.068,0.44,0.068,0.694c0,0.622-0.132,1.093-0.396,1.413c-0.264,0.319-0.622,0.479-1.072,0.479c-0.248,0-0.446-0.022-0.597-0.069
		s-0.284-0.113-0.401-0.2v-2.313c0.078-0.335,0.213-0.585,0.406-0.75c0.192-0.165,0.455-0.247,0.788-0.247
		C165.591,32.011,165.787,32.051,165.947,32.132 M163.377,37.997h0.784v-1.94c0.163,0.069,0.314,0.117,0.455,0.146
		s0.331,0.042,0.573,0.042c0.339,0,0.646-0.06,0.925-0.177c0.277-0.118,0.514-0.286,0.71-0.504c0.195-0.218,0.348-0.483,0.455-0.798
		c0.107-0.313,0.161-0.667,0.161-1.058c0-0.833-0.16-1.433-0.479-1.8s-0.807-0.55-1.459-0.55c-0.307,0-0.579,0.058-0.817,0.172
		c-0.238,0.116-0.433,0.281-0.582,0.499h-0.039l-0.147-0.56h-0.539V37.997z M161.097,32.295c0.188,0.19,0.284,0.521,0.284,0.993
		h-2.429c0.046-0.466,0.185-0.795,0.416-0.988c0.232-0.192,0.54-0.289,0.925-0.289C160.64,32.011,160.907,32.106,161.097,32.295
		 M161.685,35.218c-0.111,0.101-0.278,0.188-0.5,0.261c-0.222,0.075-0.444,0.112-0.665,0.112c-0.288,0-0.531-0.039-0.73-0.116
		c-0.198-0.077-0.36-0.189-0.484-0.336c-0.124-0.146-0.215-0.324-0.274-0.536c-0.058-0.211-0.088-0.453-0.088-0.727h3.143
		c0.039-0.249,0.06-0.476,0.06-0.681c0-0.393-0.056-0.707-0.167-0.947c-0.111-0.239-0.254-0.424-0.43-0.554
		c-0.178-0.131-0.376-0.22-0.599-0.267c-0.222-0.047-0.443-0.069-0.665-0.069c-0.691,0-1.224,0.208-1.596,0.625
		c-0.372,0.416-0.558,1.021-0.558,1.817c0,0.373,0.042,0.709,0.127,1.007c0.085,0.299,0.215,0.556,0.392,0.77
		c0.176,0.215,0.401,0.379,0.675,0.494c0.274,0.114,0.598,0.173,0.969,0.173c0.333,0,0.648-0.044,0.945-0.131
		s0.543-0.205,0.739-0.354L161.685,35.218z M154.303,33.437v-1.352c0.11-0.006,0.226-0.012,0.347-0.018
		c0.121-0.007,0.286-0.011,0.495-0.011c0.391,0,0.665,0.05,0.822,0.146c0.156,0.096,0.234,0.269,0.234,0.517
		c0,0.101-0.027,0.193-0.083,0.28s-0.127,0.163-0.216,0.229c-0.088,0.065-0.187,0.116-0.298,0.153
		c-0.111,0.038-0.226,0.056-0.343,0.056H154.303z M154.303,34.006h0.86c0.457,0,0.775,0.07,0.955,0.21
		c0.18,0.141,0.27,0.322,0.27,0.545c0,0.286-0.106,0.488-0.318,0.606c-0.212,0.119-0.537,0.178-0.974,0.178
		c-0.164,0-0.306-0.003-0.427-0.01c-0.12-0.006-0.242-0.016-0.366-0.028V34.006z M153.519,36.123
		c0.229,0.018,0.461,0.035,0.696,0.051c0.234,0.016,0.488,0.023,0.763,0.023c0.73,0,1.279-0.108,1.645-0.326
		s0.548-0.569,0.548-1.054c0-0.311-0.077-0.56-0.234-0.746c-0.156-0.187-0.427-0.313-0.813-0.382v-0.037
		c0.307-0.101,0.527-0.253,0.661-0.462c0.133-0.208,0.2-0.422,0.2-0.639c0-0.386-0.14-0.673-0.421-0.862
		c-0.28-0.19-0.744-0.284-1.39-0.284c-0.372,0-0.685,0.009-0.936,0.027s-0.491,0.034-0.72,0.046V36.123z M151.229,36.132h0.783
		V31.47h-0.46l-2.203,2.816l-0.382,0.578h-0.039l0.028-0.55V31.47h-0.782v4.662h0.449l2.203-2.741l0.402-0.597h0.029l-0.029,0.578
		V36.132z M145.883,36.132h0.782V31.47h-0.782v1.949h-2.214V31.47h-0.782v4.662h0.782v-2.061h2.214V36.132z M138.589,31.47h-0.9
		l1.967,4.662c-0.111,0.448-0.251,0.763-0.42,0.946c-0.17,0.184-0.347,0.274-0.529,0.274c-0.079,0-0.159-0.015-0.245-0.046
		l-0.137,0.644c0.15,0.062,0.343,0.093,0.578,0.093c0.215,0,0.404-0.066,0.567-0.2c0.164-0.134,0.31-0.312,0.44-0.536
		c0.131-0.224,0.25-0.479,0.357-0.765s0.217-0.581,0.328-0.886l1.448-4.187h-0.782l-0.953,3.013l-0.216,0.903h-0.05l-0.275-0.895
		L138.589,31.47z M132.332,32.011c0.242,0,0.447,0.048,0.617,0.145s0.308,0.226,0.411,0.387c0.105,0.162,0.181,0.351,0.23,0.569
		c0.049,0.218,0.073,0.447,0.073,0.689c0,1.2-0.443,1.796-1.332,1.79c-0.24,0-0.446-0.049-0.615-0.148
		c-0.17-0.1-0.308-0.23-0.412-0.393c-0.104-0.161-0.182-0.351-0.23-0.567c-0.049-0.219-0.073-0.445-0.073-0.682
		C131.001,32.601,131.445,32.005,132.332,32.011 M130.316,34.803c0.084,0.303,0.215,0.561,0.391,0.774
		c0.177,0.215,0.4,0.379,0.671,0.494c0.271,0.114,0.59,0.173,0.954,0.173c0.692,0,1.223-0.21,1.592-0.629
		c0.368-0.42,0.553-1.025,0.553-1.814c0-0.367-0.042-0.701-0.127-1.002c-0.085-0.302-0.215-0.56-0.392-0.773
		c-0.177-0.216-0.399-0.379-0.671-0.495c-0.271-0.114-0.589-0.172-0.955-0.172c-0.691,0-1.222,0.21-1.591,0.629
		c-0.368,0.42-0.553,1.024-0.553,1.813C130.188,34.168,130.231,34.502,130.316,34.803 M129.865,31.47h-2.858v4.662h0.783v-4.009
		h2.075V31.47z M123.63,32.011c0.24,0,0.446,0.048,0.616,0.145c0.169,0.097,0.307,0.226,0.411,0.387
		c0.104,0.162,0.182,0.351,0.23,0.569c0.049,0.218,0.072,0.447,0.072,0.689c0,1.2-0.443,1.796-1.33,1.79
		c-0.242,0-0.447-0.049-0.617-0.148s-0.308-0.23-0.411-0.393c-0.105-0.161-0.182-0.351-0.23-0.567
		c-0.049-0.219-0.073-0.445-0.073-0.682C122.298,32.601,122.741,32.005,123.63,32.011 M121.612,34.803
		c0.085,0.303,0.215,0.561,0.393,0.774c0.176,0.215,0.398,0.379,0.67,0.494c0.271,0.114,0.589,0.173,0.955,0.173
		c0.691,0,1.222-0.21,1.591-0.629c0.368-0.42,0.553-1.025,0.553-1.814c0-0.367-0.043-0.701-0.127-1.002
		c-0.085-0.302-0.216-0.56-0.392-0.773c-0.177-0.216-0.4-0.379-0.672-0.495c-0.271-0.114-0.589-0.172-0.953-0.172
		c-0.692,0-1.224,0.21-1.592,0.629c-0.369,0.42-0.553,1.024-0.553,1.813C121.485,34.168,121.527,34.502,121.612,34.803
		 M120.056,36.132h0.969l-1.635-2.106l-0.509-0.373l0.411-0.309l1.518-1.874h-0.853l-1.565,1.978l-0.421,0.13V31.47h-0.783v4.662
		h0.783v-2.098h0.449L120.056,36.132z M115.855,35.256c-0.117,0.087-0.27,0.164-0.455,0.233c-0.186,0.067-0.397,0.102-0.632,0.102
		c-0.274,0-0.504-0.049-0.69-0.148c-0.186-0.1-0.336-0.231-0.45-0.396c-0.113-0.165-0.195-0.354-0.244-0.569
		c-0.05-0.215-0.073-0.439-0.073-0.676c0-1.193,0.463-1.79,1.39-1.79c0.209,0,0.405,0.023,0.587,0.07
		c0.184,0.046,0.35,0.11,0.5,0.191l0.226-0.645c-0.177-0.087-0.374-0.153-0.593-0.2s-0.484-0.069-0.798-0.069
		c-0.686,0-1.211,0.21-1.577,0.629c-0.364,0.42-0.548,1.024-0.548,1.813c0,0.367,0.038,0.701,0.113,1.002
		c0.075,0.303,0.195,0.561,0.362,0.774c0.166,0.215,0.38,0.379,0.641,0.494c0.261,0.114,0.581,0.173,0.96,0.173
		c0.293,0,0.574-0.036,0.842-0.107s0.499-0.176,0.695-0.313L115.855,35.256z M110.599,32.295c0.188,0.19,0.284,0.521,0.284,0.993
		h-2.429c0.045-0.466,0.185-0.795,0.416-0.988c0.231-0.192,0.54-0.289,0.925-0.289C110.142,32.011,110.408,32.106,110.599,32.295
		 M111.186,35.218c-0.111,0.101-0.277,0.188-0.499,0.261c-0.222,0.075-0.444,0.112-0.666,0.112c-0.287,0-0.53-0.039-0.729-0.116
		s-0.36-0.189-0.484-0.336c-0.124-0.146-0.215-0.324-0.274-0.536c-0.059-0.211-0.088-0.453-0.088-0.727h3.144
		c0.038-0.249,0.058-0.476,0.058-0.681c0-0.393-0.055-0.707-0.166-0.947c-0.111-0.239-0.255-0.424-0.431-0.554
		c-0.177-0.131-0.375-0.22-0.598-0.267c-0.222-0.047-0.443-0.069-0.666-0.069c-0.691,0-1.224,0.208-1.596,0.625
		c-0.372,0.416-0.558,1.021-0.558,1.817c0,0.373,0.043,0.709,0.127,1.007c0.085,0.299,0.216,0.556,0.392,0.77
		c0.176,0.215,0.401,0.379,0.676,0.494c0.274,0.114,0.598,0.173,0.969,0.173c0.333,0,0.648-0.044,0.945-0.131
		s0.543-0.205,0.739-0.354L111.186,35.218z M102.834,31.47v1.417c0,0.312,0.031,0.569,0.094,0.774
		c0.062,0.205,0.154,0.37,0.278,0.494c0.124,0.125,0.277,0.212,0.46,0.261c0.184,0.05,0.396,0.075,0.638,0.075
		c0.357,0,0.641-0.037,0.846-0.112c0.206-0.075,0.361-0.143,0.465-0.205v1.958h0.784V31.47h-0.784v2.07
		c-0.097,0.074-0.241,0.143-0.43,0.205c-0.19,0.062-0.432,0.093-0.726,0.093c-0.183,0-0.328-0.026-0.439-0.079
		s-0.196-0.127-0.255-0.224c-0.06-0.096-0.099-0.211-0.117-0.345c-0.021-0.134-0.03-0.284-0.03-0.452V31.47H102.834z
		 M100.817,36.132h0.784V31.47h-0.461l-2.202,2.816l-0.382,0.578h-0.039l0.029-0.55V31.47h-0.784v4.662h0.451l2.202-2.741
		l0.401-0.597h0.03l-0.03,0.578V36.132z M95.472,36.132h0.783V31.47h-0.783v1.949h-2.213V31.47h-0.783v4.662h0.783v-2.061h2.213
		V36.132z M86.955,36.132h0.871l1.058-1.417l0.303-0.56l0.294,0.56l1.038,1.417h0.93l-1.753-2.424l1.655-2.238h-0.881l-0.95,1.287
		l-0.284,0.531l-0.274-0.531l-0.93-1.287h-0.959l1.644,2.275L86.955,36.132z M85.368,32.295c0.189,0.19,0.284,0.521,0.284,0.993
		h-2.428c0.045-0.466,0.184-0.795,0.416-0.988c0.232-0.192,0.54-0.289,0.925-0.289C84.912,32.011,85.179,32.106,85.368,32.295
		 M85.956,35.218c-0.111,0.101-0.277,0.188-0.499,0.261c-0.222,0.075-0.444,0.112-0.666,0.112c-0.287,0-0.53-0.039-0.729-0.116
		c-0.199-0.077-0.361-0.189-0.485-0.336c-0.124-0.146-0.215-0.324-0.274-0.536c-0.059-0.211-0.088-0.453-0.088-0.727h3.143
		c0.039-0.249,0.059-0.476,0.059-0.681c0-0.393-0.056-0.707-0.167-0.947c-0.111-0.239-0.254-0.424-0.431-0.554
		c-0.176-0.131-0.375-0.22-0.597-0.267c-0.222-0.047-0.444-0.069-0.666-0.069c-0.691,0-1.223,0.208-1.595,0.625
		c-0.372,0.416-0.558,1.021-0.558,1.817c0,0.373,0.042,0.709,0.127,1.007c0.085,0.299,0.215,0.556,0.391,0.77
		c0.177,0.215,0.402,0.379,0.676,0.494c0.274,0.114,0.597,0.173,0.969,0.173c0.333,0,0.648-0.044,0.945-0.131
		c0.297-0.087,0.543-0.205,0.739-0.354L85.956,35.218z M82.06,31.47h-3.858v0.653h1.538v4.009h0.783v-4.009h1.537V31.47z
		 M76.646,36.132h0.783V31.47h-0.46l-2.203,2.816l-0.382,0.578h-0.039l0.029-0.55V31.47H73.59v4.662h0.451l2.202-2.741l0.402-0.597
		h0.029l-0.029,0.578V36.132z M71.299,36.132h0.784V31.47h-2.918c-0.02,0.839-0.055,1.521-0.108,2.042
		c-0.052,0.522-0.117,0.932-0.195,1.227c-0.079,0.295-0.17,0.496-0.275,0.601c-0.104,0.106-0.222,0.159-0.352,0.159
		c-0.092,0-0.176-0.012-0.255-0.037l-0.117,0.624c0.072,0.032,0.153,0.053,0.245,0.066c0.091,0.012,0.199,0.018,0.323,0.018
		c0.202,0,0.377-0.063,0.524-0.191c0.146-0.127,0.27-0.297,0.372-0.508c0.101-0.211,0.184-0.455,0.249-0.731
		c0.065-0.276,0.118-0.566,0.157-0.867c0.039-0.302,0.068-0.604,0.088-0.905c0.02-0.301,0.039-0.582,0.059-0.843h1.419V36.132z
		 M65.347,32.011c0.241,0,0.447,0.048,0.617,0.145c0.169,0.097,0.306,0.226,0.411,0.387c0.104,0.162,0.181,0.351,0.23,0.569
		c0.049,0.218,0.073,0.447,0.073,0.689c0,1.2-0.444,1.796-1.331,1.79c-0.242,0-0.447-0.049-0.617-0.148s-0.307-0.23-0.411-0.393
		c-0.105-0.161-0.181-0.351-0.23-0.567c-0.049-0.219-0.074-0.445-0.074-0.682C64.016,32.601,64.459,32.005,65.347,32.011
		 M63.331,34.803c0.085,0.303,0.215,0.561,0.392,0.774c0.176,0.215,0.399,0.379,0.67,0.494c0.271,0.114,0.589,0.173,0.955,0.173
		c0.692,0,1.222-0.21,1.591-0.629c0.368-0.42,0.553-1.025,0.553-1.814c0-0.367-0.043-0.701-0.127-1.002
		c-0.085-0.302-0.216-0.56-0.392-0.773c-0.176-0.216-0.4-0.379-0.671-0.495c-0.271-0.114-0.589-0.172-0.954-0.172
		c-0.692,0-1.222,0.21-1.591,0.629c-0.369,0.42-0.553,1.024-0.553,1.813C63.204,34.168,63.246,34.502,63.331,34.803 M61.187,36.132
		h0.783V31.47h-3.73v4.662h0.783v-4.009h2.164V36.132z"/>
	<path clip-path="url(#SVGID_2_)" fill="#414042" d="M148.986,21.839c0.241,0,0.446,0.048,0.616,0.145
		c0.17,0.096,0.307,0.225,0.411,0.387c0.104,0.161,0.182,0.351,0.23,0.568c0.049,0.218,0.073,0.448,0.073,0.69
		c0,1.2-0.444,1.797-1.331,1.791c-0.242,0-0.447-0.05-0.617-0.15c-0.17-0.099-0.307-0.229-0.411-0.391s-0.181-0.351-0.229-0.569
		c-0.05-0.217-0.074-0.444-0.074-0.681C147.654,22.43,148.098,21.833,148.986,21.839 M146.969,24.632
		c0.085,0.301,0.216,0.559,0.392,0.773c0.177,0.215,0.399,0.38,0.671,0.494c0.271,0.115,0.589,0.172,0.955,0.172
		c0.69,0,1.222-0.209,1.591-0.629c0.368-0.42,0.553-1.023,0.553-1.813c0-0.366-0.043-0.7-0.127-1.002
		c-0.085-0.301-0.216-0.559-0.392-0.774c-0.176-0.214-0.4-0.379-0.671-0.494c-0.271-0.115-0.589-0.173-0.954-0.173
		c-0.692,0-1.224,0.21-1.591,0.63c-0.369,0.419-0.554,1.024-0.554,1.813C146.842,23.996,146.884,24.33,146.969,24.632
		 M146.52,21.298h-2.859v4.662h0.783v-4.009h2.076V21.298z M140.282,21.839c0.242,0,0.447,0.048,0.617,0.145
		c0.17,0.096,0.307,0.225,0.411,0.387c0.104,0.161,0.181,0.351,0.229,0.568c0.049,0.218,0.074,0.448,0.074,0.69
		c0,1.2-0.444,1.797-1.332,1.791c-0.241,0-0.447-0.05-0.617-0.15c-0.169-0.099-0.307-0.229-0.411-0.391
		c-0.104-0.162-0.181-0.351-0.229-0.569c-0.05-0.217-0.073-0.444-0.073-0.681C138.951,22.43,139.395,21.833,140.282,21.839
		 M138.265,24.632c0.085,0.301,0.217,0.559,0.393,0.773s0.399,0.38,0.671,0.494c0.27,0.115,0.588,0.172,0.954,0.172
		c0.691,0,1.222-0.209,1.591-0.629s0.553-1.023,0.553-1.813c0-0.366-0.042-0.7-0.127-1.002c-0.085-0.301-0.215-0.559-0.392-0.774
		c-0.176-0.214-0.4-0.379-0.67-0.494c-0.271-0.115-0.589-0.173-0.955-0.173c-0.692,0-1.222,0.21-1.591,0.63
		c-0.369,0.419-0.554,1.024-0.554,1.813C138.138,23.996,138.18,24.33,138.265,24.632 M136.709,25.96h0.969l-1.635-2.107
		l-0.509-0.373l0.411-0.307l1.517-1.875h-0.851l-1.567,1.977l-0.421,0.131v-2.108h-0.783v4.662h0.783v-2.097h0.451L136.709,25.96z
		 M132.509,25.084c-0.118,0.087-0.27,0.165-0.456,0.232c-0.186,0.069-0.396,0.104-0.631,0.104c-0.273,0-0.504-0.05-0.689-0.15
		c-0.187-0.099-0.337-0.23-0.451-0.396c-0.114-0.164-0.196-0.354-0.245-0.569c-0.048-0.214-0.073-0.439-0.073-0.676
		c0-1.193,0.463-1.79,1.391-1.79c0.209,0,0.404,0.023,0.588,0.07c0.182,0.047,0.349,0.111,0.499,0.191l0.225-0.643
		c-0.176-0.087-0.374-0.154-0.592-0.201c-0.219-0.046-0.485-0.07-0.798-0.07c-0.686,0-1.211,0.21-1.576,0.63
		c-0.366,0.419-0.549,1.024-0.549,1.813c0,0.367,0.038,0.701,0.112,1.003c0.075,0.301,0.196,0.559,0.362,0.773
		c0.167,0.215,0.38,0.38,0.643,0.494c0.261,0.115,0.579,0.172,0.959,0.172c0.294,0,0.573-0.034,0.842-0.106
		c0.268-0.071,0.499-0.175,0.694-0.313L132.509,25.084z M128.827,21.298h-2.858v4.662h0.783v-4.009h2.075V21.298z M123.242,21.959
		c0.16,0.081,0.29,0.195,0.392,0.341s0.174,0.323,0.221,0.531c0.046,0.209,0.068,0.44,0.068,0.695c0,0.622-0.133,1.092-0.396,1.412
		c-0.265,0.321-0.622,0.481-1.072,0.481c-0.248,0-0.447-0.024-0.597-0.07c-0.15-0.047-0.284-0.114-0.402-0.201v-2.312
		c0.079-0.336,0.214-0.586,0.407-0.751c0.191-0.164,0.455-0.247,0.788-0.247C122.885,21.839,123.082,21.88,123.242,21.959
		 M120.672,27.824h0.783v-1.938c0.163,0.068,0.315,0.116,0.456,0.144c0.14,0.028,0.331,0.042,0.572,0.042
		c0.34,0,0.647-0.059,0.926-0.177c0.277-0.118,0.514-0.286,0.709-0.503c0.196-0.218,0.348-0.484,0.456-0.798
		c0.106-0.313,0.161-0.666,0.161-1.058c0-0.833-0.16-1.433-0.48-1.799c-0.318-0.367-0.806-0.551-1.458-0.551
		c-0.307,0-0.58,0.058-0.817,0.173c-0.238,0.115-0.433,0.281-0.582,0.499h-0.04l-0.146-0.56h-0.539V27.824z M116.374,21.298h-0.9
		l1.968,4.662c-0.111,0.447-0.251,0.763-0.421,0.946c-0.169,0.184-0.347,0.275-0.528,0.275c-0.079,0-0.16-0.016-0.245-0.047
		l-0.137,0.644c0.149,0.063,0.343,0.094,0.578,0.094c0.215,0,0.403-0.067,0.566-0.201c0.163-0.133,0.311-0.313,0.441-0.536
		c0.13-0.223,0.25-0.479,0.356-0.764c0.108-0.286,0.218-0.581,0.328-0.887l1.449-4.187h-0.783l-0.953,3.012l-0.216,0.905h-0.049
		l-0.276-0.896L116.374,21.298z M111.871,22.394c0.235-0.289,0.607-0.43,1.116-0.424c0.209,0,0.388,0.039,0.538,0.116
		c0.149,0.078,0.273,0.19,0.372,0.336c0.098,0.146,0.17,0.319,0.216,0.517c0.045,0.199,0.067,0.417,0.067,0.653
		c0,0.603-0.108,1.058-0.327,1.366c-0.22,0.308-0.554,0.462-1.004,0.462c-0.229,0-0.428-0.047-0.597-0.141
		c-0.17-0.093-0.309-0.222-0.417-0.387c-0.106-0.165-0.187-0.356-0.239-0.574c-0.053-0.217-0.078-0.444-0.078-0.68
		C111.519,23.098,111.636,22.683,111.871,22.394 M111.401,22.128c0.031-0.404,0.093-0.729,0.181-0.974
		c0.088-0.246,0.209-0.435,0.362-0.569c0.152-0.134,0.336-0.224,0.548-0.27c0.212-0.047,0.459-0.08,0.74-0.098
		c0.202-0.013,0.38-0.028,0.532-0.047c0.153-0.019,0.286-0.04,0.397-0.065c0.111-0.025,0.205-0.056,0.284-0.093
		c0.078-0.038,0.149-0.084,0.215-0.14l-0.088-0.672c-0.118,0.106-0.273,0.179-0.465,0.22c-0.193,0.04-0.459,0.076-0.798,0.107
		c-0.262,0.025-0.507,0.056-0.734,0.093c-0.229,0.037-0.439,0.101-0.632,0.191c-0.192,0.09-0.366,0.213-0.52,0.368
		c-0.152,0.156-0.284,0.364-0.391,0.625c-0.108,0.261-0.19,0.581-0.245,0.961c-0.056,0.379-0.083,0.836-0.083,1.37
		c0,1.014,0.179,1.756,0.538,2.229s0.896,0.708,1.616,0.708c0.672,0,1.194-0.214,1.57-0.643c0.375-0.429,0.563-1.063,0.563-1.902
		c0-0.727-0.162-1.278-0.485-1.651c-0.322-0.373-0.785-0.559-1.385-0.559c-0.392,0-0.718,0.061-0.979,0.182
		c-0.262,0.121-0.5,0.331-0.716,0.629H111.401z M108.253,21.959c0.16,0.081,0.291,0.195,0.393,0.341
		c0.101,0.146,0.174,0.323,0.22,0.531c0.046,0.209,0.069,0.44,0.069,0.695c0,0.622-0.133,1.092-0.397,1.412
		c-0.264,0.321-0.621,0.481-1.072,0.481c-0.248,0-0.446-0.024-0.597-0.07c-0.15-0.047-0.284-0.114-0.401-0.201v-2.312
		c0.078-0.336,0.213-0.586,0.406-0.751c0.192-0.164,0.455-0.247,0.788-0.247C107.896,21.839,108.093,21.88,108.253,21.959
		 M105.683,27.824h0.784v-1.938c0.163,0.068,0.314,0.116,0.455,0.144c0.141,0.028,0.331,0.042,0.573,0.042
		c0.339,0,0.647-0.059,0.925-0.177s0.515-0.286,0.71-0.503c0.195-0.218,0.348-0.484,0.455-0.798
		c0.107-0.313,0.161-0.666,0.161-1.058c0-0.833-0.16-1.433-0.479-1.799c-0.32-0.367-0.808-0.551-1.46-0.551
		c-0.307,0-0.579,0.058-0.817,0.173c-0.238,0.115-0.433,0.281-0.582,0.499h-0.039l-0.147-0.56h-0.539V27.824z M103.402,22.124
		c0.188,0.189,0.284,0.52,0.284,0.993h-2.429c0.046-0.467,0.185-0.796,0.416-0.989c0.232-0.192,0.54-0.289,0.925-0.289
		C102.945,21.839,103.213,21.934,103.402,22.124 M103.99,25.047c-0.111,0.099-0.278,0.186-0.5,0.261
		c-0.222,0.074-0.444,0.112-0.665,0.112c-0.288,0-0.531-0.039-0.73-0.117c-0.198-0.078-0.36-0.189-0.483-0.336
		c-0.125-0.146-0.216-0.324-0.275-0.536c-0.058-0.211-0.088-0.453-0.088-0.727h3.143c0.039-0.249,0.06-0.476,0.06-0.681
		c0-0.391-0.056-0.707-0.167-0.946c-0.111-0.239-0.254-0.424-0.43-0.555c-0.178-0.13-0.376-0.219-0.599-0.266
		c-0.222-0.046-0.443-0.07-0.665-0.07c-0.691,0-1.224,0.209-1.596,0.625c-0.372,0.417-0.558,1.023-0.558,1.818
		c0,0.373,0.042,0.709,0.127,1.007c0.085,0.299,0.215,0.555,0.392,0.77c0.176,0.215,0.401,0.38,0.675,0.494
		c0.274,0.115,0.598,0.172,0.969,0.172c0.333,0,0.648-0.043,0.945-0.13s0.543-0.205,0.739-0.354L103.99,25.047z M100.093,21.298
		h-3.856v0.653h1.537v4.009h0.783v-4.009h1.537V21.298z M94.689,22.124c0.189,0.189,0.284,0.52,0.284,0.993h-2.428
		c0.045-0.467,0.184-0.796,0.416-0.989c0.231-0.192,0.54-0.289,0.925-0.289C94.232,21.839,94.499,21.934,94.689,22.124
		 M95.276,25.047c-0.111,0.099-0.277,0.186-0.499,0.261c-0.222,0.074-0.444,0.112-0.666,0.112c-0.287,0-0.53-0.039-0.729-0.117
		c-0.199-0.078-0.361-0.189-0.485-0.336c-0.124-0.146-0.215-0.324-0.274-0.536c-0.059-0.211-0.088-0.453-0.088-0.727h3.143
		c0.039-0.249,0.058-0.476,0.058-0.681c0-0.391-0.055-0.707-0.166-0.946c-0.111-0.239-0.255-0.424-0.431-0.555
		c-0.176-0.13-0.375-0.219-0.597-0.266c-0.222-0.046-0.444-0.07-0.666-0.07c-0.692,0-1.224,0.209-1.596,0.625
		c-0.372,0.417-0.558,1.023-0.558,1.818c0,0.373,0.043,0.709,0.127,1.007c0.085,0.299,0.216,0.555,0.392,0.77
		c0.176,0.215,0.402,0.38,0.676,0.494c0.274,0.115,0.597,0.172,0.969,0.172c0.333,0,0.648-0.043,0.945-0.13s0.543-0.205,0.739-0.354
		L95.276,25.047z M89.598,25.96h0.812v-6.526h-4.787v6.526h0.812v-5.836h3.163V25.96z M81.844,23.62h2.369v-0.69h-2.369V23.62z
		 M81.775,21.298h-3.857v0.653h1.537v4.009h0.783v-4.009h1.537V21.298z M76.841,25.96h0.969l-1.635-2.107l-0.509-0.373l0.411-0.307
		l1.518-1.875h-0.852l-1.566,1.977l-0.421,0.131v-2.108h-0.784v4.662h0.784v-2.097h0.45L76.841,25.96z M71.681,25.96h0.784v-4.662
		h-0.784v1.949h-2.212v-1.949h-0.783v4.662h0.783V23.9h2.212V25.96z M64.515,25.173c-0.163-0.141-0.245-0.319-0.245-0.537
		c0-0.155,0.044-0.284,0.132-0.387c0.089-0.102,0.206-0.183,0.353-0.242s0.316-0.099,0.509-0.121
		c0.192-0.022,0.39-0.033,0.592-0.033c0.092,0,0.185,0.002,0.279,0.005c0.095,0.003,0.188,0.008,0.279,0.014v0.774
		c-0.032,0.081-0.083,0.165-0.151,0.252c-0.069,0.087-0.156,0.166-0.26,0.237c-0.104,0.072-0.228,0.131-0.372,0.177
		c-0.144,0.047-0.307,0.07-0.489,0.07C64.887,25.382,64.678,25.312,64.515,25.173 M63.996,22.212
		c0.091-0.051,0.197-0.097,0.318-0.139c0.121-0.041,0.248-0.076,0.382-0.105c0.134-0.029,0.264-0.051,0.392-0.067
		c0.127-0.017,0.246-0.025,0.357-0.025c0.379,0,0.64,0.069,0.783,0.206c0.144,0.136,0.216,0.376,0.216,0.718
		c0,0.149-0.01,0.317-0.03,0.503c-0.091-0.012-0.181-0.019-0.269-0.019h-0.269c-0.359,0-0.687,0.024-0.984,0.07
		c-0.297,0.047-0.552,0.125-0.764,0.233c-0.212,0.109-0.377,0.255-0.494,0.439c-0.118,0.183-0.176,0.412-0.176,0.685
		c0,0.205,0.037,0.389,0.112,0.55c0.075,0.162,0.178,0.3,0.309,0.415c0.13,0.115,0.285,0.204,0.465,0.266
		c0.179,0.063,0.373,0.094,0.582,0.094s0.395-0.022,0.558-0.065c0.163-0.044,0.307-0.098,0.431-0.163
		c0.124-0.066,0.23-0.14,0.318-0.224c0.088-0.084,0.162-0.169,0.22-0.257h0.049l0.206,0.652h0.578
		c-0.053-0.174-0.088-0.364-0.108-0.568c-0.02-0.205-0.029-0.422-0.029-0.652c0-0.317,0.009-0.653,0.029-1.007
		c0.02-0.355,0.029-0.718,0.029-1.091c0-0.168-0.018-0.336-0.053-0.504c-0.036-0.168-0.108-0.321-0.216-0.461
		c-0.108-0.14-0.264-0.254-0.47-0.341c-0.205-0.087-0.478-0.13-0.817-0.13c-0.359,0-0.704,0.034-1.033,0.102
		c-0.33,0.069-0.619,0.174-0.867,0.317L63.996,22.212z M62.508,25.084c-0.15,0.087-0.335,0.159-0.553,0.214
		c-0.219,0.056-0.475,0.084-0.769,0.084c-0.326,0-0.628-0.056-0.905-0.167c-0.278-0.112-0.519-0.28-0.725-0.504
		c-0.205-0.224-0.367-0.503-0.484-0.839c-0.118-0.336-0.177-0.727-0.177-1.175c0-0.497,0.062-0.917,0.186-1.259
		c0.124-0.342,0.289-0.618,0.495-0.83c0.205-0.211,0.439-0.363,0.7-0.457c0.261-0.093,0.525-0.139,0.793-0.139
		c0.581,0,1.028,0.074,1.341,0.223l0.196-0.69c-0.176-0.068-0.389-0.122-0.636-0.163c-0.249-0.04-0.568-0.06-0.96-0.06
		c-0.366,0-0.724,0.062-1.077,0.186c-0.352,0.125-0.671,0.322-0.954,0.592c-0.284,0.271-0.513,0.619-0.686,1.045
		c-0.173,0.425-0.259,0.943-0.259,1.552c0,0.584,0.078,1.089,0.235,1.515c0.156,0.426,0.368,0.776,0.636,1.049
		c0.268,0.274,0.581,0.477,0.94,0.611c0.359,0.133,0.744,0.199,1.155,0.199c0.34,0,0.659-0.027,0.96-0.084
		c0.3-0.055,0.548-0.154,0.744-0.298L62.508,25.084z"/>
</g>
</svg>
