<?xml version="1.0" encoding="utf-8"?>
<!-- Generator: Adobe Illustrator 16.0.0, SVG Export Plug-In . SVG Version: 6.00 Build 0)  -->
<!DOCTYPE svg PUBLIC "-//W3C//DTD SVG 1.1//EN" "http://www.w3.org/Graphics/SVG/1.1/DTD/svg11.dtd">
<svg version="1.1" id="Layer_1" xmlns="http://www.w3.org/2000/svg" xmlns:xlink="http://www.w3.org/1999/xlink" x="0px" y="0px"
	 width="778.228px" height="240.167px" viewBox="-4.5 0 778.228 240.167" enable-background="new -4.5 0 778.228 240.167"
	 xml:space="preserve">
<g>
	<path fill="#FFFFFF" d="M169.245,72.521c0,5.38-0.887,10.899-2.66,16.563c-1.775,5.664-3.948,11.216-6.522,16.648
		c-2.575,5.437-5.407,10.614-8.496,15.534c-3.09,4.921-5.921,9.297-8.496,13.13c-2.575,3.836-4.75,7.038-6.522,9.611
		c-1.775,2.573-2.66,4.205-2.66,4.893c0,1.144,0.858,1.716,2.575,1.716c0.343,0,1.802-0.829,4.377-2.489
		c2.574-1.657,5.406-3.518,8.495-5.577c3.09-2.06,6.034-4.061,8.84-6.008c2.802-1.944,4.604-3.202,5.406-3.776
		c1.373,0.231,2.06,0.917,2.06,2.059c-0.344,0.345-1.459,1.317-3.347,2.919c-1.888,1.604-4.178,3.491-6.866,5.663
		c-2.689,2.176-5.607,4.492-8.753,6.952c-3.148,2.462-6.208,4.692-9.183,6.693c-2.976,2.004-5.693,3.691-8.152,5.063
		c-2.462,1.372-4.32,2.06-5.578,2.06c-1.604,0-3.291-0.574-5.063-1.717c-1.775-1.143-2.661-2.917-2.661-5.321
		c0-2.401,1.202-5.576,3.604-9.525c2.403-3.946,5.377-8.38,8.925-13.301c3.545-4.919,7.407-10.183,11.585-15.791
		c4.176-5.605,8.037-11.269,11.585-16.992c3.546-5.72,6.523-11.413,8.925-17.078c2.403-5.664,3.604-11.011,3.604-16.048
		c0-1.944-0.544-3.776-1.631-5.492c-1.088-1.717-2.947-2.575-5.578-2.575c-5.149,0-10.727,1.06-16.734,3.175
		c-6.008,2.119-12.331,5.007-18.966,8.667c-4.921,7.324-10.327,14.846-16.219,22.57c-5.895,7.724-11.987,15.189-18.279,22.398
		c-6.294,7.208-12.588,14.018-18.88,20.425c-6.294,6.409-12.216,12.015-17.764,16.821c-5.552,4.805-10.615,8.609-15.19,11.412
		c-4.577,2.804-8.238,4.205-10.984,4.205c-1.373,0-2.604-0.429-3.69-1.286c-1.088-0.859-1.63-1.975-1.63-3.348
		c0-3.317,1.314-7.38,3.947-12.186c2.631-4.806,6.206-10.011,10.728-15.619c4.519-5.604,9.81-11.47,15.876-17.594
		c6.063-6.119,12.556-12.127,19.48-18.021c6.922-5.892,14.074-11.526,21.454-16.906c7.38-5.377,14.675-10.183,21.883-14.417
		c3.546-4.69,6.836-9.324,9.869-13.902c3.031-4.575,5.635-9.01,7.81-13.302c2.172-4.291,3.862-8.351,5.063-12.186
		c1.201-3.833,1.802-7.408,1.802-10.728c0-4.348-1.861-8.067-5.578-11.156c-3.72-3.09-9.929-4.635-18.623-4.635
		c-4.119,0-8.667,0.601-13.645,1.802c-4.978,1.202-9.984,2.746-15.018,4.634c-5.037,1.888-9.898,3.92-14.589,6.093
		c-4.693,2.175-8.869,4.235-12.53,6.179c-3.663,1.947-6.608,3.634-8.839,5.063c-2.231,1.432-3.346,2.261-3.346,2.489
		c0,0.574,0.228,0.974,0.686,1.202c0.456,0.23,0.687,0.574,0.687,1.029c0,0.231-0.887,1.003-2.66,2.317
		c-1.775,1.317-4.034,2.891-6.779,4.72c-2.747,1.832-5.779,3.805-9.097,5.921c-3.32,2.119-6.522,4.063-9.612,5.836
		c-3.089,1.775-5.894,3.261-8.409,4.462c-2.519,1.201-4.351,1.802-5.493,1.802c-0.802,0-1.746-0.142-2.832-0.428
		c-1.089-0.285-1.63-1.057-1.63-2.317c0-0.915,1.802-2.859,5.406-5.836c3.604-2.974,8.38-6.463,14.332-10.47
		c5.948-4.004,12.813-8.238,20.596-12.701c7.78-4.462,15.876-8.552,24.286-12.271c8.411-3.717,16.791-6.806,25.145-9.269
		c8.351-2.459,16.134-3.69,23.342-3.69c9.038,0,16.333,1.917,21.883,5.75c5.549,3.835,8.325,9.984,8.325,18.451
		c0,4.35-1.346,9.697-4.033,16.047c-2.69,6.351-6.38,13.302-11.07,20.854c4.806-2.172,9.381-3.862,13.73-5.063
		c4.347-1.202,8.295-1.802,11.843-1.802c5.72,0,9.839,1.604,12.358,4.806C167.985,63.54,169.245,67.602,169.245,72.521z
		 M100.077,85.565c-8.925,6.179-17.566,12.817-25.917,19.91c-8.354,7.097-15.764,13.816-22.227,20.167
		c-6.466,6.351-11.645,11.929-15.533,16.734c-3.892,4.807-5.835,8.011-5.835,9.61c0,0.575-0.086,0.89-0.258,0.944
		c-0.172,0.06,0.027,0.087,0.601,0.087c0.456,0,1.773-0.857,3.948-2.574c2.172-1.717,5.004-4.12,8.496-7.209
		c3.489-3.09,7.493-6.72,12.014-10.898c4.519-4.175,9.269-8.78,14.246-13.817c4.978-5.033,10.068-10.324,15.276-15.876
		C90.093,97.094,95.156,91.401,100.077,85.565z"/>
	<path fill="#FFFFFF" d="M220.563,127.789c0.801,1.029,0.515,1.544-0.857,1.544c-0.344,0-0.858,0.086-1.545,0.257
		c-0.688,0.171-1.432,0.317-2.231,0.43c-1.717,2.978-4.007,6.266-6.866,9.869c-2.861,3.604-6.036,6.952-9.525,10.042
		c-3.492,3.088-7.123,5.691-10.899,7.809c-3.775,2.118-7.439,3.175-10.984,3.175c-3.664,0-6.724-0.944-9.183-2.833
		c-2.462-1.888-3.691-4.719-3.691-8.495c0-2.173,0.571-4.691,1.717-7.552c1.143-2.858,2.687-5.776,4.634-8.753
		c1.945-2.975,4.09-5.893,6.437-8.753c2.344-2.86,4.72-5.434,7.123-7.725c2.403-2.288,4.69-4.12,6.866-5.492
		c2.172-1.374,4.061-2.061,5.663-2.061c0.571,0,1.03,0.201,1.374,0.601c0.344,0.402,0.687,0.858,1.03,1.373
		c0.343,0.516,0.656,0.974,0.944,1.374c0.284,0.402,0.601,0.601,0.943,0.601c0.8,0,2.117-0.228,3.948-0.686
		c1.829-0.457,3.49-0.688,4.978-0.688c2.172,0,4.119,0.831,5.834,2.487c1.717,1.661,2.575,4.378,2.575,8.154v1.03
		c0.343,0.917,0.657,1.801,0.944,2.66C220.074,127.015,220.332,127.56,220.563,127.789z M212.668,117.146
		c0-0.455-0.574-0.687-1.717-0.687c-2.402,0-5.037,0.63-7.894,1.889c-2.862,1.261-5.694,2.892-8.497,4.891
		c-2.805,2.005-5.522,4.291-8.153,6.866c-2.633,2.573-4.977,5.178-7.037,7.81c-2.06,2.634-3.69,5.208-4.891,7.724
		c-1.202,2.518-1.802,4.692-1.802,6.522c0,3.204,1.601,4.806,4.805,4.806c1.602,0,3.519-0.601,5.75-1.804
		c2.232-1.201,4.575-2.717,7.038-4.547c2.458-1.828,4.917-3.889,7.38-6.181c2.459-2.285,4.69-4.517,6.693-6.692
		c2.001-2.172,3.604-4.146,4.806-5.922c1.201-1.773,1.802-3.115,1.802-4.032c-0.23-0.229-0.544-0.571-0.944-1.03
		c-0.402-0.457-0.6-1.43-0.6-2.918c0-1.944,0.541-3.489,1.629-4.634C212.125,118.064,212.668,117.375,212.668,117.146z"/>
	<path fill="#FFFFFF" d="M266.56,118.348c1.828-2.859,3.489-5.034,4.977-6.522c1.485-1.485,2.889-2.488,4.205-3.004
		c1.314-0.515,2.602-0.743,3.861-0.687c1.259,0.06,2.688,0.146,4.292,0.258c1.142,0.115,2,0.429,2.573,0.944
		c0.573,0.514,0.516,1.629-0.171,3.346c-0.686,2.176-2.261,4.836-4.72,7.981c-2.462,3.149-5.093,6.607-7.896,10.385
		c-2.805,3.774-5.351,7.723-7.637,11.843c-2.291,4.119-3.605,8.239-3.948,12.358c-0.344,1.261,0.284,2.003,1.888,2.231
		c1.257-0.346,3.004-1.375,5.235-3.09c2.231-1.718,4.462-3.606,6.694-5.665c2.23-2.06,4.346-4.06,6.351-6.007
		c1.999-1.945,3.401-3.317,4.203-4.119c0.345-0.112,0.744-0.058,1.203,0.171c0.455,0.23,0.514,0.802,0.171,1.718
		c-1.604,1.715-3.462,3.747-5.577,6.091c-2.119,2.348-4.378,4.664-6.781,6.953c-2.402,2.29-4.864,4.349-7.38,6.179
		c-2.518,1.831-4.977,3.089-7.38,3.774c-1.947,0.572-3.462,0.486-4.549-0.257c-1.089-0.742-1.574-2.545-1.458-5.406
		c-0.23-3.089,0.227-6.492,1.372-10.213c1.143-3.716,2.489-7.234,4.033-10.556c1.545-3.316,3.06-6.234,4.549-8.753
		c1.485-2.515,2.403-4.061,2.746-4.634c-1.261,1.145-2.634,2.892-4.119,5.235c-1.488,2.345-3.176,4.949-5.063,7.809
		c-1.889,2.861-3.92,5.837-6.092,8.926c-2.176,3.089-4.579,5.922-7.209,8.495c-2.634,2.575-5.437,4.75-8.41,6.523
		c-2.977,1.774-6.18,2.775-9.612,3.002c-2.861,0-5.007-0.797-6.436-2.402c-1.43-1.601-2.232-3.374-2.403-5.32
		c-0.172-1.944,0.286-3.775,1.374-5.492c1.084-1.717,2.831-2.631,5.234-2.747c0.798-0.112,1.571-0.027,2.317,0.259
		c0.742,0.285,1.342,1.059,1.801,2.316v0.686c-0.573,3.206-0.459,5.266,0.344,6.179c0.799,0.918,1.829,1.375,3.09,1.375
		c2.857-0.112,5.72-1.43,8.581-3.948c2.859-2.515,5.721-5.751,8.582-9.697c2.858-3.948,5.749-8.266,8.668-12.96
		C260.981,127.217,263.813,122.698,266.56,118.348z"/>
	<path fill="#FFFFFF" d="M350.143,153.362c0,0.114-0.459,0.63-1.373,1.544c-0.231,0.23-0.631,0.772-1.202,1.632
		c-0.572,0.857-1.26,1.715-2.06,2.574c-0.802,0.857-1.603,1.631-2.402,2.316c-0.802,0.687-1.544,1.029-2.231,1.029
		c-1.946,0-3.663-1.171-5.149-3.518c-1.488-2.344-2.231-5.064-2.231-8.154c0-3.315,0.371-6.005,1.116-8.065
		c0.742-2.06,1.344-3.489,1.803-4.29l-0.344-0.346c-0.231,0.232-1.06,1.062-2.488,2.491c-1.432,1.431-3.205,3.147-5.321,5.149
		c-2.119,2.002-4.463,4.177-7.037,6.521c-2.575,2.345-5.093,4.491-7.552,6.437c-2.462,1.946-4.778,3.548-6.95,4.804
		c-2.176,1.26-3.892,1.889-5.15,1.889c-0.917,0-1.916-0.23-3.004-0.688c-1.089-0.458-2.088-1.029-3.003-1.715
		c-0.918-0.687-1.66-1.46-2.23-2.316c-0.574-0.858-0.858-1.744-0.858-2.661c0-2.631,0.712-6.148,2.146-10.556
		c1.429-4.404,3.115-8.78,5.063-13.13c1.143-2.404,2.344-4.69,3.604-6.866c1.258-2.172,2.489-4.059,3.69-5.663
		c1.201-1.602,2.373-2.888,3.519-3.862c1.143-0.971,2.172-1.459,3.09-1.459c0.798,0,1.716,0.716,2.745,2.146
		c1.03,1.431,1.545,2.604,1.545,3.518c0,0.458-0.06,0.746-0.172,0.858c-0.917,1.26-2.146,3.261-3.689,6.008
		c-1.545,2.744-3.09,5.663-4.635,8.753s-2.89,6.094-4.032,9.012c-1.146,2.917-1.718,5.178-1.718,6.779
		c0,0.801,0.143,1.629,0.43,2.488c0.285,0.857,0.885,1.286,1.802,1.286c0.688,0,1.687-0.342,3.004-1.029
		c1.313-0.686,2.803-1.6,4.463-2.745c1.658-1.143,3.433-2.489,5.319-4.034c1.889-1.544,3.805-3.23,5.751-5.064
		c2.974-2.857,5.69-5.748,8.151-8.667c2.46-2.918,4.49-5.234,6.094-6.95c0.687-0.571,1.258-1.057,1.717-1.459
		c0.456-0.4,0.857-0.601,1.202-0.601c1.484,0,2.744,0.917,3.775,2.745c1.029,1.832,1.545,3.664,1.545,5.492
		c0,2.747-0.516,5.266-1.545,7.554c-1.031,2.29-1.545,4.805-1.545,7.552c0,1.372,0.742,2.204,2.231,2.488
		c1.485,0.287,2.631,0.429,3.432,0.429C349.912,153.018,350.143,153.133,350.143,153.362z"/>
	<path fill="#FFFFFF" d="M359.409,124.87c1.944-2.172,4.317-4.574,7.123-7.208c2.802-2.632,5.69-4.919,8.668-6.866
		c2.974-1.943,5.862-3.373,8.667-4.291c2.802-0.914,5.234-0.858,7.295,0.172c1.6,0.343,2.917,1.115,3.947,2.317
		c1.03,1.201,1.657,2.689,1.887,4.463c0.229,1.774-0.029,3.719-0.771,5.835c-0.746,2.119-2.033,4.377-3.861,6.779
		c-3.548,4.235-6.952,8.127-10.213,11.672c-3.261,3.548-5.922,6.666-7.98,9.354c-2.06,2.689-3.175,5.063-3.348,7.123
		c-0.171,2.059,1.058,3.775,3.691,5.148c1.373,0.574,3.23,0.287,5.577-0.857c2.344-1.143,4.776-2.688,7.294-4.636
		c2.517-1.943,4.918-3.974,7.209-6.091c2.288-2.117,4.004-3.92,5.149-5.408c0.229,0.231,0.714,0.516,1.459,0.858
		c0.742,0.345,1.057,0.687,0.943,1.03c-0.802,1.373-2.488,3.233-5.063,5.577c-2.574,2.347-5.38,4.608-8.41,6.78
		c-3.033,2.174-6.036,3.977-9.011,5.406c-2.977,1.432-5.265,1.915-6.866,1.458c-1.83-0.227-3.548-1.313-5.148-3.261
		c-1.603-1.943-2.175-4.917-1.716-8.925c0.113-1.6,0.885-3.604,2.317-6.007c1.43-2.402,3.116-4.977,5.063-7.724
		c1.943-2.747,3.917-5.491,5.921-8.238c2-2.746,3.66-5.32,4.978-7.724c1.314-2.402,2.059-4.49,2.229-6.266
		c0.173-1.772-0.658-3.003-2.487-3.689c-1.487-0.456-3.119-0.313-4.892,0.429c-1.775,0.746-3.69,1.947-5.749,3.605
		c-2.06,1.659-4.235,3.547-6.522,5.664c-2.291,2.118-4.578,4.264-6.865,6.437L359.409,124.87z"/>
	<path fill="#FFFFFF" d="M465.135,127.959c0,2.29-0.63,4.864-1.888,7.724c-1.26,2.86-2.72,5.607-4.377,8.238
		c-1.66,2.633-3.291,4.891-4.892,6.779c-1.604,1.889-2.689,3.004-3.261,3.347l0.343,1.03c0.456-0.227,1.202-0.571,2.232-1.03
		c1.028-0.455,2.115-0.914,3.26-1.373c1.143-0.455,2.231-0.885,3.262-1.286c1.03-0.4,1.829-0.772,2.402-1.116
		c0.457-0.342,0.858-0.516,1.202-0.516c0.571,0,0.857,0.345,0.857,1.029c0,0.688-0.459,1.375-1.373,2.061
		c-0.458,0.459-1.974,1.519-4.548,3.176c-2.575,1.66-5.638,3.377-9.183,5.148c-3.548,1.776-7.354,3.374-11.414,4.807
		c-4.063,1.429-7.81,2.146-11.242,2.146c-1.372,0-2.977,0-4.806,0c-1.831,0-3.49-0.115-4.978-0.344
		c-4.577,6.979-9.469,14.388-14.675,22.227c-5.204,7.835-10.126,15.075-14.76,21.711s-8.639,12.129-12.014,16.478
		c-3.374,4.347-5.519,6.522-6.437,6.522c-1.143,0-2.231-0.917-3.261-2.747c-1.03-1.831-1.546-4.005-1.546-6.521
		c0-4.35,1.115-9.727,3.347-16.134c2.231-6.409,5.266-13.245,9.098-20.51c3.834-7.268,8.267-14.675,13.301-22.228
		c5.036-7.552,10.357-14.616,15.962-21.197c5.605-6.577,11.355-12.383,17.25-17.42c5.892-5.033,11.585-8.694,17.077-10.984
		c3.091-4.575,5.721-8.381,7.896-11.415c2.171-3.029,3.545-4.947,4.118-5.749c0.915-1.143,1.889-2.202,2.919-3.176
		c1.029-0.971,2.116-1.458,3.261-1.458c0.799,0,1.201,0.343,1.201,1.029s-0.857,2.661-2.574,5.922
		c-1.716,3.261-4.063,7.409-7.037,12.442c0.228,0,0.4-0.025,0.515-0.085c0.113-0.057,0.284-0.086,0.515-0.086
		C460.386,114.4,465.135,118.921,465.135,127.959z M436.3,122.467c-4.921,2.861-10.04,6.924-15.36,12.186
		c-5.321,5.266-10.5,11.101-15.533,17.508c-5.034,6.409-9.783,13.13-14.245,20.167c-4.463,7.036-8.41,13.786-11.844,20.253
		c-3.432,6.463-6.119,12.328-8.066,17.593c-1.943,5.261-2.918,9.381-2.918,12.357c0,1.03,0.03,1.944,0.086,2.745
		c0.059,0.8,0.372,1.201,0.943,1.201c0.116,0,0.832-0.973,2.146-2.916c1.317-1.947,3.034-4.55,5.149-7.812
		c2.119-3.26,4.549-7.036,7.295-11.326c2.746-4.291,5.607-8.84,8.581-13.646c2.977-4.806,6.037-9.697,9.183-14.675
		c3.148-4.978,6.149-9.757,9.012-14.331c4.23-6.75,8.581-13.531,13.043-20.338C428.233,134.626,432.409,128.302,436.3,122.467z
		 M458.613,126.758c0-2.975-0.831-5.176-2.488-6.609c-1.66-1.428-3.75-2.146-6.266-2.146c-0.917,0-1.604,0.061-2.06,0.174
		c-3.663,6.064-7.724,12.701-12.187,19.907c-4.463,7.21-8.984,14.361-13.559,21.456c-0.344,0.573-0.659,1.059-0.944,1.459
		c-0.286,0.401-0.601,0.887-0.944,1.458c1.374-0.227,3.005-0.514,4.893-0.858c1.888-0.343,3.747-0.742,5.577-1.201
		c1.829-0.455,3.546-0.944,5.149-1.458c1.602-0.516,2.803-1,3.604-1.458c1.142-0.688,2.773-1.946,4.892-3.777
		c2.116-1.829,4.231-4.119,6.351-6.864c2.115-2.747,3.975-5.837,5.578-9.27C457.812,134.139,458.613,130.534,458.613,126.758z"/>
	<path fill="#FFFFFF" d="M551.123,126.586c-0.231,0.344-0.974,1.23-2.231,2.66c-1.26,1.432-2.72,3.033-4.377,4.807
		c-1.66,1.774-3.347,3.546-5.063,5.321c-1.716,1.773-3.149,3.175-4.291,4.205c-1.261,1.029-2.72,2.289-4.377,3.774
		c-1.66,1.488-3.376,2.918-5.149,4.291c-1.775,1.373-3.577,2.549-5.406,3.518c-1.832,0.975-3.433,1.46-4.805,1.46
		c-2.061,0-3.549-1.029-4.464-3.089c-0.917-2.061-1.372-4.575-1.372-7.552c0-1.486,0.198-3.318,0.6-5.492
		c0.4-2.173,0.714-3.489,0.944-3.948c0.113-0.343,0.086-0.629-0.086-0.858c-0.172-0.229-0.372-0.343-0.601-0.343
		c-0.115,0-0.716,0.459-1.802,1.372c-1.089,0.917-2.403,2.033-3.947,3.348c-1.545,1.316-3.206,2.746-4.979,4.29
		c-1.775,1.546-3.405,3.004-4.892,4.377c-1.488,1.374-3.29,3.003-5.406,4.892c-2.118,1.889-4.205,3.663-6.265,5.321
		c-2.06,1.659-3.947,3.089-5.664,4.29s-2.977,1.804-3.776,1.804c-1.145,0-2.089-0.688-2.832-2.061
		c-0.742-1.374-1.114-2.918-1.114-4.636c0-2.857,0.686-6.177,2.059-9.953c1.373-3.775,3.176-7.665,5.406-11.672
		c2.231-4.004,4.807-7.921,7.725-11.756c2.918-3.833,5.948-7.265,9.097-10.299c3.145-3.03,6.32-5.493,9.524-7.381
		c3.203-1.888,6.18-2.832,8.926-2.832c2.287,0,4.205,0.63,5.75,1.888c1.545,1.261,2.317,3.205,2.317,5.835
		c0,0.688-0.201,1.632-0.602,2.833c-0.402,1.201-0.917,2.519-1.545,3.947c-0.63,1.434-1.345,2.892-2.146,4.377
		c-0.801,1.488-1.544,2.805-2.23,3.947c1.143-0.57,2-0.857,2.574-0.857c1.374,0,2.489,0.344,3.347,1.029
		c0.859,0.688,1.287,1.833,1.287,3.435c0,1.027-0.229,2.259-0.686,3.688c-0.459,1.432-0.975,2.919-1.546,4.462
		c-0.573,1.547-1.089,3.063-1.544,4.551c-0.459,1.486-0.687,2.804-0.687,3.945c0,0.918,0.142,1.718,0.429,2.405
		c0.284,0.686,0.886,1.027,1.802,1.027c1.259,0,3.318-1.143,6.18-3.433c2.858-2.286,5.892-4.917,9.097-7.894
		c1.716-1.717,3.434-3.46,5.149-5.235c1.716-1.772,3.317-3.404,4.806-4.893c1.485-1.485,2.746-2.802,3.775-3.946
		c1.03-1.143,1.773-2.001,2.231-2.575c0.344,0,0.713,0.287,1.116,0.858C551.78,124.415,551.694,125.329,551.123,126.586z
		 M516.968,111.997c0-1.03-0.515-1.544-1.544-1.544c-1.146,0-2.862,0.801-5.15,2.402c-2.29,1.604-4.864,3.69-7.723,6.267
		c-2.862,2.573-5.78,5.52-8.754,8.838c-2.978,3.319-5.723,6.638-8.238,9.955c-3.32,4.349-5.895,8.238-7.724,11.671
		c-1.832,3.433-2.747,6.066-2.747,7.896c0,1.144,0.172,1.715,0.516,1.715s1.343-0.601,3.004-1.802
		c1.657-1.202,3.604-2.688,5.836-4.464c2.23-1.771,4.547-3.715,6.951-5.834c2.402-2.116,4.574-4.034,6.521-5.751
		c2.06-1.828,4.061-3.66,6.007-5.492c1.945-1.828,3.776-3.489,5.492-4.976c-0.801-0.229-1.487-0.516-2.059-0.859
		c-0.574-0.344-0.858-0.628-0.858-0.858c0-0.229,0.228-0.542,0.687-0.944c0.456-0.399,0.915-0.885,1.372-1.458
		c0.229-0.229,0.8-1.057,1.717-2.489c0.915-1.429,1.858-2.974,2.832-4.634c0.971-1.658,1.859-3.231,2.66-4.72
		C516.565,113.429,516.968,112.455,516.968,111.997z"/>
	<path fill="#FFFFFF" d="M655.646,57.417c-1.374,0.116-2.861,0.802-4.462,2.06c-1.604,1.26-2.919,2.346-3.948,3.261
		c-0.115,0.23-0.459,0.944-1.03,2.146c-0.574,1.201-1.03,1.802-1.372,1.802c-0.345,0-0.717-0.199-1.116-0.601
		c-0.402-0.399-0.831-0.858-1.287-1.373c-0.459-0.515-0.831-1.03-1.116-1.544c-0.286-0.515-0.429-0.944-0.429-1.287
		c0-0.344,0.229-0.971,0.687-1.888c0.456-0.915,1-1.974,1.631-3.175c0.628-1.201,1.172-2.459,1.631-3.776
		c0.456-1.314,0.687-2.545,0.687-3.69c0-1.029-0.172-1.944-0.517-2.746c-0.343-0.799-1.144-1.201-2.401-1.201
		c-1.717,0-3.75,1.231-6.094,3.69c-2.347,2.462-4.634,5.294-6.865,8.496c-2.231,3.205-4.265,6.41-6.093,9.611
		c-1.832,3.205-3.09,5.492-3.776,6.866c-3.548,6.865-6.924,13.532-10.126,19.995c-3.204,6.467-6.638,13.131-10.299,19.995
		c-1.946,3.548-3.835,7.037-5.664,10.472l0.687-0.688c3.776-4.12,7.608-7.837,11.5-11.157c3.889-3.317,7.467-5.805,10.728-7.465
		c3.261-1.658,5.948-2.344,8.066-2.061c2.116,0.287,3.347,2.032,3.69,5.235c0.228,2.978-0.201,6.409-1.288,10.298
		c-1.088,3.891-2.66,7.925-4.719,12.1c-2.061,4.179-4.522,8.325-7.381,12.444c-2.861,4.119-5.95,7.839-9.269,11.157
		c-3.32,3.319-6.723,6.036-10.212,8.151c-3.491,2.116-6.951,3.287-10.384,3.52c-2.519,0.227-4.664-0.115-6.436-1.029
		c-1.776-0.918-2.776-2.46-3.004-4.636l-0.172-1.029c0-0.228,0.113-0.572,0.343-1.031c1.373,2.061,3.489,2.978,6.35,2.748
		c1.717-0.112,3.605-0.8,5.665-2.061c2.06-1.258,4.205-2.918,6.437-4.978c2.23-2.061,4.519-4.489,6.865-7.293
		c2.344-2.805,4.66-5.751,6.951-8.84c2.06-2.858,4.004-5.722,5.835-8.582c1.829-2.859,3.403-5.549,4.721-8.066
		c1.313-2.517,2.344-4.776,3.089-6.78c0.743-2.001,1.057-3.631,0.944-4.892c-0.23-1.373-1.888-1.459-4.978-0.257
		c-3.09,1.201-6.951,3.748-11.586,7.638c-4.634,3.892-9.755,9.096-15.361,15.618c-1.259,1.373-2.518,2.861-3.775,4.462
		c-2.06,3.777-4.063,7.497-6.008,11.157c-5.606,10.529-11.327,20.768-17.163,30.724c-1.372,2.286-3.29,5.234-5.749,8.838
		c-2.462,3.604-5.179,7.124-8.153,10.556c-2.977,3.433-6.094,6.378-9.354,8.839c-3.261,2.459-6.321,3.691-9.183,3.691
		c-1.828,0-3.348-0.43-4.549-1.289c-1.201-0.857-2.172-1.917-2.917-3.173c-0.743-1.263-1.288-2.692-1.631-4.293
		c-0.344-1.603-0.515-3.148-0.515-4.633v-2.061c0-0.917,0.343-2.573,1.029-4.976c0.687-2.404,1.574-4.893,2.66-7.467
		c1.089-2.575,2.261-4.836,3.518-6.781c1.262-1.946,2.404-2.917,3.434-2.917c0.687,0,1.146,0.516,1.373,1.545
		c-2.059,3.202-3.832,6.892-5.321,11.069c-1.484,4.177-2.23,8.209-2.23,12.103c0,0.797,0.059,1.741,0.172,2.83
		c0.115,1.088,0.343,2.087,0.687,3.005c0.344,0.914,0.857,1.717,1.545,2.401c0.687,0.688,1.604,1.03,2.746,1.03
		c1.831,0,4.146-1.488,6.951-4.463c2.802-2.977,5.807-6.838,9.011-11.585c3.202-4.749,6.492-10.099,9.868-16.048
		c3.375-5.95,6.665-11.955,9.869-18.022c2.288-4.231,4.463-8.409,6.522-12.527c1.143-2.404,2.288-4.69,3.434-6.866
		c-2.06,2.634-4.291,5.208-6.694,7.724c-3.663,4.007-7.438,7.667-11.328,10.985c-3.891,3.319-7.466,5.808-10.728,7.466
		c-3.26,1.656-5.98,2.344-8.152,2.06c-2.175-0.287-3.377-2.033-3.604-5.234c-0.229-2.976,0.198-6.408,1.288-10.299
		c1.086-3.89,2.659-7.922,4.72-12.101c2.06-4.176,4.519-8.324,7.38-12.443c2.859-4.119,5.949-7.836,9.269-11.156
		c3.317-3.318,6.721-6.035,10.212-8.153c3.489-2.115,6.951-3.288,10.384-3.518c2.516-0.229,4.661,0.114,6.438,1.029
		c1.771,0.918,2.771,2.461,3.002,4.634l0.173,1.03c0,0.23-0.116,0.574-0.344,1.029c-1.372-2.06-3.492-2.974-6.351-2.746
		c-1.717,0.115-3.604,0.803-5.663,2.06c-2.06,1.262-4.205,2.918-6.437,4.978s-4.521,4.492-6.865,7.296
		c-2.348,2.803-4.664,5.749-6.951,8.838c-2.06,2.861-4.007,5.723-5.836,8.582c-1.832,2.861-3.406,5.551-4.72,8.067
		c-1.317,2.518-2.347,4.778-3.09,6.779c-0.746,2.002-1.06,3.634-0.943,4.892c0.228,1.373,1.888,1.459,4.978,0.258
		c3.089-1.202,6.95-3.746,11.584-7.638c4.635-3.889,9.754-9.038,15.361-15.448c3.317-3.889,6.578-8.238,9.783-13.044l2.061-3.948
		c1.372-2.745,2.66-5.347,3.862-7.81c1.2-2.459,2.085-4.376,2.659-5.748c2.06-4.349,4.575-9.382,7.552-15.105
		c2.975-5.72,6.291-11.612,9.955-17.678c2.516-4.12,5.09-8.094,7.724-11.929c2.632-3.832,5.291-7.208,7.98-10.126
		c2.688-2.917,5.407-5.234,8.153-6.951s5.433-2.575,8.066-2.575c1.601,0,2.89,0.575,3.863,1.717c0.97,1.146,1.716,2.518,2.23,4.119
		c0.515,1.604,0.828,3.262,0.944,4.978c0.112,1.716,0.112,3.148,0,4.291c0.799-0.456,1.57-0.885,2.316-1.287
		c0.742-0.4,1.572-0.773,2.489-1.116C655.359,55.073,655.989,56.044,655.646,57.417z"/>
	<path fill="#FFFFFF" d="M684.48,153.362c0,0.114-0.459,0.63-1.373,1.544c-0.23,0.23-0.63,0.772-1.201,1.632
		c-0.574,0.857-1.26,1.715-2.06,2.574c-0.802,0.857-1.604,1.631-2.403,2.316c-0.802,0.687-1.544,1.029-2.23,1.029
		c-1.947,0-3.664-1.171-5.149-3.518c-1.488-2.344-2.231-5.064-2.231-8.154c0-3.315,0.37-6.005,1.116-8.065
		c0.742-2.06,1.343-3.489,1.802-4.29l-0.344-0.346c-0.23,0.232-1.059,1.062-2.488,2.491c-1.432,1.431-3.205,3.147-5.32,5.149
		c-2.119,2.002-4.463,4.177-7.037,6.521c-2.575,2.345-5.093,4.491-7.552,6.437c-2.462,1.946-4.779,3.548-6.952,4.804
		c-2.174,1.26-3.892,1.889-5.148,1.889c-0.917,0-1.917-0.23-3.004-0.688c-1.088-0.458-2.09-1.029-3.003-1.715
		c-0.918-0.687-1.661-1.46-2.231-2.316c-0.575-0.858-0.858-1.744-0.858-2.661c0-2.631,0.713-6.148,2.146-10.556
		c1.429-4.404,3.117-8.78,5.063-13.13c1.142-2.404,2.344-4.69,3.604-6.866c1.259-2.172,2.489-4.059,3.69-5.663
		c1.201-1.602,2.373-2.888,3.52-3.862c1.143-0.971,2.172-1.459,3.088-1.459c0.8,0,1.717,0.716,2.748,2.146
		c1.028,1.431,1.543,2.604,1.543,3.518c0,0.458-0.059,0.746-0.172,0.858c-0.916,1.26-2.145,3.261-3.689,6.008
		c-1.545,2.744-3.089,5.663-4.635,8.753c-1.544,3.09-2.89,6.094-4.032,9.012c-1.146,2.917-1.716,5.178-1.716,6.779
		c0,0.801,0.141,1.629,0.427,2.488c0.286,0.857,0.886,1.286,1.804,1.286c0.687,0,1.687-0.342,3.004-1.029
		c1.313-0.686,2.803-1.6,4.462-2.745c1.657-1.143,3.432-2.489,5.32-4.034c1.888-1.544,3.804-3.23,5.751-5.064
		c2.973-2.857,5.689-5.748,8.152-8.667c2.459-2.918,4.489-5.234,6.092-6.95c0.688-0.571,1.259-1.057,1.718-1.459
		c0.455-0.4,0.857-0.601,1.201-0.601c1.485,0,2.745,0.917,3.775,2.745c1.03,1.832,1.545,3.664,1.545,5.492
		c0,2.747-0.515,5.266-1.545,7.554c-1.03,2.29-1.545,4.805-1.545,7.552c0,1.372,0.743,2.204,2.231,2.488
		c1.486,0.287,2.631,0.429,3.433,0.429C684.249,153.018,684.48,153.133,684.48,153.362z"/>
	<path fill="#FFFFFF" d="M744.38,133.623c-1.947,0.918-3.892,1.604-5.836,2.061c-1.26,1.604-2.575,3.376-3.947,5.32
		c-2.634,3.432-5.665,6.754-9.097,9.954c-3.434,3.206-7.354,5.98-11.757,8.324c-4.407,2.348-9.526,3.75-15.362,4.205
		c-3.089,0-5.319-0.999-6.693-3.003c-1.373-1.999-2.001-4.231-1.888-6.693c0.115-2.459,0.944-4.746,2.487-6.864
		c1.546-2.117,3.632-3.233,6.266-3.347c0.915-0.229,1.743-0.174,2.489,0.171c0.742,0.343,1.286,1.315,1.631,2.917l-0.172,0.857
		c-1.03,4.007-1.317,6.639-0.858,7.896c0.456,1.26,1.373,1.774,2.746,1.545c3.09-0.229,6.321-1.259,9.697-3.091
		c3.375-1.827,6.664-4.119,9.869-6.864c3.202-2.746,6.119-5.777,8.753-9.097l1.202-1.545c-2.862,0.115-5.437-0.171-7.724-0.858
		c-2.403-0.8-4.436-2.06-6.093-3.777c-1.66-1.715-2.661-3.774-3.004-6.177c-0.687-4.807,0.056-8.866,2.23-12.188
		c2.173-3.316,4.918-5.776,8.239-7.38c3.317-1.602,6.721-2.316,10.212-2.146c3.489,0.173,6.265,1.287,8.324,3.348
		c2.06,2.059,2.945,5.122,2.66,9.182c-0.287,4.063-2.548,9.127-6.778,15.19c1.257-0.572,2.631-1.258,4.118-2.061
		c3.434-1.828,5.862-2.857,7.295-3.089c1.429-0.228,1.915,0.803,1.458,3.089c-1.029,1.375-2.376,3.205-4.033,5.492
		c-1.66,2.292-3.175,4.694-4.548,7.209c-1.373,2.519-2.376,4.951-3.004,7.295c-0.629,2.348-0.372,4.376,0.772,6.094
		c1.486-0.457,3.604-1.744,6.35-3.863c2.747-2.115,5.55-4.462,8.411-7.036c2.858-2.575,5.549-5.09,8.066-7.553
		c2.516-2.458,4.291-4.206,5.321-5.235c0.343-0.111,0.743-0.055,1.201,0.174c0.456,0.23,0.456,0.973,0,2.23
		c-2.06,2.06-4.463,4.578-7.208,7.552c-2.746,2.978-5.638,5.896-8.668,8.754c-3.033,2.86-6.094,5.437-9.182,7.722
		c-3.09,2.292-6.067,3.837-8.926,4.636c-2.291,0.686-3.948,0.627-4.977-0.172c-1.03-0.799-1.604-2.03-1.718-3.689
		c-0.115-1.657,0.199-3.662,0.944-6.007c0.742-2.346,1.688-4.721,2.831-7.123c1.143-2.402,2.404-4.691,3.776-6.866
		C741.633,136.943,743.007,135.112,744.38,133.623z M730.478,130.705c1.716,1.029,3.831,1.605,6.351,1.717
		c1.029-1.601,1.944-3.145,2.745-4.633c1.829-3.435,3.062-6.695,3.69-9.785c0.628-3.088,0.485-5.719-0.43-7.895
		c-2.633-2.858-5.121-4.204-7.465-4.033c-2.347,0.172-4.406,1.145-6.18,2.918c-1.775,1.774-3.089,3.947-3.947,6.521
		c-0.857,2.575-1.115,4.78-0.772,6.608c0.344,1.262,1.001,2.72,1.975,4.376C727.414,128.162,728.762,129.562,730.478,130.705z"/>
</g>
</svg>
