<?xml version="1.0" encoding="utf-8"?>
<!-- Generator: Adobe Illustrator 16.0.0, SVG Export Plug-In . SVG Version: 6.00 Build 0)  -->
<!DOCTYPE svg PUBLIC "-//W3C//DTD SVG 1.1//EN" "http://www.w3.org/Graphics/SVG/1.1/DTD/svg11.dtd">
<svg version="1.1" id="Layer_1" xmlns="http://www.w3.org/2000/svg" xmlns:xlink="http://www.w3.org/1999/xlink" x="0px" y="0px"
	 width="430.76px" height="220.973px" viewBox="0 0 430.76 220.973" enable-background="new 0 0 430.76 220.973"
	 xml:space="preserve">
<g>
	<g>
		<path fill="#FFFFFF" d="M196.712,10.948c0,5.925-1.449,12.32-4.344,19.186c-2.897,6.867-6.968,13.703-12.219,20.5
			c-5.251,6.801-11.445,13.33-18.581,19.591c-7.138,6.261-14.915,11.815-23.328,16.665c-8.416,4.846-17.338,8.717-26.761,11.611
			c-9.426,2.898-18.984,4.342-28.68,4.342c-1.348,0-2.625-0.066-3.838-0.201c-1.211-0.135-2.357-0.334-3.435-0.605
			c0.27,2.291,0.639,5.186,1.111,8.685c0.471,3.502,1.111,7.203,1.919,11.107s1.783,7.775,2.928,11.613
			c1.144,3.836,2.526,7.27,4.142,10.299c1.616,3.031,3.433,5.523,5.454,7.475c2.018,1.951,4.374,2.928,7.067,2.928
			c4.98,0,8.853-1.074,11.613-3.23c2.757-2.152,4.813-4.105,6.16-5.855c1.479-0.674,2.556-0.203,3.23,1.412
			c-0.675,1.08-1.648,2.424-2.928,4.039c-1.281,1.617-2.828,3.201-4.646,4.746c-1.818,1.553-3.907,2.898-6.262,4.041
			c-2.356,1.145-4.815,1.719-7.373,1.719c-5.251,0-9.966-1.652-14.138-4.949c-4.175-3.297-7.811-7.504-10.907-12.625
			c-3.099-5.115-5.688-10.734-7.774-16.865c-2.089-6.123-3.807-12.016-5.152-17.671c-2.423,3.099-4.714,6.093-6.866,8.988
			c-2.154,2.896-4.108,5.453-5.855,7.674c-1.752,2.223-3.131,4.074-4.143,5.555c-1.01,1.484-1.514,2.357-1.514,2.625
			c0,0.676,0.203,1.551,0.604,2.627c0.405,1.078,0.607,2.221,0.607,3.434c0,0.404-0.607,1.279-1.818,2.627
			c-1.212,1.348-2.727,2.963-4.544,4.848c-1.816,1.887-3.873,3.805-6.159,5.756c-2.292,1.953-4.479,3.807-6.564,5.553
			c-2.089,1.75-3.939,3.164-5.555,4.244c-1.615,1.074-2.761,1.615-3.434,1.615c-1.887,0-3.569-0.811-5.049-2.426
			c-1.484-1.615-2.222-3.092-2.222-4.441c0-1.479,0.604-2.592,1.816-3.334c1.212-0.738,2.424-1.848,3.637-3.332
			c0.268-0.268,1.817-2.188,4.646-5.756c2.828-3.566,6.394-8.211,10.705-13.936c4.307-5.723,9.19-12.219,14.644-19.49
			c5.453-7.273,11.009-14.814,16.663-22.625c5.656-7.807,11.176-15.618,16.562-23.428c5.384-7.807,10.165-15.046,14.34-21.71
			c4.172-6.666,7.54-12.522,10.099-17.572c2.558-5.049,3.839-8.716,3.839-11.006c0-3.5-1.011-5.789-3.03-6.868
			C99.36,7.448,96.734,6.91,93.505,6.91c-3.635,0-7.645,0.575-12.019,1.716c-4.376,1.145-8.854,2.56-13.431,4.241
			c-4.578,1.686-8.988,3.534-13.229,5.554c-4.241,2.02-8.048,3.907-11.411,5.656c-3.368,1.75-6.06,3.266-8.079,4.544
			c-2.021,1.282-3.03,1.988-3.03,2.12c0,0.676,0.032,1.617,0.101,2.828c0.067,1.212-0.235,2.155-0.908,2.828
			c-0.271,0.405-1.516,1.413-3.737,3.03c-2.221,1.615-4.644,3.332-7.271,5.15c-2.625,1.817-5.15,3.468-7.574,4.947
			c-2.423,1.484-3.907,2.223-4.443,2.223c-0.674,0-1.413-0.304-2.221-0.909c-0.811-0.605-1.617-1.344-2.425-2.222
			c-0.809-0.874-1.482-1.747-2.021-2.625C1.268,45.116,1,44.343,1,43.668c0-0.808,1.446-2.423,4.344-4.848
			c2.894-2.423,6.765-5.216,11.613-8.381c4.847-3.164,10.365-6.529,16.561-10.099c6.192-3.566,12.588-6.797,19.188-9.694
			c6.595-2.894,13.158-5.318,19.691-7.271c6.529-1.951,12.487-2.929,17.874-2.929c7.271,0,12.487,2.02,15.652,6.059
			c3.162,4.04,4.747,9.291,4.747,15.754c0,3.636-0.742,7.608-2.224,11.917c-1.481,4.31-3.4,8.753-5.755,13.33
			c-2.356,4.578-5.051,9.188-8.079,13.834c-3.029,4.646-6.094,9.158-9.189,13.532c-3.101,4.377-6.128,8.484-9.089,12.32
			c-2.963,3.838-5.522,7.17-7.674,9.998c1.749,0.404,3.969,0.604,6.663,0.604c10.232,0,20.163-1.443,29.791-4.342
			c9.625-2.893,18.613-6.83,26.964-11.814c8.347-4.979,15.986-10.705,22.923-17.167c6.934-6.463,12.857-13.26,17.772-20.4
			c4.914-7.135,8.752-14.371,11.513-21.71c2.759-7.337,4.142-14.372,4.142-21.107c0.671,0,1.479,0.271,2.423,0.808
			c0.941,0.54,1.851,1.282,2.728,2.223c0.873,0.944,1.614,1.988,2.222,3.129C196.407,8.56,196.712,9.736,196.712,10.948z"/>
		<path fill="#FFFFFF" d="M218.118,139.802c-1.078,1.08-2.322,2.225-3.736,3.438c-1.414,1.211-2.863,2.424-4.342,3.635
			c-1.484,1.211-2.763,2.156-3.838,2.826c-2.156,1.35-4.747,2.863-7.775,4.545c-3.03,1.688-6.094,2.525-9.19,2.525
			c-2.02,0-3.838-0.537-5.452-1.617c-1.615-1.074-2.625-3.096-3.03-6.059c-0.403-2.555,0-5.686,1.212-9.391
			c1.212-3.703,2.625-7.236,4.241-10.604l0.403-0.811c-0.808-0.131-1.686-0.268-2.625-0.4c-2.695-0.27-5.521-0.404-8.482-0.404
			c-2.963,0-5.856,0.066-8.685,0.201c-1.212,0.135-2.356,0.203-3.433,0.203c-2.292,3.77-4.443,7.34-6.463,10.701
			c-2.963,4.85-5.555,9.158-7.775,12.928c-2.223,3.771-3.736,6.398-4.544,7.879c-0.271,0-0.808-0.203-1.616-0.607
			c-0.809-0.402-1.683-0.908-2.627-1.514c-0.938-0.605-1.815-1.244-2.625-1.92c-0.808-0.672-1.211-1.279-1.211-1.82
			c0-0.402,0.943-2.287,2.828-5.654c1.887-3.363,4.308-7.4,7.27-12.115c1.346-2.021,2.627-4.041,3.838-6.061l-1.01,0.201
			c-2.964,0.539-5.118,0.473-6.463-0.201c-2.692-0.809-3.902-2.289-3.635-4.441c0-2.154,0.74-2.965,2.221-2.428
			c0.677,0.271,1.213,0.643,1.615,1.111c0.405,0.475,0.941,0.777,1.617,0.908c0.536,0.271,2.423,0.137,5.654-0.402
			c1.213-0.268,2.491-0.471,3.838-0.605c0.808-1.213,1.546-2.355,2.221-3.436c3.635-5.383,7.07-10.397,10.301-15.044
			c3.231-4.645,6.025-8.484,8.383-11.512c2.354-3.029,3.867-4.543,4.542-4.543c1.077,0,2.086,0.504,3.029,1.514
			c0.941,1.01,1.48,1.918,1.616,2.727c0,0.137-0.877,1.65-2.625,4.545c-1.75,2.896-3.973,6.563-6.664,11.008l-8.483,13.529h2.223
			c2.423,0,4.914,0.07,7.472,0.201c2.558,0.139,4.979,0.34,7.271,0.607c2.02,0.271,3.701,0.605,5.05,1.01
			c0.808-1.479,1.615-2.895,2.423-4.242c1.48-2.557,2.354-4.039,2.625-4.441c1.212-1.48,1.681-2.959,1.413-4.443
			c0-0.672,0.203-1.546,0.607-2.625c0.402-1.076,1.009-2.121,1.817-3.131s1.747-1.85,2.826-2.523c1.077-0.674,2.222-1.01,3.435-1.01
			c1.615,0,3.029,0.438,4.242,1.313c1.211,0.877,1.883,1.785,2.021,2.727c0.131,1.078,0.166,2.693,0.1,4.847
			c-0.067,2.154-0.438,3.703-1.108,4.646c-0.404,0.402-1.146,1.348-2.224,2.826c-1.08,1.482-2.291,3.131-3.637,4.947
			c-1.347,1.818-2.693,3.672-4.038,5.557c-1.348,1.887-2.425,3.434-3.233,4.645c-1.75,2.559-3.4,5.252-4.946,8.078
			c-1.551,2.828-2.19,5.051-1.919,6.666c0,0.539,0.233,1.111,0.707,1.717c0.471,0.605,1.11,0.908,1.919,0.908
			c1.749,0,3.938-0.637,6.563-1.918c2.625-1.279,5.283-2.793,7.979-4.545c2.557-1.748,4.946-3.465,7.17-5.15
			c2.221-1.682,3.867-3.061,4.946-4.139c1.078,0,1.748,0.807,2.021,2.422L218.118,139.802z"/>
		<path fill="#FFFFFF" d="M290.424,147.073c0,0.137-0.539,0.742-1.619,1.818c-0.27,0.271-0.74,0.908-1.416,1.918
			c-0.674,1.01-1.477,2.021-2.422,3.031c-0.943,1.01-1.889,1.918-2.826,2.727c-0.943,0.807-1.82,1.213-2.623,1.213
			c-2.293,0-4.311-1.381-6.063-4.143c-1.746-2.758-2.623-5.957-2.623-9.592c0-3.904,0.438-7.07,1.313-9.494
			c0.871-2.424,1.578-4.105,2.119-5.049l-0.404-0.404c-0.271,0.271-1.248,1.248-2.928,2.928c-1.688,1.688-3.771,3.705-6.26,6.059
			c-2.496,2.357-5.254,4.918-8.283,7.676c-3.027,2.764-5.99,5.287-8.883,7.574c-2.9,2.293-5.625,4.174-8.182,5.658
			c-2.563,1.48-4.58,2.221-6.057,2.221c-1.08,0-2.261-0.271-3.535-0.809c-1.281-0.539-2.461-1.211-3.533-2.02
			c-1.084-0.809-1.957-1.717-2.631-2.727c-0.676-1.012-1.01-2.053-1.01-3.133c0-3.096,0.84-7.234,2.526-12.42
			c1.681-5.182,3.668-10.332,5.955-15.451c1.351-2.826,2.76-5.52,4.241-8.08c1.479-2.555,2.929-4.777,4.345-6.664
			c1.41-1.883,2.793-3.398,4.144-4.543c1.342-1.143,2.557-1.717,3.635-1.717c0.938,0,2.018,0.844,3.229,2.523
			c1.209,1.686,1.813,3.064,1.813,4.141c0,0.538-0.065,0.878-0.2,1.009c-1.08,1.484-2.522,3.838-4.345,7.068
			c-1.813,3.232-3.637,6.666-5.45,10.301c-1.813,3.637-3.398,7.17-4.748,10.604c-1.343,3.436-2.017,6.096-2.017,7.98
			c0,0.941,0.168,1.918,0.506,2.928c0.33,1.012,1.037,1.516,2.117,1.516c0.81,0,1.982-0.404,3.535-1.213
			c1.543-0.809,3.297-1.883,5.254-3.23c1.949-1.344,4.039-2.93,6.26-4.748c2.22-1.816,4.472-3.803,6.765-5.957
			c3.502-3.363,6.698-6.766,9.592-10.199c2.896-3.434,5.289-6.16,7.17-8.18c0.812-0.672,1.484-1.244,2.023-1.717
			c0.532-0.469,1.012-0.707,1.409-0.707c1.755,0,3.238,1.078,4.445,3.232c1.213,2.154,1.82,4.311,1.82,6.461
			c0,3.232-0.607,6.195-1.82,8.889c-1.207,2.695-1.813,5.654-1.813,8.887c0,1.615,0.868,2.594,2.623,2.928
			c1.747,0.338,3.096,0.506,4.04,0.506C290.148,146.671,290.424,146.808,290.424,147.073z"/>
		<path fill="#FFFFFF" d="M301.329,113.548c2.284-2.557,5.077-5.382,8.381-8.482c3.297-3.098,6.692-5.787,10.196-8.08
			c3.503-2.287,6.9-3.969,10.199-5.047c3.299-1.076,6.162-1.012,8.586,0.201c1.883,0.402,3.435,1.313,4.646,2.727
			s1.949,3.166,2.224,5.252c0.266,2.088-0.035,4.377-0.912,6.867c-0.875,2.494-2.392,5.148-4.541,7.976
			c-4.176,4.984-8.183,9.563-12.019,13.734c-3.838,4.176-6.971,7.846-9.394,11.008c-2.424,3.166-3.735,5.959-3.938,8.381
			c-0.203,2.424,1.244,4.443,4.344,6.059c1.615,0.678,3.801,0.34,6.563-1.008c2.758-1.346,5.616-3.164,8.582-5.453
			c2.961-2.289,5.786-4.678,8.481-7.17c2.695-2.49,4.711-4.611,6.062-6.363c0.271,0.271,0.84,0.605,1.717,1.012
			c0.873,0.402,1.244,0.807,1.108,1.211c-0.94,1.615-2.928,3.805-5.954,6.564c-3.033,2.76-6.332,5.42-9.898,7.977
			c-3.567,2.563-7.104,4.68-10.604,6.365c-3.503,1.686-6.195,2.252-8.078,1.717c-2.154-0.268-4.175-1.549-6.062-3.84
			c-1.885-2.289-2.559-5.789-2.02-10.502c0.135-1.883,1.043-4.24,2.729-7.068c1.681-2.828,3.666-5.857,5.955-9.088
			c2.291-3.23,4.611-6.465,6.969-9.695c2.358-3.23,4.312-6.26,5.857-9.087c1.549-2.83,2.426-5.283,2.627-7.373
			c0.203-2.086-0.775-3.535-2.93-4.342c-1.752-0.537-3.67-0.369-5.754,0.506c-2.092,0.877-4.344,2.289-6.77,4.24
			c-2.421,1.953-4.98,4.176-7.673,6.664c-2.694,2.494-5.389,5.021-8.079,7.576L301.329,113.548z"/>
		<path fill="#FFFFFF" d="M427.76,147.073c0,0.137-0.539,0.742-1.615,1.818c-0.272,0.271-0.741,0.908-1.416,1.918
			c-0.676,1.01-1.479,2.021-2.422,3.031c-0.944,1.01-1.889,1.918-2.83,2.727c-0.94,0.807-1.817,1.213-2.623,1.213
			c-2.293,0-4.311-1.381-6.061-4.143c-1.75-2.758-2.625-5.957-2.625-9.592c0-3.904,0.436-7.07,1.313-9.494
			c0.873-2.424,1.582-4.105,2.121-5.049l-0.404-0.404c-0.272,0.271-1.247,1.248-2.928,2.928c-1.686,1.688-3.772,3.705-6.262,6.059
			c-2.492,2.357-5.252,4.918-8.279,7.676c-3.033,2.764-5.994,5.287-8.887,7.574c-2.898,2.293-5.627,4.174-8.182,5.658
			c-2.561,1.48-4.578,2.221-6.059,2.221c-1.078,0-2.257-0.271-3.533-0.809c-1.281-0.539-2.459-1.211-3.535-2.02
			c-1.078-0.809-1.955-1.717-2.627-2.727c-0.674-1.012-1.008-2.053-1.008-3.133c0-3.096,0.84-7.234,2.521-12.42
			c1.685-5.182,3.67-10.332,5.959-15.451c1.347-2.826,2.761-5.52,4.244-8.08c1.478-2.555,2.926-4.777,4.34-6.664
			c1.412-1.883,2.793-3.398,4.142-4.543c1.344-1.143,2.557-1.717,3.637-1.717c0.941,0,2.02,0.844,3.229,2.523
			c1.212,1.686,1.818,3.064,1.818,4.141c0,0.538-0.072,0.878-0.203,1.009c-1.078,1.484-2.524,3.838-4.344,7.068
			c-1.818,3.232-3.636,6.666-5.449,10.301c-1.817,3.637-3.403,7.17-4.75,10.604c-1.347,3.436-2.021,6.096-2.021,7.98
			c0,0.941,0.168,1.918,0.506,2.928c0.334,1.012,1.043,1.516,2.121,1.516c0.808,0,1.984-0.404,3.535-1.213
			c1.545-0.809,3.299-1.883,5.25-3.23c1.949-1.344,4.041-2.93,6.26-4.748c2.224-1.816,4.478-3.803,6.771-5.957
			c3.496-3.363,6.693-6.766,9.593-10.199c2.893-3.434,5.282-6.16,7.17-8.18c0.809-0.672,1.479-1.244,2.02-1.717
			c0.535-0.469,1.012-0.707,1.412-0.707c1.752,0,3.233,1.078,4.444,3.232c1.212,2.154,1.818,4.311,1.818,6.461
			c0,3.232-0.606,6.195-1.818,8.889c-1.211,2.695-1.817,5.654-1.817,8.887c0,1.615,0.875,2.594,2.625,2.928
			c1.75,0.338,3.096,0.506,4.039,0.506C427.487,146.671,427.76,146.808,427.76,147.073z"/>
	</g>
	<g>
		<path fill="#FFFFFF" d="M24.203,203.606l0.119-2.48h-0.119l-1.641,2.561l-9,11.76h-1.84v-20h3.199v12.2l-0.119,2.359h0.16
			l1.56-2.479l9-12.08h1.88v20h-3.199V203.606z"/>
		<path fill="#FFFFFF" d="M52.282,206.526v-2.6h2.8c0.48,0,0.953-0.08,1.42-0.24s0.887-0.38,1.26-0.66s0.674-0.613,0.9-1
			s0.34-0.793,0.34-1.22c0-1.04-0.359-1.773-1.08-2.2c-0.72-0.427-1.8-0.641-3.24-0.641c-1.039,0-1.993,0.156-2.859,0.467
			c-0.867,0.312-1.54,0.608-2.02,0.894l-0.92-2.439c0.799-0.453,1.739-0.854,2.819-1.2s2.366-0.521,3.86-0.521
			c4.426,0,6.64,1.641,6.64,4.92c0,0.935-0.3,1.848-0.899,2.74c-0.601,0.894-1.461,1.527-2.58,1.9v0.16
			c1.572,0.293,2.673,0.854,3.3,1.68c0.626,0.827,0.94,1.92,0.94,3.28c0,0.854-0.174,1.64-0.521,2.359
			c-0.347,0.721-0.867,1.347-1.56,1.88c-0.694,0.534-1.567,0.954-2.621,1.261c-1.053,0.306-2.273,0.46-3.66,0.46
			c-1.359,0-2.486-0.12-3.379-0.36c-0.895-0.24-1.7-0.533-2.42-0.88l0.92-2.64c0.613,0.347,1.353,0.613,2.22,0.8
			c0.866,0.187,1.806,0.279,2.819,0.279c1.627,0,2.867-0.279,3.721-0.84c0.854-0.56,1.279-1.413,1.279-2.56
			c0-0.96-0.399-1.713-1.199-2.26c-0.801-0.547-2.12-0.82-3.961-0.82H52.282z"/>
		<path fill="#FFFFFF" d="M102.482,220.526h-2.16l-0.6-5.08H84.682l-0.6,5.08h-2.16v-7.88h2.36c0.213-0.293,0.493-0.82,0.84-1.58
			s0.687-1.826,1.021-3.2c0.332-1.373,0.626-3.08,0.879-5.12c0.254-2.04,0.406-4.473,0.461-7.3h12.08v17.2h2.92V220.526z
			 M96.362,212.646v-14.4h-6c-0.054,1.12-0.147,2.34-0.28,3.66c-0.134,1.32-0.313,2.64-0.54,3.96s-0.514,2.567-0.86,3.74
			c-0.346,1.174-0.746,2.187-1.199,3.04H96.362z"/>
		<path fill="#FFFFFF" d="M122.921,196.927c1.013-0.613,2.193-1.066,3.54-1.36c1.347-0.293,2.754-0.44,4.221-0.44
			c1.386,0,2.5,0.188,3.34,0.561s1.479,0.859,1.92,1.46c0.439,0.6,0.732,1.26,0.88,1.979c0.146,0.721,0.22,1.44,0.22,2.16
			c0,1.601-0.04,3.16-0.12,4.68c-0.079,1.521-0.12,2.961-0.12,4.32c0,0.987,0.041,1.92,0.12,2.8c0.08,0.88,0.227,1.694,0.44,2.44
			h-2.36l-0.84-2.8h-0.2c-0.24,0.373-0.54,0.739-0.9,1.1c-0.359,0.36-0.793,0.68-1.299,0.96c-0.508,0.28-1.094,0.514-1.761,0.7
			s-1.427,0.28-2.28,0.28s-1.646-0.134-2.379-0.4c-0.734-0.267-1.367-0.646-1.9-1.14c-0.534-0.493-0.954-1.087-1.26-1.78
			c-0.308-0.693-0.461-1.48-0.461-2.36c0-1.173,0.24-2.152,0.721-2.939c0.479-0.786,1.152-1.413,2.02-1.88
			c0.866-0.467,1.906-0.801,3.12-1c1.214-0.2,2.554-0.301,4.021-0.301c0.373,0,0.74,0,1.1,0s0.727,0.027,1.1,0.08
			c0.08-0.8,0.12-1.52,0.12-2.159c0-1.467-0.294-2.493-0.88-3.08c-0.587-0.587-1.654-0.88-3.199-0.88
			c-0.455,0-0.94,0.034-1.461,0.103c-0.52,0.069-1.054,0.164-1.6,0.288c-0.547,0.124-1.066,0.274-1.561,0.453
			c-0.493,0.178-0.926,0.376-1.3,0.596L122.921,196.927z M128.602,212.966c0.746,0,1.412-0.1,2-0.3c0.586-0.2,1.093-0.453,1.52-0.76
			c0.426-0.307,0.78-0.646,1.061-1.02c0.279-0.374,0.486-0.733,0.619-1.08v-3.32c-0.373-0.026-0.754-0.046-1.14-0.06
			c-0.387-0.014-0.767-0.021-1.14-0.021c-0.827,0-1.635,0.047-2.42,0.14c-0.787,0.094-1.48,0.268-2.08,0.521
			c-0.601,0.254-1.08,0.6-1.44,1.04c-0.36,0.439-0.54,0.993-0.54,1.66c0,0.934,0.333,1.699,1,2.3
			C126.707,212.666,127.561,212.966,128.602,212.966z"/>
		<path fill="#FFFFFF" d="M175.4,215.927c-1.439,0-2.674-0.221-3.699-0.66c-1.027-0.44-1.867-1.066-2.521-1.88
			s-1.147-1.801-1.479-2.96c-0.334-1.16-0.541-2.434-0.621-3.82h-4v8.84h-3.199v-20h3.199v8.36h4.041
			c0.213-2.854,0.992-5.04,2.34-6.561c1.346-1.52,3.354-2.28,6.02-2.28c1.467,0,2.713,0.247,3.74,0.74
			c1.026,0.494,1.866,1.2,2.52,2.12c0.654,0.92,1.127,2.027,1.42,3.32c0.294,1.294,0.44,2.727,0.44,4.3
			c0,3.387-0.673,5.98-2.021,7.78C180.234,215.026,178.174,215.927,175.4,215.927z M170.201,205.446c0,1.04,0.08,2.027,0.24,2.96
			c0.16,0.934,0.441,1.754,0.844,2.46c0.401,0.707,0.943,1.26,1.627,1.66c0.682,0.4,1.531,0.6,2.549,0.6
			c1.715,0,2.945-0.62,3.695-1.859c0.75-1.24,1.125-3.181,1.125-5.82c0-1.04-0.074-2.026-0.222-2.96s-0.408-1.753-0.783-2.46
			c-0.375-0.706-0.87-1.26-1.485-1.66c-0.617-0.4-1.406-0.6-2.369-0.6c-1.848,0-3.18,0.62-3.996,1.859
			C170.609,200.866,170.201,202.807,170.201,205.446z"/>
		<path fill="#FFFFFF" d="M218.2,198.246h-6.28v17.2h-3.199v-17.2h-6.28v-2.8h15.76V198.246z"/>
		<path fill="#FFFFFF" d="M267.561,206.526v-2.6h2.8c0.48,0,0.953-0.08,1.42-0.24s0.887-0.38,1.26-0.66s0.674-0.613,0.9-1
			s0.34-0.793,0.34-1.22c0-1.04-0.359-1.773-1.08-2.2c-0.72-0.427-1.8-0.641-3.24-0.641c-1.039,0-1.993,0.156-2.859,0.467
			c-0.867,0.312-1.54,0.608-2.02,0.894l-0.92-2.439c0.799-0.453,1.739-0.854,2.819-1.2s2.366-0.521,3.86-0.521
			c4.426,0,6.64,1.641,6.64,4.92c0,0.935-0.3,1.848-0.899,2.74c-0.601,0.894-1.461,1.527-2.58,1.9v0.16
			c1.572,0.293,2.673,0.854,3.3,1.68c0.626,0.827,0.94,1.92,0.94,3.28c0,0.854-0.174,1.64-0.521,2.359
			c-0.347,0.721-0.867,1.347-1.56,1.88c-0.694,0.534-1.567,0.954-2.621,1.261c-1.053,0.306-2.273,0.46-3.66,0.46
			c-1.359,0-2.486-0.12-3.379-0.36c-0.895-0.24-1.7-0.533-2.42-0.88l0.92-2.64c0.613,0.347,1.353,0.613,2.22,0.8
			c0.866,0.187,1.806,0.279,2.819,0.279c1.627,0,2.867-0.279,3.721-0.84c0.854-0.56,1.279-1.413,1.279-2.56
			c0-0.96-0.399-1.713-1.199-2.26c-0.801-0.547-2.12-0.82-3.961-0.82H267.561z"/>
		<path fill="#FFFFFF" d="M317.76,220.526h-2.159l-0.601-5.08h-15.04l-0.6,5.08h-2.16v-7.88h2.359c0.213-0.293,0.494-0.82,0.84-1.58
			c0.347-0.76,0.688-1.826,1.021-3.2c0.333-1.373,0.626-3.08,0.88-5.12s0.406-4.473,0.46-7.3h12.08v17.2h2.92V220.526z
			 M311.64,212.646v-14.4h-6c-0.053,1.12-0.146,2.34-0.279,3.66c-0.135,1.32-0.314,2.64-0.541,3.96s-0.514,2.567-0.859,3.74
			c-0.347,1.174-0.747,2.187-1.2,3.04H311.64z"/>
		<path fill="#FFFFFF" d="M353.12,213.847c-0.801,0.64-1.808,1.146-3.021,1.52c-1.214,0.373-2.5,0.561-3.86,0.561
			c-1.52,0-2.84-0.247-3.96-0.74s-2.04-1.2-2.76-2.12s-1.254-2.021-1.601-3.3c-0.346-1.28-0.52-2.721-0.52-4.32
			c0-3.413,0.76-6.013,2.28-7.8c1.52-1.786,3.692-2.681,6.52-2.681c0.906,0,1.813,0.101,2.72,0.301
			c0.906,0.199,1.721,0.58,2.44,1.14s1.306,1.354,1.761,2.38c0.453,1.027,0.68,2.38,0.68,4.061c0,0.88-0.08,1.854-0.24,2.92h-12.84
			c0,1.174,0.119,2.214,0.359,3.12s0.613,1.673,1.12,2.3s1.167,1.106,1.98,1.439c0.813,0.334,1.806,0.5,2.979,0.5
			c0.906,0,1.813-0.16,2.721-0.479c0.906-0.32,1.586-0.693,2.039-1.12L353.12,213.847z M346.239,197.767
			c-1.574,0-2.834,0.413-3.779,1.239c-0.947,0.827-1.514,2.24-1.701,4.24h9.921c0-2.026-0.388-3.446-1.16-4.26
			C348.745,198.173,347.652,197.767,346.239,197.767z"/>
		<path fill="#FFFFFF" d="M389.28,214.126c-0.801,0.587-1.748,1.034-2.841,1.34c-1.094,0.307-2.239,0.461-3.44,0.461
			c-1.547,0-2.854-0.247-3.92-0.74s-1.939-1.2-2.619-2.12s-1.174-2.026-1.48-3.32c-0.307-1.293-0.46-2.726-0.46-4.3
			c0-3.387,0.746-5.98,2.24-7.78c1.493-1.8,3.64-2.7,6.44-2.7c1.279,0,2.365,0.101,3.26,0.301c0.893,0.199,1.699,0.486,2.42,0.859
			l-0.92,2.761c-0.614-0.347-1.294-0.62-2.041-0.82c-0.746-0.2-1.547-0.3-2.399-0.3c-3.786,0-5.681,2.56-5.681,7.68
			c0,1.014,0.101,1.98,0.301,2.9c0.199,0.92,0.533,1.733,1,2.439c0.467,0.707,1.08,1.273,1.84,1.7s1.7,0.64,2.82,0.64
			c0.96,0,1.82-0.146,2.58-0.439c0.76-0.293,1.38-0.627,1.859-1L389.28,214.126z"/>
		<path fill="#FFFFFF" d="M413.679,203.086c0.641-0.105,1.254-0.18,1.84-0.22s1.146-0.06,1.68-0.06c1.387,0,2.561,0.153,3.521,0.46
			s1.74,0.727,2.34,1.26s1.033,1.167,1.301,1.9c0.266,0.733,0.4,1.514,0.4,2.34c0,2.427-0.729,4.187-2.182,5.279
			c-1.453,1.094-3.713,1.641-6.779,1.641c-1.706,0-3.479-0.08-5.319-0.24v-20h3.199V203.086z M413.679,212.646
			c0.986,0.16,1.934,0.24,2.84,0.24c1.68,0,2.92-0.327,3.721-0.98c0.8-0.653,1.199-1.58,1.199-2.78c0-1.066-0.387-1.946-1.16-2.64
			s-1.986-1.04-3.639-1.04c-0.455,0-0.947,0.014-1.48,0.04c-0.534,0.026-1.027,0.106-1.48,0.24V212.646z"/>
	</g>
</g>
</svg>
