<?xml version="1.0" encoding="utf-8"?>
<!-- Generator: Adobe Illustrator 15.1.0, SVG Export Plug-In . SVG Version: 6.00 Build 0)  -->
<!DOCTYPE svg PUBLIC "-//W3C//DTD SVG 1.1//EN" "http://www.w3.org/Graphics/SVG/1.1/DTD/svg11.dtd">
<svg version="1.1" id="Layer_1" xmlns="http://www.w3.org/2000/svg" xmlns:xlink="http://www.w3.org/1999/xlink" x="0px" y="0px"
	 width="320.315px" height="39.685px" viewBox="0 0 320.315 39.685" enable-background="new 0 0 320.315 39.685"
	 xml:space="preserve">
<g>
	<polygon fill="#404041" points="86.796,5.764 86.901,4.389 86.829,4.389 86.09,5.791 80.284,13.9 79.446,13.9 79.446,1.884 
		80.868,1.884 80.868,10.125 80.744,11.487 80.816,11.487 81.57,10.073 87.38,1.884 88.223,1.884 88.223,13.9 86.796,13.9 	"/>
	<g>
		<defs>
			<rect id="SVGID_1_" x="0" y="0.021" width="320.317" height="39.643"/>
		</defs>
		<clipPath id="SVGID_2_">
			<use xlink:href="#SVGID_1_"  overflow="visible"/>
		</clipPath>
		<path clip-path="url(#SVGID_2_)" fill="#404041" d="M91.828,10.074V8.96h1.205c0.208,0,0.41-0.04,0.609-0.105
			c0.199-0.066,0.382-0.163,0.543-0.282c0.162-0.118,0.288-0.266,0.387-0.432c0.095-0.166,0.145-0.338,0.145-0.518
			c0-0.458-0.157-0.765-0.465-0.955c-0.308-0.179-0.773-0.275-1.389-0.275c-0.445,0-0.859,0.074-1.23,0.205
			c-0.37,0.13-0.661,0.264-0.865,0.384l-0.397-1.048c0.346-0.199,0.745-0.37,1.21-0.512c0.465-0.152,1.017-0.222,1.661-0.222
			c1.898,0,2.851,0.697,2.851,2.111c0,0.397-0.13,0.788-0.386,1.173c-0.255,0.383-0.628,0.657-1.113,0.818v0.066
			c0.678,0.132,1.15,0.37,1.421,0.721c0.27,0.36,0.4,0.826,0.4,1.413c0,0.371-0.072,0.708-0.224,1.012
			c-0.146,0.313-0.369,0.582-0.669,0.81c-0.293,0.228-0.671,0.405-1.122,0.543c-0.455,0.127-0.978,0.191-1.575,0.191
			c-0.584,0-1.065-0.052-1.45-0.157c-0.384-0.094-0.731-0.228-1.041-0.37l0.393-1.138c0.266,0.152,0.586,0.266,0.956,0.341
			c0.37,0.086,0.775,0.119,1.211,0.119c0.698,0,1.233-0.119,1.598-0.356c0.366-0.236,0.551-0.606,0.551-1.101
			c0-0.407-0.176-0.731-0.516-0.974c-0.343-0.231-0.912-0.349-1.703-0.349H91.828z"/>
		<path clip-path="url(#SVGID_2_)" fill="#404041" d="M103.544,12.707V6.522h-2.574c-0.028,0.473-0.067,1.002-0.124,1.567
			c-0.057,0.564-0.135,1.138-0.229,1.702c-0.101,0.565-0.221,1.104-0.368,1.605c-0.152,0.502-0.323,0.938-0.518,1.31H103.544z
			 M106.172,16.086h-0.93l-0.256-2.187h-6.459l-0.255,2.187h-0.93v-3.38h1.016c0.09-0.134,0.208-0.36,0.36-0.687
			c0.152-0.327,0.292-0.782,0.438-1.375c0.141-0.583,0.271-1.312,0.38-2.19c0.109-0.877,0.173-1.923,0.196-3.137h5.188v7.389h1.252
			V16.086z"/>
		<path clip-path="url(#SVGID_2_)" fill="#404041" d="M110.179,12.838c0.317,0,0.604-0.045,0.854-0.125
			c0.256-0.09,0.474-0.199,0.653-0.327c0.186-0.128,0.334-0.277,0.455-0.438c0.123-0.161,0.209-0.318,0.266-0.46v-1.428
			c-0.161-0.009-0.323-0.025-0.49-0.03c-0.166-0.005-0.329-0.007-0.486-0.007c-0.355,0-0.7,0.016-1.041,0.059
			c-0.336,0.043-0.635,0.114-0.892,0.223c-0.255,0.108-0.464,0.261-0.621,0.446c-0.155,0.194-0.23,0.43-0.23,0.713
			c0,0.408,0.144,0.728,0.433,0.989C109.364,12.713,109.728,12.838,110.179,12.838 M107.737,5.948
			c0.438-0.255,0.942-0.455,1.52-0.578c0.578-0.132,1.184-0.195,1.813-0.195c0.593,0,1.071,0.086,1.435,0.247
			c0.36,0.162,0.635,0.363,0.826,0.624c0.185,0.262,0.312,0.544,0.374,0.847c0.067,0.313,0.094,0.626,0.094,0.93
			c0,0.692-0.015,1.361-0.048,2.016c-0.033,0.655-0.053,1.27-0.053,1.849c0,0.426,0.02,0.826,0.053,1.203
			c0.034,0.38,0.094,0.726,0.19,1.049h-1.016l-0.36-1.205h-0.085c-0.104,0.161-0.234,0.321-0.386,0.478
			c-0.157,0.157-0.344,0.289-0.563,0.407c-0.216,0.128-0.463,0.22-0.753,0.306c-0.284,0.076-0.612,0.119-0.976,0.119
			c-0.371,0-0.708-0.057-1.027-0.171c-0.313-0.113-0.585-0.277-0.813-0.49c-0.227-0.214-0.41-0.463-0.54-0.766
			c-0.136-0.295-0.2-0.631-0.2-1.011c0-0.502,0.104-0.928,0.313-1.263c0.203-0.337,0.495-0.607,0.865-0.812
			c0.37-0.195,0.815-0.341,1.342-0.432c0.516-0.081,1.093-0.126,1.724-0.126h0.471c0.157,0,0.311,0.01,0.471,0.039
			c0.04-0.352,0.052-0.655,0.052-0.929c0-0.626-0.122-1.068-0.378-1.324c-0.247-0.257-0.71-0.379-1.375-0.379
			c-0.19,0-0.401,0.011-0.624,0.044c-0.222,0.025-0.451,0.067-0.688,0.123c-0.238,0.052-0.459,0.116-0.672,0.2
			c-0.209,0.07-0.396,0.161-0.558,0.249L107.737,5.948z"/>
		<polygon clip-path="url(#SVGID_2_)" fill="#404041" points="121.878,6.522 119.179,6.522 119.179,13.9 117.805,13.9 
			117.805,6.522 115.106,6.522 115.106,5.317 121.878,5.317 		"/>
		<path clip-path="url(#SVGID_2_)" fill="#404041" d="M126.274,6.313c-0.679,0-1.22,0.176-1.624,0.537
			c-0.408,0.351-0.652,0.957-0.728,1.809h4.258c0-0.861-0.165-1.471-0.497-1.827C127.35,6.487,126.881,6.313,126.274,6.313
			 M129.228,13.217c-0.34,0.276-0.775,0.493-1.296,0.655c-0.522,0.162-1.074,0.237-1.657,0.237c-0.655,0-1.224-0.107-1.703-0.32
			c-0.477-0.203-0.872-0.512-1.186-0.906c-0.308-0.393-0.534-0.87-0.686-1.42c-0.147-0.549-0.223-1.166-0.223-1.849
			c0-1.47,0.328-2.584,0.977-3.353c0.654-0.768,1.589-1.153,2.803-1.153c0.389,0,0.778,0.046,1.166,0.126
			c0.389,0.09,0.743,0.254,1.049,0.49c0.313,0.249,0.563,0.586,0.757,1.028c0.195,0.441,0.289,1.018,0.289,1.738
			c0,0.378-0.032,0.801-0.099,1.256h-5.515c0,0.503,0.052,0.949,0.151,1.337c0.105,0.39,0.267,0.718,0.484,0.989
			c0.219,0.271,0.5,0.479,0.851,0.627c0.352,0.136,0.776,0.205,1.279,0.205c0.388,0,0.783-0.066,1.171-0.198
			c0.388-0.143,0.678-0.304,0.872-0.484L129.228,13.217z"/>
		<path clip-path="url(#SVGID_2_)" fill="#404041" d="M135.929,6.522h-2.495c-0.033,0.475-0.065,1-0.1,1.553
			c-0.032,0.555-0.084,1.109-0.156,1.665c-0.068,0.556-0.159,1.091-0.274,1.599c-0.114,0.507-0.258,0.955-0.439,1.344
			c-0.175,0.389-0.394,0.704-0.649,0.937c-0.261,0.242-0.567,0.357-0.922,0.357c-0.218,0-0.403-0.008-0.564-0.038
			c-0.161-0.019-0.304-0.062-0.433-0.119l0.209-1.151c0.132,0.046,0.284,0.065,0.445,0.065c0.228,0,0.437-0.09,0.615-0.289
			c0.187-0.201,0.348-0.562,0.485-1.107c0.132-0.546,0.25-1.302,0.34-2.261c0.096-0.957,0.157-2.214,0.191-3.76h5.115V13.9h-1.369
			V6.522z"/>
		<path clip-path="url(#SVGID_2_)" fill="#404041" d="M141.32,8.594c0.276-0.047,0.542-0.074,0.792-0.088
			c0.251-0.023,0.493-0.03,0.72-0.03c0.593,0,1.1,0.063,1.513,0.201c0.412,0.128,0.747,0.306,1.003,0.534
			c0.261,0.237,0.442,0.51,0.557,0.818c0.119,0.317,0.176,0.652,0.176,1.001c0,1.044-0.31,1.803-0.937,2.278
			c-0.626,0.463-1.595,0.697-2.914,0.697c-0.729,0-1.495-0.029-2.285-0.105V5.317h1.375V8.594z M141.32,12.706
			c0.427,0.067,0.83,0.104,1.219,0.104c0.72,0,1.257-0.145,1.598-0.424c0.348-0.279,0.517-0.676,0.517-1.199
			c0-0.455-0.165-0.833-0.498-1.128c-0.333-0.303-0.853-0.445-1.565-0.445c-0.191,0-0.401,0.005-0.629,0.014
			c-0.233,0.009-0.441,0.048-0.641,0.105V12.706z"/>
		<path clip-path="url(#SVGID_2_)" fill="#404041" d="M153.588,13.336c-0.346,0.257-0.749,0.443-1.218,0.581
			c-0.47,0.128-0.963,0.192-1.481,0.192c-0.664,0-1.223-0.107-1.683-0.32c-0.455-0.204-0.831-0.512-1.123-0.906
			c-0.292-0.393-0.505-0.872-0.638-1.428c-0.129-0.555-0.198-1.168-0.198-1.842c0-1.46,0.322-2.572,0.962-3.345
			s1.56-1.159,2.766-1.159c0.55,0,1.017,0.045,1.401,0.125c0.384,0.09,0.731,0.211,1.035,0.373l-0.393,1.19
			c-0.261-0.152-0.554-0.268-0.877-0.358c-0.318-0.082-0.664-0.126-1.029-0.126c-1.625,0-2.438,1.101-2.438,3.3
			c0,0.437,0.041,0.847,0.132,1.24c0.08,0.394,0.227,0.751,0.426,1.048c0.2,0.309,0.465,0.547,0.792,0.728
			c0.327,0.19,0.728,0.273,1.211,0.273c0.408,0,0.78-0.06,1.107-0.184c0.327-0.124,0.59-0.271,0.799-0.432L153.588,13.336z"/>
		<polygon clip-path="url(#SVGID_2_)" fill="#404041" points="160.684,6.522 157.983,6.522 157.983,13.9 156.608,13.9 
			156.608,6.522 153.915,6.522 153.915,5.317 160.684,5.317 		"/>
		<path clip-path="url(#SVGID_2_)" fill="#404041" d="M165.098,8.936c0.207,0,0.408-0.028,0.604-0.095
			c0.191-0.077,0.365-0.164,0.523-0.292c0.152-0.119,0.277-0.252,0.375-0.414c0.1-0.162,0.146-0.332,0.146-0.511
			c0-0.466-0.137-0.787-0.41-0.962c-0.275-0.174-0.756-0.268-1.441-0.268c-0.371,0-0.658,0.016-0.873,0.024
			c-0.207,0.01-0.412,0.02-0.607,0.028v2.49H165.098z M163.414,12.758c0.217,0.02,0.434,0.032,0.643,0.052
			c0.215,0.01,0.463,0.015,0.75,0.015c0.766,0,1.336-0.11,1.709-0.329c0.371-0.218,0.557-0.593,0.557-1.113
			c0-0.417-0.156-0.753-0.473-1.014c-0.314-0.25-0.873-0.386-1.672-0.386h-1.514V12.758z M162.037,5.332
			c0.404-0.02,0.822-0.052,1.266-0.08c0.441-0.039,0.988-0.053,1.639-0.053c1.137,0,1.947,0.172,2.441,0.518
			c0.494,0.346,0.742,0.88,0.742,1.593c0,0.397-0.121,0.788-0.355,1.173c-0.236,0.383-0.621,0.666-1.16,0.856v0.067
			c0.672,0.123,1.154,0.354,1.426,0.706c0.273,0.342,0.412,0.796,0.412,1.375c0,0.891-0.318,1.531-0.963,1.939
			c-0.639,0.398-1.604,0.602-2.885,0.602c-0.479,0-0.93-0.021-1.338-0.045c-0.418-0.033-0.82-0.059-1.225-0.097V5.332z"/>
		<path clip-path="url(#SVGID_2_)" fill="#404041" d="M171.559,9.614c0,0.437,0.039,0.848,0.127,1.247
			c0.088,0.408,0.221,0.754,0.408,1.047c0.174,0.305,0.42,0.541,0.715,0.721c0.301,0.191,0.658,0.275,1.084,0.275
			c1.557,0.02,2.336-1.08,2.336-3.29c0-0.445-0.037-0.872-0.127-1.27c-0.09-0.41-0.223-0.755-0.4-1.049
			c-0.182-0.304-0.428-0.539-0.723-0.714c-0.303-0.186-0.658-0.268-1.086-0.268C172.336,6.303,171.559,7.404,171.559,9.614
			 M170.131,9.614c0-1.461,0.326-2.573,0.975-3.346c0.643-0.773,1.574-1.16,2.787-1.16c0.645,0,1.203,0.107,1.674,0.321
			c0.477,0.214,0.869,0.512,1.182,0.905c0.305,0.394,0.541,0.874,0.682,1.427c0.152,0.555,0.225,1.169,0.225,1.853
			c0,1.451-0.326,2.563-0.975,3.336c-0.641,0.773-1.572,1.16-2.787,1.16c-0.643,0-1.203-0.107-1.672-0.32
			c-0.477-0.203-0.869-0.512-1.18-0.905c-0.307-0.394-0.541-0.873-0.684-1.428C170.207,10.901,170.131,10.288,170.131,9.614"/>
		<polygon clip-path="url(#SVGID_2_)" fill="#404041" points="191.525,3.155 185.973,3.155 185.973,13.899 184.543,13.899 
			184.543,1.885 192.941,1.885 192.941,13.899 191.525,13.899 		"/>
		<path clip-path="url(#SVGID_2_)" fill="#404041" d="M196.674,9.614c0,0.437,0.045,0.848,0.127,1.247
			c0.09,0.408,0.221,0.754,0.4,1.047c0.189,0.305,0.428,0.541,0.729,0.721c0.295,0.191,0.66,0.275,1.08,0.275
			c1.564,0.02,2.342-1.08,2.342-3.29c0-0.445-0.045-0.872-0.137-1.27c-0.08-0.41-0.221-0.755-0.4-1.049
			c-0.189-0.304-0.428-0.539-0.721-0.714c-0.293-0.186-0.658-0.268-1.084-0.268C197.453,6.303,196.674,7.404,196.674,9.614
			 M195.248,9.614c0-1.461,0.324-2.573,0.963-3.346c0.65-0.773,1.584-1.16,2.799-1.16c0.645,0,1.201,0.107,1.68,0.321
			c0.467,0.214,0.861,0.512,1.174,0.905c0.303,0.394,0.529,0.874,0.691,1.427c0.143,0.555,0.225,1.169,0.225,1.853
			c0,1.451-0.326,2.563-0.977,3.336s-1.582,1.16-2.793,1.16c-0.637,0-1.195-0.107-1.674-0.32c-0.479-0.203-0.869-0.512-1.174-0.905
			c-0.313-0.394-0.539-0.873-0.691-1.428C195.318,10.901,195.248,10.288,195.248,9.614"/>
		<path clip-path="url(#SVGID_2_)" fill="#404041" d="M209.449,6.522h-2.479c-0.039,0.475-0.076,1-0.105,1.553
			c-0.037,0.555-0.09,1.109-0.166,1.665c-0.055,0.556-0.152,1.091-0.264,1.599c-0.115,0.507-0.264,0.955-0.441,1.344
			c-0.184,0.389-0.402,0.704-0.652,0.937c-0.26,0.242-0.563,0.357-0.922,0.357c-0.209,0-0.404-0.008-0.564-0.038
			c-0.162-0.019-0.299-0.062-0.434-0.119l0.209-1.151c0.143,0.046,0.285,0.065,0.447,0.065c0.227,0,0.436-0.09,0.613-0.289
			c0.191-0.201,0.344-0.562,0.486-1.107c0.143-0.546,0.256-1.302,0.34-2.261c0.098-0.957,0.156-2.214,0.186-3.76h5.133V13.9h-1.387
			V6.522z"/>
		<polygon clip-path="url(#SVGID_2_)" fill="#404041" points="218.83,8.817 218.893,7.755 218.83,7.755 218.133,8.854 
			214.27,13.899 213.48,13.899 213.48,5.318 214.846,5.318 214.846,10.558 214.805,11.567 214.859,11.567 215.539,10.505 
			219.404,5.318 220.215,5.318 220.215,13.899 218.83,13.899 		"/>
		<polygon clip-path="url(#SVGID_2_)" fill="#404041" points="228.328,6.522 225.639,6.522 225.639,13.9 224.264,13.9 
			224.264,6.522 221.566,6.522 221.566,5.317 228.328,5.317 		"/>
		<path clip-path="url(#SVGID_2_)" fill="#404041" d="M232.729,6.313c-0.674,0-1.215,0.176-1.619,0.537
			c-0.402,0.351-0.652,0.957-0.727,1.809h4.258c0-0.861-0.166-1.471-0.498-1.827C233.809,6.487,233.346,6.313,232.729,6.313
			 M235.688,13.217c-0.34,0.276-0.775,0.493-1.303,0.655c-0.516,0.162-1.066,0.237-1.656,0.237c-0.654,0-1.219-0.107-1.693-0.32
			c-0.482-0.203-0.877-0.512-1.189-0.906c-0.314-0.393-0.541-0.87-0.682-1.42c-0.152-0.549-0.225-1.166-0.225-1.849
			c0-1.47,0.328-2.584,0.982-3.353c0.645-0.768,1.578-1.153,2.793-1.153c0.389,0,0.777,0.046,1.168,0.126
			c0.387,0.09,0.732,0.254,1.047,0.49c0.313,0.249,0.559,0.586,0.758,1.028c0.199,0.441,0.289,1.018,0.289,1.738
			c0,0.378-0.037,0.801-0.096,1.256h-5.514c0,0.503,0.041,0.949,0.146,1.337c0.104,0.39,0.266,0.718,0.486,0.989
			c0.217,0.271,0.498,0.479,0.844,0.627c0.357,0.136,0.775,0.205,1.289,0.205c0.377,0,0.777-0.066,1.166-0.198
			c0.389-0.143,0.678-0.304,0.867-0.484L235.688,13.217z"/>
		<polygon clip-path="url(#SVGID_2_)" fill="#404041" points="240.014,9.51 237.131,5.317 238.807,5.317 240.443,7.688 
			240.928,8.66 241.426,7.688 243.09,5.317 244.635,5.317 241.74,9.443 244.807,13.9 243.182,13.9 241.361,11.292 240.848,10.258 
			240.311,11.292 238.453,13.9 236.922,13.9 		"/>
		<polygon clip-path="url(#SVGID_2_)" fill="#404041" points="251.867,10.112 247.988,10.112 247.988,13.899 246.613,13.899 
			246.613,5.318 247.988,5.318 247.988,8.907 251.867,8.907 251.867,5.318 253.242,5.318 253.242,13.899 251.867,13.899 		"/>
		<polygon clip-path="url(#SVGID_2_)" fill="#404041" points="261.248,8.817 261.299,7.755 261.248,7.755 260.541,8.854 
			256.676,13.899 255.889,13.899 255.889,5.318 257.266,5.318 257.266,10.558 257.211,11.567 257.289,11.567 257.957,10.505 
			261.822,5.318 262.621,5.318 262.621,13.899 261.248,13.899 		"/>
		<path clip-path="url(#SVGID_2_)" fill="#404041" d="M266.16,5.318v2.333c0,0.313,0.014,0.59,0.055,0.833
			c0.035,0.252,0.102,0.465,0.207,0.64c0.105,0.176,0.256,0.308,0.445,0.407c0.189,0.1,0.453,0.149,0.773,0.149
			c0.512,0,0.938-0.057,1.271-0.169c0.33-0.114,0.586-0.248,0.758-0.38V5.318h1.375v8.582h-1.375v-3.604
			c-0.189,0.115-0.453,0.238-0.818,0.38c-0.365,0.132-0.852,0.208-1.486,0.208c-0.426,0-0.793-0.046-1.115-0.141
			c-0.322-0.086-0.592-0.247-0.809-0.484c-0.217-0.229-0.385-0.526-0.492-0.905c-0.109-0.38-0.154-0.849-0.154-1.428V5.318H266.16z"
			/>
		<path clip-path="url(#SVGID_2_)" fill="#404041" d="M277.006,6.313c-0.684,0-1.215,0.176-1.619,0.537
			c-0.412,0.351-0.652,0.957-0.738,1.809h4.27c0-0.861-0.176-1.471-0.508-1.827C278.076,6.487,277.613,6.313,277.006,6.313
			 M279.955,13.217c-0.34,0.276-0.775,0.493-1.291,0.655c-0.518,0.162-1.068,0.237-1.658,0.237c-0.654,0-1.229-0.107-1.703-0.32
			c-0.482-0.203-0.877-0.512-1.191-0.906c-0.303-0.393-0.539-0.87-0.68-1.42c-0.152-0.549-0.223-1.166-0.223-1.849
			c0-1.47,0.326-2.584,0.98-3.353c0.652-0.768,1.578-1.153,2.793-1.153c0.396,0,0.777,0.046,1.176,0.126
			c0.377,0.09,0.736,0.254,1.039,0.49c0.313,0.249,0.57,0.586,0.758,1.028c0.199,0.441,0.299,1.018,0.299,1.738
			c0,0.378-0.037,0.801-0.104,1.256h-5.516c0,0.503,0.053,0.949,0.146,1.337c0.104,0.39,0.275,0.718,0.494,0.989
			c0.209,0.271,0.49,0.479,0.846,0.627c0.348,0.136,0.775,0.205,1.279,0.205c0.389,0,0.777-0.066,1.166-0.198
			c0.389-0.143,0.688-0.304,0.879-0.484L279.955,13.217z"/>
		<path clip-path="url(#SVGID_2_)" fill="#404041" d="M288.088,13.336c-0.34,0.257-0.754,0.443-1.217,0.581
			c-0.475,0.128-0.969,0.192-1.482,0.192c-0.674,0-1.232-0.107-1.688-0.32c-0.455-0.204-0.832-0.512-1.121-0.906
			c-0.299-0.393-0.502-0.872-0.641-1.428c-0.127-0.555-0.203-1.168-0.203-1.842c0-1.46,0.324-2.572,0.969-3.345
			c0.646-0.773,1.559-1.159,2.766-1.159c0.549,0,1.021,0.045,1.406,0.125c0.373,0.09,0.727,0.211,1.029,0.373l-0.391,1.19
			c-0.268-0.152-0.555-0.268-0.869-0.358c-0.322-0.082-0.664-0.126-1.033-0.126c-1.621,0-2.449,1.101-2.449,3.3
			c0,0.437,0.047,0.847,0.137,1.24c0.08,0.394,0.229,0.751,0.422,1.048c0.205,0.309,0.471,0.547,0.797,0.728
			c0.328,0.19,0.727,0.273,1.213,0.273c0.406,0,0.779-0.06,1.105-0.184c0.328-0.124,0.596-0.271,0.805-0.432L288.088,13.336z"/>
		<polygon clip-path="url(#SVGID_2_)" fill="#404041" points="292.139,10.036 291.352,10.036 291.352,13.9 289.977,13.9 
			289.977,5.318 291.352,5.318 291.352,9.196 292.086,8.96 294.836,5.318 296.33,5.318 293.67,8.765 292.947,9.34 293.842,10.021 
			296.709,13.9 295.006,13.9 		"/>
		<path clip-path="url(#SVGID_2_)" fill="#404041" d="M298.938,9.614c0,0.437,0.045,0.848,0.137,1.247
			c0.078,0.408,0.219,0.754,0.398,1.047c0.189,0.305,0.428,0.541,0.721,0.721c0.295,0.191,0.66,0.275,1.086,0.275
			c1.557,0.02,2.334-1.08,2.334-3.29c0-0.445-0.045-0.872-0.127-1.27c-0.088-0.41-0.221-0.755-0.4-1.049
			c-0.189-0.304-0.426-0.539-0.73-0.714c-0.293-0.186-0.658-0.268-1.076-0.268C299.715,6.303,298.938,7.404,298.938,9.614
			 M297.51,9.614c0-1.461,0.324-2.573,0.975-3.346s1.572-1.16,2.795-1.16c0.637,0,1.193,0.107,1.674,0.321
			c0.477,0.214,0.871,0.512,1.172,0.905c0.313,0.394,0.541,0.874,0.691,1.427c0.152,0.555,0.225,1.169,0.225,1.853
			c0,1.451-0.326,2.563-0.965,3.336c-0.65,0.773-1.592,1.16-2.797,1.16c-0.645,0-1.201-0.107-1.68-0.32
			c-0.469-0.203-0.871-0.512-1.174-0.905c-0.305-0.394-0.535-0.873-0.691-1.428C297.592,10.901,297.51,10.288,297.51,9.614"/>
		<polygon clip-path="url(#SVGID_2_)" fill="#404041" points="312.221,6.522 308.58,6.522 308.58,13.9 307.203,13.9 307.203,5.317 
			312.221,5.317 		"/>
		<path clip-path="url(#SVGID_2_)" fill="#404041" d="M314.211,9.614c0,0.437,0.045,0.848,0.137,1.247
			c0.08,0.408,0.221,0.754,0.4,1.047c0.18,0.305,0.418,0.541,0.719,0.721c0.297,0.191,0.66,0.275,1.088,0.275
			c1.557,0.02,2.334-1.08,2.334-3.29c0-0.445-0.045-0.872-0.127-1.27c-0.09-0.41-0.221-0.755-0.41-1.049
			c-0.18-0.304-0.428-0.539-0.721-0.714c-0.293-0.186-0.658-0.268-1.076-0.268C314.99,6.303,314.211,7.404,314.211,9.614
			 M312.785,9.614c0-1.461,0.324-2.573,0.975-3.346c0.639-0.773,1.582-1.16,2.795-1.16c0.637,0,1.193,0.107,1.672,0.321
			c0.467,0.214,0.871,0.512,1.174,0.905c0.313,0.394,0.541,0.874,0.691,1.427c0.143,0.555,0.223,1.169,0.223,1.853
			c0,1.451-0.324,2.563-0.975,3.336s-1.572,1.16-2.785,1.16c-0.646,0-1.203-0.107-1.682-0.32c-0.479-0.203-0.859-0.512-1.174-0.905
			c-0.313-0.394-0.539-0.873-0.682-1.428C312.855,10.901,312.785,10.288,312.785,9.614"/>
		<path clip-path="url(#SVGID_2_)" fill="#404041" d="M81.839,33.105l0.483,1.65h0.085l0.377-1.664l1.673-5.543h1.376l-2.542,7.715
			c-0.193,0.561-0.387,1.105-0.576,1.637c-0.19,0.512-0.396,0.996-0.628,1.393c-0.228,0.418-0.483,0.748-0.773,0.99
			c-0.285,0.24-0.617,0.381-0.996,0.381c-0.412,0-0.75-0.066-1.015-0.18l0.242-1.191c0.147,0.066,0.294,0.092,0.426,0.092
			c0.323,0,0.636-0.158,0.93-0.516c0.298-0.336,0.546-0.912,0.74-1.729l-3.452-8.592h1.578L81.839,33.105z"/>
		<polygon clip-path="url(#SVGID_2_)" fill="#404041" points="92.567,32.334 88.683,32.334 88.683,36.141 87.308,36.141 
			87.308,27.549 88.683,27.549 88.683,31.129 92.567,31.129 92.567,27.549 93.942,27.549 93.942,36.141 92.567,36.141 		"/>
		<polygon clip-path="url(#SVGID_2_)" fill="#404041" points="101.947,31.059 102,29.986 101.947,29.986 101.246,31.086 
			97.381,36.141 96.588,36.141 96.588,27.549 97.958,27.549 97.958,32.777 97.911,33.809 97.978,33.809 98.651,32.736 
			102.516,27.549 103.321,27.549 103.321,36.141 101.947,36.141 		"/>
		<path clip-path="url(#SVGID_2_)" fill="#404041" d="M109.028,31.176c0.204,0,0.402-0.047,0.602-0.104
			c0.188-0.076,0.366-0.174,0.518-0.293c0.157-0.117,0.28-0.252,0.38-0.424c0.1-0.152,0.149-0.332,0.149-0.502
			c0-0.455-0.144-0.775-0.417-0.961c-0.276-0.186-0.755-0.258-1.442-0.258c-0.365,0-0.658,0.006-0.869,0.014
			c-0.209,0.01-0.411,0.02-0.612,0.027v2.5H109.028z M107.338,34.979c0.219,0.02,0.435,0.055,0.649,0.063
			c0.213,0.01,0.457,0.016,0.745,0.016c0.768,0,1.34-0.111,1.71-0.328c0.37-0.219,0.556-0.584,0.556-1.115
			c0-0.418-0.153-0.752-0.47-1.002c-0.313-0.271-0.876-0.396-1.671-0.396h-1.519V34.979z M105.969,27.563
			c0.398-0.02,0.817-0.043,1.259-0.09c0.44-0.027,0.988-0.043,1.643-0.043c1.133,0,1.944,0.164,2.436,0.508
			c0.494,0.367,0.741,0.881,0.741,1.602c0,0.41-0.117,0.791-0.354,1.186c-0.232,0.373-0.618,0.666-1.16,0.834v0.078
			c0.679,0.123,1.153,0.355,1.429,0.697c0.273,0.34,0.412,0.816,0.412,1.385c0,0.891-0.317,1.541-0.963,1.928
			c-0.64,0.41-1.604,0.613-2.883,0.613c-0.484,0-0.93-0.012-1.343-0.055c-0.412-0.023-0.819-0.051-1.217-0.078V27.563z"/>
		<path clip-path="url(#SVGID_2_)" fill="#404041" d="M117.857,28.545c-0.679,0-1.216,0.166-1.624,0.535
			c-0.408,0.352-0.653,0.947-0.733,1.811h4.263c0-0.873-0.166-1.471-0.497-1.816C118.933,28.707,118.464,28.545,117.857,28.545
			 M120.811,35.438c-0.345,0.287-0.779,0.504-1.296,0.656c-0.523,0.17-1.075,0.256-1.658,0.256c-0.655,0-1.218-0.105-1.703-0.318
			c-0.483-0.215-0.878-0.523-1.187-0.928c-0.308-0.383-0.534-0.85-0.686-1.398c-0.148-0.551-0.224-1.178-0.224-1.859
			c0-1.482,0.328-2.596,0.981-3.363c0.649-0.768,1.583-1.143,2.798-1.143c0.388,0,0.778,0.035,1.171,0.125
			c0.389,0.092,0.736,0.244,1.049,0.502c0.303,0.236,0.559,0.574,0.752,1.016c0.195,0.441,0.293,1.018,0.293,1.748
			c0,0.369-0.037,0.791-0.104,1.248h-5.515c0,0.514,0.053,0.957,0.154,1.336c0.102,0.398,0.264,0.729,0.482,0.988
			c0.215,0.281,0.5,0.469,0.851,0.627c0.347,0.137,0.776,0.215,1.279,0.215c0.388,0,0.777-0.076,1.166-0.207
			c0.388-0.133,0.682-0.305,0.877-0.494L120.811,35.438z"/>
		<path clip-path="url(#SVGID_2_)" fill="#404041" d="M126.74,28.545c-0.589,0-1.047,0.143-1.383,0.453
			c-0.342,0.309-0.576,0.766-0.714,1.391v4.248c0.203,0.172,0.442,0.293,0.703,0.363c0.266,0.092,0.616,0.145,1.046,0.145
			c0.793,0,1.416-0.301,1.886-0.883c0.459-0.604,0.688-1.473,0.688-2.611c0-0.465-0.037-0.895-0.117-1.289
			c-0.083-0.373-0.207-0.701-0.387-0.961c-0.175-0.279-0.403-0.49-0.688-0.633C127.495,28.625,127.147,28.545,126.74,28.545
			 M123.268,27.549h0.944l0.262,1.023h0.064c0.266-0.389,0.606-0.699,1.022-0.912c0.417-0.213,0.9-0.32,1.435-0.32
			c1.142,0,2.001,0.336,2.561,1.01c0.559,0.674,0.84,1.777,0.84,3.314c0,0.73-0.093,1.383-0.283,1.957s-0.453,1.074-0.799,1.463
			c-0.348,0.408-0.756,0.721-1.245,0.939c-0.489,0.219-1.032,0.326-1.625,0.326c-0.421,0-0.755-0.041-1.007-0.082
			c-0.241-0.063-0.509-0.135-0.794-0.279v3.586h-1.375V27.549z"/>
		<path clip-path="url(#SVGID_2_)" fill="#404041" d="M138.418,35.578c-0.345,0.246-0.749,0.441-1.218,0.57
			c-0.47,0.127-0.963,0.201-1.481,0.201c-0.664,0-1.222-0.105-1.682-0.318c-0.456-0.215-0.833-0.523-1.122-0.928
			c-0.294-0.383-0.507-0.852-0.641-1.428c-0.127-0.555-0.197-1.158-0.197-1.83c0-1.451,0.323-2.584,0.963-3.357
			c0.646-0.771,1.565-1.148,2.765-1.148c0.55,0,1.017,0.035,1.401,0.125c0.384,0.09,0.732,0.211,1.041,0.363l-0.398,1.189
			c-0.261-0.141-0.555-0.256-0.873-0.348c-0.323-0.092-0.663-0.125-1.028-0.125c-1.631,0-2.443,1.1-2.443,3.301
			c0,0.436,0.04,0.836,0.13,1.238c0.085,0.404,0.228,0.75,0.427,1.059c0.2,0.289,0.465,0.549,0.792,0.719
			c0.327,0.189,0.728,0.283,1.212,0.283c0.412,0,0.779-0.07,1.106-0.193c0.327-0.123,0.596-0.26,0.799-0.432L138.418,35.578z"/>
		<polygon clip-path="url(#SVGID_2_)" fill="#404041" points="145.669,31.059 145.722,29.986 145.669,29.986 144.963,31.086 
			141.098,36.141 140.311,36.141 140.311,27.549 141.686,27.549 141.686,32.777 141.633,33.809 141.7,33.809 142.368,32.736 
			146.233,27.549 147.043,27.549 147.043,36.141 145.669,36.141 		"/>
		<polygon clip-path="url(#SVGID_2_)" fill="#404041" points="155.167,28.754 152.468,28.754 152.468,36.141 151.094,36.141 
			151.094,28.754 148.4,28.754 148.4,27.549 155.167,27.549 		"/>
		<path clip-path="url(#SVGID_2_)" fill="#404041" d="M159.568,28.545c-0.679,0-1.217,0.166-1.624,0.535
			c-0.408,0.352-0.653,0.947-0.733,1.811h4.262c0-0.873-0.164-1.471-0.501-1.816C160.64,28.707,160.176,28.545,159.568,28.545
			 M162.521,35.438c-0.346,0.287-0.779,0.504-1.297,0.656c-0.521,0.17-1.074,0.256-1.656,0.256c-0.655,0-1.219-0.105-1.703-0.318
			c-0.483-0.215-0.877-0.523-1.187-0.928c-0.308-0.383-0.535-0.85-0.686-1.398c-0.147-0.551-0.224-1.178-0.224-1.859
			c0-1.482,0.328-2.596,0.981-3.363c0.649-0.768,1.584-1.143,2.799-1.143c0.387,0,0.777,0.035,1.167,0.125
			c0.392,0.092,0.737,0.244,1.05,0.502c0.305,0.236,0.561,0.574,0.754,1.016c0.195,0.441,0.289,1.018,0.289,1.748
			c0,0.369-0.033,0.791-0.1,1.248h-5.514c0,0.514,0.052,0.957,0.151,1.336c0.105,0.398,0.266,0.729,0.485,0.988
			c0.212,0.281,0.499,0.469,0.851,0.627c0.346,0.137,0.775,0.215,1.279,0.215c0.387,0,0.777-0.076,1.164-0.207
			c0.389-0.133,0.684-0.305,0.877-0.494L162.521,35.438z"/>
		<polygon clip-path="url(#SVGID_2_)" fill="#404041" points="170.459,28.754 167.762,28.754 167.762,36.141 166.387,36.141 
			166.387,28.754 163.688,28.754 163.688,27.549 170.459,27.549 		"/>
		<path clip-path="url(#SVGID_2_)" fill="#404041" d="M174.117,35.068c0.322,0,0.605-0.033,0.863-0.125
			c0.244-0.09,0.465-0.199,0.652-0.326c0.184-0.129,0.336-0.287,0.455-0.439c0.117-0.172,0.211-0.318,0.258-0.459v-1.428
			c-0.152-0.01-0.314-0.018-0.482-0.021c-0.174-0.004-0.33-0.027-0.49-0.027c-0.359,0-0.703,0.037-1.041,0.07
			c-0.338,0.031-0.639,0.113-0.891,0.223c-0.262,0.109-0.461,0.25-0.625,0.445c-0.15,0.195-0.23,0.43-0.23,0.725
			c0,0.387,0.146,0.717,0.432,0.988C173.309,34.943,173.67,35.068,174.117,35.068 M171.678,28.189
			c0.438-0.275,0.943-0.475,1.525-0.598c0.574-0.125,1.18-0.176,1.805-0.176c0.6,0,1.08,0.066,1.436,0.236
			c0.365,0.152,0.639,0.363,0.824,0.613c0.188,0.271,0.318,0.543,0.379,0.857c0.063,0.313,0.098,0.625,0.098,0.939
			c0,0.682-0.014,1.35-0.051,2.006c-0.039,0.654-0.053,1.26-0.053,1.859c0,0.406,0.014,0.814,0.053,1.184
			c0.037,0.389,0.088,0.736,0.184,1.059h-1.01l-0.357-1.205h-0.088c-0.104,0.172-0.23,0.32-0.387,0.467
			c-0.156,0.166-0.35,0.299-0.566,0.418c-0.209,0.117-0.465,0.221-0.75,0.305c-0.285,0.088-0.611,0.119-0.979,0.119
			c-0.373,0-0.709-0.066-1.02-0.18c-0.316-0.115-0.592-0.268-0.818-0.48c-0.23-0.215-0.412-0.463-0.545-0.766
			c-0.127-0.307-0.197-0.641-0.197-1.01c0-0.514,0.104-0.939,0.311-1.275s0.494-0.596,0.867-0.801
			c0.369-0.205,0.814-0.342,1.34-0.432c0.525-0.092,1.1-0.125,1.732-0.125h0.469c0.156,0,0.314,0.008,0.467,0.027
			c0.039-0.342,0.061-0.654,0.061-0.92c0-0.635-0.131-1.076-0.387-1.322c-0.246-0.246-0.705-0.369-1.367-0.369
			c-0.199,0-0.408,0.012-0.633,0.035c-0.221,0.025-0.451,0.078-0.682,0.123c-0.234,0.041-0.457,0.115-0.672,0.199
			c-0.211,0.061-0.4,0.15-0.557,0.248L171.678,28.189z"/>
		<polygon clip-path="url(#SVGID_2_)" fill="#404041" points="192.039,25.377 186.484,25.377 186.484,36.141 185.055,36.141 
			185.055,24.115 193.453,24.115 193.453,36.141 192.039,36.141 		"/>
		<path clip-path="url(#SVGID_2_)" fill="#404041" d="M199.559,28.545c-0.674,0-1.215,0.166-1.619,0.535
			c-0.412,0.352-0.652,0.947-0.738,1.811h4.268c0-0.873-0.164-1.471-0.496-1.816C200.635,28.707,200.166,28.545,199.559,28.545
			 M202.518,35.438c-0.352,0.287-0.779,0.504-1.303,0.656c-0.516,0.17-1.068,0.256-1.656,0.256c-0.645,0-1.219-0.105-1.703-0.318
			c-0.473-0.215-0.877-0.523-1.18-0.928c-0.314-0.383-0.541-0.85-0.693-1.398c-0.141-0.551-0.223-1.178-0.223-1.859
			c0-1.482,0.328-2.596,0.982-3.363c0.652-0.768,1.588-1.143,2.803-1.143c0.387,0,0.777,0.035,1.166,0.125
			c0.389,0.092,0.744,0.244,1.049,0.502c0.303,0.236,0.559,0.574,0.758,1.016c0.189,0.441,0.289,1.018,0.289,1.748
			c0,0.369-0.027,0.791-0.105,1.248h-5.516c0,0.514,0.053,0.957,0.158,1.336c0.105,0.398,0.264,0.729,0.484,0.988
			c0.219,0.281,0.5,0.469,0.846,0.627c0.357,0.137,0.775,0.215,1.277,0.215c0.398,0,0.779-0.076,1.178-0.207
			c0.377-0.133,0.678-0.305,0.877-0.494L202.518,35.438z"/>
		<polygon clip-path="url(#SVGID_2_)" fill="#404041" points="210.445,28.754 207.756,28.754 207.756,36.141 206.383,36.141 
			206.383,28.754 203.684,28.754 203.684,27.549 210.445,27.549 		"/>
		<path clip-path="url(#SVGID_2_)" fill="#404041" d="M215.279,28.545c-0.58,0-1.045,0.143-1.383,0.453
			c-0.338,0.309-0.582,0.766-0.715,1.391v4.248c0.209,0.172,0.441,0.293,0.709,0.363c0.264,0.092,0.609,0.145,1.047,0.145
			c0.787,0,1.42-0.301,1.881-0.883c0.459-0.604,0.688-1.473,0.688-2.611c0-0.465-0.033-0.895-0.117-1.289
			c-0.076-0.373-0.211-0.701-0.377-0.961c-0.186-0.279-0.412-0.49-0.691-0.633C216.039,28.625,215.695,28.545,215.279,28.545
			 M211.807,27.549h0.945l0.26,1.023h0.066c0.266-0.389,0.605-0.699,1.027-0.912c0.41-0.213,0.893-0.32,1.434-0.32
			c1.146,0,1.998,0.336,2.557,1.01c0.568,0.674,0.838,1.777,0.838,3.314c0,0.73-0.098,1.383-0.281,1.957s-0.453,1.074-0.793,1.463
			c-0.354,0.408-0.762,0.721-1.25,0.939c-0.48,0.219-1.021,0.326-1.621,0.326c-0.426,0-0.76-0.041-1.012-0.082
			c-0.24-0.063-0.51-0.135-0.795-0.279v3.586h-1.375V27.549z"/>
		<path clip-path="url(#SVGID_2_)" fill="#404041" d="M223.412,35.068c0.313,0,0.596-0.033,0.854-0.125
			c0.254-0.09,0.475-0.199,0.654-0.326c0.18-0.129,0.334-0.287,0.453-0.439c0.117-0.172,0.211-0.318,0.266-0.459v-1.428
			c-0.16-0.01-0.324-0.018-0.488-0.021c-0.168-0.004-0.332-0.027-0.492-0.027c-0.352,0-0.693,0.037-1.041,0.07
			c-0.336,0.031-0.631,0.113-0.891,0.223c-0.262,0.109-0.471,0.25-0.617,0.445c-0.156,0.195-0.23,0.43-0.23,0.725
			c0,0.387,0.139,0.717,0.432,0.988C222.584,34.943,222.955,35.068,223.412,35.068 M220.963,28.189
			c0.439-0.275,0.943-0.475,1.525-0.598c0.574-0.125,1.18-0.176,1.814-0.176c0.588,0,1.07,0.066,1.436,0.236
			c0.355,0.152,0.629,0.363,0.814,0.613c0.195,0.271,0.316,0.543,0.389,0.857c0.053,0.313,0.088,0.625,0.088,0.939
			c0,0.682-0.014,1.35-0.053,2.006c-0.027,0.654-0.051,1.26-0.051,1.859c0,0.406,0.023,0.814,0.051,1.184
			c0.039,0.389,0.1,0.736,0.195,1.059h-1.02l-0.367-1.205h-0.08c-0.104,0.172-0.229,0.32-0.385,0.467
			c-0.156,0.166-0.34,0.299-0.559,0.418c-0.217,0.117-0.465,0.221-0.76,0.305c-0.281,0.088-0.609,0.119-0.98,0.119
			c-0.361,0-0.699-0.066-1.016-0.18c-0.318-0.115-0.582-0.268-0.818-0.48c-0.229-0.215-0.406-0.463-0.533-0.766
			c-0.137-0.307-0.201-0.641-0.201-1.01c0-0.514,0.104-0.939,0.313-1.275c0.197-0.336,0.484-0.596,0.859-0.801
			c0.377-0.205,0.82-0.342,1.348-0.432c0.516-0.092,1.09-0.125,1.723-0.125h0.469c0.156,0,0.314,0.008,0.475,0.027
			c0.029-0.342,0.053-0.654,0.053-0.92c0-0.635-0.131-1.076-0.379-1.322c-0.246-0.246-0.711-0.369-1.375-0.369
			c-0.189,0-0.4,0.012-0.623,0.035c-0.223,0.025-0.451,0.078-0.693,0.123c-0.232,0.041-0.455,0.115-0.668,0.199
			c-0.213,0.061-0.395,0.15-0.557,0.248L220.963,28.189z"/>
		<path clip-path="url(#SVGID_2_)" fill="#404041" d="M236.67,29.408c0.189,0,0.432-0.006,0.695-0.035
			c0.287-0.01,0.514-0.023,0.695-0.041c0.273-0.096,0.523-0.207,0.773-0.336c0.234-0.127,0.453-0.295,0.635-0.459
			c0.195-0.186,0.35-0.395,0.455-0.627c0.1-0.232,0.164-0.48,0.164-0.766c0-0.369-0.076-0.684-0.215-0.926
			c-0.146-0.242-0.334-0.443-0.57-0.605c-0.248-0.143-0.521-0.248-0.836-0.301c-0.303-0.07-0.621-0.096-0.943-0.096
			c-0.381,0-0.725,0.006-1.041,0.021c-0.309,0.012-0.553,0.033-0.703,0.082v4.088H236.67z M237.613,35.041
			c0.369,0,0.721-0.055,1.063-0.125c0.34-0.092,0.65-0.223,0.904-0.418c0.277-0.193,0.479-0.424,0.635-0.689
			c0.158-0.285,0.229-0.613,0.229-0.98c0-0.486-0.098-0.855-0.279-1.15c-0.186-0.273-0.438-0.496-0.738-0.668
			c-0.307-0.15-0.645-0.26-1.025-0.328c-0.379-0.045-0.748-0.068-1.139-0.068h-1.482v4.311c0.074,0.018,0.189,0.031,0.34,0.041
			c0.143,0.01,0.314,0.018,0.475,0.029c0.182,0.029,0.355,0.035,0.537,0.041C237.32,35.039,237.471,35.041,237.613,35.041
			 M241.596,26.865c0,0.275-0.047,0.574-0.141,0.879c-0.086,0.283-0.229,0.57-0.408,0.822c-0.18,0.25-0.412,0.475-0.707,0.676
			c-0.283,0.199-0.621,0.34-1.01,0.443v0.078c0.342,0.047,0.672,0.146,0.99,0.299c0.318,0.133,0.582,0.326,0.832,0.564
			c0.246,0.236,0.436,0.535,0.586,0.877c0.143,0.342,0.223,0.732,0.223,1.219c0,0.605-0.133,1.145-0.396,1.596
			c-0.25,0.449-0.586,0.832-1.01,1.105c-0.422,0.295-0.893,0.51-1.434,0.641c-0.541,0.133-1.092,0.209-1.65,0.209h-0.684
			c-0.266,0-0.539-0.006-0.824-0.02c-0.283-0.016-0.578-0.055-0.854-0.078c-0.293-0.023-0.541-0.078-0.758-0.125v-11.83
			c0.426-0.078,0.91-0.123,1.469-0.182c0.559-0.037,1.182-0.076,1.846-0.076c0.447,0,0.898,0.051,1.357,0.111
			c0.471,0.082,0.885,0.219,1.275,0.432c0.367,0.213,0.686,0.516,0.926,0.885C241.475,25.779,241.596,26.258,241.596,26.865"/>
		<path clip-path="url(#SVGID_2_)" fill="#404041" d="M247.557,28.545c-0.672,0-1.215,0.166-1.617,0.535
			c-0.414,0.352-0.654,0.947-0.738,1.811h4.268c0-0.873-0.176-1.471-0.508-1.816C248.629,28.707,248.164,28.545,247.557,28.545
			 M250.506,35.438c-0.34,0.287-0.775,0.504-1.291,0.656c-0.518,0.17-1.07,0.256-1.658,0.256c-0.652,0-1.219-0.105-1.703-0.318
			c-0.471-0.215-0.877-0.523-1.18-0.928c-0.313-0.383-0.539-0.85-0.691-1.398c-0.143-0.551-0.225-1.178-0.225-1.859
			c0-1.482,0.328-2.596,0.982-3.363s1.59-1.143,2.805-1.143c0.387,0,0.777,0.035,1.164,0.125c0.391,0.092,0.746,0.244,1.049,0.502
			c0.303,0.236,0.561,0.574,0.748,1.016c0.199,0.441,0.301,1.018,0.301,1.748c0,0.369-0.039,0.791-0.105,1.248h-5.516
			c0,0.514,0.053,0.957,0.156,1.336c0.105,0.398,0.266,0.729,0.484,0.988c0.219,0.281,0.502,0.469,0.848,0.627
			c0.355,0.137,0.775,0.215,1.277,0.215c0.389,0,0.777-0.076,1.176-0.207c0.379-0.133,0.68-0.305,0.877-0.494L250.506,35.438z"/>
		<path clip-path="url(#SVGID_2_)" fill="#404041" d="M257.213,28.754h-2.49c-0.037,0.473-0.066,0.998-0.105,1.553
			c-0.037,0.555-0.078,1.109-0.156,1.664c-0.064,0.555-0.15,1.09-0.264,1.588c-0.123,0.518-0.273,0.965-0.439,1.365
			c-0.186,0.377-0.402,0.693-0.654,0.926c-0.26,0.232-0.57,0.348-0.922,0.348c-0.219,0-0.402-0.008-0.574-0.027
			c-0.152-0.02-0.297-0.072-0.422-0.119l0.199-1.162c0.143,0.057,0.293,0.076,0.445,0.076c0.238,0,0.436-0.1,0.625-0.299
			c0.182-0.18,0.342-0.563,0.475-1.107c0.143-0.545,0.258-1.281,0.352-2.25c0.086-0.967,0.156-2.213,0.186-3.76h5.121v8.592h-1.375
			V28.754z"/>
		<polygon clip-path="url(#SVGID_2_)" fill="#404041" points="266.594,31.059 266.645,29.986 266.594,29.986 265.896,31.086 
			262.023,36.141 261.234,36.141 261.234,27.549 262.607,27.549 262.607,32.777 262.557,33.809 262.623,33.809 263.291,32.736 
			267.156,27.549 267.967,27.549 267.967,36.141 266.594,36.141 		"/>
		<polygon clip-path="url(#SVGID_2_)" fill="#404041" points="272.775,32.277 271.988,32.277 271.988,36.141 270.615,36.141 
			270.615,27.549 271.988,27.549 271.988,31.428 272.723,31.191 275.475,27.549 276.969,27.549 274.307,30.996 273.588,31.559 
			274.479,32.242 277.348,36.141 275.645,36.141 		"/>
		<path clip-path="url(#SVGID_2_)" fill="#404041" d="M279.586,31.846c0,0.436,0.035,0.836,0.125,1.246
			c0.09,0.408,0.223,0.754,0.402,1.059c0.178,0.283,0.426,0.541,0.719,0.711c0.305,0.189,0.66,0.283,1.088,0.283
			c1.555,0.01,2.332-1.09,2.332-3.299c0-0.447-0.035-0.873-0.127-1.281c-0.088-0.389-0.219-0.754-0.408-1.039
			c-0.18-0.303-0.418-0.537-0.713-0.723c-0.303-0.166-0.658-0.258-1.084-0.258C280.363,28.535,279.586,29.635,279.586,31.846
			 M278.158,31.846c0-1.451,0.326-2.584,0.965-3.357c0.65-0.771,1.582-1.148,2.797-1.148c0.645,0,1.201,0.107,1.67,0.32
			c0.479,0.213,0.871,0.521,1.184,0.904c0.305,0.404,0.531,0.873,0.682,1.428c0.143,0.555,0.225,1.18,0.225,1.854
			c0,1.449-0.326,2.563-0.975,3.336c-0.641,0.771-1.574,1.168-2.785,1.168c-0.646,0-1.205-0.105-1.674-0.318
			c-0.477-0.215-0.869-0.523-1.184-0.928c-0.313-0.383-0.539-0.852-0.682-1.406C278.23,33.121,278.158,32.518,278.158,31.846"/>
		<polygon clip-path="url(#SVGID_2_)" fill="#404041" points="292.859,28.754 289.217,28.754 289.217,36.141 287.842,36.141 
			287.842,27.549 292.859,27.549 		"/>
		<path clip-path="url(#SVGID_2_)" fill="#404041" d="M294.85,31.846c0,0.436,0.047,0.836,0.125,1.246
			c0.09,0.408,0.223,0.754,0.412,1.059c0.18,0.283,0.426,0.541,0.721,0.711c0.293,0.189,0.658,0.283,1.074,0.283
			c1.568,0.01,2.346-1.09,2.346-3.299c0-0.447-0.047-0.873-0.139-1.281c-0.078-0.389-0.219-0.754-0.395-1.039
			c-0.184-0.303-0.422-0.537-0.725-0.723c-0.293-0.166-0.66-0.258-1.088-0.258C295.627,28.535,294.85,29.635,294.85,31.846
			 M293.422,31.846c0-1.451,0.326-2.584,0.975-3.357c0.652-0.771,1.572-1.148,2.785-1.148c0.646,0,1.205,0.107,1.684,0.32
			s0.871,0.521,1.174,0.904c0.313,0.404,0.539,0.873,0.691,1.428s0.223,1.18,0.223,1.854c0,1.449-0.324,2.563-0.973,3.336
			c-0.643,0.771-1.584,1.168-2.799,1.168c-0.633,0-1.191-0.105-1.67-0.318c-0.469-0.215-0.871-0.523-1.174-0.928
			c-0.313-0.383-0.539-0.852-0.691-1.406C293.504,33.121,293.422,32.518,293.422,31.846"/>
		<path clip-path="url(#SVGID_2_)" fill="#39B54A" d="M19.344,0.021c-3.348,0-8.862,0.139-12.061,0.524
			c-4.429,0.536-6.182,2.831-6.666,7C0.251,10.746,0,15.365,0,19.676c0,4.32,0.078,8.968,0.618,12.15
			c0.704,4.133,2.651,6.33,6.666,6.979c3.177,0.498,9.035,0.535,12.061,0.535c3.022,0,8.885-0.037,12.061-0.535
			c4.016-0.648,5.916-2.828,6.667-6.979c0.564-3.178,0.617-8.031,0.617-12.15c0-4.121-0.363-9.584-0.617-12.13
			c-0.437-4.313-2.3-6.417-6.667-7C28.21,0.128,22.693,0.021,19.344,0.021"/>
		<path clip-path="url(#SVGID_2_)" fill="#FFFFFF" d="M32.929,4.459c0.869,0.37,2.357,2.589,2.013,5.024
			c-1.671,1.351-3.69,2.316-5.629,2.626v15.529h5.776c-0.017,2.371-0.369,4.303-0.764,4.992H23.734V12.35h-7.361v12.107
			c0,6.092-3.438,9.094-7.813,9.094c-1.222,0-2.705-0.143-3.965-0.502c-0.58-0.813-0.866-3.166-0.931-6.111
			c2.913,1.424,6.862,2.078,7.195-2.48V13.114c-4.437,0.491-6.069,3.592-7.583,5.66c0.033-2.788,0.181-5.284,0.313-6.979
			c3.034-3.259,6.421-4.793,13.107-4.793h9.569C28.577,7.002,30.822,6.139,32.929,4.459"/>
		
			<rect x="58.503" y="0.916" clip-path="url(#SVGID_2_)" fill-rule="evenodd" clip-rule="evenodd" fill="#939598" width="1.912" height="37.529"/>
	</g>
</g>
</svg>
